<svg preserveAspectRatio="none" width="100%" height="100%" overflow="visible" style="display: block;" viewBox="0 0 24 24" fill="none" xmlns="http://www.w3.org/2000/svg">
<g id="Frame 2147225116">
<path id="Vector" d="M3.61905 1C2.17883 1 1 2.17883 1 3.61905V20.381C1 21.8212 2.17883 23 3.61905 23H20.381C21.8212 23 23 21.8212 23 20.381V3.61905C23 2.17883 21.8212 1 20.381 1H3.61905ZM3.61905 2.04762H7.06576C5.19519 3.99393 4.14286 6.50947 4.14286 9.11905C4.14286 11.8219 5.24818 14.4094 7.23865 16.3685C7.30151 16.4785 7.35377 17.0179 7.11282 17.6412C6.96091 18.034 6.65698 18.5472 6.07031 18.741C5.84508 18.8143 5.69857 19.0352 5.71429 19.2709C5.73 19.5066 5.90327 19.7056 6.13374 19.7528C7.63708 20.0514 8.61058 19.6005 9.3963 19.2443C10.1034 18.9196 10.5703 18.6993 11.2879 18.9927C12.7546 19.5636 14.3152 19.8571 15.9286 19.8571C18.0729 19.8571 20.1355 19.3337 21.9524 18.3451V20.381C21.9524 21.2549 21.2549 21.9524 20.381 21.9524H3.61905C2.74508 21.9524 2.04762 21.2549 2.04762 20.381V3.61905C2.04762 2.74508 2.74508 2.04762 3.61905 2.04762ZM16.1905 6.76191C16.4786 6.76191 16.7143 6.99762 16.7143 7.28571V12C16.7143 12.2881 16.4786 12.5238 16.1905 12.5238C15.9024 12.5238 15.6667 12.2881 15.6667 12V7.28571C15.6667 6.99762 15.9024 6.76191 16.1905 6.76191ZM8.33333 7.28571H10.9524C11.141 7.28571 11.3195 7.39023 11.4138 7.55785C11.5028 7.72023 11.4969 7.92439 11.3974 8.08677L9.2766 11.4762H10.9524C11.2405 11.4762 11.4762 11.7119 11.4762 12C11.4762 12.2881 11.2405 12.5238 10.9524 12.5238H8.33333C8.14476 12.5238 7.96622 12.4193 7.87193 12.2517C7.78288 12.0893 7.78878 11.8851 7.8883 11.7227L10.0091 8.33333H8.33333C8.04524 8.33333 7.80952 8.09762 7.80952 7.80952C7.80952 7.52143 8.04524 7.28571 8.33333 7.28571ZM13.3095 8.85714C13.629 8.85714 13.9273 8.94578 14.1945 9.09245C14.2888 8.95626 14.4357 8.85714 14.619 8.85714C14.9071 8.85714 15.1429 9.09286 15.1429 9.38095V12C15.1429 12.2881 14.9071 12.5238 14.619 12.5238C14.4357 12.5238 14.2888 12.4247 14.1945 12.2885C13.9273 12.4352 13.629 12.5238 13.3095 12.5238C12.2986 12.5238 11.4762 11.7014 11.4762 10.6905C11.4762 9.67952 12.2986 8.85714 13.3095 8.85714ZM19.0714 8.85714C20.0824 8.85714 20.9048 9.67952 20.9048 10.6905C20.9048 11.7014 20.0824 12.5238 19.0714 12.5238C18.0605 12.5238 17.2381 11.7014 17.2381 10.6905C17.2381 9.67952 18.0605 8.85714 19.0714 8.85714ZM13.3095 9.90476C13.2552 9.90476 13.2022 9.91069 13.1509 9.92113C13.0485 9.94202 12.9532 9.98237 12.8696 10.0388C12.786 10.0952 12.7142 10.167 12.6578 10.2506C12.6014 10.3341 12.5611 10.4295 12.5402 10.5319C12.5297 10.5831 12.5238 10.6361 12.5238 10.6905C12.5238 10.7448 12.5297 10.7978 12.5402 10.8491C12.5506 10.9003 12.5653 10.9494 12.5852 10.9964C12.605 11.0434 12.6296 11.0886 12.6578 11.1304C12.686 11.1722 12.7185 11.2105 12.754 11.246C12.7895 11.2815 12.8278 11.314 12.8696 11.3422C12.9532 11.3986 13.0485 11.4389 13.1509 11.4598C13.2022 11.4703 13.2552 11.4762 13.3095 11.4762C13.3639 11.4762 13.4169 11.4703 13.4681 11.4598C13.8265 11.3867 14.0952 11.0709 14.0952 10.6905C14.0952 10.2557 13.7443 9.90476 13.3095 9.90476ZM19.0714 9.90476C19.0171 9.90476 18.9641 9.91069 18.9129 9.92113C18.8616 9.93158 18.8126 9.9463 18.7655 9.96615C18.7185 9.98599 18.6733 10.0106 18.6315 10.0388C18.5897 10.067 18.5514 10.0994 18.5159 10.135C18.4449 10.206 18.3868 10.2905 18.3471 10.3846C18.3273 10.4316 18.3125 10.4807 18.3021 10.5319C18.2916 10.5831 18.2857 10.6361 18.2857 10.6905C18.2857 10.7448 18.2916 10.7978 18.3021 10.8491C18.3125 10.9003 18.3273 10.9494 18.3471 10.9964C18.3669 11.0434 18.3915 11.0886 18.4197 11.1304C18.4479 11.1722 18.4804 11.2105 18.5159 11.246C18.5514 11.2815 18.5897 11.314 18.6315 11.3422C18.6733 11.3704 18.7185 11.395 18.7655 11.4148C18.8126 11.4347 18.8616 11.4494 18.9129 11.4598C18.9641 11.4703 19.0171 11.4762 19.0714 11.4762C19.1258 11.4762 19.1788 11.4703 19.23 11.4598C19.5884 11.3867 19.8571 11.0709 19.8571 10.6905C19.8571 10.2557 19.5062 9.90476 19.0714 9.90476Z" fill="var(--fill-0, white)"/>
</g>
</svg>
