<svg preserveAspectRatio="none" width="100%" height="100%" overflow="visible" style="display: block;" viewBox="0 0 82.584 17.293" fill="none" xmlns="http://www.w3.org/2000/svg">
<g id="App Store">
<path d="M51.7809 1.56963V4.08974H50.2013V5.74243H51.7809V11.3579C51.7809 13.2754 52.6483 14.0424 54.8306 14.0424C55.2141 14.0424 55.5793 13.9967 55.8989 13.9419V12.3075C55.625 12.3349 55.4515 12.3532 55.1502 12.3532C54.1732 12.3532 53.744 11.8966 53.744 10.8557V5.74243H55.8989V4.08974H53.744V1.56963H51.7809Z" fill="var(--fill-0, black)"/>
<path d="M61.4581 14.1793C64.3618 14.1793 66.1423 12.2345 66.1423 9.01128C66.1423 5.80635 64.3526 3.85234 61.4581 3.85234C58.5545 3.85234 56.7649 5.80635 56.7649 9.01128C56.7649 12.2345 58.5454 14.1793 61.4581 14.1793ZM61.4581 12.4353C59.7507 12.4353 58.7919 11.1844 58.7919 9.01128C58.7919 6.85639 59.7507 5.59634 61.4581 5.59634C63.1565 5.59634 64.1244 6.85639 64.1244 9.01128C64.1244 11.1753 63.1565 12.4353 61.4581 12.4353Z" fill="var(--fill-0, black)"/>
<path d="M67.6657 13.9876H69.6288V8.11645C69.6288 6.71943 70.6788 5.77895 72.1672 5.77895C72.5141 5.77895 73.0985 5.84287 73.2629 5.89765V3.96191C73.0529 3.90713 72.6785 3.87973 72.3863 3.87973C71.0897 3.87973 69.9849 4.59194 69.7018 5.56894H69.5557V4.04409H67.6657V13.9876Z" fill="var(--fill-0, black)"/>
<path d="M78.1373 5.52329C79.5891 5.52329 80.5387 6.53681 80.5844 8.09819H75.5624C75.672 6.54595 76.6855 5.52329 78.1373 5.52329ZM80.5752 11.3031C80.21 12.0792 79.3974 12.5084 78.2103 12.5084C76.6398 12.5084 75.6263 11.4036 75.5624 9.65957V9.55H82.584V8.86518C82.584 5.74243 80.9131 3.85234 78.1464 3.85234C75.3433 3.85234 73.5627 5.87026 73.5627 9.0478C73.5627 12.2253 75.3067 14.1793 78.1556 14.1793C80.4291 14.1793 82.0179 13.0836 82.4653 11.3031H80.5752Z" fill="var(--fill-0, black)"/>
<path d="M38.9069 10.3156C39.0584 12.7573 41.0931 14.3188 44.1215 14.3188C47.3582 14.3188 49.3834 12.6816 49.3834 10.0696C49.3834 8.0159 48.2289 6.88023 45.4276 6.22722L43.9228 5.85813C42.1436 5.44172 41.4243 4.88336 41.4243 3.90858C41.4243 2.67827 42.5411 1.87385 44.2162 1.87385C45.8061 1.87385 46.9039 2.65935 47.1027 3.91804H49.1658C49.0428 1.61832 47.0175 0 44.2446 0C41.2635 0 39.276 1.61832 39.276 4.05053C39.276 6.05687 40.4022 7.24932 42.8723 7.82662L44.6326 8.25249C46.4402 8.67837 47.2351 9.30298 47.2351 10.344C47.2351 11.5554 45.9859 12.4355 44.2824 12.4355C42.4559 12.4355 41.1877 11.6122 41.0079 10.3156H38.9069Z" fill="var(--fill-0, black)"/>
<path d="M18.5709 3.87973C17.2195 3.87973 16.0508 4.55542 15.4481 5.68764H15.302V4.04409H13.4119V17.293H15.3751V12.481H15.5303C16.0508 13.5311 17.1739 14.152 18.5891 14.152C21.1001 14.152 22.698 12.1706 22.698 9.01128C22.698 5.852 21.1001 3.87973 18.5709 3.87973ZM18.0139 12.3897C16.3703 12.3897 15.3386 11.0931 15.3386 9.02041C15.3386 6.93857 16.3703 5.64199 18.023 5.64199C19.6848 5.64199 20.6801 6.91118 20.6801 9.01128C20.6801 11.1205 19.6848 12.3897 18.0139 12.3897Z" fill="var(--fill-0, black)"/>
<path d="M29.5674 3.87973C28.216 3.87973 27.0472 4.55542 26.4446 5.68764H26.2985V4.04409H24.4084V17.293H26.3716V12.481H26.5268C27.0472 13.5311 28.1703 14.152 29.5856 14.152C32.0966 14.152 33.6945 12.1706 33.6945 9.01128C33.6945 5.852 32.0966 3.87973 29.5674 3.87973ZM29.0104 12.3897C27.3668 12.3897 26.335 11.0931 26.335 9.02041C26.335 6.93857 27.3668 5.64199 29.0195 5.64199C30.6813 5.64199 31.6766 6.91118 31.6766 9.01128C31.6766 11.1205 30.6813 12.3897 29.0104 12.3897Z" fill="var(--fill-0, black)"/>
<path d="M9.88974 13.9876H12.1421L7.21147 0.331235H4.93068L0 13.9876H2.17669L3.43538 10.3629H8.64051L9.88974 13.9876ZM5.96224 2.81077H6.12312L8.10107 8.58373H3.97482L5.96224 2.81077Z" fill="var(--fill-0, black)"/>
</g>
</svg>
