<svg preserveAspectRatio="none" width="100%" height="100%" overflow="visible" style="display: block;" viewBox="0 0 32.9755 27.0519" fill="none" xmlns="http://www.w3.org/2000/svg">
<g id="Group 1321314363">
<path id="Vector" d="M11.3013 0H5.84676C5.80827 0.000143136 5.77052 0.0106 5.73744 0.0302822C5.70436 0.0499645 5.67716 0.0781524 5.65867 0.111913L3.59532e-07 10.4832V13.2105C-0.000123202 13.3721 0.0316031 13.5321 0.0933663 13.6815C0.155129 13.8308 0.245719 13.9666 0.359957 14.0809C0.474195 14.1952 0.609843 14.2859 0.759147 14.3478C0.908451 14.4097 1.06849 14.4415 1.2301 14.4415H5.08594C5.65969 14.4412 6.21793 14.2551 6.67717 13.9112C7.1364 13.5672 7.47194 13.0838 7.63361 12.5333L11.3013 0Z" fill="var(--fill-0, #21D4D4)"/>
<path id="Vector_2" d="M21.6741 0H27.1287C27.1672 0.000143136 27.2049 0.0106 27.238 0.0302822C27.2711 0.0499644 27.2983 0.0781524 27.3168 0.111913L32.9754 10.4832V13.2105C32.9762 13.5368 32.8473 13.8501 32.6172 14.0814C32.3871 14.3128 32.0745 14.4433 31.7482 14.4443H27.8923C27.3177 14.4444 26.7586 14.2583 26.2987 13.9137C25.8389 13.5692 25.5031 13.0848 25.3418 12.5333L21.6741 0Z" fill="var(--fill-0, #21D4D4)"/>
<path id="Vector_3" d="M22.7678 10.7042L19.7818 0H13.1592L10.1733 10.7042C10.1485 10.7951 10.1548 10.8918 10.1912 10.9788L10.9642 12.8155C11.1679 13.2982 11.5094 13.7101 11.946 13.9998C12.3826 14.2895 12.8948 14.4441 13.4188 14.4443H19.5223C20.0459 14.4438 20.5578 14.289 20.9939 13.9993C21.4301 13.7096 21.7713 13.2979 21.975 12.8155L22.7499 10.9788C22.7867 10.8919 22.793 10.7951 22.7678 10.7042Z" fill="var(--fill-0, #21D4D4)"/>
<path id="Vector_4" d="M28.518 16.6083C27.2554 16.6102 26.0275 16.1949 25.0252 15.4271V23.2619H7.95517V15.4271C6.95257 16.1951 5.72434 16.6103 4.46141 16.6083C4.36736 16.6083 4.26297 16.6083 4.16517 16.6008V25.7814C4.16517 26.1184 4.29903 26.4415 4.5373 26.6798C4.77557 26.9181 5.09874 27.0519 5.43571 27.0519H27.5447C27.8816 27.0519 28.2048 26.9181 28.4431 26.6798C28.6814 26.4415 28.8152 26.1184 28.8152 25.7814V16.6008C28.7174 16.6055 28.6177 16.6083 28.518 16.6083Z" fill="var(--fill-0, #21D4D4)"/>
</g>
</svg>
