<svg preserveAspectRatio="none" width="100%" height="100%" overflow="visible" style="display: block;" viewBox="0 0 112 26" fill="none" xmlns="http://www.w3.org/2000/svg">
<g id="SVG">
<path id="Vector" d="M29.206 18.265C29.206 18.579 29.081 18.881 28.86 19.103L23.551 24.412C23.4849 24.4787 23.4004 24.5242 23.3084 24.5428C23.2163 24.5613 23.1208 24.552 23.034 24.5161C22.9473 24.4802 22.8732 24.4192 22.8211 24.341C22.7691 24.2628 22.7416 24.1709 22.742 24.077V12.19L29.134 5.835H29.208L29.206 18.265Z" fill="var(--fill-0, #1D1D20)"/>
<path id="Vector_2" d="M24.9666 1.58983C24.8777 1.50105 24.7572 1.45117 24.6316 1.45117C24.5059 1.45117 24.3854 1.50105 24.2966 1.58983L16.4026 9.48283H16.2926V18.3908L16.4026 18.6248L29.2026 5.82483L24.9666 1.58983ZM3.60156 18.2648C3.60156 18.5808 3.72656 18.8808 3.94856 19.1028L9.25656 24.4118C9.32261 24.4789 9.40716 24.5247 9.4994 24.5435C9.59163 24.5622 9.68737 24.553 9.77435 24.517C9.86132 24.4811 9.93559 24.42 9.98765 24.3415C10.0397 24.2631 10.0672 24.171 10.0666 24.0768V12.1898L3.67656 5.83583H3.60256L3.60156 18.2648Z" fill="var(--fill-0, #1D1D20)"/>
<path id="Vector_3" d="M8.50956 1.58983C8.42068 1.50105 8.30019 1.45117 8.17456 1.45117C8.04893 1.45117 7.92844 1.50105 7.83956 1.58983L3.60156 5.82584L16.4016 18.6258V9.48384L8.51056 1.58983H8.50956ZM37.1486 18.2648V6.40683H40.3086V7.99883C41.0386 6.79083 42.0986 6.18583 43.5356 6.18583C44.9726 6.18583 46.0556 6.80584 46.8286 8.08584C48.0666 6.78284 49.0166 6.18583 50.4966 6.18583C53.1706 6.18583 54.6746 7.68783 54.6746 10.4518V18.2748H51.2716V11.8438C51.2716 10.1858 50.9186 9.43484 49.6146 9.43484C48.2876 9.43484 47.5716 10.2518 47.5716 11.8438V18.2748H44.1356V11.8438C44.1356 10.1858 43.7826 9.43484 42.4776 9.43484C41.1516 9.43484 40.4356 10.2518 40.4356 11.8438V18.2748L37.1486 18.2648ZM58.8766 7.94383C59.5249 7.28734 60.3103 6.78226 61.1766 6.46472C62.0429 6.14717 62.9687 6.02503 63.8877 6.10701C64.8067 6.18899 65.6962 6.47308 66.4927 6.93895C67.2891 7.40482 67.9727 8.04095 68.4946 8.80184C69.1936 9.81863 69.5769 11.0191 69.5966 12.2528C69.5966 14.0428 68.9986 15.5228 67.8066 16.7178C67.2212 17.3183 66.5193 17.7927 65.7439 18.1121C64.9685 18.4314 64.136 18.5889 63.2976 18.5748C61.4846 18.5748 60.0276 17.9548 58.8106 16.6748C57.6754 15.5023 57.0481 13.9297 57.0646 12.2978C57.0615 11.488 57.2201 10.6857 57.5313 9.93803C57.8425 9.19035 58.2998 8.51235 58.8766 7.94383ZM63.3186 15.2588C64.8656 15.2588 66.1256 13.9548 66.1256 12.3408C66.1256 10.7048 64.8656 9.40283 63.3186 9.40283C61.7716 9.40283 60.5116 10.7058 60.5116 12.3408C60.5116 13.9548 61.7936 15.2588 63.3186 15.2588ZM71.9846 18.2648V6.40683H75.2996L75.2546 7.99883C75.9846 6.80483 77.0886 6.18583 78.6576 6.18583C81.1116 6.18583 82.7026 7.73283 82.7026 10.4518V18.2748H79.2116V11.8438C79.2116 10.1858 78.8586 9.43484 77.5096 9.43484C76.1396 9.43484 75.4106 10.2518 75.4106 11.8438V18.2748L71.9846 18.2648ZM97.6646 7.94383C98.3128 7.287 99.0983 6.78161 99.9647 6.46386C100.831 6.1461 101.757 6.02385 102.676 6.10584C103.595 6.18783 104.485 6.47204 105.282 6.93812C106.078 7.40421 106.762 8.04063 107.284 8.80184C107.982 9.81863 108.365 11.0192 108.385 12.2528C108.385 14.0428 107.788 15.5228 106.594 16.7178C106.008 17.3182 105.307 17.7926 104.531 18.112C103.756 18.4313 102.924 18.5888 102.086 18.5748C100.274 18.5748 98.8146 17.9548 97.5986 16.6748C96.4637 15.5022 95.8368 13.9296 95.8536 12.2978C95.8503 11.4881 96.0088 10.6858 96.3198 9.93814C96.6308 9.19047 97.088 8.51244 97.6646 7.94383ZM102.108 15.2588C103.655 15.2588 104.915 13.9548 104.915 12.3408C104.915 10.7048 103.655 9.40283 102.108 9.40283C100.561 9.40283 99.3006 10.7058 99.3006 12.3408C99.3006 13.9548 100.582 15.2588 102.108 15.2588ZM85.3376 18.2648V15.7888L90.2216 9.46883H85.3366V6.40683H94.1546V9.21383L89.8466 15.2038H94.2436V18.2748L85.3366 18.2648H85.3376Z" fill="var(--fill-0, #1D1D20)"/>
</g>
</svg>
