<svg preserveAspectRatio="none" width="100%" height="100%" overflow="visible" style="display: block;" viewBox="0 0 141 32" fill="none" xmlns="http://www.w3.org/2000/svg">
<g id="SVG" clip-path="url(#clip0_10293_21962)">
<path id="Vector" d="M48.7506 11.0921C48.7506 10.4261 48.2366 9.88007 47.5186 9.88007C46.7986 9.88007 46.2856 10.4261 46.2856 11.0921V20.9251C46.2856 21.5911 46.7996 22.1371 47.5186 22.1371C48.2546 22.1371 48.7506 21.5911 48.7506 20.9251V11.0921ZM60.8866 9.88007C60.1686 9.88007 59.6716 10.4261 59.6716 11.0921V15.2921L59.7406 19.0471L58.2506 15.5301L56.3006 11.5361C55.7006 10.2901 55.0166 9.88007 54.0406 9.88007C52.6026 9.88007 51.9696 10.7851 51.9696 12.0821V20.9251C51.9696 21.5911 52.4656 22.1371 53.1846 22.1371C53.9036 22.1371 54.3996 21.5911 54.3996 20.9251L54.3826 16.7771L54.3316 12.5261L55.9236 16.4181L57.8916 20.4811C58.5086 21.7791 59.1586 22.1541 60.1516 22.1541C61.4356 22.1541 62.1026 21.3691 62.1026 19.9181V11.0921C62.1026 10.4261 61.6056 9.88007 60.8866 9.88007ZM71.1916 12.3901L73.9816 12.4571C74.6326 12.4741 75.1466 11.9791 75.1466 11.2621C75.1466 10.5451 74.6326 10.0501 73.9826 10.0501L65.9026 10.0331C65.2696 10.0331 64.7386 10.5281 64.7386 11.2451C64.7386 11.9621 65.2686 12.4571 65.9026 12.4401L68.7096 12.3901V20.9251C68.7096 21.5911 69.2236 22.1371 69.9426 22.1371C70.6786 22.1371 71.1926 21.5911 71.1926 20.9251V12.3891L71.1916 12.3901ZM79.4606 21.9841H85.4686C86.1026 21.9841 86.6156 21.5061 86.6156 20.8401C86.6156 20.1571 86.1026 19.6801 85.4686 19.6801L80.2486 19.6961V16.8461H84.7676C85.3836 16.8461 85.8796 16.3841 85.8796 15.7531C85.8796 15.1031 85.3836 14.6431 84.7676 14.6431L80.2476 14.6771V12.3211H85.4686C86.1026 12.3211 86.6156 11.8431 86.6156 11.1611C86.6156 10.4771 86.1026 10.0171 85.4686 10.0171L79.4786 10.0341C78.3826 10.0341 77.7656 10.6481 77.7656 11.7411V20.2771C77.7656 21.3691 78.3826 21.9841 79.4606 21.9841ZM96.4016 17.1181C98.0276 16.6911 98.9866 15.4281 98.9866 13.7551C98.9866 11.8941 97.7706 10.0331 94.8606 10.0331H91.0946C89.9996 10.0331 89.3836 10.6481 89.3836 11.7401V20.9251C89.3836 21.5911 89.8966 22.1371 90.6496 22.1371C91.3856 22.1371 91.9166 21.5911 91.9166 20.9251L91.8996 17.7151H93.9706L96.0766 21.5051C96.4186 22.0851 97.1366 22.3251 97.8056 21.9831C98.4726 21.6251 98.6606 20.9081 98.3016 20.3281L96.4016 17.1181ZM91.8996 12.3041H94.8776C95.8876 12.3041 96.5216 12.9351 96.5216 13.8741C96.5216 14.7961 95.9216 15.4791 94.9116 15.4791H91.8996V12.3041ZM106.553 22.2051C109.052 22.2051 110.661 21.0781 111.209 19.2521C111.5 18.2101 110.884 17.4591 109.959 17.4591C109.395 17.4591 109.018 17.7491 108.795 18.3811C108.453 19.3371 107.614 19.9351 106.416 19.9351C104.516 19.9351 103.694 18.6551 103.694 15.9911C103.694 13.3791 104.533 12.1331 106.416 12.1331C107.597 12.1331 108.282 12.6281 108.71 13.7721C108.95 14.4211 109.343 14.7111 109.925 14.7111C110.815 14.7111 111.466 13.9941 111.192 13.0041C110.644 10.9891 109.052 9.86207 106.485 9.86207C102.958 9.86207 101.161 12.0131 101.161 15.9911C101.161 20.0031 102.958 22.2051 106.553 22.2051ZM118.726 22.1711C122.355 22.1711 124.153 19.9521 124.153 15.9911C124.153 11.9971 122.304 9.79407 118.726 9.79407C115.132 9.79407 113.334 12.0311 113.317 15.9911C113.317 19.9691 115.149 22.1711 118.726 22.1711ZM118.726 19.8841C116.707 19.8841 115.834 18.6041 115.834 15.9911C115.834 13.3451 116.724 12.0651 118.709 12.0651C120.712 12.0651 121.654 13.3451 121.636 15.9911C121.636 18.6211 120.746 19.8841 118.726 19.8841ZM140.086 12.0131C140.086 10.6651 139.247 9.86307 137.946 9.86307C136.885 9.86307 136.08 10.4431 135.687 11.7741L134.369 16.0591L133.496 19.1491L132.657 16.0591L131.253 11.7741C130.859 10.5281 130.175 9.86207 128.977 9.86207C127.658 9.86207 126.837 10.6481 126.837 12.0131V20.9251C126.837 21.5911 127.316 22.1371 128.018 22.1371C128.72 22.1371 129.199 21.5911 129.199 20.9251L129.182 16.6231L129.062 12.0131L130.414 16.7251L131.852 20.8901C132.16 21.8121 132.742 22.1201 133.496 22.1201C134.197 22.1201 134.762 21.8641 135.053 20.9251L136.423 16.7251L137.878 11.9791L137.741 16.6231V20.9251C137.741 21.5911 138.237 22.1371 138.922 22.1371C139.624 22.1371 140.103 21.5911 140.103 20.9251L140.086 12.0131ZM28.4346 17.6051C28.4346 17.8891 28.3226 18.1621 28.1226 18.3631C28.024 18.4624 27.9068 18.5412 27.7776 18.595C27.6485 18.6488 27.51 18.6765 27.3701 18.6765C27.2302 18.6765 27.0916 18.6488 26.9625 18.595C26.8333 18.5412 26.7161 18.4624 26.6176 18.3631C26.4177 18.1614 26.3056 17.889 26.3056 17.6051V8.02207C26.3056 7.73707 26.4176 7.46407 26.6176 7.26307C26.7161 7.16375 26.8333 7.08491 26.9625 7.03112C27.0916 6.97732 27.2302 6.94962 27.3701 6.94962C27.51 6.94962 27.6485 6.97732 27.7776 7.03112C27.9068 7.08491 28.024 7.16375 28.1226 7.26307C28.3226 7.46407 28.4346 7.73707 28.4346 8.02207V17.6051ZM28.0646 24.2451C27.9246 24.3871 23.9666 27.7111 16.7096 27.7111C9.45256 27.7111 5.52056 24.4041 5.35356 24.2621C5.19417 24.1271 5.07847 23.9478 5.02114 23.747C4.96381 23.5462 4.96744 23.3328 5.03156 23.1341C5.07363 23.0019 5.14125 22.8792 5.23056 22.7731C5.41382 22.56 5.67408 22.4282 5.9543 22.4067C6.23453 22.3851 6.51187 22.4755 6.72556 22.6581C6.78756 22.7021 10.3236 25.5921 16.7006 25.5921C23.0776 25.5921 26.6406 22.6841 26.6756 22.6581C26.8913 22.4762 27.1698 22.3864 27.4511 22.4079C27.7324 22.4294 27.994 22.5606 28.1796 22.7731C28.3588 22.9847 28.4481 23.2581 28.4283 23.5347C28.4085 23.8113 28.2812 24.0692 28.0736 24.2531L28.0646 24.2451ZM4.97656 8.02207C4.99256 7.73607 5.11956 7.46907 5.33056 7.27807C5.54156 7.08707 5.81956 6.98807 6.10256 7.00207C6.36456 7.01707 6.61256 7.13007 6.79756 7.31807C6.98356 7.50607 7.09256 7.75707 7.10556 8.02207V17.5871C7.10556 17.8721 6.99256 18.1441 6.79356 18.3461C6.69503 18.4454 6.5778 18.5242 6.44865 18.578C6.3195 18.6318 6.18097 18.6595 6.04106 18.6595C5.90115 18.6595 5.76263 18.6318 5.63348 18.578C5.50432 18.5242 5.3871 18.4454 5.28856 18.3461C5.08847 18.1442 4.97632 17.8713 4.97656 17.5871V8.02207ZM10.3166 5.89407C10.3316 5.60907 10.4586 5.34107 10.6696 5.15007C10.8806 4.96007 11.1586 4.86007 11.4416 4.87507C11.7046 4.89007 11.9516 5.00207 12.1376 5.19007C12.3226 5.37907 12.4316 5.63007 12.4446 5.89407V20.0781C12.4446 20.3631 12.3326 20.6361 12.1326 20.8371C12.034 20.9364 11.9168 21.0152 11.7876 21.069C11.6585 21.1228 11.52 21.1505 11.3801 21.1505C11.2402 21.1505 11.1016 21.1228 10.9725 21.069C10.8433 21.0152 10.7261 20.9364 10.6276 20.8371C10.4275 20.6352 10.3153 20.3623 10.3156 20.0781L10.3166 5.89407ZM15.6816 5.36207C15.6816 5.07807 15.7936 4.80507 15.9936 4.60407C16.0921 4.50475 16.2093 4.42591 16.3385 4.37212C16.4676 4.31832 16.6062 4.29062 16.7461 4.29062C16.886 4.29062 17.0245 4.31832 17.1536 4.37212C17.2828 4.42591 17.4 4.50475 17.4986 4.60407C17.6986 4.80407 17.8096 5.07807 17.8096 5.36207V20.7871C17.8096 21.0721 17.6976 21.3451 17.4986 21.5461C17.4 21.6455 17.2827 21.7245 17.1535 21.7784C17.0242 21.8323 16.8856 21.86 16.7456 21.86C16.6055 21.86 16.4669 21.8323 16.3377 21.7784C16.2084 21.7245 16.0911 21.6455 15.9926 21.5461C15.7928 21.344 15.6811 21.0712 15.6816 20.7871V5.36207ZM20.9586 5.89407C20.9586 5.61007 21.0716 5.33707 21.2706 5.13607C21.3691 5.03675 21.4863 4.95791 21.6155 4.90412C21.7446 4.85032 21.8832 4.82262 22.0231 4.82262C22.163 4.82262 22.3015 4.85032 22.4306 4.90412C22.5598 4.95791 22.677 5.03675 22.7756 5.13607C22.9756 5.33607 23.0876 5.61007 23.0876 5.89407V20.0781C23.0876 20.3631 22.9756 20.6361 22.7756 20.8371C22.677 20.9364 22.5598 21.0152 22.4306 21.069C22.3015 21.1228 22.163 21.1505 22.0231 21.1505C21.8832 21.1505 21.7446 21.1228 21.6155 21.069C21.4863 21.0152 21.3691 20.9364 21.2706 20.8371C21.0705 20.6352 20.9583 20.3623 20.9586 20.0781V5.89407ZM28.7256 0.0440682H4.72956C4.20587 0.0399374 3.68658 0.140015 3.20193 0.338476C2.71728 0.536937 2.27695 0.829817 1.90656 1.20007C1.15329 1.95027 0.728838 2.96895 0.726562 4.03207V27.9681C0.731562 29.0306 1.1556 30.0483 1.90656 30.8001C2.27758 31.1696 2.71799 31.4621 3.20246 31.6609C3.68694 31.8596 4.20592 31.9606 4.72956 31.9581H28.7246C29.2477 31.962 29.7664 31.862 30.2505 31.6637C30.7346 31.4654 31.1745 31.1729 31.5446 30.8031C32.2953 30.0538 32.7204 29.0387 32.7276 27.9781V4.03207C32.7222 2.97115 32.2989 1.9551 31.5496 1.20407C31.1796 0.834964 30.7404 0.542504 30.2572 0.343448C29.7739 0.144393 29.2562 0.0426559 28.7336 0.0440682" fill="var(--fill-0, #1D1D20)"/>
</g>
<defs>
<clipPath id="clip0_10293_21962">
<rect width="141" height="32" fill="white"/>
</clipPath>
</defs>
</svg>
