<svg preserveAspectRatio="none" width="100%" height="100%" overflow="visible" style="display: block;" viewBox="0 0 28.5 33" fill="none" xmlns="http://www.w3.org/2000/svg">
<g id="Logomark">
<path id="Shape" fill-rule="evenodd" clip-rule="evenodd" d="M14.8241 1.08593C14.4453 1.00802 14.0547 1.00802 13.6759 1.08593C13.238 1.17598 12.8467 1.39517 12.5356 1.56944L12.4508 1.61681L1.90615 7.47493C1.877 7.49113 1.84696 7.50767 1.81618 7.52463C1.48683 7.70603 1.07271 7.93412 0.754702 8.27921C0.479756 8.57757 0.271685 8.93119 0.144402 9.31643C-0.00281989 9.76201 -0.00109744 10.2348 0.000272368 10.6108C0.000400417 10.6459 0.000525316 10.6802 0.000525316 10.7136V22.28C0.000525316 22.3134 0.000400417 22.3477 0.000272368 22.3828C-0.00109744 22.7588 -0.00281989 23.2316 0.144402 23.6772C0.271685 24.0624 0.479758 24.416 0.754702 24.7144C1.07272 25.0595 1.48683 25.2875 1.81618 25.469C1.84696 25.4859 1.877 25.5025 1.90615 25.5186L12.4508 31.3768L12.5356 31.4241C12.8467 31.5984 13.238 31.8176 13.6759 31.9076C14.0547 31.9855 14.4453 31.9855 14.8241 31.9076C15.262 31.8176 15.6533 31.5984 15.9644 31.4241L16.0492 31.3768L26.5939 25.5186C26.6067 25.5115 26.6198 25.5043 26.633 25.497C26.6497 25.4877 26.6666 25.4784 26.6838 25.469C27.0132 25.2876 27.4273 25.0595 27.7453 24.7144C28.0202 24.416 28.2283 24.0624 28.3556 23.6772C28.5028 23.2316 28.5011 22.7588 28.4997 22.3828C28.4996 22.3477 28.4995 22.3134 28.4995 22.28V10.7136C28.4995 10.6802 28.4996 10.6459 28.4997 10.6108C28.5011 10.2348 28.5028 9.76201 28.3556 9.31642C28.2283 8.93119 28.0202 8.57757 27.7453 8.27921C27.4273 7.93412 27.0132 7.70602 26.6838 7.52462L26.6827 7.52398C26.6523 7.50725 26.6226 7.49092 26.5939 7.47493L16.0492 1.61681L15.9644 1.56943C15.6533 1.39517 15.262 1.17598 14.8241 1.08593ZM13.8348 4.10807C14.0507 3.9881 14.161 3.92749 14.2432 3.88782L14.25 3.88456L14.2568 3.88782C14.339 3.92748 14.4493 3.9881 14.6652 4.10807L24.1403 9.37202L14.25 14.8667L4.35964 9.37204L13.8348 4.10807ZM2.85042 11.7938L12.825 17.3352L12.825 28.3245L3.29018 23.0274C3.06226 22.9008 2.94589 22.8354 2.86424 22.7834L2.85735 22.779L2.85683 22.7708C2.85101 22.6742 2.85042 22.5408 2.85042 22.28V11.7938Z" fill="var(--fill-0, #101828)"/>
</g>
</svg>
