<svg preserveAspectRatio="none" width="100%" height="100%" overflow="visible" style="display: block;" viewBox="0 0 137 20" fill="none" xmlns="http://www.w3.org/2000/svg">
<g id="SVG" clip-path="url(#clip0_10293_21920)">
<path id="Vector" d="M9.47285 9.15H15.7018C15.8148 9.785 15.9508 10.917 15.9508 12.299C15.9508 16.104 13.0058 19.955 8.61185 19.955C4.33185 19.955 0.571846 16.217 0.593846 11.031C0.616846 5.595 4.73885 2.084 10.1748 2.084C10.7638 2.084 11.4428 2.152 11.9418 2.197L13.7758 8.041L13.0058 8.29L11.0578 6.5C9.35985 4.96 8.20385 4.463 7.02685 4.463C5.44085 4.463 4.17285 5.618 4.17285 7.929C4.17285 12.232 7.25285 16.694 10.6508 16.694C12.2588 16.694 13.0508 16.105 13.6178 15.494L9.44985 10.035V9.152H9.47285V9.15ZM32.1458 12.593C32.1458 16.738 28.9748 20 24.6028 20C20.2318 20 17.0608 16.738 17.0608 12.593C17.0608 8.448 20.2308 5.187 24.6028 5.187C28.9748 5.21 32.1458 8.471 32.1458 12.593ZM27.0718 11.801C25.9618 8.448 24.5118 6.455 22.7918 7.021C21.0698 7.588 21.0698 10.057 22.1338 13.386C23.2438 16.738 24.6938 18.732 26.4148 18.166C28.1588 17.622 28.1588 15.153 27.0718 11.801ZM46.6648 13.545L47.0048 14.677C46.5508 17.191 44.6488 19.955 40.8658 19.955C36.5858 19.955 33.2328 16.353 33.2328 11.167C33.2328 5.595 37.3328 2.061 42.4058 2.061C43.1538 2.061 43.7878 2.129 44.1728 2.174L46.0078 8.018L45.2378 8.268L43.2898 6.478C41.6138 4.983 40.5938 4.417 39.4398 4.417C37.8538 4.417 36.8118 5.617 36.8118 7.905C36.8118 12.208 39.1898 16.105 42.6778 16.105C44.8298 16.081 45.9848 14.904 46.6648 13.545ZM63.1988 17.395L63.4938 18.301C63.2668 18.686 62.2708 19.909 60.5268 19.909C58.1708 19.909 57.2198 18.528 56.5398 16.648C55.8828 18.415 54.3878 19.932 51.6698 19.932C49.2238 19.932 47.9098 18.324 47.9098 16.557C47.9098 14.111 49.9258 12.39 54.2298 10.147C53.6858 9.128 52.4628 8.652 51.1718 8.652C49.5868 8.63 47.8198 9.309 46.9138 10.532L46.5968 9.558C47.2768 7.724 49.5408 5.278 53.1648 5.278C56.4268 5.278 58.6238 7.271 59.6428 10.396L61.5908 16.399C61.8858 17.305 62.3388 17.554 62.7008 17.554C62.8818 17.599 63.0858 17.509 63.1988 17.395ZM55.1588 12.933L54.5688 11.143C52.9608 12.367 52.1688 13.93 52.1688 15.063C52.1688 16.535 52.9158 17.214 53.9348 17.214C55.6788 17.214 56.0418 15.584 55.1578 12.934L55.1588 12.933ZM75.0218 9.65L74.2738 9.9C72.7338 9.197 72.1678 9.129 70.8988 9.129C70.1288 9.129 69.4038 9.469 69.4038 9.469V17.124C69.4038 17.917 69.7898 18.506 70.8538 18.824V19.684H63.7438V18.824C64.6728 18.506 64.7638 17.917 64.7638 17.124V8.97C64.7638 7.498 64.3328 6.977 62.8378 6.366V5.505H69.3608L69.2478 8.585H69.3158L69.8588 7.883C70.9238 6.456 72.3058 5.437 73.6188 5.437H73.7328L75.0218 9.65ZM89.4498 18.846V19.706H83.6058L83.6288 17.872H83.4928C83.0757 18.4819 82.5139 18.979 81.8578 19.3189C81.2018 19.6588 80.4717 19.831 79.7328 19.82C76.4938 19.82 74.5008 17.102 74.5008 13.591C74.5008 8.971 77.6268 5.618 82.7228 5.618C83.1298 5.618 83.5158 5.641 83.5158 5.641V4.485C83.5158 3.239 82.8808 2.809 81.8618 2.718V1.948L87.8878 0H88.1378V17.146C88.1598 17.939 88.5218 18.528 89.4508 18.845L89.4498 18.846ZM83.5158 15.041V7.61C83.1869 7.46902 82.8317 7.39982 82.4738 7.407C80.7968 7.407 78.7358 8.675 78.7358 12.254C78.7358 15.561 80.0048 17.373 81.7488 17.373C82.3828 17.395 83.5158 17.078 83.5158 15.04V15.041ZM97.7398 18.846V19.706H90.4918V18.846C91.4198 18.529 91.8058 17.94 91.8058 17.147V4.485C91.8058 3.239 91.1708 2.809 90.1518 2.718V1.948L96.1778 0H96.4278V17.146C96.4278 17.939 96.7898 18.528 97.7408 18.845L97.7398 18.846ZM112.531 12.98L112.848 13.953C112.372 17.26 109.677 19.956 106.166 19.956C101.658 19.956 98.7588 16.581 98.7588 12.323C98.7588 8.449 101.477 5.323 105.305 5.323C108.091 5.323 110.152 7.023 110.99 9.31L103.561 14.316C104.603 15.426 106.075 16.196 107.774 16.196C110.107 16.196 111.874 14.588 112.531 12.98ZM101.658 9.763C101.658 11.009 102.089 12.323 102.814 13.41L104.059 12.21C104.92 11.417 105.622 10.533 105.622 9.31C105.622 8.382 104.988 7.272 103.742 7.272C102.61 7.294 101.658 8.178 101.658 9.763ZM120.73 10.714C123.471 12.096 124.58 13.455 124.58 15.358C124.58 17.645 122.746 19.956 118.805 19.956C116.698 19.956 115.498 19.616 114.478 19.186L113.142 15.041L113.89 14.814L114.546 15.448C116.562 17.351 118.284 18.597 119.62 18.597C120.617 18.597 121.16 17.963 121.16 17.328C121.16 16.694 121.047 15.969 119.348 15.108L116.834 13.84C114.614 12.708 113.572 11.326 113.572 9.74C113.572 7.023 115.951 5.437 119.009 5.437C121.07 5.437 122.248 5.731 122.248 5.731L123.403 9.333L122.655 9.559L122.202 9.152C119.847 7.09 119.031 6.66 118.035 6.66C117.332 6.66 116.721 7.113 116.721 7.747C116.721 8.2 116.811 8.767 118.216 9.469L120.73 10.714ZM132.644 10.737C135.362 12.164 136.495 13.455 136.495 15.357C136.495 17.645 134.66 19.956 130.719 19.956C128.612 19.956 127.412 19.616 126.393 19.186L125.056 15.041L125.804 14.814L126.46 15.448C128.476 17.351 130.198 18.597 131.534 18.597C132.531 18.597 133.074 17.963 133.074 17.328C133.074 16.694 132.961 15.992 131.262 15.108L128.748 13.795C126.528 12.662 125.487 11.303 125.487 9.718C125.487 7 127.865 5.414 130.923 5.414C132.984 5.414 134.162 5.709 134.162 5.709L135.317 9.31L134.569 9.537L134.116 9.129C131.761 7.068 130.945 6.637 129.949 6.637C129.246 6.637 128.635 7.09 128.635 7.725C128.635 8.178 128.726 8.721 130.13 9.446L132.644 10.737Z" fill="var(--fill-0, #1D1D20)"/>
</g>
<defs>
<clipPath id="clip0_10293_21920">
<rect width="137" height="20" fill="white"/>
</clipPath>
</defs>
</svg>
