<svg preserveAspectRatio="none" width="100%" height="100%" overflow="visible" style="display: block;" viewBox="0 0 54.4812 10.4803" fill="none" xmlns="http://www.w3.org/2000/svg">
<g id="Group 1321314362">
<path id="Vector" d="M8.79397 2.54114H5.82447V10.4028H2.98562V2.54114H0V0.0652116H8.79397V2.54114Z" fill="var(--fill-0, #21D4D4)"/>
<path id="Vector_2" d="M9.82813 10.4028V0.0652116H12.667V10.4028H9.82813Z" fill="var(--fill-0, #21D4D4)"/>
<path id="Vector_3" d="M22.2627 10.4028V4.95739L20.5287 8.78662H19.0157L17.2834 4.95739V10.4028H14.4429V0.0652116H17.5447L19.7722 4.92836L22.0143 0.0652116H25.1015V10.4028H22.2627Z" fill="var(--fill-0, #21D4D4)"/>
<path id="Vector_4" d="M34.2432 7.9269V10.4028H26.8767V0.0652116H34.1126V2.54114H29.7156V3.99283H33.4722V6.29133H29.7156V7.92205L34.2432 7.9269Z" fill="var(--fill-0, #21D4D4)"/>
<path id="Vector_5" d="M41.8288 3.4573C41.5351 3.28308 41.232 3.1253 40.9207 2.9847C40.6315 2.85878 40.3347 2.75104 40.032 2.6621C39.7252 2.5674 39.4062 2.51848 39.0852 2.51693C38.8801 2.50885 38.6759 2.54804 38.4884 2.63145C38.4148 2.66547 38.3532 2.72096 38.3117 2.79063C38.2703 2.8603 38.2509 2.94089 38.2561 3.0218C38.2553 3.10558 38.2763 3.18813 38.317 3.26136C38.3578 3.33459 38.4168 3.39599 38.4884 3.43956C38.6938 3.56806 38.9173 3.66535 39.1513 3.72828C39.4368 3.81538 39.7787 3.92022 40.1772 4.05088C40.7511 4.21607 41.3071 4.43815 41.8369 4.71382C42.2722 4.93643 42.6431 5.26684 42.9144 5.67354C43.1676 6.06388 43.2934 6.58004 43.2934 7.22523C43.3113 7.7617 43.196 8.29425 42.9579 8.77531C42.7472 9.18067 42.4369 9.52588 42.0563 9.77858C41.669 10.0324 41.2397 10.2153 40.7885 10.3189C40.3212 10.4285 39.8426 10.4826 39.3626 10.4802C38.8417 10.4783 38.3221 10.427 37.8109 10.327C37.2793 10.2272 36.7562 10.0865 36.2463 9.90601C35.7672 9.73731 35.3045 9.52513 34.864 9.27211L36.0931 6.77521C36.436 6.98515 36.7909 7.17473 37.156 7.34298C37.5026 7.49956 37.86 7.63108 38.2254 7.73655C38.6107 7.8515 39.0106 7.91018 39.4126 7.91075C39.6343 7.92892 39.8568 7.88831 40.0578 7.793C40.1134 7.76188 40.1596 7.71644 40.1916 7.66141C40.2237 7.60638 40.2404 7.54377 40.2401 7.48008C40.2385 7.37877 40.207 7.28019 40.1496 7.19669C40.0922 7.11319 40.0115 7.04849 39.9175 7.0107C39.649 6.87748 39.3688 6.76948 39.0803 6.68811C38.7351 6.58703 38.3539 6.46874 37.9367 6.33325C37.4142 6.16868 36.9149 5.93775 36.4512 5.64612C36.0944 5.42268 35.8007 5.11174 35.5979 4.74285C35.4023 4.34498 35.307 3.90529 35.3205 3.46214C35.2966 2.78546 35.485 2.11826 35.8592 1.55398C36.2177 1.04399 36.7084 0.641365 37.2786 0.389406C37.8769 0.125462 38.5248 -0.00709629 39.1787 0.000676383C39.6726 -0.00044857 40.1647 0.0607922 40.6433 0.182944C41.095 0.298168 41.5376 0.446424 41.9676 0.626515C42.3805 0.800717 42.7418 0.966856 43.0515 1.1217L41.8288 3.4573Z" fill="var(--fill-0, #21D4D4)"/>
<path id="Vector_6" d="M49.2116 10.4754C48.4743 10.4855 47.7437 10.3341 47.0712 10.0318C46.4463 9.74756 45.8843 9.34182 45.4178 8.83822C44.9616 8.34568 44.6011 7.77243 44.3549 7.14781C44.1091 6.52931 43.9832 5.86971 43.9839 5.20417C43.9808 4.52942 44.1147 3.86106 44.3775 3.23955C44.6373 2.62047 45.0098 2.05497 45.4759 1.57173C45.9517 1.07894 46.5209 0.685803 47.1502 0.41522C47.8201 0.131072 48.542 -0.0101182 49.2696 0.000681484C49.9815 -0.0110853 50.6876 0.129646 51.3406 0.413423C51.9936 0.697199 52.5782 1.11745 53.0553 1.64593C53.5066 2.14316 53.864 2.71807 54.1102 3.34278C54.3566 3.95829 54.4825 4.61537 54.4812 5.27836C54.4829 5.94749 54.3519 6.61031 54.0957 7.22846C53.8393 7.84789 53.4689 8.41364 53.0037 8.89629C52.5288 9.38924 51.9622 9.78482 51.3359 10.0609C50.665 10.3476 49.941 10.4889 49.2116 10.4754ZM46.8663 5.2332C46.865 5.57624 46.9145 5.91758 47.0131 6.24616C47.1044 6.56091 47.252 6.85654 47.4486 7.11878C47.6439 7.37644 47.8955 7.58608 48.1841 7.73171C48.5178 7.88048 48.8793 7.95668 49.2447 7.95529C49.6101 7.9539 49.971 7.87495 50.3036 7.72365C50.5962 7.57537 50.8482 7.35774 51.0375 7.08975C51.2286 6.82073 51.3716 6.52056 51.4601 6.20261C51.5522 5.87779 51.5989 5.54179 51.5988 5.20417C51.6001 4.86442 51.5512 4.52633 51.4536 4.20089C51.3606 3.88848 51.2125 3.59517 51.0165 3.33472C50.8214 3.07641 50.5669 2.86893 50.2745 2.72985C49.946 2.57897 49.5875 2.50452 49.2261 2.5121C48.8603 2.50278 48.4977 2.58249 48.1696 2.74437C47.8813 2.8934 47.63 3.10502 47.4341 3.36375C47.238 3.62538 47.0925 3.92133 47.005 4.23638C46.913 4.56066 46.8663 4.89612 46.8663 5.2332Z" fill="var(--fill-0, #21D4D4)"/>
</g>
</svg>
