<svg preserveAspectRatio="none" width="100%" height="100%" overflow="visible" style="display: block;" viewBox="0 0 28.382 27.6893" fill="none" xmlns="http://www.w3.org/2000/svg">
<g id="F-Droid logo">
<path fill-rule="evenodd" clip-rule="evenodd" d="M1.28033 0.21967C0.987439 -0.0732233 0.512565 -0.0732233 0.219672 0.21967C-0.0732211 0.512563 -0.0732255 0.987441 0.219668 1.28033L2.8476 3.90827C2.7457 4.14823 2.68933 4.4122 2.68933 4.68934V8.68934C2.68933 9.79391 3.58476 10.6893 4.68933 10.6893H23.6893C24.7939 10.6893 25.6893 9.79391 25.6893 8.68934V4.68934C25.6893 4.41309 25.6333 4.14993 25.532 3.91058L28.1623 1.28034C28.4552 0.987446 28.4552 0.512573 28.1623 0.219679C27.8694 -0.0732137 27.3945 -0.0732179 27.1016 0.219675L24.4727 2.84859C24.2321 2.74607 23.9674 2.68934 23.6893 2.68934H4.68933C4.4122 2.68934 4.14823 2.74571 3.90826 2.8476L1.28033 0.21967ZM10.1893 6.68933C10.1893 7.7939 9.2939 8.68933 8.18933 8.68933C7.08476 8.68933 6.18933 7.7939 6.18933 6.68933C6.18933 5.58476 7.08476 4.68933 8.18933 4.68933C9.2939 4.68933 10.1893 5.58476 10.1893 6.68933ZM22.1893 6.68933C22.1893 7.7939 21.2939 8.68933 20.1893 8.68933C19.0848 8.68933 18.1893 7.7939 18.1893 6.68933C18.1893 5.58476 19.0848 4.68933 20.1893 4.68933C21.2939 4.68933 22.1893 5.58476 22.1893 6.68933Z" fill="var(--fill-0, black)"/>
<path fill-rule="evenodd" clip-rule="evenodd" d="M19.191 19.6893C19.191 22.4508 16.9524 24.6893 14.191 24.6893C11.4296 24.6893 9.19098 22.4508 9.19098 19.6893C9.19098 16.9279 11.4296 14.6893 14.191 14.6893C16.9524 14.6893 19.191 16.9279 19.191 19.6893ZM14.191 23.1893C16.124 23.1893 17.691 21.6223 17.691 19.6893C17.691 17.7563 16.124 16.1893 14.191 16.1893C12.6055 16.1893 11.2662 17.2436 10.8359 18.6893H12.4585C12.8043 18.0915 13.4507 17.6893 14.191 17.6893C15.2955 17.6893 16.191 18.5848 16.191 19.6893C16.191 20.7939 15.2955 21.6893 14.191 21.6893C13.4507 21.6893 12.8043 21.2871 12.4585 20.6893H10.8359C11.2662 22.1351 12.6055 23.1893 14.191 23.1893Z" fill="var(--fill-0, black)"/>
<path fill-rule="evenodd" clip-rule="evenodd" d="M2.68933 25.6893V13.6893C2.68933 12.5848 3.58476 11.6893 4.68933 11.6893H23.6893C24.7939 11.6893 25.6893 12.5848 25.6893 13.6893V25.6893C25.6893 26.7939 24.7939 27.6893 23.6893 27.6893H4.68933C3.58476 27.6893 2.68933 26.7939 2.68933 25.6893ZM20.191 19.6893C20.191 23.003 17.5047 25.6893 14.191 25.6893C10.8773 25.6893 8.19098 23.003 8.19098 19.6893C8.19098 16.3756 10.8773 13.6893 14.191 13.6893C17.5047 13.6893 20.191 16.3756 20.191 19.6893Z" fill="var(--fill-0, black)"/>
</g>
</svg>
