<svg preserveAspectRatio="none" width="100%" height="100%" overflow="visible" style="display: block;" viewBox="0 0 67.0487 6.82012" fill="none" xmlns="http://www.w3.org/2000/svg">
<g id="Explore it on">
<path d="M0 0.0918217H3.90954L3.79954 1.03606H1.14576V2.8647H3.64819V3.74939H1.14576V5.77516H3.94152L3.8453 6.72846H0V0.0918217Z" fill="black"/>
<path d="M6.60439 3.34137L4.54196 0.0918217H5.84348L7.24151 2.47985L8.71286 0.0918217H9.97772L7.93348 3.30001L10.1473 6.72846H8.82728L7.2462 4.11606L5.63728 6.72846H4.37242L6.60439 3.34137Z" fill="black"/>
<path d="M13.8644 3.05478C14.1087 2.83361 14.2311 2.52091 14.2311 2.11758C14.2311 1.70809 14.1064 1.41358 13.8576 1.23318C13.6086 1.05278 13.2425 0.962727 12.76 0.962727H12.1366V3.31849C12.4238 3.36425 12.6438 3.38713 12.7966 3.38713C13.2639 3.38713 13.62 3.27654 13.8644 3.05478ZM10.9906 0.0918217H12.7782C13.6183 0.0918217 14.2616 0.263128 14.7077 0.605155C15.1539 0.947475 15.3768 1.44233 15.3768 2.09001C15.3768 2.53001 15.2768 2.91457 15.0767 3.24281C14.8764 3.57134 14.5977 3.82361 14.2401 3.99902C13.8829 4.17502 13.4716 4.26273 13.0073 4.26273C12.7538 4.26273 12.4634 4.23222 12.1366 4.17091V6.72846H10.9906V0.0918217Z" fill="black"/>
<path d="M16.5091 0.0918217H17.6549V5.74758H20.4002L20.3039 6.72846H16.5091V0.0918217Z" fill="black"/>
<path d="M25.1119 5.58946C25.4329 5.37416 25.6725 5.07789 25.8315 4.70037C25.9905 4.32315 26.07 3.89136 26.07 3.4056C26.07 2.92893 25.9996 2.50448 25.8591 2.13136C25.7183 1.75853 25.4939 1.46168 25.1853 1.23992C24.8767 1.01845 24.4795 0.907572 23.9935 0.907572C23.5291 0.907572 23.1349 1.01992 22.8111 1.24461C22.4872 1.46901 22.2443 1.77027 22.0824 2.14749C21.9205 2.52501 21.8395 2.94125 21.8395 3.3965C21.8395 3.8761 21.9158 4.30554 22.0686 4.68424C22.2211 5.06322 22.4549 5.36272 22.77 5.58272C23.0844 5.80272 23.474 5.91272 23.9386 5.91272C24.4 5.91272 24.791 5.80477 25.1119 5.58946ZM22.1419 6.40317C21.6562 6.12509 21.2848 5.73467 21.0282 5.23189C20.7715 4.72941 20.6433 4.14509 20.6433 3.47893C20.6433 2.77933 20.7797 2.16744 21.0534 1.64325C21.3268 1.11936 21.721 0.71456 22.2358 0.42856C22.7506 0.143146 23.3578 0 24.0577 0C24.7268 0 25.3029 0.138454 25.7857 0.414774C26.2683 0.69168 26.6367 1.08034 26.8901 1.58136C27.1439 2.08266 27.2706 2.66317 27.2706 3.32317C27.2706 4.03509 27.1324 4.65403 26.8558 5.17939C26.5792 5.70475 26.1853 6.10984 25.6734 6.39379C25.1615 6.67803 24.5605 6.82012 23.87 6.82012C23.2038 6.82012 22.6277 6.68125 22.1419 6.40317Z" fill="black"/>
<path d="M30.3462 3.23137C30.624 3.23137 30.8701 3.17739 31.0839 3.06857C31.2978 2.96033 31.4644 2.8075 31.5835 2.61038C31.7029 2.41326 31.7624 2.18476 31.7624 1.92516C31.7624 1.59222 31.6568 1.34846 31.4462 1.19417C31.2353 1.03987 30.9282 0.962727 30.5249 0.962727H29.6953V3.23137H30.3462ZM28.5496 0.0918217H30.6258C31.3834 0.0918217 31.9572 0.243181 32.3468 0.545608C32.7363 0.848034 32.9311 1.2807 32.9311 1.84273C32.9311 2.19414 32.8607 2.50361 32.7202 2.77083C32.5797 3.03835 32.4054 3.25601 32.1978 3.42379C31.9898 3.59187 31.7762 3.71713 31.5562 3.79985L33.5958 6.72846H32.2667L30.5386 4.09758H29.6953V6.72846H28.5496V0.0918217Z" fill="black"/>
<path d="M34.5033 0.0918217H38.4129L38.3029 1.03606H35.6491V2.8647H38.1515V3.74939H35.6491V5.77516H38.4448L38.3486 6.72846H34.5033V0.0918217Z" fill="black"/>
<path d="M42.6662 0.0918217H43.812V6.72846H42.6662V0.0918217Z" fill="black"/>
<path d="M46.8415 1.04985H44.7835L44.8844 0.0918217H50.05L49.9444 1.04985H47.9873V6.72846H46.8415V1.04985Z" fill="black"/>
<path d="M57.9929 5.58946C58.3135 5.37416 58.5534 5.07789 58.7124 4.70037C58.8711 4.32315 58.9506 3.89136 58.9506 3.4056C58.9506 2.92893 58.8802 2.50448 58.74 2.13136C58.5992 1.75853 58.3745 1.46168 58.0662 1.23992C57.7573 1.01845 57.3602 0.907572 56.8744 0.907572C56.4098 0.907572 56.0158 1.01992 55.692 1.24461C55.3678 1.46901 55.125 1.77027 54.9633 2.14749C54.8011 2.52501 54.7202 2.94125 54.7202 3.3965C54.7202 3.8761 54.7964 4.30554 54.9496 4.68424C55.1021 5.06322 55.3359 5.36272 55.6506 5.58272C55.9654 5.80272 56.3549 5.91272 56.8196 5.91272C57.2807 5.91272 57.672 5.80477 57.9929 5.58946ZM55.0229 6.40317C54.5368 6.12509 54.1657 5.73467 53.9091 5.23189C53.6524 4.72941 53.5239 4.14509 53.5239 3.47893C53.5239 2.77933 53.6606 2.16744 53.9343 1.64325C54.2074 1.11936 54.6017 0.71456 55.1168 0.42856C55.6316 0.143146 56.2387 0 56.9386 0C57.6077 0 58.1835 0.138454 58.6667 0.414774C59.1492 0.69168 59.5173 1.08034 59.7711 1.58136C60.0245 2.08266 60.1515 2.66317 60.1515 3.32317C60.1515 4.03509 60.0131 4.65403 59.7368 5.17939C59.4601 5.70475 59.0659 6.10984 58.5543 6.39379C58.0425 6.67803 57.4411 6.82012 56.7506 6.82012C56.0844 6.82012 55.5087 6.68125 55.0229 6.40317Z" fill="black"/>
<path d="M61.4302 0.0918217H62.7458L66.0279 5.23425C65.9985 4.74555 65.9868 4.2947 65.9868 3.88227V0.0918217H67.0487V6.72846H65.7756L62.4433 1.50334C62.4768 2.09646 62.4935 2.62182 62.4935 3.08001V6.72846H61.4302V0.0918217Z" fill="black"/>
</g>
</svg>
