<svg preserveAspectRatio="none" width="100%" height="100%" overflow="visible" style="display: block;" viewBox="0 0 22.4565 18.4228" fill="none" xmlns="http://www.w3.org/2000/svg">
<g id="Group 1321314363">
<path id="Vector" d="M7.69637 0H3.98172C3.95551 9.74776e-05 3.9298 0.00721878 3.90727 0.0206226C3.88474 0.0340265 3.86622 0.0532229 3.85363 0.0762143L2.44847e-07 7.13917V8.9965C-8.39024e-05 9.10656 0.0215221 9.21557 0.0635837 9.31728C0.105645 9.41899 0.167338 9.51141 0.245136 9.58927C0.322933 9.66713 0.415311 9.72889 0.516989 9.77103C0.618668 9.81317 0.727653 9.83486 0.837718 9.83486H3.46359C3.85433 9.83465 4.2345 9.70795 4.54724 9.47371C4.85998 9.23947 5.08849 8.91028 5.19859 8.53537L7.69637 0Z" fill="var(--fill-0, #21D4D4)"/>
<path id="Vector_2" d="M14.7602 0H18.4748C18.501 9.74776e-05 18.5267 0.00721877 18.5493 0.0206226C18.5718 0.0340265 18.5903 0.0532229 18.6029 0.0762143L22.4565 7.13917V8.9965C22.4571 9.21874 22.3693 9.43208 22.2126 9.58965C22.0559 9.74721 21.843 9.8361 21.6207 9.83678H18.9949C18.6036 9.83686 18.2228 9.71007 17.9096 9.47543C17.5965 9.24079 17.3678 8.91095 17.258 8.53537L14.7602 0Z" fill="var(--fill-0, #21D4D4)"/>
<path id="Vector_3" d="M15.505 7.28968L13.4716 0H8.96148L6.92802 7.28968C6.91113 7.35164 6.91542 7.41745 6.94019 7.4767L7.46665 8.72751C7.6054 9.05624 7.83796 9.33679 8.13526 9.53408C8.43257 9.73137 8.78143 9.83666 9.13824 9.83678H13.2948C13.6514 9.83641 14 9.731 14.297 9.53372C14.5941 9.33645 14.8265 9.05604 14.9651 8.72751L15.4929 7.4767C15.5179 7.41752 15.5222 7.3516 15.505 7.28968Z" fill="var(--fill-0, #21D4D4)"/>
<path id="Vector_4" d="M19.4211 11.3105C18.5612 11.3118 17.725 11.029 17.0424 10.5061V15.8417H5.41749V10.5061C4.73471 11.0291 3.89827 11.3119 3.03819 11.3105C2.97415 11.3105 2.90306 11.3105 2.83645 11.3054V17.5575C2.83645 17.787 2.92761 18.0071 3.08988 18.1693C3.25214 18.3316 3.47223 18.4228 3.70171 18.4228H18.7582C18.9877 18.4228 19.2078 18.3316 19.37 18.1693C19.5323 18.0071 19.6235 17.787 19.6235 17.5575V11.3054C19.5569 11.3086 19.489 11.3105 19.4211 11.3105Z" fill="var(--fill-0, #21D4D4)"/>
</g>
</svg>
