<svg preserveAspectRatio="none" width="100%" height="100%" overflow="visible" style="display: block;" viewBox="0 0 52 41" fill="none" xmlns="http://www.w3.org/2000/svg">
<g id="ri:ai">
<path id="Vector" d="M25.7697 37H22.0191L18.5367 28.5787H7.23292L3.75053 37H0L11.1436 10.0517H14.626L25.7697 37ZM33.7792 21.8416V37H30.2968V21.8416H33.7792ZM8.62587 25.2101H17.1438L12.8848 14.9108L8.62587 25.2101ZM31.2179 5.53789C31.2832 5.37916 31.3963 5.24304 31.5425 5.14715C31.6887 5.05126 31.8613 5 32.038 5C32.2146 5 32.3872 5.05126 32.5334 5.14715C32.6796 5.24304 32.7927 5.37916 32.8581 5.53789L33.2986 6.56529C34.0377 8.30864 35.4399 9.71139 37.2163 10.4846L38.4647 11.0235C38.6246 11.0951 38.7599 11.2094 38.8547 11.3529C38.9496 11.4965 39 11.6633 39 11.8337C39 12.0041 38.9496 12.1709 38.8547 12.3144C38.7599 12.458 38.6246 12.5723 38.4647 12.6438L37.1449 13.2131C35.4117 13.9641 34.0325 15.3163 33.2794 17.0027L32.8511 17.956C32.7842 18.1112 32.6712 18.2438 32.5265 18.3371C32.3818 18.4304 32.2118 18.4801 32.038 18.4801C31.8641 18.4801 31.6941 18.4304 31.5494 18.3371C31.4047 18.2438 31.2918 18.1112 31.2248 17.956L30.7948 17.0044C30.0424 15.3176 28.6639 13.9649 26.931 13.2131L25.6077 12.6438C25.4474 12.5725 25.3116 12.4582 25.2164 12.3144C25.1212 12.1707 25.0706 12.0035 25.0706 11.8328C25.0706 11.6621 25.1212 11.495 25.2164 11.3513C25.3116 11.2075 25.4474 11.0932 25.6077 11.0219L26.8579 10.4829C28.6343 9.71086 30.0371 8.30936 30.7773 6.56698L31.2179 5.53789Z" fill="var(--fill-0, #34D9D9)"/>
</g>
</svg>
