<svg preserveAspectRatio="none" width="100%" height="100%" overflow="visible" style="display: block;" viewBox="0 0 87.0285 21.789" fill="none" xmlns="http://www.w3.org/2000/svg">
<g id="Logotype">
<path d="M3.46275 13.5473H7.99875V16.2203H0V2.00475H3.46275V13.5473Z" fill="var(--fill-0, #101828)"/>
<path d="M11.1894 3.74625C10.5819 3.74625 10.0824 3.57075 9.69089 3.21975C9.31289 2.85525 9.12389 2.40975 9.12389 1.88325C9.12389 1.34325 9.31289 0.897751 9.69089 0.54675C10.0824 0.18225 10.5819 0 11.1894 0C11.7834 0 12.2694 0.18225 12.6474 0.54675C13.0389 0.897751 13.2346 1.34325 13.2346 1.88325C13.2346 2.40975 13.0389 2.85525 12.6474 3.21975C12.2694 3.57075 11.7834 3.74625 11.1894 3.74625ZM12.9106 4.92075V16.2203H9.44789V4.92075H12.9106Z" fill="var(--fill-0, #101828)"/>
<path d="M19.5106 4.75875C20.3071 4.75875 21.0023 4.92075 21.5963 5.24475C22.2038 5.56875 22.6696 5.994 22.9936 6.5205V4.92075H26.4563V16.2C26.4563 17.2395 26.2471 18.1778 25.8286 19.0148C25.4236 19.8653 24.7958 20.5403 23.9453 21.0398C23.1083 21.5393 22.0621 21.789 20.8066 21.789C19.1326 21.789 17.7758 21.3908 16.7363 20.5943C15.6968 19.8113 15.1028 18.7448 14.9543 17.3948H18.3766C18.4846 17.8268 18.7411 18.1643 19.1461 18.4073C19.5511 18.6638 20.0506 18.792 20.6446 18.792C21.3601 18.792 21.9271 18.5828 22.3456 18.1643C22.7776 17.7593 22.9936 17.1045 22.9936 16.2V14.6003C22.6561 15.1268 22.1903 15.5588 21.5963 15.8963C21.0023 16.2203 20.3071 16.3823 19.5106 16.3823C18.5791 16.3823 17.7353 16.146 16.9793 15.6735C16.2233 15.1875 15.6226 14.5058 15.1771 13.6283C14.7451 12.7373 14.5291 11.7113 14.5291 10.5503C14.5291 9.38925 14.7451 8.37 15.1771 7.4925C15.6226 6.615 16.2233 5.94 16.9793 5.4675C17.7353 4.995 18.5791 4.75875 19.5106 4.75875ZM22.9936 10.5705C22.9936 9.7065 22.7506 9.02475 22.2646 8.52525C21.7921 8.02575 21.2116 7.776 20.5231 7.776C19.8346 7.776 19.2473 8.02575 18.7613 8.52525C18.2888 9.01125 18.0526 9.68625 18.0526 10.5503C18.0526 11.4143 18.2888 12.1028 18.7613 12.6158C19.2473 13.1153 19.8346 13.365 20.5231 13.365C21.2116 13.365 21.7921 13.1153 22.2646 12.6158C22.7506 12.1163 22.9936 11.4345 22.9936 10.5705Z" fill="var(--fill-0, #101828)"/>
<path d="M35.7047 4.79925C37.0007 4.79925 38.0402 5.23125 38.8232 6.09525C39.6062 6.94575 39.9977 8.12025 39.9977 9.61875V16.2203H36.5552V10.0845C36.5552 9.3285 36.3595 8.74125 35.968 8.32275C35.5765 7.90425 35.05 7.695 34.3885 7.695C33.727 7.695 33.2005 7.90425 32.809 8.32275C32.4175 8.74125 32.2217 9.3285 32.2217 10.0845V16.2203H28.759V1.23525H32.2217V6.4395C32.5727 5.94 33.052 5.54175 33.6595 5.24475C34.267 4.94775 34.9487 4.79925 35.7047 4.79925Z" fill="var(--fill-0, #101828)"/>
<path d="M48.4992 13.284V16.2203H46.7375C45.482 16.2203 44.5032 15.9165 43.8012 15.309C43.0992 14.688 42.7482 13.6822 42.7482 12.2917V7.79625H41.3712V4.92075H42.7482V2.16675H46.211V4.92075H48.479V7.79625H46.211V12.3323C46.211 12.6698 46.292 12.9128 46.454 13.0613C46.616 13.2098 46.886 13.284 47.264 13.284H48.4992Z" fill="var(--fill-0, #101828)"/>
<path d="M53.6883 6.5205C54.0123 5.994 54.478 5.56875 55.0855 5.24475C55.693 4.92075 56.3883 4.75875 57.1713 4.75875C58.1028 4.75875 58.9465 4.995 59.7025 5.4675C60.4585 5.94 61.0525 6.615 61.4845 7.4925C61.93 8.37 62.1528 9.38925 62.1528 10.5503C62.1528 11.7113 61.93 12.7373 61.4845 13.6283C61.0525 14.5058 60.4585 15.1875 59.7025 15.6735C58.9465 16.146 58.1028 16.3823 57.1713 16.3823C56.3748 16.3823 55.6795 16.227 55.0855 15.9165C54.4915 15.5925 54.0258 15.1672 53.6883 14.6407V16.2203H50.2255V1.23525H53.6883V6.5205ZM58.6293 10.5503C58.6293 9.68625 58.3863 9.01125 57.9003 8.52525C57.4278 8.02575 56.8405 7.776 56.1385 7.776C55.45 7.776 54.8628 8.02575 54.3768 8.52525C53.9043 9.02475 53.668 9.7065 53.668 10.5705C53.668 11.4345 53.9043 12.1163 54.3768 12.6158C54.8628 13.1153 55.45 13.365 56.1385 13.365C56.827 13.365 57.4143 13.1153 57.9003 12.6158C58.3863 12.1028 58.6293 11.4143 58.6293 10.5503Z" fill="var(--fill-0, #101828)"/>
<path d="M68.9104 16.3823C67.8034 16.3823 66.8044 16.146 65.9134 15.6735C65.0359 15.201 64.3407 14.526 63.8277 13.6485C63.3282 12.771 63.0784 11.745 63.0784 10.5705C63.0784 9.4095 63.3349 8.39025 63.8479 7.51275C64.3609 6.62175 65.0629 5.94 65.9539 5.4675C66.8449 4.995 67.8439 4.75875 68.9509 4.75875C70.0579 4.75875 71.0569 4.995 71.9479 5.4675C72.8389 5.94 73.5409 6.62175 74.0539 7.51275C74.5669 8.39025 74.8234 9.4095 74.8234 10.5705C74.8234 11.7315 74.5602 12.7575 74.0337 13.6485C73.5207 14.526 72.8119 15.201 71.9074 15.6735C71.0164 16.146 70.0174 16.3823 68.9104 16.3823ZM68.9104 13.3853C69.5719 13.3853 70.1322 13.1423 70.5912 12.6562C71.0637 12.1703 71.2999 11.475 71.2999 10.5705C71.2999 9.666 71.0704 8.97075 70.6114 8.48475C70.1659 7.99875 69.6124 7.75575 68.9509 7.75575C68.2759 7.75575 67.7157 7.99875 67.2702 8.48475C66.8247 8.95725 66.6019 9.6525 66.6019 10.5705C66.6019 11.475 66.8179 12.1703 67.2499 12.6562C67.6954 13.1423 68.2489 13.3853 68.9104 13.3853Z" fill="var(--fill-0, #101828)"/>
<path d="M83.1405 16.2203L80.9737 13.0815L79.1512 16.2203H75.405L79.131 10.449L75.3037 4.92075H79.1917L81.3585 8.03925L83.181 4.92075H86.9272L83.1405 10.611L87.0285 16.2203H83.1405Z" fill="var(--fill-0, #101828)"/>
</g>
</svg>
