<svg preserveAspectRatio="none" width="100%" height="100%" overflow="visible" style="display: block;" viewBox="0 0 32 32" fill="none" xmlns="http://www.w3.org/2000/svg">
<g id="oui:integration-general" clip-path="url(#clip0_10295_22079)">
<path id="Vector" fill-rule="evenodd" clip-rule="evenodd" d="M13.587 7.74142C13.7094 7.51493 13.8913 7.32618 14.1131 7.19553C14.3349 7.06488 14.5882 6.9973 14.8457 7.00008L17.6457 7.04275C17.9024 7.04838 18.1527 7.12384 18.3698 7.26103C18.5868 7.39822 18.7624 7.59195 18.8777 7.82142L19.9977 10.0721L21.9763 9.90408C22.2297 9.88397 22.4838 9.93255 22.7119 10.0447C22.9399 10.1569 23.1336 10.3285 23.2723 10.5414L24.6857 12.7334C24.8374 12.9695 24.9148 13.2457 24.9077 13.5262C24.9005 13.8068 24.8092 14.0787 24.6456 14.3067L23.6057 15.7627L24.7123 17.2241C25.0563 17.6774 25.091 18.2961 24.7976 18.7867L23.4643 21.0214C23.3318 21.2406 23.1422 21.4196 22.9158 21.5394C22.6894 21.6592 22.4347 21.7152 22.179 21.7014L20.0857 21.5734L18.7976 24.2107C18.6811 24.4452 18.5016 24.6426 18.2794 24.7811C18.0571 24.9195 17.8008 24.9935 17.539 24.9947H14.6537C14.3923 24.993 14.1365 24.9188 13.9148 24.7804C13.693 24.642 13.514 24.4448 13.3977 24.2107L12.187 21.7334L9.94698 21.9361C9.68877 21.9578 9.42957 21.908 9.19771 21.7923C8.96585 21.6766 8.77026 21.4994 8.63232 21.2801L7.21632 19.0001C7.06613 18.7581 6.99333 18.476 7.00762 18.1916C7.02192 17.9071 7.12263 17.6338 7.29632 17.4081L8.57632 15.7414L7.54698 14.3041C7.38379 14.0758 7.29298 13.8037 7.28632 13.5232C7.27966 13.2426 7.35747 12.9665 7.50965 12.7307L8.92298 10.5387C9.06152 10.3262 9.2547 10.1549 9.48227 10.0428C9.70983 9.93061 9.96338 9.88179 10.2163 9.90142L12.3417 10.0827L13.587 7.74142ZM15.1817 9.00542L13.923 11.3734C13.7931 11.6146 13.5958 11.8128 13.3553 11.9439C13.1148 12.0751 12.8414 12.1335 12.5683 12.1121L10.4083 11.9281L9.41098 13.4747L10.4617 14.9414C10.6364 15.1854 10.7282 15.4791 10.7234 15.7792C10.7186 16.0792 10.6175 16.3698 10.435 16.6081L9.13365 18.2987L10.1363 19.9147L12.419 19.7067C12.7018 19.6805 12.9859 19.741 13.2336 19.8801C13.4813 20.0191 13.6808 20.2303 13.8057 20.4854L15.0297 22.9947H17.163L18.4643 20.3361C18.5873 20.0892 18.7798 19.8836 19.0181 19.7448C19.2565 19.6059 19.5302 19.5399 19.8057 19.5547L21.9337 19.6827L22.8723 18.1094L21.7417 16.6161C21.5618 16.378 21.4627 16.0886 21.4589 15.7902C21.455 15.4919 21.5466 15.2001 21.7203 14.9574L22.7843 13.4747L21.787 11.9281L19.7603 12.0987C19.4802 12.1226 19.1994 12.0616 18.9545 11.9237C18.7095 11.7858 18.5118 11.5773 18.387 11.3254L17.2483 9.03742L15.1817 9.00542Z" fill="var(--fill-0, white)"/>
<path id="Vector_2" d="M27.4184 19.7334C26.6095 22.2306 25.004 24.3937 22.8481 25.8911C20.6922 27.3886 18.1048 28.1379 15.4823 28.0241C12.8598 27.9103 10.347 26.9397 8.32884 25.2612C6.31073 23.5826 4.89868 21.2886 4.30907 18.7308L6.5784 18.2827L2.2584 13.8134L-0.00292969 19.5921L2.38907 19.1227C3.05663 22.1254 4.6945 24.8246 7.04958 26.8033C9.40466 28.782 12.3458 29.93 15.4186 30.0699C18.4914 30.2098 21.5247 29.3338 24.0499 27.5774C26.575 25.8209 28.4514 23.2817 29.3891 20.3521L27.4184 19.7334ZM29.6477 12.9601C28.9798 9.95754 27.3417 7.25853 24.9864 5.28012C22.6312 3.30171 19.6899 2.15403 16.6172 2.01443C13.5444 1.87483 10.5112 2.75108 7.98623 4.50777C5.46128 6.26446 3.58515 8.80381 2.64774 11.7334L4.54907 12.3521C5.35775 9.85485 6.96294 7.69165 9.11867 6.19398C11.2744 4.6963 13.8617 3.94678 16.4842 4.06026C19.1066 4.17374 21.6196 5.14397 23.6378 6.82226C25.6561 8.50055 27.0685 10.7943 27.6584 13.3521L25.3891 13.8028L29.7091 18.2614L31.9971 12.4908L29.6477 12.9601Z" fill="var(--fill-0, white)"/>
<path id="Vector_3" fill-rule="evenodd" clip-rule="evenodd" d="M16 15C15.7348 15 15.4804 15.1054 15.2929 15.2929C15.1054 15.4804 15 15.7348 15 16C15 16.2652 15.1054 16.5196 15.2929 16.7071C15.4804 16.8946 15.7348 17 16 17C16.2652 17 16.5196 16.8946 16.7071 16.7071C16.8946 16.5196 17 16.2652 17 16C17 15.7348 16.8946 15.4804 16.7071 15.2929C16.5196 15.1054 16.2652 15 16 15ZM13 16C13 15.2044 13.3161 14.4413 13.8787 13.8787C14.4413 13.3161 15.2044 13 16 13C16.7956 13 17.5587 13.3161 18.1213 13.8787C18.6839 14.4413 19 15.2044 19 16C19 16.7956 18.6839 17.5587 18.1213 18.1213C17.5587 18.6839 16.7956 19 16 19C15.2044 19 14.4413 18.6839 13.8787 18.1213C13.3161 17.5587 13 16.7956 13 16Z" fill="var(--fill-0, white)"/>
</g>
<defs>
<clipPath id="clip0_10295_22079">
<rect width="32" height="32" fill="white"/>
</clipPath>
</defs>
</svg>
