<svg preserveAspectRatio="none" width="100%" height="100%" overflow="visible" style="display: block;" viewBox="0 0 22 22" fill="none" xmlns="http://www.w3.org/2000/svg">
<g id="Frame 2147225116">
<path id="Vector" d="M2.61905 0C1.17883 0 0 1.17883 0 2.61905V19.381C0 20.8212 1.17883 22 2.61905 22H19.381C20.8212 22 22 20.8212 22 19.381V2.61905C22 1.17883 20.8212 0 19.381 0H2.61905ZM2.61905 1.04762H6.06576C4.19519 2.99393 3.14286 5.50947 3.14286 8.11905C3.14286 10.8219 4.24818 13.4094 6.23865 15.3685C6.30151 15.4785 6.35377 16.0179 6.11282 16.6412C5.96091 17.034 5.65698 17.5472 5.07031 17.741C4.84508 17.8143 4.69857 18.0352 4.71429 18.2709C4.73 18.5066 4.90327 18.7056 5.13374 18.7528C6.63708 19.0514 7.61058 18.6005 8.3963 18.2443C9.10344 17.9196 9.57033 17.6993 10.2879 17.9927C11.7546 18.5636 13.3152 18.8571 14.9286 18.8571C17.0729 18.8571 19.1355 18.3337 20.9524 17.3451V19.381C20.9524 20.2549 20.2549 20.9524 19.381 20.9524H2.61905C1.74508 20.9524 1.04762 20.2549 1.04762 19.381V2.61905C1.04762 1.74508 1.74508 1.04762 2.61905 1.04762ZM15.1905 5.76191C15.4786 5.76191 15.7143 5.99762 15.7143 6.28571V11C15.7143 11.2881 15.4786 11.5238 15.1905 11.5238C14.9024 11.5238 14.6667 11.2881 14.6667 11V6.28571C14.6667 5.99762 14.9024 5.76191 15.1905 5.76191ZM7.33333 6.28571H9.95238C10.141 6.28571 10.3195 6.39023 10.4138 6.55785C10.5028 6.72023 10.4969 6.92439 10.3974 7.08677L8.2766 10.4762H9.95238C10.2405 10.4762 10.4762 10.7119 10.4762 11C10.4762 11.2881 10.2405 11.5238 9.95238 11.5238H7.33333C7.14476 11.5238 6.96622 11.4193 6.87193 11.2517C6.78288 11.0893 6.78878 10.8851 6.8883 10.7227L9.00912 7.33333H7.33333C7.04524 7.33333 6.80952 7.09762 6.80952 6.80952C6.80952 6.52143 7.04524 6.28571 7.33333 6.28571ZM12.3095 7.85714C12.629 7.85714 12.9273 7.94578 13.1945 8.09245C13.2888 7.95626 13.4357 7.85714 13.619 7.85714C13.9071 7.85714 14.1429 8.09286 14.1429 8.38095V11C14.1429 11.2881 13.9071 11.5238 13.619 11.5238C13.4357 11.5238 13.2888 11.4247 13.1945 11.2885C12.9273 11.4352 12.629 11.5238 12.3095 11.5238C11.2986 11.5238 10.4762 10.7014 10.4762 9.69048C10.4762 8.67952 11.2986 7.85714 12.3095 7.85714ZM18.0714 7.85714C19.0824 7.85714 19.9048 8.67952 19.9048 9.69048C19.9048 10.7014 19.0824 11.5238 18.0714 11.5238C17.0605 11.5238 16.2381 10.7014 16.2381 9.69048C16.2381 8.67952 17.0605 7.85714 18.0714 7.85714ZM12.3095 8.90476C12.2552 8.90476 12.2022 8.91069 12.1509 8.92113C12.0485 8.94202 11.9532 8.98237 11.8696 9.03878C11.786 9.0952 11.7142 9.16697 11.6578 9.25056C11.6014 9.33414 11.5611 9.42949 11.5402 9.5319C11.5297 9.58311 11.5238 9.63613 11.5238 9.69048C11.5238 9.74482 11.5297 9.79785 11.5402 9.84905C11.5506 9.90026 11.5653 9.94935 11.5852 9.99637C11.605 10.0434 11.6296 10.0886 11.6578 10.1304C11.686 10.1722 11.7185 10.2105 11.754 10.246C11.7895 10.2815 11.8278 10.314 11.8696 10.3422C11.9532 10.3986 12.0485 10.4389 12.1509 10.4598C12.2022 10.4703 12.2552 10.4762 12.3095 10.4762C12.3639 10.4762 12.4169 10.4703 12.4681 10.4598C12.8265 10.3867 13.0952 10.0709 13.0952 9.69048C13.0952 9.25571 12.7443 8.90476 12.3095 8.90476ZM18.0714 8.90476C18.0171 8.90476 17.9641 8.91069 17.9129 8.92113C17.8616 8.93158 17.8126 8.9463 17.7655 8.96615C17.7185 8.98599 17.6733 9.01058 17.6315 9.03878C17.5897 9.06699 17.5514 9.09943 17.5159 9.13495C17.4449 9.20599 17.3868 9.29054 17.3471 9.38458C17.3273 9.4316 17.3125 9.4807 17.3021 9.5319C17.2916 9.58311 17.2857 9.63613 17.2857 9.69048C17.2857 9.74482 17.2916 9.79785 17.3021 9.84905C17.3125 9.90026 17.3273 9.94935 17.3471 9.99637C17.3669 10.0434 17.3915 10.0886 17.4197 10.1304C17.4479 10.1722 17.4804 10.2105 17.5159 10.246C17.5514 10.2815 17.5897 10.314 17.6315 10.3422C17.6733 10.3704 17.7185 10.395 17.7655 10.4148C17.8126 10.4347 17.8616 10.4494 17.9129 10.4598C17.9641 10.4703 18.0171 10.4762 18.0714 10.4762C18.1258 10.4762 18.1788 10.4703 18.23 10.4598C18.5884 10.3867 18.8571 10.0709 18.8571 9.69048C18.8571 9.25571 18.5062 8.90476 18.0714 8.90476Z" fill="var(--fill-0, #01BCBC)"/>
</g>
</svg>
