<svg preserveAspectRatio="none" width="100%" height="100%" overflow="visible" style="display: block;" viewBox="0 0 26 28.6667" fill="none" xmlns="http://www.w3.org/2000/svg">
<path id="Icon" d="M25 11.6667H1M25 15V10.0667C25 7.82646 25 6.70635 24.564 5.8507C24.1805 5.09806 23.5686 4.48613 22.816 4.10264C21.9603 3.66667 20.8402 3.66667 18.6 3.66667H7.4C5.15979 3.66667 4.03969 3.66667 3.18404 4.10264C2.43139 4.48613 1.81947 5.09806 1.43597 5.8507C1 6.70635 1 7.82646 1 10.0667V21.2667C1 23.5069 1 24.627 1.43597 25.4826C1.81947 26.2353 2.43139 26.8472 3.18404 27.2307C4.03969 27.6667 5.15979 27.6667 7.4 27.6667H13M18.3333 1V6.33333M7.66667 1V6.33333M16.3333 23.6667L19 26.3333L25 20.3333" stroke="var(--stroke-0, white)" stroke-width="2" stroke-linecap="round" stroke-linejoin="round"/>
</svg>
