<svg preserveAspectRatio="none" width="100%" height="100%" overflow="visible" style="display: block;" viewBox="0 0 24 24" fill="none" xmlns="http://www.w3.org/2000/svg">
<g id="ri:gps-line">
<path id="Vector" d="M7.13224 20.7372C5.57615 19.87 4.27996 18.6029 3.37771 17.0669C2.47546 15.5308 1.99991 13.7817 2.00024 12.0002C2.00024 6.47724 6.47724 2.00024 12.0002 2.00024C17.5232 2.00024 22.0002 6.47724 22.0002 12.0002C22.0006 13.7817 21.525 15.5308 20.6228 17.0669C19.7205 18.6029 18.4243 19.87 16.8682 20.7372L15.9722 18.9462C17.5032 18.0704 18.7018 16.7132 19.3816 15.0857C20.0615 13.4582 20.1844 11.6516 19.7312 9.94701C19.2781 8.24242 18.2744 6.73535 16.8761 5.66024C15.4779 4.58513 13.7635 4.00224 11.9997 4.00224C10.236 4.00224 8.52161 4.58513 7.12336 5.66024C5.72512 6.73535 4.72137 8.24242 4.26825 9.94701C3.81512 11.6516 3.93803 13.4582 4.61784 15.0857C5.29766 16.7132 6.49627 18.0704 8.02724 18.9462L7.13224 20.7372ZM8.92424 17.1532C7.79659 16.4801 6.92095 15.4555 6.43167 14.2367C5.9424 13.0179 5.86652 11.6723 6.21567 10.4063C6.56483 9.14021 7.31974 8.02369 8.36456 7.22801C9.40939 6.43232 10.6864 6.00142 11.9997 6.00142C13.3131 6.00142 14.5901 6.43232 15.6349 7.22801C16.6798 8.02369 17.4347 9.14021 17.7838 10.4063C18.133 11.6723 18.0571 13.0179 17.5678 14.2367C17.0785 15.4555 16.2029 16.4801 15.0752 17.1532L14.1772 15.3562C14.901 14.8867 15.4536 14.1957 15.7525 13.3863C16.0514 12.577 16.0806 11.6927 15.8358 10.8654C15.5909 10.0381 15.0852 9.31211 14.3939 8.79581C13.7027 8.27951 12.863 8.00055 12.0002 8.00055C11.1375 8.00055 10.2978 8.27951 9.60657 8.79581C8.91533 9.31211 8.40955 10.0381 8.1647 10.8654C7.91985 11.6927 7.94906 12.577 8.24796 13.3863C8.54686 14.1957 9.09944 14.8867 9.82324 15.3562L8.92424 17.1532ZM12.0002 16.0002L15.0002 22.0002H9.00024L12.0002 16.0002Z" fill="var(--fill-0, white)"/>
</g>
</svg>
