<svg preserveAspectRatio="none" width="100%" height="100%" overflow="visible" style="display: block;" viewBox="0 0 32 32" fill="none" xmlns="http://www.w3.org/2000/svg">
<g id="ri:gps-line">
<path id="Vector" d="M9.50966 27.6497C7.43486 26.4934 5.70661 24.8039 4.50361 22.7558C3.30061 20.7078 2.66655 18.3756 2.66699 16.0003C2.66699 8.63633 8.63633 2.66699 16.0003 2.66699C23.3643 2.66699 29.3337 8.63633 29.3337 16.0003C29.3341 18.3756 28.7 20.7078 27.497 22.7558C26.294 24.8039 24.5658 26.4934 22.491 27.6497L21.2963 25.2617C23.3376 24.0939 24.9358 22.2842 25.8422 20.1142C26.7486 17.9442 26.9125 15.5355 26.3083 13.2627C25.7042 10.9899 24.3658 8.98047 22.5015 7.54699C20.6372 6.1135 18.3514 5.33631 15.9997 5.33631C13.6479 5.33631 11.3621 6.1135 9.49782 7.54699C7.63349 8.98047 6.29516 10.9899 5.691 13.2627C5.08683 15.5355 5.25071 17.9442 6.15713 20.1142C7.06355 22.2842 8.6617 24.0939 10.703 25.2617L9.50966 27.6497ZM11.899 22.871C10.3954 21.9734 9.22793 20.6073 8.57556 18.9823C7.9232 17.3573 7.82202 15.5631 8.28756 13.875C8.75311 12.187 9.75965 10.6983 11.1528 9.63734C12.5459 8.57643 14.2486 8.00189 15.9997 8.00189C17.7507 8.00189 19.4535 8.57643 20.8466 9.63734C22.2397 10.6983 23.2462 12.187 23.7118 13.875C24.1773 15.5631 24.0761 17.3573 23.4238 18.9823C22.7714 20.6073 21.6039 21.9734 20.1003 22.871L18.903 20.475C19.8681 19.8489 20.6048 18.9276 21.0034 17.8484C21.4019 16.7693 21.4408 15.5902 21.1144 14.4872C20.7879 13.3841 20.1135 12.4162 19.1919 11.7278C18.2702 11.0394 17.1507 10.6674 16.0003 10.6674C14.85 10.6674 13.7304 11.0394 12.8088 11.7278C11.8871 12.4162 11.2127 13.3841 10.8863 14.4872C10.5598 15.5902 10.5987 16.7693 10.9973 17.8484C11.3958 18.9276 12.1326 19.8489 13.0977 20.475L11.899 22.871ZM16.0003 21.3337L20.0003 29.3337H12.0003L16.0003 21.3337Z" fill="var(--fill-0, white)"/>
</g>
</svg>
