<svg preserveAspectRatio="none" width="100%" height="100%" overflow="visible" style="display: block;" viewBox="0 0 18.7499 20.75" fill="none" xmlns="http://www.w3.org/2000/svg">
<g id="Shape" filter="url(#filter0_d_10295_22039)">
<path fill-rule="evenodd" clip-rule="evenodd" d="M5.20549 13.848C4.92761 13.4718 4.59004 12.7026 3.98927 11.7689C3.64877 11.2408 2.80436 10.2463 2.5529 9.74116C2.33471 9.29474 2.35819 9.09459 2.41005 8.72467C2.50202 8.06657 3.13215 7.55413 3.80434 7.62329C4.31216 7.67464 4.74268 8.03408 5.13015 8.37361C5.364 8.57796 5.65166 8.97512 5.82485 9.19938C5.98434 9.40478 6.02348 9.48966 6.19373 9.73278C6.41877 10.0545 6.48922 10.2138 6.40311 9.85958C6.33364 9.33981 6.22014 8.45221 6.05576 7.6673C5.93052 7.07208 5.90019 6.97881 5.78082 6.52191C5.6546 6.03567 5.59002 5.69509 5.47163 5.17951C5.38944 4.81483 5.24169 4.06975 5.20157 3.65057C5.1458 3.07735 5.11645 2.1426 5.45989 1.71294C5.72896 1.37656 6.34636 1.27491 6.72894 1.4824C7.22991 1.75381 7.51464 2.53347 7.64477 2.84471C7.87862 3.40431 8.02343 4.05088 8.14965 4.89971C8.31012 5.98013 8.60561 7.47972 8.6154 7.79515C8.63888 7.40846 8.54886 6.59422 8.61148 6.22325C8.66823 5.88686 8.93241 5.49598 9.26313 5.39014C9.54297 5.30107 9.87075 5.26858 10.1594 5.33251C10.4657 5.39957 10.7885 5.63431 10.9089 5.85543C11.2631 6.50934 11.2699 7.84545 11.2846 7.77419C11.3688 7.38017 11.3541 6.48628 11.5625 6.11426C11.6995 5.86905 12.0488 5.64793 12.2347 5.6123C12.5224 5.55781 12.8756 5.54105 13.1779 5.60392C13.4216 5.65527 13.7513 5.96546 13.8403 6.11426C14.0536 6.47475 14.175 7.49439 14.2112 7.85174C14.2258 7.9995 14.2836 7.44095 14.4979 7.08046C14.8951 6.41083 16.3011 6.28089 16.355 7.75009C16.3794 8.43544 16.3745 8.404 16.3745 8.86509C16.3745 9.40688 16.3628 9.73278 16.3354 10.1247C16.3051 10.5439 16.2209 11.4912 16.0986 11.9502C16.0145 12.2656 15.7356 12.9751 15.4607 13.4006C15.4607 13.4006 14.4098 14.7105 14.2953 15.3005C14.1799 15.8894 14.218 15.8936 14.1955 16.3117C14.173 16.7288 14.3139 17.2779 14.3139 17.2779C14.3139 17.2779 13.5292 17.3869 13.1065 17.3146C12.7239 17.2486 12.2503 16.4333 12.128 16.1839C11.9597 15.8401 11.6007 15.9062 11.4607 16.1598C11.2406 16.5611 10.767 17.2811 10.4324 17.3261C9.77878 17.4141 8.42264 17.3586 7.36102 17.3471C7.36102 17.3471 7.54203 16.2876 7.13891 15.924C6.84048 15.6526 6.32679 15.1024 6.01956 14.8132L5.20549 13.848Z" fill="var(--fill-0, white)"/>
<path fill-rule="evenodd" clip-rule="evenodd" d="M5.20549 13.848C4.92761 13.4718 4.59004 12.7026 3.98927 11.7689C3.64877 11.2408 2.80436 10.2463 2.5529 9.74116C2.33471 9.29474 2.35819 9.09459 2.41005 8.72467C2.50202 8.06657 3.13215 7.55413 3.80434 7.62329C4.31216 7.67464 4.74268 8.03408 5.13015 8.37361C5.364 8.57796 5.65166 8.97512 5.82485 9.19938C5.98434 9.40478 6.02348 9.48966 6.19373 9.73278C6.41877 10.0545 6.48922 10.2138 6.40311 9.85958C6.33364 9.33981 6.22014 8.45221 6.05576 7.6673C5.93052 7.07208 5.90019 6.97881 5.78082 6.52191C5.6546 6.03567 5.59002 5.69509 5.47163 5.17951C5.38944 4.81483 5.24169 4.06975 5.20157 3.65057C5.1458 3.07735 5.11645 2.1426 5.45989 1.71294C5.72896 1.37656 6.34636 1.27491 6.72894 1.4824C7.22991 1.75381 7.51464 2.53347 7.64477 2.84471C7.87862 3.40431 8.02343 4.05088 8.14965 4.89971C8.31012 5.98013 8.60561 7.47972 8.6154 7.79515C8.63888 7.40846 8.54886 6.59422 8.61148 6.22325C8.66823 5.88686 8.93241 5.49598 9.26313 5.39014C9.54297 5.30107 9.87075 5.26858 10.1594 5.33251C10.4657 5.39957 10.7885 5.63431 10.9089 5.85543C11.2631 6.50934 11.2699 7.84545 11.2846 7.77419C11.3688 7.38017 11.3541 6.48628 11.5625 6.11426C11.6995 5.86905 12.0488 5.64793 12.2347 5.6123C12.5224 5.55781 12.8756 5.54105 13.1779 5.60392C13.4216 5.65527 13.7513 5.96546 13.8403 6.11426C14.0536 6.47475 14.175 7.49439 14.2112 7.85174C14.2258 7.9995 14.2836 7.44095 14.4979 7.08046C14.8951 6.41083 16.3011 6.28089 16.355 7.75009C16.3794 8.43544 16.3745 8.404 16.3745 8.86509C16.3745 9.40688 16.3628 9.73278 16.3354 10.1247C16.3051 10.5439 16.2209 11.4912 16.0986 11.9502C16.0145 12.2656 15.7356 12.9751 15.4607 13.4006C15.4607 13.4006 14.4098 14.7105 14.2953 15.3005C14.1799 15.8894 14.218 15.8936 14.1955 16.3117C14.173 16.7288 14.3139 17.2779 14.3139 17.2779C14.3139 17.2779 13.5292 17.3869 13.1065 17.3146C12.7239 17.2486 12.2503 16.4333 12.128 16.1839C11.9597 15.8401 11.6007 15.9062 11.4607 16.1598C11.2406 16.5611 10.767 17.2811 10.4324 17.3261C9.77878 17.4141 8.42264 17.3586 7.36102 17.3471C7.36102 17.3471 7.54203 16.2876 7.13891 15.924C6.84048 15.6526 6.32679 15.1024 6.01956 14.8132L5.20549 13.848Z" stroke="var(--stroke-0, #101828)" stroke-width="0.75" stroke-linecap="round" stroke-linejoin="round"/>
</g>
<defs>
<filter id="filter0_d_10295_22039" x="0" y="-5.96046e-08" width="18.7499" height="20.75" filterUnits="userSpaceOnUse" color-interpolation-filters="sRGB">
<feFlood flood-opacity="0" result="BackgroundImageFix"/>
<feColorMatrix in="SourceAlpha" type="matrix" values="0 0 0 0 0 0 0 0 0 0 0 0 0 0 0 0 0 0 127 0" result="hardAlpha"/>
<feOffset dy="1"/>
<feGaussianBlur stdDeviation="1"/>
<feColorMatrix type="matrix" values="0 0 0 0 0 0 0 0 0 0 0 0 0 0 0 0 0 0 0.24 0"/>
<feBlend mode="normal" in2="BackgroundImageFix" result="effect1_dropShadow_10295_22039"/>
<feBlend mode="normal" in="SourceGraphic" in2="effect1_dropShadow_10295_22039" result="shape"/>
</filter>
</defs>
</svg>
