<svg preserveAspectRatio="none" width="100%" height="100%" overflow="visible" style="display: block;" viewBox="0 0 83.0752 16.1861" fill="none" xmlns="http://www.w3.org/2000/svg">
<g id="App Gallery">
<path d="M3.79413 7.82259H7.28987L6.0384 4.47241C5.86613 4.00958 5.6968 3.49843 5.52987 2.93854C5.3792 3.43385 5.21493 3.93958 5.03733 4.45625L3.79413 7.82259ZM7.8872 9.41302H3.20479L2.05866 12.5453H0L4.58533 0.847714H6.53094L11.2213 12.5453H9.05786L7.8872 9.41302Z" fill="white"/>
<path d="M17.2942 10.4181C17.7006 9.87197 17.9037 9.07395 17.9037 8.02448C17.9037 7.05051 17.7355 6.34395 17.3992 5.9052C17.0627 5.46667 16.6147 5.24739 16.0549 5.24739C15.6675 5.24739 15.3096 5.33907 14.9813 5.52187C14.6531 5.70488 14.3408 5.94968 14.0448 6.25645V10.9227C14.244 11.0195 14.4755 11.0962 14.7392 11.1525C15.0029 11.2094 15.264 11.2376 15.5222 11.2376C16.2974 11.2376 16.8878 10.9643 17.2942 10.4181ZM12.051 5.96592C12.051 5.32011 12.0294 4.60957 11.9864 3.83469H13.8592C13.9291 4.19531 13.9776 4.56405 14.0046 4.94061C14.7795 4.09584 15.6675 3.67312 16.6686 3.67312C17.2499 3.67312 17.788 3.81979 18.2832 4.11301C18.7782 4.40645 19.1779 4.86925 19.4819 5.50155C19.7862 6.13405 19.9381 6.93749 19.9381 7.91147C19.9381 8.92864 19.7646 9.79792 19.4174 10.519C19.0702 11.2403 18.5845 11.7863 17.9603 12.1579C17.336 12.5291 16.6147 12.7149 15.7968 12.7149C15.2045 12.7149 14.6205 12.6152 14.0448 12.4162V16.0166L12.051 16.1861V5.96592Z" fill="white"/>
<path d="M26.3915 10.4181C26.7979 9.87197 27.0011 9.07395 27.0011 8.02448C27.0011 7.05051 26.8328 6.34395 26.4965 5.9052C26.16 5.46667 25.712 5.24739 25.1523 5.24739C24.7648 5.24739 24.4069 5.33907 24.0787 5.52187C23.7501 5.70488 23.4381 5.94968 23.1421 6.25645V10.9227C23.3413 11.0195 23.5725 11.0962 23.8365 11.1525C24.1 11.2094 24.3611 11.2376 24.6195 11.2376C25.3944 11.2376 25.9851 10.9643 26.3915 10.4181ZM21.148 5.96592C21.148 5.32011 21.1264 4.60957 21.0835 3.83469H22.9565C23.0264 4.19531 23.0749 4.56405 23.1019 4.94061C23.8768 4.09584 24.7648 3.67312 25.7659 3.67312C26.3472 3.67312 26.8851 3.81979 27.3805 4.11301C27.8755 4.40645 28.2752 4.86925 28.5795 5.50155C28.8832 6.13405 29.0355 6.93749 29.0355 7.91147C29.0355 8.92864 28.8616 9.79792 28.5147 10.519C28.1675 11.2403 27.6816 11.7863 27.0576 12.1579C26.4331 12.5291 25.712 12.7149 24.8939 12.7149C24.3019 12.7149 23.7179 12.6152 23.1421 12.4162V16.0166L21.148 16.1861V5.96592Z" fill="white"/>
<path d="M32.6984 11.9923C31.8371 11.5162 31.1752 10.8338 30.7125 9.94584C30.2493 9.05781 30.0181 8.00832 30.0181 6.79738C30.0181 5.48437 30.2846 4.36875 30.8174 3.45104C31.3502 2.53365 32.0755 1.84469 32.9928 1.38448C33.9107 0.924371 34.9397 0.694265 36.0811 0.694265C36.7536 0.694265 37.3955 0.768317 38.0064 0.916237C38.6171 1.06437 39.1861 1.26739 39.7139 1.52584L39.2051 3.05957C38.1448 2.55373 37.1331 2.30072 36.1699 2.30072C35.3571 2.30072 34.6453 2.47437 34.0347 2.82154C33.4237 3.16874 32.9486 3.67864 32.6096 4.35136C32.2704 5.02416 32.1011 5.83677 32.1011 6.78925C32.1011 7.62373 32.2315 8.36354 32.4923 9.00936C32.7536 9.6552 33.1654 10.1667 33.7278 10.5432C34.2902 10.92 34.9992 11.1082 35.8549 11.1082C36.2424 11.1082 36.6299 11.076 37.0174 11.0115C37.4048 10.947 37.7683 10.8528 38.1072 10.7289V8.36354H35.403V6.81354H40.0448V11.7381C39.3773 12.0501 38.6763 12.2899 37.9419 12.4566C37.207 12.6232 36.4766 12.7067 35.7499 12.7067C34.5766 12.7067 33.5592 12.4689 32.6984 11.9923Z" fill="white"/>
<path d="M45.936 10.9306C46.3501 10.7318 46.6894 10.4839 46.9531 10.188V8.57344C46.4094 8.51437 45.9654 8.48469 45.6211 8.48469C44.7976 8.48469 44.2283 8.6177 43.9139 8.88437C43.5987 9.1504 43.4413 9.50989 43.4413 9.96186C43.4413 10.3928 43.5558 10.7115 43.7846 10.9186C44.0134 11.1258 44.324 11.2294 44.7168 11.2294C45.1149 11.2294 45.5213 11.1299 45.936 10.9306ZM47.1307 12.5453C47.0606 12.2061 47.0147 11.8215 46.9934 11.3909C46.6867 11.7571 46.2872 12.0677 45.7944 12.3234C45.3024 12.579 44.7464 12.7067 44.1275 12.7067C43.627 12.7067 43.171 12.6085 42.759 12.412C42.3478 12.2157 42.0205 11.9197 41.7784 11.5239C41.5363 11.1285 41.4149 10.6456 41.4149 10.0749C41.4149 9.2301 41.7189 8.55592 42.3272 8.05259C42.9355 7.54947 43.9499 7.29792 45.3707 7.29792C45.9035 7.29792 46.431 7.33573 46.9531 7.41093V7.24147C46.9531 6.47187 46.7888 5.92968 46.4605 5.61459C46.1323 5.3 45.6613 5.14251 45.048 5.14251C44.6227 5.14251 44.168 5.20448 43.6835 5.32813C43.1992 5.45208 42.7739 5.6 42.408 5.77219L42.0931 4.31907C42.4483 4.15749 42.9166 4.00957 43.4979 3.87498C44.0792 3.74061 44.6925 3.67312 45.3384 3.67312C46.092 3.67312 46.7323 3.78749 47.2598 4.01613C47.7872 4.24499 48.1989 4.63803 48.4949 5.1948C48.7909 5.75208 48.939 6.50154 48.939 7.44322V10.9063C48.939 11.2672 48.9603 11.8137 49.0035 12.5453H47.1307Z" fill="white"/>
<path d="M50.4688 10.4544V0.161466L52.4547 0V10.0992C52.4547 10.4706 52.5179 10.7328 52.6443 10.8863C52.7707 11.0395 52.9712 11.1166 53.2459 11.1166C53.3696 11.1166 53.5445 11.087 53.7704 11.0277L54.0045 12.4566C53.816 12.532 53.5861 12.5925 53.3147 12.6381C53.0427 12.6837 52.7856 12.7067 52.5435 12.7067C51.16 12.7067 50.4688 11.956 50.4688 10.4544Z" fill="white"/>
<path d="M55.4336 10.4544V0.161466L57.4195 0V10.0992C57.4195 10.4706 57.4827 10.7328 57.6091 10.8863C57.7357 11.0395 57.9363 11.1166 58.2107 11.1166C58.3344 11.1166 58.5093 11.087 58.7355 11.0277L58.9696 12.4566C58.7811 12.532 58.5509 12.5925 58.2795 12.6381C58.0075 12.6837 57.7504 12.7067 57.5083 12.7067C56.1251 12.7067 55.4336 11.956 55.4336 10.4544Z" fill="white"/>
<path d="M65.1925 7.17688C65.1525 6.48259 64.9792 5.96197 64.6672 5.61459C64.3552 5.26771 63.9366 5.09394 63.4166 5.09394C62.9099 5.09394 62.4885 5.26907 62.1525 5.61875C61.8165 5.96875 61.5952 6.48803 61.4939 7.17688H65.1925ZM67.1366 8.44427H61.4379C61.5285 10.2689 62.3979 11.181 64.0459 11.181C64.4539 11.181 64.8726 11.1313 65.3019 11.0318C65.7286 10.932 66.1392 10.799 66.5312 10.632L66.9686 11.9962C65.9926 12.4701 64.8992 12.7067 63.6832 12.7067C62.7552 12.7067 61.9766 12.532 61.3419 12.1821C60.7046 11.8323 60.2272 11.3291 59.9072 10.6723C59.5877 10.016 59.4275 9.2248 59.4275 8.29896C59.4275 7.33573 59.5971 6.50677 59.9366 5.81251C60.2752 5.11821 60.7472 4.58821 61.3525 4.22219C61.9579 3.85624 62.6566 3.67312 63.4486 3.67312C64.2726 3.67312 64.9579 3.86563 65.5099 4.25051C66.0619 4.63509 66.4699 5.14792 66.7366 5.78821C67.0032 6.42896 67.1366 7.13645 67.1366 7.91147V8.44427Z" fill="white"/>
<path d="M68.6459 6.02241C68.6459 5.54355 68.6219 4.81438 68.5792 3.8347H70.4459C70.4779 4.07689 70.5072 4.36614 70.5392 4.70259C70.5685 5.03886 70.5872 5.31198 70.5979 5.52187C70.8299 5.13979 71.0565 4.81822 71.2805 4.55729C71.5045 4.29603 71.7659 4.08366 72.0645 3.91926C72.3632 3.75521 72.7019 3.67313 73.0859 3.67313C73.3925 3.67313 73.6539 3.70553 73.8752 3.77011L73.6245 5.49771C73.4325 5.43854 73.2165 5.40886 72.9792 5.40886C72.5125 5.40886 72.1019 5.52865 71.7525 5.76822C71.4032 6.0075 71.0299 6.40177 70.6299 6.95073V12.5453H68.6459V6.02241Z" fill="white"/>
<path d="M74.9952 16.1094C74.7046 16.0584 74.4645 16.0005 74.2779 15.936L74.6405 14.4829C74.7739 14.5203 74.9446 14.5568 75.1499 14.5918C75.3526 14.627 75.5472 14.6443 75.7312 14.6443C76.6139 14.6443 77.2752 14.0762 77.7152 12.9408L77.8459 12.6179L74.6325 3.83469H76.7712L78.3872 8.7429C78.6485 9.58269 78.8192 10.2258 78.8939 10.6723C79.0459 10.0427 79.2219 9.41301 79.4272 8.78333L81.0672 3.83469H83.0752L79.8725 12.6584C79.5712 13.4925 79.2432 14.1651 78.8939 14.6766C78.5445 15.1877 78.1312 15.5672 77.6566 15.8149C77.1792 16.0622 76.6059 16.1861 75.9312 16.1861C75.5979 16.1861 75.2859 16.1608 74.9952 16.1094Z" fill="white"/>
</g>
</svg>
