<svg preserveAspectRatio="none" width="100%" height="100%" overflow="visible" style="display: block;" viewBox="0 0 24 24" fill="none" xmlns="http://www.w3.org/2000/svg">
<g id="oui:integration-general" clip-path="url(#clip0_10295_22647)">
<path id="Vector" fill-rule="evenodd" clip-rule="evenodd" d="M10.1902 5.80606C10.282 5.6362 10.4185 5.49463 10.5848 5.39665C10.7512 5.29866 10.9412 5.24798 11.1342 5.25006L13.2342 5.28206C13.4268 5.28628 13.6145 5.34288 13.7773 5.44577C13.9401 5.54866 14.0718 5.69396 14.1582 5.86606L14.9982 7.55406L16.4822 7.42806C16.6723 7.41298 16.8628 7.44941 17.0339 7.53353C17.205 7.61765 17.3502 7.74635 17.4542 7.90606L18.5142 9.55006C18.6281 9.7271 18.6861 9.93426 18.6807 10.1447C18.6754 10.3551 18.6069 10.559 18.4842 10.7301L17.7042 11.8221L18.5342 12.9181C18.7922 13.2581 18.8182 13.7221 18.5982 14.0901L17.5982 15.7661C17.4988 15.9304 17.3567 16.0647 17.1869 16.1545C17.0171 16.2444 16.8261 16.2864 16.6342 16.2761L15.0642 16.1801L14.0982 18.1581C14.0108 18.3339 13.8762 18.482 13.7095 18.5858C13.5429 18.6896 13.3506 18.7451 13.1542 18.7461H10.9902C10.7942 18.7447 10.6024 18.6891 10.4361 18.5853C10.2698 18.4815 10.1355 18.3336 10.0482 18.1581L9.14024 16.3001L7.46024 16.4521C7.26658 16.4683 7.07218 16.431 6.89828 16.3443C6.72439 16.2575 6.57769 16.1246 6.47424 15.9601L5.41224 14.2501C5.2996 14.0686 5.245 13.857 5.25572 13.6437C5.26644 13.4303 5.34197 13.2254 5.47224 13.0561L6.43224 11.8061L5.66024 10.7281C5.53784 10.5568 5.46973 10.3528 5.46474 10.1424C5.45975 9.93196 5.5181 9.7249 5.63224 9.54806L6.69224 7.90406C6.79614 7.74466 6.94103 7.61617 7.1117 7.53206C7.28237 7.44796 7.47254 7.41134 7.66224 7.42606L9.25624 7.56206L10.1902 5.80606ZM11.3862 6.75406L10.4422 8.53006C10.3448 8.71093 10.1969 8.85959 10.0165 8.95794C9.83613 9.0563 9.63106 9.10011 9.42624 9.08406L7.80624 8.94606L7.05824 10.1061L7.84624 11.2061C7.97733 11.389 8.04615 11.6093 8.04254 11.8344C8.03894 12.0594 7.96311 12.2774 7.82624 12.4561L6.85024 13.7241L7.60224 14.9361L9.31424 14.7801C9.52637 14.7604 9.73946 14.8057 9.92521 14.9101C10.111 15.0144 10.2606 15.1727 10.3542 15.3641L11.2722 17.2461H12.8722L13.8482 15.2521C13.9404 15.0669 14.0848 14.9127 14.2636 14.8086C14.4423 14.7045 14.6477 14.6549 14.8542 14.6661L16.4502 14.7621L17.1542 13.5821L16.3062 12.4621C16.1713 12.2835 16.097 12.0665 16.0942 11.8427C16.0913 11.6189 16.16 11.4001 16.2902 11.2181L17.0882 10.1061L16.3402 8.94606L14.8202 9.07406C14.6102 9.09197 14.3996 9.04622 14.2159 8.94277C14.0322 8.83933 13.8838 8.68297 13.7902 8.49406L12.9362 6.77806L11.3862 6.75406Z" fill="var(--fill-0, white)"/>
<path id="Vector_2" d="M20.5638 14.8001C19.9571 16.673 18.753 18.2953 17.1361 19.4184C15.5192 20.5415 13.5786 21.1034 11.6117 21.0181C9.64484 20.9327 7.76022 20.2048 6.24663 18.9459C4.73305 17.687 3.67401 15.9665 3.2318 14.0481L4.9338 13.7121L1.6938 10.3601L-0.00219727 14.6941L1.7918 14.3421C2.29247 16.5941 3.52088 18.6185 5.28718 20.1025C7.05349 21.5865 9.25938 22.4475 11.564 22.5524C13.8686 22.6574 16.1436 22.0004 18.0374 20.683C19.9313 19.3657 21.3386 17.4612 22.0418 15.2641L20.5638 14.8001ZM22.2358 9.72006C21.7349 7.46816 20.5063 5.4439 18.7398 3.96009C16.9734 2.47629 14.7674 1.61553 12.4629 1.51082C10.1583 1.40612 7.88339 2.06331 5.98968 3.38083C4.09596 4.69835 2.68886 6.60286 1.9858 8.80006L3.4118 9.26406C4.01831 7.39113 5.22221 5.76874 6.839 4.64548C8.45579 3.52223 10.3963 2.96009 12.3631 3.0452C14.33 3.13031 16.2147 3.85797 17.7284 5.11669C19.2421 6.37541 20.3013 8.09574 20.7438 10.0141L19.0418 10.3521L22.2818 13.6961L23.9978 9.36806L22.2358 9.72006Z" fill="var(--fill-0, white)"/>
<path id="Vector_3" fill-rule="evenodd" clip-rule="evenodd" d="M12 11.25C11.8011 11.25 11.6103 11.329 11.4697 11.4697C11.329 11.6103 11.25 11.8011 11.25 12C11.25 12.1989 11.329 12.3897 11.4697 12.5303C11.6103 12.671 11.8011 12.75 12 12.75C12.1989 12.75 12.3897 12.671 12.5303 12.5303C12.671 12.3897 12.75 12.1989 12.75 12C12.75 11.8011 12.671 11.6103 12.5303 11.4697C12.3897 11.329 12.1989 11.25 12 11.25ZM9.75 12C9.75 11.4033 9.98705 10.831 10.409 10.409C10.831 9.98705 11.4033 9.75 12 9.75C12.5967 9.75 13.169 9.98705 13.591 10.409C14.0129 10.831 14.25 11.4033 14.25 12C14.25 12.5967 14.0129 13.169 13.591 13.591C13.169 14.0129 12.5967 14.25 12 14.25C11.4033 14.25 10.831 14.0129 10.409 13.591C9.98705 13.169 9.75 12.5967 9.75 12Z" fill="var(--fill-0, white)"/>
</g>
<defs>
<clipPath id="clip0_10295_22647">
<rect width="24" height="24" fill="white"/>
</clipPath>
</defs>
</svg>
