<svg preserveAspectRatio="none" width="100%" height="100%" overflow="visible" style="display: block;" viewBox="0 0 32 32" fill="none" xmlns="http://www.w3.org/2000/svg">
<g id="solar:eye-bold">
<path id="Vector" d="M13 16C13 15.2044 13.3161 14.4413 13.8787 13.8787C14.4413 13.3161 15.2044 13 16 13C16.7956 13 17.5587 13.3161 18.1213 13.8787C18.6839 14.4413 19 15.2044 19 16C19 16.7956 18.6839 17.5587 18.1213 18.1213C17.5587 18.6839 16.7956 19 16 19C15.2044 19 14.4413 18.6839 13.8787 18.1213C13.3161 17.5587 13 16.7956 13 16Z" fill="var(--fill-0, white)"/>
<path id="Vector_2" fill-rule="evenodd" clip-rule="evenodd" d="M2.66797 15.9987C2.66797 18.1854 3.23464 18.92 4.36797 20.3934C6.63064 23.332 10.4253 26.6654 16.0013 26.6654C21.5773 26.6654 25.372 23.332 27.6346 20.3934C28.768 18.9214 29.3346 18.184 29.3346 15.9987C29.3346 13.812 28.768 13.0774 27.6346 11.604C25.372 8.66537 21.5773 5.33203 16.0013 5.33203C10.4253 5.33203 6.63064 8.66537 4.36797 11.604C3.23464 13.0787 2.66797 13.8134 2.66797 15.9987ZM16.0013 10.9987C14.6752 10.9987 13.4035 11.5255 12.4658 12.4632C11.5281 13.4008 11.0013 14.6726 11.0013 15.9987C11.0013 17.3248 11.5281 18.5966 12.4658 19.5342C13.4035 20.4719 14.6752 20.9987 16.0013 20.9987C17.3274 20.9987 18.5992 20.4719 19.5368 19.5342C20.4745 18.5966 21.0013 17.3248 21.0013 15.9987C21.0013 14.6726 20.4745 13.4008 19.5368 12.4632C18.5992 11.5255 17.3274 10.9987 16.0013 10.9987Z" fill="var(--fill-0, white)"/>
</g>
</svg>
