<svg preserveAspectRatio="none" width="100%" height="100%" overflow="visible" style="display: block;" viewBox="0 0 76.0665 7.00793" fill="none" xmlns="http://www.w3.org/2000/svg">
<g id="Download on the">
<path d="M0 0.324145V6.91206H2.37859C4.34172 6.91206 5.47852 5.70222 5.47852 3.59756C5.47852 1.52485 4.33259 0.324145 2.37859 0.324145H0ZM1.02266 1.25549H2.26445C3.62952 1.25549 4.4376 2.12292 4.4376 3.61125C4.4376 5.12241 3.64321 5.98071 2.26445 5.98071H1.02266V1.25549Z" fill="var(--fill-0, white)"/>
<path d="M8.96011 7.00793C10.4119 7.00793 11.3022 6.0355 11.3022 4.4239C11.3022 2.82144 10.4074 1.84443 8.96011 1.84443C7.50831 1.84443 6.61348 2.82144 6.61348 4.4239C6.61348 6.0355 7.50374 7.00793 8.96011 7.00793ZM8.96011 6.13594C8.10638 6.13594 7.62701 5.51047 7.62701 4.4239C7.62701 3.34646 8.10638 2.71643 8.96011 2.71643C9.80928 2.71643 10.2932 3.34646 10.2932 4.4239C10.2932 5.50591 9.80928 6.13594 8.96011 6.13594Z" fill="var(--fill-0, white)"/>
<path d="M18.8835 1.94031H17.902L17.0163 5.73418H16.9387L15.916 1.94031H14.9755L13.9529 5.73418H13.8798L12.9896 1.94031H11.9943L13.3639 6.91206H14.3729L15.3955 3.25059H15.4732L16.5004 6.91206H17.5185L18.8835 1.94031Z" fill="var(--fill-0, white)"/>
<path d="M20.0139 6.91206H20.9955V4.00388C20.9955 3.22776 21.4566 2.74382 22.1825 2.74382C22.9084 2.74382 23.2554 3.14102 23.2554 3.93997V6.91206H24.237V3.69343C24.237 2.51099 23.6252 1.84443 22.5158 1.84443C21.7671 1.84443 21.274 2.17771 21.032 2.73013H20.959V1.94031H20.0139V6.91206Z" fill="var(--fill-0, white)"/>
<path d="M25.7828 6.91206H26.7644V0H25.7828V6.91206Z" fill="var(--fill-0, white)"/>
<path d="M30.456 7.00793C31.9078 7.00793 32.7981 6.0355 32.7981 4.4239C32.7981 2.82144 31.9032 1.84443 30.456 1.84443C29.0042 1.84443 28.1094 2.82144 28.1094 4.4239C28.1094 6.0355 28.9996 7.00793 30.456 7.00793ZM30.456 6.13594C29.6022 6.13594 29.1229 5.51047 29.1229 4.4239C29.1229 3.34646 29.6022 2.71643 30.456 2.71643C31.3052 2.71643 31.7891 3.34646 31.7891 4.4239C31.7891 5.50591 31.3052 6.13594 30.456 6.13594Z" fill="var(--fill-0, white)"/>
<path d="M35.7227 6.16789C35.1885 6.16789 34.8004 5.90767 34.8004 5.46025C34.8004 5.02197 35.1109 4.78914 35.7957 4.74348L37.0101 4.66587V5.08132C37.0101 5.69766 36.4623 6.16789 35.7227 6.16789ZM35.4716 6.99424C36.1244 6.99424 36.6677 6.71118 36.9645 6.21355H37.0421V6.91206H37.9871V3.51538C37.9871 2.46533 37.284 1.84443 36.0377 1.84443C34.91 1.84443 34.1065 2.39228 34.0061 3.24602H34.9557C35.0652 2.89448 35.4442 2.6936 35.992 2.6936C36.6631 2.6936 37.0101 2.99036 37.0101 3.51538V3.94453L35.6633 4.02214C34.4809 4.09519 33.8143 4.61108 33.8143 5.50591C33.8143 6.41443 34.5128 6.99424 35.4716 6.99424Z" fill="var(--fill-0, white)"/>
<path d="M41.3181 6.99424C42.0029 6.99424 42.5827 6.67009 42.8794 6.12681H42.957V6.91206H43.8975V0H42.916V2.73013H42.8429C42.5735 2.18228 41.9983 1.85813 41.3181 1.85813C40.0626 1.85813 39.2545 2.85339 39.2545 4.4239C39.2545 5.99897 40.0534 6.99424 41.3181 6.99424ZM41.5965 2.73926C42.4183 2.73926 42.9342 3.39211 42.9342 4.42847C42.9342 5.46938 42.4229 6.11311 41.5965 6.11311C40.7656 6.11311 40.268 5.47852 40.268 4.4239C40.268 3.37842 40.7702 2.73926 41.5965 2.73926Z" fill="var(--fill-0, white)"/>
<path d="M50.2626 7.00793C51.7145 7.00793 52.6047 6.0355 52.6047 4.4239C52.6047 2.82144 51.7099 1.84443 50.2626 1.84443C48.8108 1.84443 47.916 2.82144 47.916 4.4239C47.916 6.0355 48.8063 7.00793 50.2626 7.00793ZM50.2626 6.13594C49.4089 6.13594 48.9295 5.51047 48.9295 4.4239C48.9295 3.34646 49.4089 2.71643 50.2626 2.71643C51.1118 2.71643 51.5958 3.34646 51.5958 4.4239C51.5958 5.50591 51.1118 6.13594 50.2626 6.13594Z" fill="var(--fill-0, white)"/>
<path d="M53.904 6.91206H54.8856V4.00388C54.8856 3.22776 55.3467 2.74382 56.0726 2.74382C56.7985 2.74382 57.1455 3.14102 57.1455 3.93997V6.91206H58.1271V3.69343C58.1271 2.51099 57.5153 1.84443 56.4059 1.84443C55.6572 1.84443 55.1641 2.17771 54.9221 2.73013H54.8491V1.94031H53.904V6.91206Z" fill="var(--fill-0, white)"/>
<path d="M62.6477 0.703076V1.96313H61.8579V2.78948H62.6477V5.59722C62.6477 6.55596 63.0815 6.93945 64.1726 6.93945C64.3643 6.93945 64.547 6.91663 64.7068 6.88923V6.07202C64.5698 6.08572 64.483 6.09485 64.3324 6.09485C63.8439 6.09485 63.6293 5.86658 63.6293 5.34612V2.78948H64.7068V1.96313H63.6293V0.703076H62.6477Z" fill="var(--fill-0, white)"/>
<path d="M66.0243 6.91206H67.0059V4.00845C67.0059 3.25515 67.4533 2.74839 68.2568 2.74839C68.9508 2.74839 69.3206 3.15015 69.3206 3.94453V6.91206H70.3021V3.70256C70.3021 2.52012 69.6493 1.849 68.5901 1.849C67.8414 1.849 67.3164 2.18228 67.0744 2.73926H66.9968V0H66.0243V6.91206Z" fill="var(--fill-0, white)"/>
<path d="M73.8431 2.67991C74.569 2.67991 75.0438 3.18667 75.0666 3.96736H72.5556C72.6104 3.19124 73.1172 2.67991 73.8431 2.67991ZM75.0621 5.56982C74.8794 5.95789 74.4731 6.17246 73.8796 6.17246C73.0944 6.17246 72.5876 5.62004 72.5556 4.74805V4.69326H76.0665V4.35085C76.0665 2.78948 75.231 1.84443 73.8477 1.84443C72.4461 1.84443 71.5558 2.85339 71.5558 4.44216C71.5558 6.03093 72.4278 7.00793 73.8522 7.00793C74.989 7.00793 75.7834 6.46008 76.0071 5.56982H75.0621Z" fill="var(--fill-0, white)"/>
</g>
</svg>
