<svg preserveAspectRatio="none" width="100%" height="100%" overflow="visible" style="display: block;" viewBox="0 0 25.0506 25.0506" fill="none" xmlns="http://www.w3.org/2000/svg">
<g id="elements">
<path id="Vector" d="M4.73878 0.042605C5.39903 0.179067 5.92484 0.622668 6.25152 1.20875L7.29221 3.07577C7.67554 3.76342 7.99813 4.34211 8.20879 4.84516C8.43226 5.3788 8.56499 5.90503 8.50431 6.48684C8.44364 7.06865 8.2052 7.55617 7.87644 8.03222C7.56651 8.48099 7.13147 8.98067 6.61451 9.57444L5.08472 11.3316C4.81058 11.6465 4.67351 11.804 4.66099 12.0007C4.64846 12.1975 4.7608 12.3656 4.98548 12.7018C6.90043 15.5668 9.4813 18.1486 12.3487 20.0652C12.6849 20.2899 12.853 20.4022 13.0498 20.3897C13.2466 20.3772 13.404 20.2401 13.7189 19.966L15.4762 18.4361C16.0699 17.9191 16.5696 17.4841 17.0184 17.1742C17.4944 16.8454 17.982 16.607 18.5638 16.5463C19.1456 16.4856 19.6718 16.6184 20.2055 16.8418C20.7085 17.0525 21.2871 17.3751 21.9747 17.7583L23.8419 18.7991C24.4279 19.1258 24.8715 19.6516 25.008 20.3118C25.1459 20.979 24.9425 21.6495 24.4933 22.2007C22.8634 24.2004 20.2521 25.4737 17.5127 24.9211C15.8288 24.5814 14.1674 24.0155 12.1579 22.8631C8.12043 20.5476 4.50036 16.9255 2.18754 12.8927C1.03512 10.8832 0.46921 9.2218 0.129532 7.53792C-0.423072 4.7985 0.850194 2.18718 2.84993 0.557309C3.40107 0.108112 4.07164 -0.0952817 4.73878 0.042605Z" fill="var(--fill-0, white)"/>
<path id="Vector (Stroke)" fill-rule="evenodd" clip-rule="evenodd" d="M18.3516 0.874203C18.9951 0.874203 19.5167 1.39584 19.5167 2.03931V5.53462H23.012C23.6555 5.53462 24.1771 6.05625 24.1771 6.69972C24.1771 7.34319 23.6555 7.86483 23.012 7.86483H19.5167V11.3601C19.5167 12.0036 18.9951 12.5252 18.3516 12.5252C17.7082 12.5252 17.1865 12.0036 17.1865 11.3601V7.86483H13.6912C13.0477 7.86483 12.5261 7.34319 12.5261 6.69972C12.5261 6.05625 13.0477 5.53462 13.6912 5.53462L17.1865 5.53462V2.03931C17.1865 1.39584 17.7082 0.874203 18.3516 0.874203Z" fill="var(--fill-0, white)"/>
</g>
</svg>
