<svg preserveAspectRatio="none" width="100%" height="100%" overflow="visible" style="display: block;" viewBox="0 0 55.9249 55.9251" fill="none" xmlns="http://www.w3.org/2000/svg">
<g id="Group 15">
<ellipse id="Ellipse 1366" cx="27.9624" cy="27.9625" rx="27.9624" ry="27.9625" fill="url(#paint0_linear_10295_22665)"/>
<g id="mdi:store-cog" clip-path="url(#clip0_10295_22665)">
<path id="Vector" d="M37.2585 20.62H18.5919V18.2867H37.2585V20.62ZM36.0918 27.62C33.8635 27.62 31.8568 28.5067 30.3868 29.9534H30.2585V30.0817C28.8118 31.5517 27.9252 33.5584 27.9252 35.7867C27.9252 36.1834 27.9602 36.5684 28.0185 36.9534H18.5919V29.9534H17.4252V27.62L18.5919 21.7867H37.2585L38.4252 27.62V27.97C37.6902 27.7484 36.9085 27.62 36.0918 27.62ZM27.9252 29.9534H20.9252V34.62H27.9252V29.9534ZM41.6918 37.42C41.8085 37.42 41.8085 37.5367 41.6918 37.6534L40.5252 39.6367C40.4085 39.7534 40.2918 39.7534 40.1752 39.7534L38.7752 39.2867C38.4252 39.52 38.1918 39.6367 37.8418 39.87L37.6085 41.3867C37.6085 41.5034 37.4918 41.62 37.3752 41.62H35.0418C34.9252 41.62 34.8085 41.5034 34.6918 41.3867L34.4585 39.87C34.1085 39.7534 33.7585 39.52 33.5252 39.2867L32.1252 39.87C32.0085 39.87 31.8918 39.87 31.7752 39.7534L30.6085 37.77C30.4918 37.6534 30.6085 37.5367 30.7252 37.42L32.0085 36.4867V35.32L30.7252 34.3867C30.6085 34.27 30.6085 34.1534 30.6085 34.0367L31.7752 32.0534C31.8918 31.9367 32.0085 31.9367 32.1252 31.9367L33.5252 32.52C33.8752 32.2867 34.1085 32.17 34.4585 31.9367L34.6918 30.42C34.6918 30.3034 34.8085 30.1867 35.0418 30.1867H37.3752C37.4918 30.1867 37.6085 30.3034 37.6085 30.42L37.8418 31.9367C38.1918 32.0534 38.5418 32.2867 38.8918 32.52L40.2918 31.9367C40.4085 31.9367 40.6418 31.9367 40.6418 32.0534L41.8085 34.0367C41.9252 34.1534 41.8085 34.27 41.6918 34.3867L40.4085 35.32V36.4867L41.6918 37.42ZM37.8418 35.7867C37.8418 34.8534 37.0252 34.0367 36.0918 34.0367C35.1585 34.0367 34.3418 34.8534 34.3418 35.7867C34.3418 36.72 35.1585 37.5367 36.0918 37.5367C37.0252 37.5367 37.8418 36.72 37.8418 35.7867Z" fill="var(--fill-0, white)"/>
</g>
</g>
<defs>
<linearGradient id="paint0_linear_10295_22665" x1="6.7317" y1="2.40059e-07" x2="51.7825" y2="52.818" gradientUnits="userSpaceOnUse">
<stop stop-color="#00E2E2"/>
<stop offset="1" stop-color="#00969E"/>
</linearGradient>
<clipPath id="clip0_10295_22665">
<rect width="28" height="28" fill="white" transform="translate(13.9252 13.62)"/>
</clipPath>
</defs>
</svg>
