<svg preserveAspectRatio="none" width="100%" height="100%" overflow="visible" style="display: block;" viewBox="0 0 23.6276 15.2344" fill="none" xmlns="http://www.w3.org/2000/svg">
<path id="Vector" d="M12.0825 1.92371C12.0825 1.69137 12.1244 1.46892 12.1998 1.26274C12.2736 1.0611 12.3798 0.875277 12.5127 0.711702C12.8654 0.277603 13.4032 0 14.0062 0H21.7025L21.7321 0.00140931L21.8166 0.00422793L21.8913 0.00845587L21.9421 0.0155024C22.0506 0.0295955 22.1591 0.0507352 22.2648 0.0831494L22.3479 0.112745L22.4339 0.14375L22.5241 0.18462L22.6115 0.228308L22.6693 0.262132L22.7679 0.321323L22.837 0.372058C22.8595 0.387561 22.8835 0.403063 22.9046 0.421384L22.9258 0.438296C23.3542 0.790624 23.6276 1.32475 23.6276 1.92371V9.61996C23.6276 10.6826 22.7651 11.5451 21.7025 11.5451C20.6399 11.5451 19.7788 10.6826 19.7788 9.61996V6.58148L12.9507 13.4364C12.5899 13.7986 12.1008 14.0015 11.5907 14.0029C11.0805 14.0043 10.5886 13.8014 10.2279 13.4406L7.36696 10.5853L3.28278 14.6709C3.26609 14.6876 3.24953 14.7043 3.23239 14.7203C3.09309 14.8499 2.9386 14.9539 2.77578 15.0345C2.769 15.0379 2.76286 15.0425 2.75605 15.0458C2.43854 15.1983 2.08726 15.2578 1.74381 15.2262C1.65964 15.2182 1.57602 15.2043 1.4933 15.1853C1.48719 15.1839 1.48108 15.1826 1.47498 15.1811C1.39526 15.162 1.31685 15.1371 1.23963 15.1078C1.18529 15.0872 1.13162 15.0645 1.07897 15.0388C0.948505 14.9751 0.823094 14.8969 0.706908 14.802C0.665518 14.7682 0.626213 14.7313 0.587117 14.6935C0.579246 14.6859 0.570578 14.6787 0.562806 14.6709C0.172712 14.2808 -0.0142307 13.7646 0.000843558 13.2532C0.0147961 12.7798 0.201738 12.3106 0.562806 11.9495L6.00416 6.50679C6.75532 5.75563 7.97296 5.75563 8.72413 6.50538L11.5822 9.35501L17.0701 3.84742H14.0062C12.9436 3.84742 12.0825 2.98633 12.0825 1.92371Z" fill="var(--fill-0, white)"/>
</svg>
