<svg preserveAspectRatio="none" width="100%" height="100%" overflow="visible" style="display: block;" viewBox="0 0 24 24" fill="none" xmlns="http://www.w3.org/2000/svg">
<path id="Subtract" d="M12 0C18.6274 5.15406e-07 24 5.37258 24 12C24 18.6274 18.6274 24 12 24C5.37258 24 5.15422e-07 18.6274 0 12C0 5.37258 5.37258 0 12 0ZM17.0107 4.74414C16.5195 4.74414 16.0979 5.0243 15.9014 5.44531L12.9961 4.82812C12.912 4.8142 12.8279 4.82808 12.7578 4.87012C12.6877 4.91221 12.6453 4.98226 12.6172 5.06641L11.7334 9.24902C9.86673 9.30516 8.19628 9.85309 6.98926 10.7373C6.68049 10.4426 6.24538 10.2451 5.78223 10.2451C4.81391 10.2452 4.02832 11.0317 4.02832 12C4.02833 12.7156 4.44907 13.3188 5.06641 13.5996C5.03834 13.768 5.02441 13.9513 5.02441 14.1338C5.02478 16.8283 8.15487 19.0039 12.0283 19.0039C15.9017 19.0038 19.0309 16.8282 19.0312 14.1338C19.0312 13.9514 19.0173 13.7826 18.9893 13.6143C19.5647 13.3336 20 12.7158 20 12C20 11.0317 19.2143 10.2454 18.2461 10.2451C17.7689 10.2451 17.3478 10.4285 17.0391 10.7373C15.8461 9.88121 14.1897 9.31925 12.3652 9.24902L13.165 5.50195L15.7617 6.04883C15.7898 6.70848 16.3371 7.24219 17.0107 7.24219C17.6983 7.24207 18.2597 6.68072 18.2598 5.99316C18.2598 5.30551 17.6984 4.74425 17.0107 4.74414ZM14.54 16.084C14.6664 15.9577 14.8776 15.9577 15.0039 16.084C15.102 16.2242 15.1016 16.4206 14.9756 16.5469C14.1194 17.403 12.4909 17.46 12.0137 17.46C11.536 17.4599 9.89462 17.3888 9.05273 16.5469C8.92661 16.4205 8.92648 16.2102 9.05273 16.084C9.179 15.9579 9.38934 15.9579 9.51562 16.084C10.049 16.6173 11.2003 16.8145 12.0283 16.8145C12.8563 16.8144 13.9927 16.6172 14.54 16.084ZM9.24902 12C9.93672 12 10.498 12.5613 10.498 13.249C10.498 13.9367 9.93674 14.498 9.24902 14.498C8.56135 14.498 8 13.9367 8 13.249C8.00004 12.5614 8.56138 12.0001 9.24902 12ZM14.751 12C15.4386 12.0001 16 12.5614 16 13.249C16 13.9367 15.4387 14.498 14.751 14.498C14.0633 14.498 13.502 13.9367 13.502 13.249C13.502 12.5613 14.0633 12 14.751 12Z" fill="var(--fill-0, white)"/>
</svg>
