<svg preserveAspectRatio="none" width="100%" height="100%" overflow="visible" style="display: block;" viewBox="0 0 17 24" fill="none" xmlns="http://www.w3.org/2000/svg">
<path id="Vector" fill-rule="evenodd" clip-rule="evenodd" d="M4.75 2C4.01349 2 3.31155 2.28629 2.79747 2.78895C2.28414 3.29087 2 3.96677 2 4.66667C2 5.36657 2.28414 6.04247 2.79747 6.54438C3.31155 7.04705 4.01349 7.33333 4.75 7.33333H7.5V2H4.75ZM9.5 2V7.33333H12.25C12.6142 7.33333 12.9744 7.26316 13.3097 7.12736C13.645 6.99157 13.9482 6.79311 14.2025 6.54438C14.4569 6.29571 14.6574 6.00171 14.7938 5.67977C14.9301 5.35788 15 5.0137 15 4.66667C15 4.31964 14.9301 3.97545 14.7938 3.65356C14.6574 3.33162 14.4569 3.03763 14.2025 2.78895C13.9482 2.54022 13.645 2.34177 13.3097 2.20598C12.9744 2.07017 12.6142 2 12.25 2H9.5ZM15.1884 8.33334C15.3324 8.22191 15.4702 8.10211 15.6008 7.9744C16.0429 7.54211 16.3948 7.02769 16.6353 6.45991C16.8759 5.89208 17 5.28266 17 4.66667C17 4.05067 16.8759 3.44126 16.6353 2.87342C16.3948 2.30564 16.0429 1.79122 15.6008 1.35894C15.1587 0.926696 14.6351 0.584984 14.0605 0.352241C13.4858 0.119512 12.8707 0 12.25 0H4.75C3.49738 0 2.29167 0.486331 1.39923 1.35894C0.50603 2.23228 0 3.42165 0 4.66667C0 5.91169 0.50603 7.10105 1.39923 7.9744C1.53021 8.10247 1.66794 8.22222 1.81158 8.33333C1.66794 8.44445 1.53021 8.5642 1.39923 8.69227C0.50603 9.56562 0 10.755 0 12C0 13.245 0.50603 14.4344 1.39923 15.3077C1.53022 15.4358 1.66795 15.5556 1.81159 15.6667C1.66795 15.7778 1.53022 15.8975 1.39923 16.0256C0.50603 16.899 0 18.0883 0 19.3333C0 20.5784 0.50603 21.7677 1.39923 22.6411C2.29167 23.5137 3.49738 24 4.75 24C6.0026 24 7.2083 23.5137 8.1008 22.6411C8.994 21.7677 9.5 20.5784 9.5 19.3333V15.8051C9.7922 16.0089 10.1073 16.1799 10.4395 16.3144C11.0142 16.5472 11.6293 16.6667 12.25 16.6667C12.8707 16.6667 13.4858 16.5472 14.0605 16.3144C14.6351 16.0817 15.1587 15.74 15.6008 15.3077C16.0429 14.8754 16.3948 14.361 16.6353 13.7932C16.8759 13.2254 17 12.616 17 12C17 11.384 16.8759 10.7746 16.6353 10.2068C16.3948 9.63898 16.0429 9.12456 15.6008 8.69227C15.4702 8.56456 15.3324 8.44476 15.1884 8.33334ZM7.5 14.6667V9.33333H4.75C4.01349 9.33333 3.31155 9.61962 2.79747 10.1223C2.28414 10.6242 2 11.3001 2 12C2 12.6999 2.28414 13.3758 2.79747 13.8777C3.31155 14.3804 4.01349 14.6667 4.75 14.6667H7.5ZM7.5 16.6667H4.75C4.01349 16.6667 3.31155 16.953 2.79747 17.4556C2.28414 17.9575 2 18.6334 2 19.3333C2 20.0332 2.28414 20.7091 2.79747 21.2111C3.31155 21.7137 4.01349 22 4.75 22C5.48651 22 6.1884 21.7137 6.7025 21.2111C7.2159 20.7091 7.5 20.0332 7.5 19.3333V16.6667ZM12.25 9.33333C11.8858 9.33333 11.5256 9.4035 11.1903 9.53931C10.855 9.6751 10.5518 9.87356 10.2975 10.1223C10.0431 10.371 9.8426 10.665 9.7062 10.9869C9.5699 11.3088 9.5 11.653 9.5 12C9.5 12.347 9.5699 12.6912 9.7062 13.0131C9.8426 13.335 10.0431 13.629 10.2975 13.8777C10.5518 14.1264 10.855 14.3249 11.1903 14.4607C11.5256 14.5965 11.8858 14.6667 12.25 14.6667C12.6142 14.6667 12.9744 14.5965 13.3097 14.4607C13.645 14.3249 13.9482 14.1264 14.2025 13.8777C14.4569 13.629 14.6574 13.335 14.7938 13.0131C14.9301 12.6912 15 12.347 15 12C15 11.653 14.9301 11.3088 14.7938 10.9869C14.6574 10.665 14.4569 10.371 14.2025 10.1223C13.9482 9.87356 13.645 9.6751 13.3097 9.53931C12.9744 9.4035 12.6142 9.33333 12.25 9.33333Z" fill="var(--fill-0, #98A2B3)"/>
</svg>
