<svg preserveAspectRatio="none" width="100%" height="100%" overflow="visible" style="display: block;" viewBox="0 0 38.2555 6.16516" fill="none" xmlns="http://www.w3.org/2000/svg">
<g id="GET IT ON">
<path d="M4.77223 5.30385C4.55518 5.58683 4.25434 5.80113 3.86971 5.94674C3.48507 6.09235 3.04824 6.16516 2.5592 6.16516C2.05643 6.16516 1.61135 6.05114 1.22396 5.82311C0.836582 5.59507 0.537116 5.2695 0.325566 4.84641C0.116764 4.42056 0.00824219 3.92465 0 3.35869V2.88889C0 1.98225 0.217044 1.27479 0.651133 0.766523C1.08522 0.255508 1.69102 0 2.46853 0C3.13615 0 3.6664 0.164844 4.05928 0.494531C4.45215 0.824219 4.68843 1.29952 4.76811 1.92043H3.74607C3.63068 1.19786 3.21171 0.836582 2.48914 0.836582C2.02208 0.836582 1.6663 1.00555 1.42178 1.34348C1.18001 1.67866 1.055 2.17182 1.04676 2.82295V3.28451C1.04676 3.9329 1.18275 4.43704 1.45475 4.79695C1.72949 5.15411 2.11 5.3327 2.59629 5.3327C3.12928 5.3327 3.50842 5.21181 3.73371 4.97004V3.79553H2.49738V3.00428H4.77223V5.30385Z" fill="var(--fill-0, white)"/>
<path d="M9.50934 3.40402H7.04493V5.25027H9.92557V6.08273H6.00229V0.0824219H9.89672V0.923125H7.04493V2.5798H9.50934V3.40402Z" fill="var(--fill-0, white)"/>
<path d="M15.2767 0.923125H13.4058V6.08273H12.3714V0.923125H10.5169V0.0824219H15.2767V0.923125Z" fill="var(--fill-0, white)"/>
<path d="M19.1916 6.08273H18.1531V0.0824219H19.1916V6.08273Z" fill="var(--fill-0, white)"/>
<path d="M24.7694 0.923125H22.8984V6.08273H21.864V0.923125H20.0096V0.0824219H24.7694V0.923125Z" fill="var(--fill-0, white)"/>
<path d="M32.3727 3.23918C32.3727 3.82712 32.271 4.34363 32.0677 4.78871C31.8644 5.23104 31.5732 5.57172 31.194 5.81074C30.8176 6.04702 30.3836 6.16516 29.8918 6.16516C29.4055 6.16516 28.9714 6.04702 28.5895 5.81074C28.2104 5.57172 27.9164 5.23242 27.7076 4.79283C27.5015 4.35325 27.3971 3.84635 27.3944 3.27215V2.93422C27.3944 2.34902 27.4974 1.83251 27.7035 1.38469C27.9123 0.936862 28.2049 0.594811 28.5813 0.358535C28.9604 0.119512 29.3945 0 29.8835 0C30.3726 0 30.8053 0.118138 31.1817 0.354414C31.5608 0.587943 31.8534 0.925872 32.0595 1.3682C32.2655 1.80779 32.3699 2.32018 32.3727 2.90537V3.23918ZM31.33 2.92598C31.33 2.26111 31.2037 1.75146 30.9509 1.39705C30.7009 1.04264 30.3451 0.86543 29.8835 0.86543C29.433 0.86543 29.0799 1.04264 28.8244 1.39705C28.5717 1.74872 28.4425 2.24737 28.437 2.89301V3.23918C28.437 3.89855 28.5648 4.4082 28.8203 4.76811C29.0785 5.12801 29.4357 5.30797 29.8918 5.30797C30.3533 5.30797 30.7078 5.13214 30.955 4.78047C31.205 4.4288 31.33 3.91504 31.33 3.23918V2.92598Z" fill="var(--fill-0, white)"/>
<path d="M38.2555 6.08273H37.2128L34.5382 1.82564V6.08273H33.4956V0.0824219H34.5382L37.2211 4.356V0.0824219H38.2555V6.08273Z" fill="var(--fill-0, white)"/>
</g>
</svg>
