<svg preserveAspectRatio="none" width="100%" height="100%" overflow="visible" style="display: block;" viewBox="0 0 18.8526 22.08" fill="none" xmlns="http://www.w3.org/2000/svg">
<path id="Vector" d="M13.3766 6.74336C14.9203 7.85045 16.8108 8.50189 18.8526 8.50189V5.39782C17.7129 5.15418 16.7039 4.55644 15.9452 3.72503C14.6467 2.91183 13.7111 1.57024 13.4368 0H10.5742V15.7506C10.5677 17.5868 9.08284 19.0737 7.25172 19.0737C6.17267 19.0737 5.21404 18.5575 4.60692 17.7578C3.52279 17.2087 2.77933 16.0814 2.77933 14.7795C2.77933 12.9382 4.26665 11.4453 6.10171 11.4453C6.4533 11.4453 6.79217 11.5002 7.11005 11.6014V8.46342C3.16931 8.54513 0 11.7765 0 15.7507C0 17.7346 0.789231 19.5331 2.07016 20.8472C3.22575 21.6259 4.61685 22.08 6.11352 22.08C10.1248 22.08 13.3766 18.8166 13.3766 14.7909V6.74336H13.3766Z" fill="var(--fill-0, black)"/>
</svg>
