<svg preserveAspectRatio="none" width="100%" height="100%" overflow="visible" style="display: block;" viewBox="0 0 20.0025 21.807" fill="none" xmlns="http://www.w3.org/2000/svg">
<path id="Vector" d="M20.0025 6.3578V5.51848C18.9748 5.52005 17.9672 5.23119 17.0952 4.68493C17.8671 5.53306 18.8835 6.11787 20.0025 6.3578ZM14.5867 0.959983C14.5605 0.809911 14.5404 0.658851 14.5265 0.507214V0H10.574V15.7508C10.5677 17.5868 9.08292 19.0736 7.25164 19.0736C6.714 19.0736 6.20638 18.9455 5.75685 18.7179C6.36397 19.5174 7.32259 20.0336 8.40164 20.0336C10.2326 20.0336 11.7177 18.5469 11.7241 16.7107V0.959983H14.5867ZM8.26014 9.42341V8.52989C7.92988 8.48459 7.59691 8.46186 7.26353 8.46202C3.25192 8.46194 0 11.7254 0 15.7508C0 18.2745 1.27806 20.4987 3.22017 21.807C1.93924 20.493 1.15001 18.6944 1.15001 16.7106C1.15001 12.7365 4.31924 9.50511 8.26014 9.42341Z" fill="var(--fill-0, #00F2EA)"/>
</svg>
