<svg preserveAspectRatio="none" width="100%" height="100%" overflow="visible" style="display: block;" viewBox="0 0 27.8667 27.8667" fill="none" xmlns="http://www.w3.org/2000/svg">
<g id="App Gallery icon">
<path id="icon" fill-rule="evenodd" clip-rule="evenodd" d="M20.0264 7.30157e-07H7.84021C2.09967 7.30157e-07 0 2.09968 0 7.84024V20.0267C0 25.767 2.09967 27.8667 7.84021 27.8667H20.0226C25.7632 27.8667 27.8667 25.767 27.8667 20.0267V7.84024C27.8667 2.09968 25.767 7.30157e-07 20.0264 7.30157e-07" fill="var(--fill-0, #C91C2E)"/>
<path id="Huawei" d="M12.1575 16.1614H13.2751L12.7145 14.8578L12.1575 16.1614ZM11.8823 16.8185L11.5509 17.5771H10.7961L12.4012 13.9357H13.0533L14.652 17.5771H13.877L13.5496 16.8185H11.8823ZM24.0272 17.5746H24.7567V13.9357H24.0272V17.5746ZM21.1241 16.011H22.4684V15.3479H21.1241V14.6019H23.0756V13.938H20.3949V17.5767H23.146V16.9131H21.1241V16.011ZM18.2257 16.441L17.3985 13.9356H16.7954L15.9682 16.441L15.1633 13.9374H14.3765L15.6464 17.5788H16.2583L17.0867 15.1869L17.9147 17.5788H18.5322L19.7988 13.9374H19.0323L18.2257 16.441ZM9.68263 16.021C9.68263 16.6134 9.38842 16.9299 8.85426 16.9299C8.31717 16.9299 8.02148 16.6045 8.02148 15.9958V13.9378H7.28228V16.021C7.28228 17.046 7.85164 17.6336 8.84428 17.6336C9.8466 17.6336 10.4215 17.0348 10.4215 15.9909V13.9356H9.68263V16.021ZM5.51847 13.9357H6.25737V17.579H5.51847V16.0995H3.8491V17.579H3.10991V13.9357H3.8491V15.4055H5.51847V13.9357Z" fill="var(--fill-0, white)"/>
<path id="handle" d="M13.9333 9.29695C11.3757 9.29695 9.29484 7.21601 9.29484 4.65844H9.95014C9.95014 6.85474 11.7368 8.64167 13.9333 8.64167C16.1298 8.64167 17.9165 6.85474 17.9165 4.65844H18.5718C18.5718 7.21601 16.4909 9.29695 13.9333 9.29695" fill="var(--fill-0, white)"/>
</g>
</svg>
