<svg preserveAspectRatio="none" width="100%" height="100%" overflow="visible" style="display: block;" viewBox="0 0 15.9719 14.2597" fill="none" xmlns="http://www.w3.org/2000/svg">
<path id="Vector" d="M15.9719 7.25614C15.9719 6.28772 15.186 5.50175 14.2175 5.50175C13.7404 5.50175 13.3193 5.68421 13.0105 5.99298C11.8175 5.13684 10.1614 4.57544 8.33684 4.50526L9.13684 0.757895L11.7333 1.30526C11.7614 1.96491 12.3088 2.49825 12.9825 2.49825C13.6702 2.49825 14.2316 1.93684 14.2316 1.24912C14.2316 0.561405 13.6702 0 12.9825 0C12.4912 0 12.0702 0.280702 11.8737 0.701754L8.96842 0.0842114C8.88421 0.0701763 8.8 0.0842107 8.72983 0.126316C8.65965 0.168421 8.61754 0.238597 8.58947 0.322807L7.70526 4.50526C5.8386 4.5614 4.16842 5.10877 2.9614 5.99298C2.65263 5.69825 2.21754 5.50175 1.75439 5.50175C0.785965 5.50175 0 6.28772 0 7.25614C0 7.97193 0.421053 8.57544 1.0386 8.85614C1.01053 9.02456 0.996491 9.20702 0.996491 9.38948C0.996491 12.0842 4.12632 14.2597 8 14.2597C11.8737 14.2597 15.0035 12.0842 15.0035 9.38948C15.0035 9.20702 14.9895 9.0386 14.9614 8.87018C15.5368 8.58947 15.9719 7.97193 15.9719 7.25614ZM3.97193 8.50526C3.97193 7.81754 4.53333 7.25614 5.22105 7.25614C5.90877 7.25614 6.47018 7.81754 6.47018 8.50526C6.47018 9.19298 5.90877 9.75439 5.22105 9.75439C4.53333 9.75439 3.97193 9.19298 3.97193 8.50526ZM10.9474 11.8035C10.0912 12.6597 8.46316 12.7158 7.98597 12.7158C7.50877 12.7158 5.86667 12.6456 5.02456 11.8035C4.89825 11.6772 4.89825 11.4667 5.02456 11.3404C5.15088 11.214 5.3614 11.214 5.48772 11.3404C6.02105 11.8737 7.17193 12.0702 8 12.0702C8.82807 12.0702 9.96491 11.8737 10.5123 11.3404C10.6386 11.214 10.8491 11.214 10.9754 11.3404C11.0737 11.4807 11.0737 11.6772 10.9474 11.8035ZM10.7228 9.75439C10.0351 9.75439 9.47369 9.19298 9.47369 8.50526C9.47369 7.81754 10.0351 7.25614 10.7228 7.25614C11.4105 7.25614 11.9719 7.81754 11.9719 8.50526C11.9719 9.19298 11.4105 9.75439 10.7228 9.75439Z" fill="var(--fill-0, white)"/>
</svg>
