<svg preserveAspectRatio="none" width="100%" height="100%" overflow="visible" style="display: block;" viewBox="0 0 56 65" fill="none" xmlns="http://www.w3.org/2000/svg">
<g id="ri:ai">
<path id="Vector" d="M35.6811 51H30.488L25.6663 38.8943H10.0148L5.19304 51H0L15.4297 12.2619H20.2514L35.6811 51ZM46.7711 29.2098V51H41.9494V29.2098H46.7711ZM11.9435 34.0521H23.7376L17.8405 19.2468L11.9435 34.0521ZM43.2247 5.77322C43.3152 5.54504 43.4718 5.34937 43.6743 5.21153C43.8767 5.07369 44.1157 5 44.3603 5C44.6048 5 44.8438 5.07369 45.0462 5.21153C45.2487 5.34937 45.4053 5.54504 45.4958 5.77322L46.1057 7.25011C47.1291 9.75617 49.0706 11.7726 51.5302 12.8841L53.2588 13.6589C53.4802 13.7617 53.6675 13.926 53.7989 14.1324C53.9302 14.3387 54 14.5785 54 14.8234C54 15.0683 53.9302 15.3081 53.7989 15.5145C53.6675 15.7208 53.4802 15.8851 53.2588 15.988L51.4314 16.8063C49.0316 17.886 47.122 19.8296 46.0792 22.2539L45.4861 23.6242C45.3935 23.8474 45.2371 24.038 45.0367 24.1721C44.8364 24.3062 44.601 24.3777 44.3603 24.3777C44.1195 24.3777 43.8841 24.3062 43.6838 24.1721C43.4834 24.038 43.3271 23.8474 43.2344 23.6242L42.6389 22.2563C41.5972 19.8316 39.6884 17.887 37.2891 16.8063L35.4569 15.988C35.2349 15.8854 35.0468 15.7211 34.915 15.5145C34.7832 15.3079 34.7131 15.0676 34.7131 14.8222C34.7131 14.5768 34.7832 14.3366 34.915 14.1299C35.0468 13.9233 35.2349 13.759 35.4569 13.6564L37.1879 12.8817C39.6475 11.7719 41.5898 9.75721 42.6148 7.25253L43.2247 5.77322Z" fill="var(--fill-0, #34D9D9)"/>
</g>
</svg>
