<svg preserveAspectRatio="none" width="100%" height="100%" overflow="visible" style="display: block;" viewBox="0 0 24.8333 24.8333" fill="none" xmlns="http://www.w3.org/2000/svg">
<g id="Group">
<path id="Vector" d="M20.5833 11.8333H21.1667C22.2575 11.8333 22.8023 11.8333 23.2083 12.0678C23.4743 12.2214 23.6952 12.4423 23.8488 12.7083C24.0833 13.1143 24.0833 13.6592 24.0833 14.75C24.0833 15.8408 24.0833 16.3857 23.8488 16.7917C23.6952 17.0577 23.4743 17.2786 23.2083 17.4322C22.8023 17.6667 22.2575 17.6667 21.1667 17.6667H20.5833M4.25 11.8333H3.66667C2.57583 11.8333 2.031 11.8333 1.625 12.0678C1.35899 12.2214 1.13809 12.4423 0.984501 12.7083C0.750001 13.1143 0.750001 13.6592 0.750001 14.75C0.750001 15.8408 0.750001 16.3857 0.984501 16.7917C1.13809 17.0577 1.35899 17.2786 1.625 17.4322C2.031 17.6667 2.57583 17.6667 3.66667 17.6667H4.25M11.25 7.75H13.5833C16.8827 7.75 18.5335 7.75 19.5578 8.7755C20.5833 9.79983 20.5833 11.4507 20.5833 14.75C20.5833 18.0493 20.5833 19.7002 19.5578 20.7245C18.5335 21.75 16.8827 21.75 13.5833 21.75H12.4167C12.4167 21.75 11.8333 24.0833 7.75 24.0833C7.75 24.0833 8.91667 22.9062 8.91667 21.7302C7.10484 21.6753 6.02334 21.4735 5.2755 20.7245C4.25 19.7002 4.25 18.0493 4.25 14.75C4.25 11.4507 4.25 9.79983 5.2755 8.7755C6.29984 7.75 7.95067 7.75 11.25 7.75Z" stroke="url(#paint0_linear_10295_23160)" stroke-width="1.5" stroke-linejoin="round"/>
<path id="Vector_2" d="M14.1667 2.5C14.1667 2.96413 13.9823 3.40925 13.6541 3.73744C13.3259 4.06563 12.8808 4.25 12.4167 4.25C11.9525 4.25 11.5074 4.06563 11.1792 3.73744C10.851 3.40925 10.6667 2.96413 10.6667 2.5C10.6667 2.03587 10.851 1.59075 11.1792 1.26256C11.5074 0.934375 11.9525 0.75 12.4167 0.75C12.8808 0.75 13.3259 0.934375 13.6541 1.26256C13.9823 1.59075 14.1667 2.03587 14.1667 2.5Z" stroke="url(#paint1_linear_10295_23160)" stroke-width="1.5"/>
<path id="Vector_3" d="M12.4167 4.25V7.75M8.91667 12.4167V13.5833M15.9167 12.4167V13.5833" stroke="url(#paint2_linear_10295_23160)" stroke-width="1.5" stroke-linecap="round" stroke-linejoin="round"/>
<path id="Vector_4" d="M10.0833 17.6667C10.0833 17.6667 10.8615 18.25 12.4167 18.25C13.9718 18.25 14.75 17.6667 14.75 17.6667" stroke="url(#paint3_linear_10295_23160)" stroke-width="1.5" stroke-linecap="round"/>
</g>
<defs>
<linearGradient id="paint0_linear_10295_23160" x1="3.55864" y1="7.75" x2="15.288" y2="27.3953" gradientUnits="userSpaceOnUse">
<stop stop-color="#00E2E2"/>
<stop offset="1" stop-color="#00969E"/>
</linearGradient>
<linearGradient id="paint1_linear_10295_23160" x1="11.088" y1="0.75" x2="13.9074" y2="4.05556" gradientUnits="userSpaceOnUse">
<stop stop-color="#00E2E2"/>
<stop offset="1" stop-color="#00969E"/>
</linearGradient>
<linearGradient id="paint2_linear_10295_23160" x1="9.75926" y1="4.25" x2="17.3106" y2="10.8899" gradientUnits="userSpaceOnUse">
<stop stop-color="#00E2E2"/>
<stop offset="1" stop-color="#00969E"/>
</linearGradient>
<linearGradient id="paint3_linear_10295_23160" x1="10.6451" y1="17.6667" x2="10.7454" y2="18.6077" gradientUnits="userSpaceOnUse">
<stop stop-color="#00E2E2"/>
<stop offset="1" stop-color="#00969E"/>
</linearGradient>
</defs>
</svg>
