<svg preserveAspectRatio="none" width="100%" height="100%" overflow="visible" style="display: block;" viewBox="0 0 91.3828 17.8047" fill="none" xmlns="http://www.w3.org/2000/svg">
<g id="App Gallery">
<path d="M4.17354 8.60485H8.01886L6.64224 4.91965C6.45274 4.41054 6.26648 3.84827 6.08286 3.23239C5.91712 3.77723 5.73642 4.33354 5.54106 4.90187L4.17354 8.60485ZM8.67592 10.3543H3.52527L2.26452 13.7998H0L5.04386 0.932485H7.18403L12.3435 13.7998H9.96365L8.67592 10.3543Z" fill="black"/>
<path d="M19.0236 11.4599C19.4706 10.8592 19.6941 9.98134 19.6941 8.82693C19.6941 7.75556 19.509 6.97834 19.1391 6.49572C18.7689 6.01333 18.2761 5.77212 17.6604 5.77212C17.2342 5.77212 16.8406 5.87297 16.4795 6.07405C16.1184 6.27537 15.7749 6.54465 15.4493 6.8821V12.015C15.6684 12.1214 15.923 12.2059 16.2131 12.2678C16.5032 12.3303 16.7904 12.3614 17.0744 12.3614C17.9271 12.3614 18.5765 12.0607 19.0236 11.4599ZM13.2561 6.56251C13.2561 5.85212 13.2323 5.07053 13.1851 4.21816H15.2451C15.322 4.61484 15.3754 5.02046 15.405 5.43467C16.2574 4.50542 17.2342 4.04043 18.3354 4.04043C18.9749 4.04043 19.5668 4.20176 20.1115 4.52431C20.656 4.8471 21.0957 5.35618 21.4301 6.0517C21.7648 6.74746 21.932 7.63124 21.932 8.70261C21.932 9.8215 21.741 10.7777 21.3591 11.5709C20.9772 12.3643 20.443 12.965 19.7563 13.3737C19.0696 13.782 18.2762 13.9864 17.3765 13.9864C16.725 13.9864 16.0826 13.8767 15.4493 13.6579V17.6182L13.2561 17.8047V6.56251Z" fill="black"/>
<path d="M29.0306 11.4599C29.4777 10.8592 29.7012 9.98134 29.7012 8.82693C29.7012 7.75556 29.5161 6.97834 29.1462 6.49572C28.776 6.01333 28.2832 5.77212 27.6675 5.77212C27.2413 5.77212 26.8476 5.87297 26.4866 6.07405C26.1252 6.27537 25.782 6.54465 25.4564 6.8821V12.015C25.6755 12.1214 25.9298 12.2059 26.2202 12.2678C26.51 12.3303 26.7972 12.3614 27.0814 12.3614C27.9338 12.3614 28.5836 12.0607 29.0306 11.4599ZM23.2628 6.56251C23.2628 5.85212 23.239 5.07053 23.1918 4.21816H25.2522C25.3291 4.61484 25.3824 5.02046 25.4121 5.43467C26.2645 4.50542 27.2413 4.04043 28.3425 4.04043C28.9819 4.04043 29.5736 4.20176 30.1186 4.52431C30.663 4.8471 31.1027 5.35618 31.4374 6.0517C31.7715 6.74746 31.939 7.63124 31.939 8.70261C31.939 9.8215 31.7478 10.7777 31.3661 11.5709C30.9842 12.3643 30.4498 12.965 29.7634 13.3737C29.0764 13.782 28.2832 13.9864 27.3832 13.9864C26.732 13.9864 26.0897 13.8767 25.4564 13.6579V17.6182L23.2628 17.8047V6.56251Z" fill="black"/>
<path d="M35.9682 13.1915C35.0208 12.6679 34.2927 11.9172 33.7838 10.9404C33.2743 9.96359 33.02 8.80915 33.02 7.47712C33.02 6.03281 33.313 4.80562 33.8991 3.79614C34.4852 2.78702 35.283 2.02916 36.2921 1.52293C37.3017 1.01681 38.4337 0.763691 39.6892 0.763691C40.429 0.763691 41.135 0.845149 41.8071 1.00786C42.4788 1.17081 43.1047 1.39412 43.6853 1.67842L43.1256 3.36553C41.9593 2.8091 40.8464 2.53079 39.7869 2.53079C38.8928 2.53079 38.1099 2.72181 37.4381 3.1037C36.7661 3.48562 36.2434 4.0465 35.8706 4.78649C35.4975 5.52657 35.3112 6.42045 35.3112 7.46818C35.3112 8.3861 35.4546 9.1999 35.7415 9.91029C36.029 10.6207 36.4819 11.1833 37.1005 11.5975C37.7192 12.012 38.4991 12.219 39.4404 12.219C39.8666 12.219 40.2929 12.1836 40.7191 12.1126C41.1453 12.0417 41.5451 11.9381 41.9179 11.8017V9.1999H38.9433V7.4949H44.0493V12.9119C43.3151 13.2551 42.5439 13.5189 41.7361 13.7022C40.9277 13.8855 40.1242 13.9773 39.3249 13.9773C38.0342 13.9773 36.9151 13.7157 35.9682 13.1915Z" fill="black"/>
<path d="M50.5296 12.0237C50.9852 11.8049 51.3583 11.5323 51.6484 11.2068V9.43078C51.0503 9.36581 50.5619 9.33316 50.1832 9.33316C49.2774 9.33316 48.6511 9.47947 48.3053 9.77281C47.9585 10.0654 47.7855 10.4609 47.7855 10.958C47.7855 11.4321 47.9113 11.7826 48.163 12.0105C48.4147 12.2384 48.7564 12.3523 49.1885 12.3523C49.6264 12.3523 50.0735 12.2429 50.5296 12.0237ZM51.8438 13.7998C51.7666 13.4267 51.7162 13.0037 51.6927 12.53C51.3554 12.9328 50.9159 13.2745 50.3739 13.5558C49.8327 13.8369 49.2211 13.9773 48.5402 13.9773C47.9897 13.9773 47.488 13.8694 47.0348 13.6532C46.5825 13.4373 46.2226 13.1116 45.9562 12.6763C45.6899 12.2414 45.5564 11.7102 45.5564 11.0824C45.5564 10.1531 45.8908 9.41151 46.5599 8.85784C47.229 8.30441 48.3449 8.02771 49.9078 8.02771C50.4938 8.02771 51.0741 8.0693 51.6484 8.15202V7.96561C51.6484 7.11905 51.4677 6.52265 51.1066 6.17604C50.7455 5.83 50.2275 5.65676 49.5528 5.65676C49.085 5.65676 48.5848 5.72493 48.0518 5.86095C47.5191 5.99729 47.0513 6.16 46.6488 6.3494L46.3024 4.75097C46.6931 4.57324 47.2082 4.41053 47.8477 4.26248C48.4871 4.11467 49.1618 4.04043 49.8722 4.04043C50.7012 4.04043 51.4055 4.16624 51.9857 4.41775C52.566 4.66948 53.0188 5.10183 53.3444 5.71428C53.67 6.32729 53.8329 7.1517 53.8329 8.18755V11.997C53.8329 12.3939 53.8563 12.995 53.9038 13.7998H51.8438Z" fill="black"/>
<path d="M55.5157 11.4998V0.177613L57.7001 0V11.1091C57.7001 11.5177 57.7697 11.8061 57.9087 11.975C58.0477 12.1434 58.2683 12.2282 58.5704 12.2282C58.7066 12.2282 58.899 12.1957 59.1474 12.1305L59.405 13.7022C59.1976 13.7852 58.9447 13.8518 58.6461 13.9019C58.3469 13.9521 58.0642 13.9773 57.7978 13.9773C56.276 13.9773 55.5157 13.1516 55.5157 11.4998Z" fill="black"/>
<path d="M60.977 11.4998V0.177613L63.1614 0V11.1091C63.1614 11.5177 63.2309 11.8061 63.37 11.975C63.5093 12.1434 63.7299 12.2282 64.0317 12.2282C64.1679 12.2282 64.3603 12.1957 64.609 12.1305L64.8666 13.7022C64.6592 13.7852 64.406 13.8518 64.1074 13.9019C63.8082 13.9521 63.5254 13.9773 63.2591 13.9773C61.7376 13.9773 60.977 13.1516 60.977 11.4998Z" fill="black"/>
<path d="M71.7118 7.89457C71.6678 7.13084 71.4771 6.55817 71.1339 6.17604C70.7907 5.79448 70.3302 5.60334 69.7582 5.60334C69.2009 5.60334 68.7374 5.79597 68.3678 6.18062C67.9982 6.56562 67.7547 7.13683 67.6433 7.89457H71.7118ZM73.8502 9.28869H67.5817C67.6814 11.2957 68.6377 12.2991 70.4505 12.2991C70.8993 12.2991 71.3598 12.2444 71.8321 12.1349C72.3014 12.0252 72.7531 11.8789 73.1843 11.6952L73.6654 13.1959C72.5918 13.7171 71.3891 13.9773 70.0515 13.9773C69.0307 13.9773 68.1742 13.7852 67.4761 13.4003C66.775 13.0155 66.2499 12.462 65.8979 11.7395C65.5465 11.0176 65.3702 10.1473 65.3702 9.12885C65.3702 8.0693 65.5568 7.15745 65.9302 6.39376C66.3027 5.63003 66.8219 5.04703 67.4878 4.6444C68.1537 4.24186 68.9222 4.04043 69.7934 4.04043C70.6998 4.04043 71.4537 4.25219 72.0609 4.67556C72.6681 5.0986 73.1169 5.66271 73.4102 6.36703C73.7035 7.07185 73.8502 7.8501 73.8502 8.70261V9.28869Z" fill="black"/>
<path d="M75.5105 6.62465C75.5105 6.09791 75.4841 5.29582 75.4371 4.21817H77.4905C77.5257 4.48457 77.5579 4.80275 77.5931 5.17285C77.6254 5.54274 77.6459 5.84318 77.6577 6.07406C77.9129 5.65377 78.1622 5.30004 78.4086 5.01301C78.655 4.72563 78.9425 4.49203 79.271 4.31119C79.5995 4.13073 79.9721 4.04044 80.3945 4.04044C80.7318 4.04044 81.0193 4.07608 81.2627 4.14712L80.987 6.04748C80.7758 5.98239 80.5382 5.94974 80.2771 5.94974C79.7638 5.94974 79.3121 6.08151 78.9278 6.34504C78.5435 6.60825 78.1329 7.04194 77.6929 7.6458V13.7998H75.5105V6.62465Z" fill="black"/>
<path d="M82.4948 17.7203C82.175 17.6643 81.911 17.6006 81.7057 17.5296L82.1046 15.9312C82.2513 15.9723 82.439 16.0124 82.6649 16.0509C82.8878 16.0897 83.1019 16.1087 83.3043 16.1087C84.2753 16.1087 85.0027 15.4839 85.4867 14.2349L85.6305 13.8797L82.0958 4.21816H84.4483L86.2259 9.61719C86.5134 10.541 86.7011 11.2484 86.7833 11.7395C86.9505 11.047 87.1441 10.3543 87.3699 9.66166L89.1739 4.21816H91.3828L87.8598 13.9243C87.5283 14.8418 87.1675 15.5816 86.7833 16.1442C86.399 16.7065 85.9443 17.1239 85.4222 17.3964C84.8971 17.6684 84.2665 17.8047 83.5243 17.8047C83.1577 17.8047 82.8145 17.7769 82.4948 17.7203Z" fill="black"/>
</g>
</svg>
