<svg preserveAspectRatio="none" width="100%" height="100%" overflow="visible" style="display: block;" viewBox="0 0 80.0003 15.3893" fill="none" xmlns="http://www.w3.org/2000/svg">
<g id="Group 1321314362">
<path id="Vector" d="M12.9131 3.73141H8.55266V15.2755H4.38409V3.73141H0V0.0957549H12.9131V3.73141Z" fill="var(--fill-0, #21D4D4)"/>
<path id="Vector_2" d="M14.4316 15.2755V0.0957549H18.6002V15.2755H14.4316Z" fill="var(--fill-0, #21D4D4)"/>
<path id="Vector_3" d="M32.6903 15.2755V7.27942L30.1442 12.9022H27.9225L25.3787 7.27942V15.2755H21.2078V0.0957549H25.7624L29.0333 7.23678L32.3256 0.0957549H36.8589V15.2755H32.6903Z" fill="var(--fill-0, #21D4D4)"/>
<path id="Vector_4" d="M50.2828 11.6398V15.2755H39.4659V0.0957549H50.091V3.73141H43.6344V5.86306H49.1507V9.23817H43.6344V11.6327L50.2828 11.6398Z" fill="var(--fill-0, #21D4D4)"/>
<path id="Vector_5" d="M61.422 5.07669C60.9907 4.82086 60.5455 4.58919 60.0885 4.38272C59.6638 4.19782 59.2279 4.03962 58.7835 3.90902C58.3331 3.76996 57.8646 3.69814 57.3932 3.69586C57.092 3.684 56.7922 3.74153 56.5168 3.86402C56.4088 3.91398 56.3184 3.99546 56.2575 4.09776C56.1966 4.20007 56.1681 4.3184 56.1758 4.4372C56.1747 4.56023 56.2055 4.68144 56.2653 4.78897C56.3251 4.8965 56.4117 4.98667 56.5168 5.05064C56.8186 5.23933 57.1466 5.3822 57.4903 5.4746C57.9095 5.6025 58.4116 5.75645 58.9967 5.9483C59.8394 6.19087 60.6559 6.51697 61.4338 6.92176C62.073 7.24864 62.6177 7.73382 63.016 8.33102C63.3879 8.9042 63.5726 9.66211 63.5726 10.6095C63.5989 11.3973 63.4296 12.1793 63.08 12.8856C62.7705 13.4809 62.3149 13.9878 61.756 14.3588C61.1873 14.7315 60.557 15.0002 59.8943 15.1523C59.2081 15.3132 58.5054 15.3927 57.8006 15.3892C57.0357 15.3863 56.2728 15.311 55.5221 15.1641C54.7415 15.0177 53.9733 14.811 53.2246 14.546C52.521 14.2982 51.8416 13.9867 51.1948 13.6151L52.9996 9.9487C53.5031 10.257 54.0243 10.5354 54.5605 10.7824C55.0694 11.0123 55.5942 11.2055 56.1308 11.3603C56.6965 11.5291 57.2836 11.6153 57.874 11.6161C58.1995 11.6428 58.5263 11.5832 58.8214 11.4432C58.903 11.3975 58.9708 11.3308 59.0179 11.25C59.065 11.1692 59.0895 11.0772 59.089 10.9837C59.0867 10.835 59.0405 10.6902 58.9562 10.5676C58.872 10.445 58.7534 10.35 58.6153 10.2945C58.2211 10.0989 57.8096 9.94029 57.3861 9.8208C56.8792 9.67237 56.3195 9.49869 55.7068 9.29973C54.9395 9.05808 54.2064 8.71898 53.5254 8.29075C53.0016 7.96265 52.5703 7.50607 52.2725 6.96439C51.9853 6.38017 51.8454 5.73451 51.8651 5.0838C51.83 4.09016 52.1066 3.11045 52.6562 2.28186C53.1826 1.53299 53.9032 0.941781 54.7405 0.571806C55.619 0.184231 56.5704 -0.0104171 57.5306 0.00099623C58.2558 -0.000655648 58.9784 0.0892701 59.6812 0.268638C60.3444 0.437833 60.9943 0.655531 61.6257 0.919976C62.232 1.17577 62.7626 1.41973 63.2173 1.64711L61.422 5.07669Z" fill="var(--fill-0, #21D4D4)"/>
<path id="Vector_6" d="M72.2623 15.382C71.1797 15.3969 70.1069 15.1746 69.1193 14.7307C68.2018 14.3133 67.3766 13.7175 66.6916 12.978C66.0216 12.2548 65.4923 11.413 65.1308 10.4958C64.7699 9.58762 64.585 8.61907 64.586 7.64179C64.5815 6.65098 64.7781 5.66956 65.1639 4.75695C65.5455 3.84789 66.0924 3.01751 66.7769 2.30792C67.4756 1.58432 68.3113 1.00703 69.2354 0.609707C70.2191 0.192466 71.2791 -0.0148575 72.3476 0.00100069C73.3929 -0.0162776 74.4298 0.190372 75.3886 0.607069C76.3474 1.02377 77.2059 1.64086 77.9065 2.41687C78.5691 3.14702 79.0939 3.99121 79.4555 4.90854C79.8173 5.81234 80.0022 6.7772 80.0002 7.75074C80.0027 8.73328 79.8103 9.70657 79.4341 10.6143C79.0578 11.5238 78.5138 12.3546 77.8307 13.0633C77.1333 13.7871 76.3014 14.368 75.3816 14.7733C74.3966 15.1944 73.3334 15.4019 72.2623 15.382ZM68.8185 7.68442C68.8167 8.18814 68.8893 8.68936 69.0341 9.17184C69.1682 9.63402 69.3849 10.0681 69.6736 10.4532C69.9603 10.8315 70.3297 11.1394 70.7536 11.3532C71.2436 11.5717 71.7745 11.6836 72.311 11.6815C72.8475 11.6795 73.3775 11.5636 73.8658 11.3414C74.2956 11.1237 74.6655 10.8041 74.9435 10.4106C75.2242 10.0155 75.4341 9.57477 75.564 9.10789C75.6993 8.63094 75.7678 8.13755 75.7677 7.64179C75.7697 7.14289 75.6978 6.64645 75.5545 6.16858C75.4179 5.70984 75.2005 5.27913 74.9127 4.8967C74.6261 4.5174 74.2524 4.21273 73.8232 4.00851C73.3407 3.78696 72.8144 3.67763 72.2836 3.68876C71.7465 3.67508 71.2141 3.79213 70.7323 4.02982C70.3089 4.24865 69.9399 4.55941 69.6522 4.93933C69.3643 5.3235 69.1506 5.75807 69.0222 6.22069C68.8871 6.69687 68.8186 7.18945 68.8185 7.68442Z" fill="var(--fill-0, #21D4D4)"/>
</g>
</svg>
