<svg preserveAspectRatio="none" width="100%" height="100%" overflow="visible" style="display: block;" viewBox="0 0 42.9327 7.0959" fill="none" xmlns="http://www.w3.org/2000/svg">
<g id="Get it on">
<path d="M6.7726 3.81575C6.7726 4.73755 6.4998 5.47125 5.9531 6.01905C5.3327 6.67025 4.5231 6.99585 3.5287 6.99585C2.5761 6.99585 1.7654 6.66585 1.0999 6.00585C0.4333 5.34475 0.1 4.52635 0.1 3.54955C0.1 2.57165 0.4333 1.75325 1.0999 1.09325C1.7654 0.432148 2.5761 0.102149 3.5287 0.102149C4.0017 0.102149 4.4538 0.194549 4.8828 0.378249C5.3129 0.563049 5.6572 0.808349 5.9146 1.11525L5.3349 1.69605C4.8982 1.17355 4.2965 0.912849 3.5276 0.912849C2.8324 0.912849 2.2318 1.15705 1.7247 1.64545C1.2176 2.13385 0.964599 2.76855 0.964599 3.54845C0.964599 4.32835 1.2176 4.96305 1.7247 5.45145C2.2318 5.93985 2.8324 6.18405 3.5276 6.18405C4.2646 6.18405 4.8795 5.93875 5.3712 5.44705C5.6902 5.12695 5.875 4.68145 5.9245 4.11055H3.5276V3.31745H6.7253C6.7583 3.49015 6.7726 3.65625 6.7726 3.81575Z" fill="var(--fill-0, white)"/>
<path d="M11.8437 1.05921H8.83851V3.15141H11.5489V3.94451H8.83851V6.03671H11.8437V6.84851H7.99041V0.248511H11.8437V1.05921Z" fill="var(--fill-0, white)"/>
<path d="M15.4197 6.84851H14.5716V1.05921H12.728V0.248511H17.2633V1.05921H15.4197V6.84851Z" fill="var(--fill-0, white)"/>
<path d="M20.5445 6.84851V0.248511H21.3926V6.84851H20.5445Z" fill="var(--fill-0, white)"/>
<path d="M25.1537 6.84851H24.3056V1.05921H22.462V0.248511H26.9973V1.05921H25.1537V6.84851Z" fill="var(--fill-0, white)"/>
<path d="M35.5826 5.996C34.9336 6.6626 34.1273 6.9959 33.1626 6.9959C32.1979 6.9959 31.3916 6.6626 30.7437 5.996C30.0947 5.3294 29.7713 4.5132 29.7713 3.5485C29.7713 2.5838 30.0947 1.7676 30.7437 1.101C31.3916 0.4344 32.1979 0.1 33.1626 0.1C34.1218 0.1 34.927 0.435499 35.5782 1.1054C36.2294 1.7753 36.555 2.5893 36.555 3.5485C36.555 4.5132 36.2305 5.3294 35.5826 5.996ZM31.3696 5.4427C31.858 5.9377 32.4553 6.1841 33.1626 6.1841C33.8699 6.1841 34.4683 5.9366 34.9556 5.4427C35.444 4.9477 35.6893 4.3163 35.6893 3.5485C35.6893 2.7807 35.444 2.1493 34.9556 1.6543C34.4683 1.1593 33.8699 0.9129 33.1626 0.9129C32.4553 0.9129 31.858 1.1604 31.3696 1.6543C30.8823 2.1493 30.637 2.7807 30.637 3.5485C30.637 4.3163 30.8823 4.9477 31.3696 5.4427Z" fill="var(--fill-0, white)"/>
<path d="M37.7452 6.84851V0.248511H38.777L41.9846 5.38221H42.0209L41.9846 4.11061V0.248511H42.8327V6.84851H41.9472L38.5911 1.46511H38.5548L38.5911 2.73671V6.84851H37.7452Z" fill="var(--fill-0, white)"/>
<path d="M6.7726 3.81575C6.7726 4.73755 6.4998 5.47125 5.9531 6.01905C5.3327 6.67025 4.5231 6.99585 3.5287 6.99585C2.5761 6.99585 1.7654 6.66585 1.0999 6.00585C0.4333 5.34475 0.1 4.52635 0.1 3.54955C0.1 2.57165 0.4333 1.75325 1.0999 1.09325C1.7654 0.432148 2.5761 0.102149 3.5287 0.102149C4.0017 0.102149 4.4538 0.194549 4.8828 0.378249C5.3129 0.563049 5.6572 0.808349 5.9146 1.11525L5.3349 1.69605C4.8982 1.17355 4.2965 0.912849 3.5276 0.912849C2.8324 0.912849 2.2318 1.15705 1.7247 1.64545C1.2176 2.13385 0.964599 2.76855 0.964599 3.54845C0.964599 4.32835 1.2176 4.96305 1.7247 5.45145C2.2318 5.93985 2.8324 6.18405 3.5276 6.18405C4.2646 6.18405 4.8795 5.93875 5.3712 5.44705C5.6902 5.12695 5.875 4.68145 5.9245 4.11055H3.5276V3.31745H6.7253C6.7583 3.49015 6.7726 3.65625 6.7726 3.81575Z" stroke="var(--stroke-0, white)" stroke-width="0.2" stroke-miterlimit="10"/>
<path d="M11.8437 1.05921H8.83851V3.15141H11.5489V3.94451H8.83851V6.03671H11.8437V6.84851H7.99041V0.248511H11.8437V1.05921Z" stroke="var(--stroke-0, white)" stroke-width="0.2" stroke-miterlimit="10"/>
<path d="M15.4197 6.84851H14.5716V1.05921H12.728V0.248511H17.2633V1.05921H15.4197V6.84851Z" stroke="var(--stroke-0, white)" stroke-width="0.2" stroke-miterlimit="10"/>
<path d="M20.5445 6.84851V0.248511H21.3926V6.84851H20.5445Z" stroke="var(--stroke-0, white)" stroke-width="0.2" stroke-miterlimit="10"/>
<path d="M25.1537 6.84851H24.3056V1.05921H22.462V0.248511H26.9973V1.05921H25.1537V6.84851Z" stroke="var(--stroke-0, white)" stroke-width="0.2" stroke-miterlimit="10"/>
<path d="M35.5826 5.996C34.9336 6.6626 34.1273 6.9959 33.1626 6.9959C32.1979 6.9959 31.3916 6.6626 30.7437 5.996C30.0947 5.3294 29.7713 4.5132 29.7713 3.5485C29.7713 2.5838 30.0947 1.7676 30.7437 1.101C31.3916 0.4344 32.1979 0.1 33.1626 0.1C34.1218 0.1 34.927 0.435499 35.5782 1.1054C36.2294 1.7753 36.555 2.5893 36.555 3.5485C36.555 4.5132 36.2305 5.3294 35.5826 5.996ZM31.3696 5.4427C31.858 5.9377 32.4553 6.1841 33.1626 6.1841C33.8699 6.1841 34.4683 5.9366 34.9556 5.4427C35.444 4.9477 35.6893 4.3163 35.6893 3.5485C35.6893 2.7807 35.444 2.1493 34.9556 1.6543C34.4683 1.1593 33.8699 0.9129 33.1626 0.9129C32.4553 0.9129 31.858 1.1604 31.3696 1.6543C30.8823 2.1493 30.637 2.7807 30.637 3.5485C30.637 4.3163 30.8823 4.9477 31.3696 5.4427Z" stroke="var(--stroke-0, white)" stroke-width="0.2" stroke-miterlimit="10"/>
<path d="M37.7452 6.84851V0.248511H38.777L41.9846 5.38221H42.0209L41.9846 4.11061V0.248511H42.8327V6.84851H41.9472L38.5911 1.46511H38.5548L38.5911 2.73671V6.84851H37.7452Z" stroke="var(--stroke-0, white)" stroke-width="0.2" stroke-miterlimit="10"/>
</g>
</svg>
