<svg preserveAspectRatio="none" width="100%" height="100%" overflow="visible" style="display: block;" viewBox="0 0 28.6 28.6" fill="none" xmlns="http://www.w3.org/2000/svg">
<g id="Galaxy Store icon">
<path id="Exclude" fill-rule="evenodd" clip-rule="evenodd" d="M0.303931 8.4321C0 9.69806 0 11.232 0 14.3C0 17.368 0 18.9019 0.303931 20.1679C1.26956 24.19 4.40996 27.3304 8.4321 28.2961C9.69806 28.6 11.232 28.6 14.3 28.6C17.368 28.6 18.9019 28.6 20.1679 28.2961C24.19 27.3304 27.3304 24.19 28.2961 20.1679C28.6 18.9019 28.6 17.368 28.6 14.3C28.6 11.232 28.6 9.69806 28.2961 8.4321C27.3304 4.40996 24.19 1.26956 20.1679 0.303931C18.9019 0 17.368 0 14.3 0C11.232 0 9.69806 0 8.4321 0.303931C4.40996 1.26956 1.26956 4.40996 0.303931 8.4321ZM18.4118 10.2675L18.4706 10.5264H21.847L20.9368 19.0111C20.7545 20.7367 19.2991 22.0463 17.5636 22.0463H11.0358C9.30034 22.0463 7.84493 20.7367 7.66264 19.0109L6.75254 10.5264H10.1289L10.1879 10.2675C10.1879 8.00062 12.0324 6.15648 14.2996 6.15648C16.567 6.15648 18.4118 8.00062 18.4118 10.2675ZM11.9827 10.2675L11.9164 10.5264H16.6831L16.6169 10.2675C16.6169 8.99017 15.5775 7.95096 14.2996 7.95096C13.0221 7.95096 11.9827 8.99017 11.9827 10.2675Z" fill="var(--fill-0, black)"/>
</g>
</svg>
