<svg preserveAspectRatio="none" width="100%" height="100%" overflow="visible" style="display: block;" viewBox="0 0 23.0897 25.72" fill="none" xmlns="http://www.w3.org/2000/svg">
<g id="Google Play logo">
<path id="Subtract" d="M16.6973 17.3389L2.54102 25.3848C1.9062 25.7448 1.32406 25.8046 0.87793 25.6133L12.9238 13.5655L16.6973 17.3389ZM12.2168 12.8584L0.183594 24.8936C0.0656134 24.6264 0 24.2987 0 23.917V1.80181C0 1.42062 0.0655179 1.09272 0.183594 0.825244L12.2168 12.8584ZM22.042 11.4161C23.439 12.2101 23.439 13.5097 22.042 14.3047L17.5996 16.8272L13.6309 12.8584L17.5977 8.89067L22.042 11.4161ZM0.878906 0.106494C1.32496 -0.0845798 1.90655 -0.0245584 2.54102 0.335986L16.6963 8.37798L12.9238 12.1514L0.878906 0.106494Z" fill="var(--fill-0, black)"/>
</g>
</svg>
