<svg preserveAspectRatio="none" width="100%" height="100%" overflow="visible" style="display: block;" viewBox="0 0 119.047 31.905" fill="none" xmlns="http://www.w3.org/2000/svg">
<path id="Vector" d="M43.48 23.899H46.194L45.744 21.793V9.24H43.148V14.966C42.368 14.061 41.293 13.53 40.025 13.53C37.428 13.53 35.418 15.674 35.418 18.823C35.418 21.971 37.428 24.115 40.025 24.115C40.6337 24.1208 41.2359 23.9893 41.7868 23.7303C42.3377 23.4713 42.8231 23.0915 43.207 22.619L43.48 23.899ZM94.802 16.344C95.329 16.344 95.817 16.481 96.266 16.795L97.496 14.022C96.929 13.667 96.266 13.51 95.622 13.51C94.45 13.51 93.474 14.04 92.85 15.025L92.576 13.745H89.903L90.333 15.732V23.897H92.927V17.425C93.278 16.755 93.942 16.343 94.801 16.343H94.803L94.802 16.344ZM102.414 21.38C100.912 21.38 99.799 20.377 99.799 18.822C99.799 17.248 100.912 16.265 102.414 16.265C103.938 16.265 105.031 17.248 105.031 18.822C105.031 20.377 103.937 21.38 102.414 21.38ZM37.936 18.822C37.936 17.248 39.048 16.265 40.551 16.265C42.074 16.265 43.168 17.248 43.168 18.822C43.168 20.377 42.074 21.38 40.552 21.38C39.049 21.38 37.936 20.377 37.936 18.822ZM113.913 21.38C112.41 21.38 111.298 20.377 111.298 18.822C111.298 17.248 112.41 16.265 113.913 16.265C115.436 16.265 116.529 17.248 116.529 18.822C116.529 20.377 115.436 21.38 113.913 21.38ZM52.499 16.107C53.846 16.107 54.724 16.737 54.997 17.897H50C50.293 16.737 51.172 16.107 52.499 16.107ZM83.557 16.107C84.904 16.107 85.783 16.737 86.056 17.897H81.059C81.352 16.737 82.23 16.107 83.557 16.107ZM70.888 23.899H75.066L77.78 13.746H74.95L72.959 21.971L70.967 13.746H68.175L70.889 23.898L70.888 23.899ZM64.192 23.899H66.787V13.746H64.193L64.192 23.899ZM52.897 24.087C54.342 24.087 55.767 23.693 56.957 22.926L55.962 20.683C55.025 21.175 53.991 21.47 52.936 21.47C51.57 21.47 50.613 20.939 50.203 19.955H57.503C57.582 19.581 57.622 19.208 57.622 18.755C57.622 15.607 55.455 13.502 52.546 13.502C49.618 13.502 47.471 15.626 47.471 18.794C47.471 22.021 49.598 24.087 52.897 24.087ZM119.047 18.822C119.047 15.674 116.861 13.529 113.913 13.529C110.965 13.529 108.779 15.674 108.779 18.822C108.779 21.971 110.965 24.115 113.913 24.115C116.861 24.115 119.047 21.971 119.047 18.822ZM83.909 24.115C85.353 24.115 86.778 23.721 87.969 22.954L86.973 20.71C86.036 21.202 85.001 21.497 83.947 21.497C82.581 21.497 81.624 20.967 81.214 19.982H88.515C88.593 19.608 88.632 19.234 88.632 18.782C88.632 15.634 86.465 13.529 83.556 13.529C80.629 13.529 78.481 15.653 78.481 18.821C78.481 22.048 80.609 24.114 83.908 24.114L83.909 24.115ZM102.415 24.115C105.363 24.115 107.548 21.971 107.548 18.822C107.548 15.674 105.362 13.529 102.414 13.529C99.466 13.529 97.28 15.674 97.28 18.822C97.28 21.971 99.467 24.115 102.415 24.115ZM59.273 23.898H61.869V9.24H59.273V23.898ZM65.5 12.348C66.417 12.348 67.12 11.639 67.12 10.695C67.12 9.751 66.418 9.042 65.5 9.042C64.563 9.042 63.86 9.751 63.86 10.695C63.86 11.639 64.563 12.348 65.5 12.348ZM20.897 0L19.411 14.068L16.875 2.208L8.926 3.888L11.46 15.748L0 18.172L2.023 27.645L22.177 31.905L26.786 21.61L28.98 0.846L20.896 0H20.897ZM14.529 20.408C14.113 20.787 13.564 20.752 12.981 20.559C12.399 20.367 12.141 19.667 12.361 18.821C12.525 18.192 13.298 18.098 13.685 18.091C13.8313 18.0884 13.9765 18.1181 14.11 18.178C14.383 18.301 14.846 18.564 14.94 18.965C15.076 19.543 14.945 20.028 14.53 20.407L14.529 20.408ZM20.363 21.061C20.061 21.583 19.269 21.651 18.489 21.272C17.964 21.016 17.968 20.364 18.025 19.967C18.055 19.75 18.144 19.545 18.28 19.374C18.468 19.137 18.78 18.829 19.143 18.819C19.732 18.804 20.238 19.066 20.525 19.542C20.812 20.016 20.668 20.539 20.365 21.062H20.363V21.061Z" fill="var(--fill-0, #1D1D20)"/>
</svg>
