<svg preserveAspectRatio="none" width="100%" height="100%" overflow="visible" style="display: block;" viewBox="0 0 135.901 20" fill="none" xmlns="http://www.w3.org/2000/svg">
<path id="Vector" d="M8.8791 9.15H15.1081C15.2211 9.785 15.3571 10.917 15.3571 12.299C15.3571 16.104 12.4121 19.955 8.0181 19.955C3.7381 19.955 -0.0219039 16.217 9.60614e-05 11.031C0.0230961 5.595 4.1451 2.084 9.5811 2.084C10.1701 2.084 10.8491 2.152 11.3481 2.197L13.1821 8.041L12.4121 8.29L10.4641 6.5C8.7661 4.96 7.6101 4.463 6.4331 4.463C4.8471 4.463 3.5791 5.618 3.5791 7.929C3.5791 12.232 6.6591 16.694 10.0571 16.694C11.6651 16.694 12.4571 16.105 13.0241 15.494L8.8561 10.035V9.152H8.8791V9.15ZM31.5521 12.593C31.5521 16.738 28.3811 20 24.0091 20C19.6381 20 16.4671 16.738 16.4671 12.593C16.4671 8.448 19.6371 5.187 24.0091 5.187C28.3811 5.21 31.5521 8.471 31.5521 12.593ZM26.4781 11.801C25.3681 8.448 23.9181 6.455 22.1981 7.021C20.4761 7.588 20.4761 10.057 21.5401 13.386C22.6501 16.738 24.1001 18.732 25.8211 18.166C27.5651 17.622 27.5651 15.153 26.4781 11.801ZM46.0711 13.545L46.4111 14.677C45.9571 17.191 44.0551 19.955 40.2721 19.955C35.9921 19.955 32.6391 16.353 32.6391 11.167C32.6391 5.595 36.7391 2.061 41.8121 2.061C42.5601 2.061 43.1941 2.129 43.5791 2.174L45.4141 8.018L44.6441 8.268L42.6961 6.478C41.0201 4.983 40.0001 4.417 38.8461 4.417C37.2601 4.417 36.2181 5.617 36.2181 7.905C36.2181 12.208 38.5961 16.105 42.0841 16.105C44.2361 16.081 45.3911 14.904 46.0711 13.545ZM62.6051 17.395L62.9001 18.301C62.6731 18.686 61.6771 19.909 59.9331 19.909C57.5771 19.909 56.6261 18.528 55.9461 16.648C55.2891 18.415 53.7941 19.932 51.0761 19.932C48.6301 19.932 47.3161 18.324 47.3161 16.557C47.3161 14.111 49.3321 12.39 53.6361 10.147C53.0921 9.128 51.8691 8.652 50.5781 8.652C48.9931 8.63 47.2261 9.309 46.3201 10.532L46.0031 9.558C46.6831 7.724 48.9471 5.278 52.5711 5.278C55.8331 5.278 58.0301 7.271 59.0491 10.396L60.9971 16.399C61.2921 17.305 61.7451 17.554 62.1071 17.554C62.2881 17.599 62.4921 17.509 62.6051 17.395ZM54.5651 12.933L53.9751 11.143C52.3671 12.367 51.5751 13.93 51.5751 15.063C51.5751 16.535 52.3221 17.214 53.3411 17.214C55.0851 17.214 55.4481 15.584 54.5641 12.934L54.5651 12.933ZM74.4281 9.65L73.6801 9.9C72.1401 9.197 71.5741 9.129 70.3051 9.129C69.5351 9.129 68.8101 9.469 68.8101 9.469V17.124C68.8101 17.917 69.1961 18.506 70.2601 18.824V19.684H63.1501V18.824C64.0791 18.506 64.1701 17.917 64.1701 17.124V8.97C64.1701 7.498 63.7391 6.977 62.2441 6.366V5.505H68.7671L68.6541 8.585H68.7221L69.2651 7.883C70.3301 6.456 71.7121 5.437 73.0251 5.437H73.1391L74.4281 9.65ZM88.8561 18.846V19.706H83.0121L83.0351 17.872H82.8991C82.4819 18.4819 81.9202 18.979 81.2641 19.3189C80.608 19.6588 79.8779 19.831 79.1391 19.82C75.9001 19.82 73.9071 17.102 73.9071 13.591C73.9071 8.971 77.0331 5.618 82.1291 5.618C82.5361 5.618 82.9221 5.641 82.9221 5.641V4.485C82.9221 3.239 82.2871 2.809 81.2681 2.718V1.948L87.2941 0H87.5441V17.146C87.5661 17.939 87.9281 18.528 88.8571 18.845L88.8561 18.846ZM82.9221 15.041V7.61C82.5931 7.46902 82.2379 7.39982 81.8801 7.407C80.2031 7.407 78.1421 8.675 78.1421 12.254C78.1421 15.561 79.4111 17.373 81.1551 17.373C81.7891 17.395 82.9221 17.078 82.9221 15.04V15.041ZM97.1461 18.846V19.706H89.8981V18.846C90.8261 18.529 91.2121 17.94 91.2121 17.147V4.485C91.2121 3.239 90.5771 2.809 89.5581 2.718V1.948L95.5841 0H95.8341V17.146C95.8341 17.939 96.1961 18.528 97.1471 18.845L97.1461 18.846ZM111.937 12.98L112.254 13.953C111.778 17.26 109.083 19.956 105.572 19.956C101.064 19.956 98.1651 16.581 98.1651 12.323C98.1651 8.449 100.883 5.323 104.711 5.323C107.497 5.323 109.558 7.023 110.396 9.31L102.967 14.316C104.009 15.426 105.481 16.196 107.18 16.196C109.513 16.196 111.28 14.588 111.937 12.98ZM101.064 9.763C101.064 11.009 101.495 12.323 102.22 13.41L103.465 12.21C104.326 11.417 105.028 10.533 105.028 9.31C105.028 8.382 104.394 7.272 103.148 7.272C102.016 7.294 101.064 8.178 101.064 9.763ZM120.136 10.714C122.877 12.096 123.986 13.455 123.986 15.358C123.986 17.645 122.152 19.956 118.211 19.956C116.104 19.956 114.904 19.616 113.884 19.186L112.548 15.041L113.296 14.814L113.952 15.448C115.968 17.351 117.69 18.597 119.026 18.597C120.023 18.597 120.566 17.963 120.566 17.328C120.566 16.694 120.453 15.969 118.754 15.108L116.24 13.84C114.02 12.708 112.978 11.326 112.978 9.74C112.978 7.023 115.357 5.437 118.415 5.437C120.476 5.437 121.654 5.731 121.654 5.731L122.809 9.333L122.061 9.559L121.608 9.152C119.253 7.09 118.437 6.66 117.441 6.66C116.738 6.66 116.127 7.113 116.127 7.747C116.127 8.2 116.217 8.767 117.622 9.469L120.136 10.714ZM132.05 10.737C134.768 12.164 135.901 13.455 135.901 15.357C135.901 17.645 134.066 19.956 130.125 19.956C128.018 19.956 126.818 19.616 125.799 19.186L124.462 15.041L125.21 14.814L125.866 15.448C127.882 17.351 129.604 18.597 130.94 18.597C131.937 18.597 132.48 17.963 132.48 17.328C132.48 16.694 132.367 15.992 130.668 15.108L128.154 13.795C125.934 12.662 124.893 11.303 124.893 9.718C124.893 7 127.271 5.414 130.329 5.414C132.39 5.414 133.568 5.709 133.568 5.709L134.723 9.31L133.975 9.537L133.522 9.129C131.167 7.068 130.351 6.637 129.355 6.637C128.652 6.637 128.041 7.09 128.041 7.725C128.041 8.178 128.132 8.721 129.536 9.446L132.05 10.737Z" fill="var(--fill-0, #1D1D20)"/>
</svg>
