<svg preserveAspectRatio="none" width="100%" height="100%" overflow="visible" style="display: block;" viewBox="0 0 104.783 17.1747" fill="none" xmlns="http://www.w3.org/2000/svg">
<path id="Vector" d="M4.908 0.138663C4.81912 0.0498738 4.69863 0 4.573 0C4.44737 0 4.32688 0.0498738 4.238 0.138663L0 4.37466L12.8 17.1747V8.03266L4.909 0.138663H4.908ZM33.547 16.8137V4.95566H36.707V6.54766C37.437 5.33966 38.497 4.73466 39.934 4.73466C41.371 4.73466 42.454 5.35466 43.227 6.63466C44.465 5.33166 45.415 4.73466 46.895 4.73466C49.569 4.73466 51.073 6.23666 51.073 9.00066V16.8237H47.67V10.3927C47.67 8.73466 47.317 7.98366 46.013 7.98366C44.686 7.98366 43.97 8.80066 43.97 10.3927V16.8237H40.534V10.3927C40.534 8.73466 40.181 7.98366 38.876 7.98366C37.55 7.98366 36.834 8.80066 36.834 10.3927V16.8237L33.547 16.8137ZM55.275 6.49266C55.9233 5.83617 56.7087 5.33109 57.575 5.01354C58.4413 4.696 59.3671 4.57385 60.2861 4.65584C61.2051 4.73782 62.0947 5.02191 62.8911 5.48778C63.6875 5.95365 64.3711 6.58978 64.893 7.35066C65.592 8.36746 65.9753 9.56794 65.995 10.8017C65.995 12.5917 65.397 14.0717 64.205 15.2667C63.6196 15.8671 62.9177 16.3416 62.1423 16.6609C61.3669 16.9803 60.5345 17.1377 59.696 17.1237C57.883 17.1237 56.426 16.5037 55.209 15.2237C54.0739 14.0511 53.4466 12.4785 53.463 10.8467C53.4599 10.0368 53.6186 9.23453 53.9297 8.48685C54.2409 7.73918 54.6983 7.06118 55.275 6.49266ZM59.717 13.8077C61.264 13.8077 62.524 12.5037 62.524 10.8897C62.524 9.25366 61.264 7.95166 59.717 7.95166C58.17 7.95166 56.91 9.25466 56.91 10.8897C56.91 12.5037 58.192 13.8077 59.717 13.8077ZM68.383 16.8137V4.95566H71.698L71.653 6.54766C72.383 5.35366 73.487 4.73466 75.056 4.73466C77.51 4.73466 79.101 6.28166 79.101 9.00066V16.8237H75.61V10.3927C75.61 8.73466 75.257 7.98366 73.908 7.98366C72.538 7.98366 71.809 8.80066 71.809 10.3927V16.8237L68.383 16.8137ZM94.063 6.49266C94.7112 5.83582 95.4967 5.33044 96.3631 5.01268C97.2295 4.69493 98.1555 4.57267 99.0747 4.65466C99.9939 4.73666 100.884 5.02087 101.68 5.48695C102.477 5.95304 103.16 6.58946 103.682 7.35066C104.381 8.36746 104.764 9.568 104.783 10.8017C104.783 12.5917 104.186 14.0717 102.992 15.2667C102.407 15.867 101.705 16.3415 100.93 16.6608C100.155 16.9801 99.3223 17.1376 98.484 17.1237C96.672 17.1237 95.213 16.5037 93.997 15.2237C92.8622 14.051 92.2352 12.4784 92.252 10.8467C92.2488 10.0369 92.4073 9.23464 92.7183 8.48697C93.0293 7.7393 93.4864 7.06127 94.063 6.49266ZM98.506 13.8077C100.053 13.8077 101.313 12.5037 101.313 10.8897C101.313 9.25366 100.053 7.95166 98.506 7.95166C96.959 7.95166 95.699 9.25466 95.699 10.8897C95.699 12.5037 96.98 13.8077 98.506 13.8077ZM81.736 16.8137V14.3377L86.62 8.01766H81.735V4.95566H90.553V7.76266L86.245 13.7527H90.642V16.8237L81.735 16.8137H81.736Z" fill="var(--fill-0, #1D1D20)"/>
</svg>
