<svg preserveAspectRatio="none" width="100%" height="100%" overflow="visible" style="display: block;" viewBox="0 0 107.962 38" fill="none" xmlns="http://www.w3.org/2000/svg">
<path id="Vector" d="M22.386 16.59C22.52 16.78 22.577 17.045 22.596 17.33H20.35C20.388 17.026 20.483 16.78 20.598 16.59C20.788 16.305 21.092 16.134 21.492 16.134C21.912 16.134 22.197 16.286 22.387 16.589L22.386 16.59ZM13.536 18.184C13.345 18.317 13.25 18.525 13.25 18.791C13.25 18.962 13.288 19.095 13.345 19.209C13.383 19.266 13.402 19.304 13.535 19.399C13.535 19.399 13.821 19.626 14.468 19.589C14.925 19.569 15.324 19.475 15.324 19.475V18.032C15.324 18.032 14.924 17.956 14.468 17.956C13.802 17.937 13.536 18.184 13.536 18.184ZM34.189 16.153C33.771 16.153 33.485 16.305 33.295 16.589C33.105 16.893 33.009 17.311 33.009 17.842C33.009 18.374 33.104 18.81 33.295 19.114C33.485 19.418 33.79 19.55 34.189 19.55C34.609 19.55 34.894 19.399 35.103 19.114C35.293 18.81 35.408 18.393 35.408 17.842C35.408 17.311 35.313 16.874 35.103 16.589C34.913 16.286 34.608 16.153 34.189 16.153ZM54.463 16.95C54.463 23.48 49.209 28.756 42.718 28.756C41.918 28.756 41.157 28.68 40.395 28.529C39.6498 29.8583 38.5639 30.9651 37.2491 31.7356C35.9343 32.5061 34.438 32.9125 32.914 32.913C31.6152 32.9185 30.3324 32.6264 29.164 32.059C28.4103 33.8225 27.1551 35.3256 25.5543 36.3818C23.9536 37.438 22.0778 38.0007 20.16 38C18.1572 38.0016 16.2021 37.3892 14.558 36.2454C12.914 35.1016 11.66 33.4814 10.965 31.603C10.356 31.736 9.72805 31.793 9.10005 31.793C4.07405 31.813 4.57899e-05 27.713 4.57899e-05 22.644C-0.00503514 21.0385 0.41281 19.4599 1.21154 18.0671C2.01028 16.6743 3.16173 15.5165 4.55005 14.71C3.97561 13.3859 3.67753 11.9584 3.67405 10.515C3.67405 4.707 8.41405 0 14.258 0C17.685 0 20.731 1.632 22.673 4.138C23.5654 3.2037 24.6377 2.4597 25.8252 1.95082C27.0128 1.44194 28.2911 1.17872 29.583 1.177C33.181 1.177 36.321 3.17 37.978 6.15C39.4701 5.48636 41.085 5.14362 42.718 5.144C49.209 5.144 54.463 10.44 54.463 16.95ZM11.669 18.83C11.669 17.956 10.889 17.633 10.147 17.387L10.051 17.349C9.49905 17.178 9.02404 17.007 9.02404 16.646V16.627C9.02404 16.324 9.30905 16.096 9.72805 16.096C10.204 16.096 10.775 16.248 11.156 16.456C11.156 16.456 11.27 16.532 11.308 16.419C11.327 16.362 11.518 15.869 11.536 15.811C11.556 15.754 11.517 15.716 11.479 15.678C10.9922 15.3982 10.4416 15.2481 9.88005 15.242H9.76605C8.73805 15.242 8.03405 15.849 8.03405 16.742V16.76C8.03405 17.69 8.81405 17.994 9.55605 18.203L9.67105 18.241C10.204 18.411 10.68 18.544 10.68 18.924V18.944C10.68 19.284 10.375 19.551 9.90005 19.551C9.70905 19.551 9.11905 19.551 8.45205 19.133C8.37605 19.095 8.33805 19.057 8.26205 19.019C8.22405 19 8.14805 18.962 8.11005 19.076L7.88105 19.683C7.84305 19.778 7.90105 19.797 7.90105 19.797C7.99605 19.873 8.11005 19.93 8.20505 19.987C8.75705 20.272 9.29005 20.367 9.84205 20.367C10.965 20.405 11.669 19.798 11.669 18.83ZM16.314 19.987V17.102C16.314 16.475 16.144 16.001 15.819 15.716C15.496 15.432 15.001 15.28 14.373 15.28C14.144 15.28 13.763 15.318 13.535 15.356C13.535 15.356 12.85 15.489 12.565 15.716C12.565 15.716 12.507 15.754 12.545 15.849L12.774 16.456C12.793 16.532 12.869 16.514 12.869 16.514C12.869 16.514 12.888 16.494 12.926 16.494C13.536 16.172 14.296 16.172 14.296 16.172C14.639 16.172 14.906 16.248 15.077 16.381C15.248 16.514 15.344 16.703 15.344 17.14V17.273C15.077 17.235 14.83 17.216 14.83 17.216C14.696 17.216 14.544 17.196 14.335 17.196C14.068 17.196 13.802 17.235 13.555 17.292C13.307 17.349 13.078 17.462 12.888 17.595C12.698 17.728 12.545 17.899 12.431 18.108C12.3144 18.3302 12.2556 18.5781 12.26 18.829C12.26 19.114 12.317 19.342 12.412 19.55C12.507 19.74 12.64 19.911 12.831 20.044C13.002 20.177 13.231 20.272 13.478 20.329C13.725 20.386 14.011 20.424 14.316 20.424C14.639 20.424 14.963 20.404 15.267 20.348C15.572 20.291 15.953 20.215 16.067 20.196C16.162 20.176 16.295 20.139 16.295 20.139C16.315 20.063 16.314 19.987 16.314 19.987ZM18.351 13.457C18.351 13.401 18.313 13.363 18.256 13.363H17.419C17.361 13.363 17.323 13.401 17.323 13.458V20.177C17.323 20.234 17.361 20.272 17.419 20.272H18.256C18.313 20.272 18.351 20.234 18.351 20.177V13.457ZM23.491 16.665C23.4181 16.3902 23.281 16.1366 23.091 15.925C22.881 15.697 22.691 15.545 22.501 15.469C22.2186 15.3459 21.9141 15.2813 21.606 15.279C21.206 15.279 20.845 15.356 20.56 15.489C20.2813 15.6171 20.0342 15.8049 19.836 16.039C19.646 16.267 19.493 16.551 19.417 16.855C19.3224 17.1817 19.2776 17.5209 19.284 17.861C19.284 18.221 19.341 18.563 19.436 18.867C19.531 19.171 19.684 19.437 19.893 19.664C20.103 19.892 20.369 20.063 20.693 20.196C21.016 20.31 21.397 20.386 21.835 20.386C22.749 20.386 23.225 20.176 23.434 20.063C23.472 20.044 23.51 20.006 23.453 19.911L23.243 19.341C23.205 19.247 23.129 19.285 23.129 19.285C22.901 19.361 22.577 19.512 21.835 19.512C21.34 19.512 20.978 19.361 20.75 19.132C20.521 18.905 20.407 18.563 20.388 18.089H23.548C23.548 18.089 23.624 18.089 23.643 18.013C23.586 17.994 23.681 17.368 23.491 16.665ZM28.021 18.848C28.021 17.956 27.241 17.633 26.499 17.387L26.404 17.349C25.852 17.178 25.376 17.007 25.376 16.646V16.627C25.376 16.324 25.661 16.096 26.08 16.096C26.556 16.096 27.127 16.248 27.508 16.456C27.508 16.456 27.622 16.532 27.66 16.419C27.68 16.362 27.87 15.869 27.888 15.811C27.908 15.754 27.869 15.716 27.831 15.678C27.3442 15.3982 26.7936 15.2481 26.232 15.242H26.118C25.09 15.242 24.386 15.849 24.386 16.742V16.76C24.386 17.69 25.166 17.994 25.909 18.203L26.023 18.241C26.556 18.411 27.032 18.544 27.032 18.924V18.944C27.032 19.284 26.727 19.551 26.252 19.551C26.061 19.551 25.471 19.551 24.805 19.133C24.728 19.095 24.671 19.057 24.615 19.019C24.595 19 24.5 18.962 24.462 19.076L24.233 19.683C24.195 19.778 24.253 19.797 24.253 19.797C24.348 19.873 24.462 19.93 24.557 19.987C25.109 20.272 25.642 20.367 26.194 20.367C27.317 20.405 28.022 19.797 28.022 18.848H28.021ZM31.829 15.488C31.829 15.432 31.809 15.394 31.734 15.394H30.724C30.724 15.374 30.782 15.014 30.896 14.691C30.9402 14.5587 31.0193 14.4409 31.125 14.35C31.2015 14.2759 31.2919 14.2177 31.391 14.179C31.5007 14.1384 31.6171 14.1191 31.734 14.122C31.829 14.122 31.924 14.141 32 14.141C32.096 14.16 32.134 14.179 32.172 14.179C32.267 14.217 32.286 14.179 32.305 14.122L32.552 13.457C32.572 13.382 32.514 13.363 32.495 13.344C32.3968 13.3076 32.2949 13.2821 32.191 13.268C32.0463 13.2434 31.8998 13.2307 31.753 13.23C31.182 13.23 30.725 13.4 30.42 13.704C30.116 14.027 29.887 14.501 29.792 15.128L29.754 15.337H29.031C29.031 15.337 28.935 15.337 28.916 15.432L28.802 16.096C28.802 16.153 28.822 16.191 28.897 16.191H29.602L28.897 20.139C28.84 20.462 28.783 20.709 28.707 20.917C28.631 21.107 28.574 21.259 28.479 21.373C28.4057 21.4729 28.307 21.5513 28.193 21.6C28.0705 21.6402 27.942 21.6594 27.813 21.657C27.736 21.657 27.641 21.638 27.565 21.638C27.489 21.619 27.451 21.6 27.394 21.581C27.394 21.581 27.317 21.544 27.279 21.638C27.26 21.714 27.069 22.208 27.051 22.284C27.031 22.341 27.051 22.398 27.108 22.417C27.203 22.454 27.279 22.473 27.394 22.492C27.564 22.53 27.717 22.53 27.85 22.53C28.136 22.53 28.402 22.492 28.63 22.416C28.8589 22.3382 29.0629 22.2008 29.221 22.018C29.411 21.809 29.526 21.6 29.621 21.316C29.7504 20.9718 29.8459 20.6158 29.906 20.253L30.611 16.248H31.658C31.658 16.248 31.753 16.248 31.772 16.153L31.829 15.489V15.488ZM36.474 17.842C36.474 17.482 36.436 17.159 36.341 16.836C36.2555 16.5393 36.1128 16.2621 35.921 16.02C35.7232 15.7859 35.4764 15.5982 35.198 15.47C34.8871 15.3294 34.5493 15.2577 34.208 15.26C33.828 15.26 33.485 15.337 33.2 15.47C32.9213 15.5981 32.6742 15.7858 32.476 16.02C32.286 16.248 32.153 16.514 32.057 16.836C31.9624 17.1627 31.9176 17.5019 31.924 17.842C31.924 18.202 31.962 18.544 32.057 18.848C32.153 19.152 32.286 19.437 32.477 19.664C32.667 19.892 32.914 20.082 33.199 20.196C33.485 20.329 33.828 20.386 34.209 20.386C34.589 20.386 34.913 20.329 35.199 20.196C35.484 20.063 35.731 19.892 35.922 19.664C36.112 19.437 36.245 19.171 36.341 18.848C36.436 18.526 36.474 18.203 36.474 17.842ZM40.186 15.432C40.0111 15.3867 39.8329 15.3549 39.653 15.337C39.253 15.317 39.043 15.375 38.834 15.47C38.644 15.565 38.415 15.697 38.301 15.868V15.488C38.301 15.432 38.263 15.394 38.206 15.394H37.406C37.35 15.394 37.311 15.431 37.311 15.489V20.177C37.311 20.234 37.349 20.272 37.407 20.272H38.244C38.301 20.272 38.339 20.234 38.339 20.177V17.842C38.339 17.52 38.378 17.216 38.454 17.007C38.53 16.817 38.606 16.665 38.739 16.551C38.8445 16.4445 38.9752 16.3664 39.119 16.324C39.272 16.286 39.425 16.267 39.539 16.267C39.71 16.267 39.881 16.305 39.881 16.305C39.938 16.305 39.977 16.267 39.995 16.21C40.053 16.058 40.205 15.64 40.224 15.545C40.262 15.489 40.204 15.45 40.186 15.431V15.432ZM44.221 20.025L43.993 19.399C43.955 19.304 43.879 19.342 43.879 19.342C43.739 19.3999 43.5916 19.4383 43.441 19.456C43.2707 19.4795 43.099 19.4922 42.927 19.494C42.47 19.494 42.109 19.361 41.861 19.094C41.614 18.829 41.461 18.412 41.461 17.824C41.461 17.292 41.595 16.894 41.823 16.589C42.052 16.286 42.394 16.134 42.851 16.134C43.231 16.134 43.536 16.172 43.841 16.267C43.841 16.267 43.917 16.305 43.955 16.21C44.031 15.982 44.088 15.83 44.183 15.583C44.203 15.508 44.145 15.488 44.126 15.469C43.9254 15.3875 43.7137 15.3366 43.498 15.318C43.288 15.28 43.06 15.28 42.794 15.28C42.394 15.28 42.052 15.356 41.747 15.47C41.457 15.5974 41.1973 15.7849 40.985 16.02C40.795 16.248 40.624 16.514 40.529 16.836C40.4276 17.1617 40.376 17.5009 40.376 17.842C40.376 18.62 40.586 19.228 41.004 19.683C41.424 20.139 42.032 20.367 42.851 20.367C43.327 20.367 43.821 20.272 44.165 20.139C44.184 20.139 44.26 20.119 44.221 20.025ZM48.771 16.665C48.6981 16.3902 48.561 16.1366 48.371 15.925C48.162 15.697 47.971 15.545 47.781 15.469C47.4928 15.3441 47.1821 15.2795 46.868 15.279C46.468 15.279 46.125 15.356 45.821 15.489C45.5423 15.6171 45.2952 15.8048 45.097 16.039C44.907 16.267 44.755 16.551 44.678 16.855C44.5834 17.1817 44.5386 17.5209 44.545 17.861C44.545 18.221 44.602 18.563 44.678 18.867C44.774 19.171 44.926 19.437 45.135 19.664C45.345 19.892 45.611 20.063 45.935 20.196C46.258 20.31 46.639 20.386 47.077 20.386C47.991 20.386 48.467 20.176 48.657 20.063C48.695 20.044 48.733 20.006 48.676 19.911L48.466 19.341C48.429 19.247 48.352 19.285 48.352 19.285C48.124 19.361 47.8 19.512 47.058 19.512C46.563 19.512 46.201 19.361 45.973 19.132C45.745 18.905 45.63 18.563 45.611 18.089H48.771C48.771 18.089 48.847 18.089 48.867 18.013C48.867 17.994 48.962 17.368 48.771 16.665ZM46.791 16.134C46.373 16.134 46.087 16.304 45.897 16.589C45.764 16.779 45.687 17.026 45.649 17.329H47.896C47.876 17.045 47.82 16.779 47.686 16.589C47.476 16.286 47.191 16.134 46.791 16.134ZM107.81 13.952L107.296 14.672C106.787 14.3017 106.174 14.1025 105.544 14.103C105.106 14.103 104.764 14.18 104.516 14.35C104.269 14.521 104.155 14.768 104.155 15.072C104.155 15.299 104.212 15.489 104.307 15.641C104.402 15.793 104.574 15.907 104.821 16.021C105.068 16.116 105.41 16.229 105.867 16.343C106.591 16.514 107.105 16.78 107.448 17.103C107.791 17.444 107.962 17.881 107.962 18.413C107.962 19.096 107.714 19.627 107.2 20.007C106.686 20.387 106.058 20.577 105.296 20.577C104.288 20.577 103.45 20.31 102.765 19.76L103.298 19.039C103.602 19.247 103.907 19.399 104.212 19.513C104.516 19.608 104.859 19.665 105.239 19.665C105.715 19.665 106.077 19.57 106.343 19.361C106.61 19.152 106.743 18.868 106.743 18.507C106.743 18.26 106.686 18.071 106.591 17.919C106.496 17.767 106.324 17.634 106.096 17.539C105.755 17.4075 105.405 17.2996 105.049 17.216C104.326 17.026 103.793 16.78 103.469 16.476C103.145 16.173 102.974 15.736 102.974 15.186C102.974 14.597 103.203 14.123 103.66 13.762C104.117 13.402 104.726 13.23 105.487 13.23C106.401 13.211 107.162 13.458 107.81 13.952ZM97.035 16.4C97.054 15.736 97.263 15.185 97.605 14.749C97.968 14.312 98.462 14.103 99.109 14.103C99.757 14.103 100.233 14.313 100.576 14.73C100.918 15.148 101.09 15.717 101.109 16.4H97.035ZM102.231 17.311C102.25 17.197 102.25 17.046 102.25 16.818C102.25 15.736 101.984 14.863 101.451 14.198C100.918 13.534 100.138 13.211 99.1291 13.211C98.4431 13.211 97.854 13.363 97.359 13.667C96.864 13.971 96.502 14.407 96.235 14.957C95.988 15.508 95.855 16.134 95.855 16.856C95.855 17.976 96.159 18.886 96.749 19.551C97.359 20.234 98.177 20.557 99.262 20.557C99.795 20.557 100.29 20.481 100.747 20.329C101.185 20.177 101.603 19.969 102.003 19.684L101.489 18.924C101.175 19.1358 100.837 19.3081 100.481 19.437C100.112 19.5564 99.7259 19.6142 99.3381 19.608C98.6141 19.608 98.082 19.399 97.682 18.982C97.302 18.564 97.072 17.995 97.035 17.273H102.231V17.311ZM92.161 20.386H93.3231V16.628C93.3231 15.907 93.493 15.338 93.856 14.882C94.218 14.426 94.731 14.217 95.397 14.217C95.588 14.217 95.74 14.217 95.817 14.237L95.8921 13.23C95.7021 13.211 95.569 13.192 95.493 13.192C94.427 13.192 93.703 13.629 93.285 14.502C93.2688 14.1341 93.2368 13.7671 93.189 13.402H92.066C92.123 13.932 92.161 14.445 92.161 14.958V20.386ZM84.147 17.672C84.147 18.526 84.376 19.228 84.813 19.76C85.251 20.291 85.918 20.557 86.773 20.557C87.879 20.557 88.697 20.121 89.193 19.247H89.2111C89.2311 19.703 89.268 20.064 89.306 20.348H90.429C90.3696 19.8314 90.3379 19.312 90.334 18.792V13.402H89.174V17.122C89.174 17.842 88.9821 18.432 88.6011 18.906C88.2211 19.38 87.7071 19.627 87.0601 19.627C86.4701 19.627 86.032 19.437 85.765 19.039C85.48 18.659 85.347 18.127 85.347 17.501V13.401H84.147V17.672ZM81.3111 11.275L80.1311 11.693V13.401L78.912 13.534V14.294H80.15V18.602C80.15 19.228 80.3201 19.722 80.6831 20.064C81.0441 20.405 81.5201 20.576 82.1291 20.576C82.5491 20.576 82.9091 20.519 83.2141 20.406L83.044 19.551C82.8206 19.6131 82.5899 19.6451 82.358 19.646C81.672 19.646 81.33 19.266 81.33 18.526V14.293H83.176V13.401H81.33V11.275H81.3111ZM72.0591 20.386H73.22V16.381C73.22 15.755 73.41 15.223 73.791 14.806C74.172 14.388 74.686 14.18 75.314 14.18C75.924 14.18 76.38 14.37 76.647 14.73C76.913 15.09 77.066 15.546 77.066 16.116V20.386H78.2261V15.87C78.2261 15.11 78.017 14.484 77.58 13.972C77.16 13.459 76.495 13.212 75.619 13.212C75.048 13.212 74.553 13.326 74.153 13.535C73.7568 13.7243 73.421 14.0199 73.1831 14.389H73.163C73.1493 14.0585 73.1176 13.729 73.068 13.402H71.9641C72.0211 13.934 72.0591 14.446 72.0591 14.959V20.386ZM65.511 16.4C65.53 15.736 65.739 15.185 66.081 14.749C66.443 14.312 66.9381 14.103 67.5861 14.103C68.2331 14.103 68.709 14.313 69.052 14.73C69.394 15.148 69.565 15.717 69.584 16.4H65.511ZM70.7271 17.311C70.7461 17.197 70.746 17.046 70.746 16.818C70.746 15.736 70.479 14.863 69.946 14.198C69.413 13.534 68.633 13.211 67.624 13.211C66.938 13.211 66.348 13.363 65.854 13.667C65.358 13.971 64.997 14.407 64.73 14.957C64.483 15.508 64.3501 16.134 64.3501 16.856C64.3501 17.976 64.654 18.886 65.244 19.551C65.854 20.234 66.672 20.557 67.757 20.557C68.29 20.557 68.7851 20.481 69.2421 20.329C69.6801 20.177 70.098 19.969 70.498 19.684L69.984 18.924C69.6701 19.1358 69.3312 19.3081 68.9751 19.437C68.6331 19.551 68.271 19.608 67.833 19.608C67.11 19.608 66.577 19.399 66.177 18.982C65.797 18.564 65.567 17.995 65.53 17.273H70.7271V17.311ZM64.217 13.401H63.017L61.018 19.209H60.98L58.905 13.401H57.649L60.314 20.386H61.627L64.217 13.401Z" fill="var(--fill-0, #1D1D20)"/>
</svg>
