<svg preserveAspectRatio="none" width="100%" height="100%" overflow="visible" style="display: block;" viewBox="0 0 94.042 32" fill="none" xmlns="http://www.w3.org/2000/svg">
<path id="Vector" d="M0 0H32V32H0V0ZM28.678 28.678V3.322H3.323V28.662H28.678V28.678ZM6.206 8.258V17.928C6.206 22.347 8.635 24.964 12.741 24.964C16.972 24.964 19.401 22.347 19.401 17.928V8.258H16.079V17.928C16.079 20.419 14.997 21.83 12.819 21.83C10.516 21.83 9.497 20.357 9.497 17.928V8.258H6.206ZM23.679 10.233C24.839 10.233 25.732 9.403 25.732 8.243C25.732 7.021 24.902 6.19 23.679 6.19C22.519 6.19 21.626 7.02 21.626 8.243C21.642 9.403 22.536 10.233 23.679 10.233ZM22.018 11.769V24.776H25.34V11.769H22.018ZM41.858 19.463C45.446 19.463 47.812 17.348 47.812 13.838C47.812 10.453 45.509 8.274 41.858 8.274H35.589V24.854H38.911V19.542H41.858V19.463ZM41.481 16.831H38.864V10.938H41.481C43.409 10.938 44.428 12.02 44.428 13.822C44.428 15.749 43.393 16.831 41.481 16.831ZM48.909 18.304C48.909 22.206 51.401 24.964 54.927 24.964C57.043 24.964 58.39 24.196 59.158 22.974V24.823H62.48V11.769H59.158V13.822C58.328 12.474 56.98 11.644 54.927 11.644C51.338 11.644 48.909 14.464 48.909 18.304ZM59.142 18.304C59.142 20.544 57.732 22.018 55.679 22.018C53.439 22.018 52.294 20.419 52.294 18.304C52.294 16 53.579 14.527 55.679 14.527C57.779 14.527 59.142 16.063 59.142 18.304ZM70.786 21.955C69.501 21.955 69.188 21.375 69.188 20.231V14.59H72.071V11.769H69.188V8.18H65.865V11.769H64.33V14.589H65.865V20.231C65.865 23.303 67.213 24.776 70.41 24.776H72.134V21.955H70.786ZM77.258 13.634V7.49H73.936V24.838H77.258V17.927C77.258 15.686 78.418 14.338 80.392 14.338C82.32 14.338 83.339 15.623 83.339 17.598V24.775H86.661V17.285C86.661 13.899 84.231 11.658 81.161 11.658C79.248 11.643 78.026 12.348 77.258 13.633V13.634ZM86.41 7.428V7.945H87.491V11.267H88.134V7.946H89.152V7.429L86.41 7.428ZM93.32 7.428L91.973 10.5L90.688 7.428H89.92V11.268H90.5V8.32L91.785 11.267H92.24L93.462 8.32V11.267H94.042V7.427H93.321L93.32 7.428Z" fill="var(--fill-0, #1D1D20)"/>
</svg>
