<svg preserveAspectRatio="none" width="100%" height="100%" overflow="visible" style="display: block;" viewBox="0 0 9.21541 9.25263" fill="none" xmlns="http://www.w3.org/2000/svg">
<g id="Camera">
<path id="Oval" fill-rule="evenodd" clip-rule="evenodd" d="M4.60771 9.25263C7.15247 9.25263 9.21541 7.18136 9.21541 4.62632C9.21541 2.07127 7.15247 0 4.60771 0C2.06294 0 0 2.07127 0 4.62632C0 7.18136 2.06294 9.25263 4.60771 9.25263Z" fill="var(--fill-0, #262C2D)"/>
<path id="Oval_2" fill-rule="evenodd" clip-rule="evenodd" d="M4.60704 7.51796C6.19752 7.51796 7.48685 6.22342 7.48685 4.62652C7.48685 3.02961 6.19752 1.73507 4.60704 1.73507C3.01656 1.73507 1.72722 3.02961 1.72722 4.62652C1.72722 6.22342 3.01656 7.51796 4.60704 7.51796Z" fill="var(--fill-0, #121515)"/>
<path id="Oval_3" opacity="0.4" fill-rule="evenodd" clip-rule="evenodd" d="M4.60817 4.04853C4.92641 4.04853 5.1844 3.7895 5.1844 3.46997C5.1844 3.15045 4.92641 2.89142 4.60817 2.89142C4.28992 2.89142 4.03194 3.15045 4.03194 3.46997C4.03194 3.7895 4.28992 4.04853 4.60817 4.04853Z" fill="var(--fill-0, #636F73)"/>
</g>
</svg>
