<svg preserveAspectRatio="none" width="100%" height="100%" overflow="visible" style="display: block;" viewBox="0 0 243.633 119.128" fill="none" xmlns="http://www.w3.org/2000/svg">
<g id="Buttons">
<path id="Power button" d="M241.905 48.5763H242.769C243.246 48.5763 243.633 48.9647 243.633 49.4437V106.116C243.633 106.595 243.246 106.984 242.769 106.984H241.905V48.5763Z" fill="var(--fill-0, #303030)"/>
<path id="Volume down" d="M1.72795 119.128L0.863996 119.128C0.386852 119.128 5.01801e-05 118.739 5.02218e-05 118.26L5.31926e-05 84.1412C5.32343e-05 83.6622 0.386855 83.2738 0.863999 83.2738L1.72795 83.2738L1.72795 119.128Z" fill="var(--fill-0, #303030)"/>
<path id="Volumn up" d="M1.72795 71.7078L0.863996 71.7078C0.386852 71.7078 5.01801e-05 71.3194 5.02218e-05 70.8404L5.31926e-05 36.7213C5.32343e-05 36.2422 0.386855 35.8539 0.863999 35.8539L1.72795 35.8539L1.72795 71.7078Z" fill="var(--fill-0, #333333)"/>
<path id="Mute" d="M1.72795 18.5053L0.863998 18.5053C0.386855 18.5053 5.25432e-05 18.1169 5.25849e-05 17.6378L5.40451e-05 0.867433C5.40869e-05 0.388363 0.386856 -4.18853e-08 0.864 0L1.72795 7.583e-08L1.72795 18.5053Z" fill="var(--fill-0, #333333)"/>
</g>
</svg>
