<svg preserveAspectRatio="none" width="100%" height="100%" overflow="visible" style="display: block;" viewBox="0 0 38.9127 6.6168" fill="none" xmlns="http://www.w3.org/2000/svg">
<g id="Right">
<g id="Battery">
<path id="Rectangle" opacity="0.35" d="M26.2681 0.293164H35.9966C36.6951 0.293164 37.2612 0.859309 37.2612 1.55781V5.05977C37.2612 5.75827 36.6951 6.32539 35.9966 6.32539H26.2681C25.5696 6.32539 25.0034 5.75827 25.0034 5.05977V1.55781C25.0034 0.859309 25.5696 0.293164 26.2681 0.293164Z" stroke="var(--stroke-0, black)" stroke-width="0.583732"/>
<path id="Combined Shape" opacity="0.4" d="M38.1375 2.14143V4.47636C38.6072 4.2786 38.9127 3.81857 38.9127 3.30889C38.9127 2.79922 38.6072 2.33918 38.1375 2.14143" fill="var(--fill-0, black)"/>
<path id="Rectangle_2" d="M25.8791 1.94694C25.8791 1.5171 26.2276 1.16864 26.6574 1.16864H35.608C36.0378 1.16864 36.3863 1.5171 36.3863 1.94694V4.67103C36.3863 5.10088 36.0378 5.44934 35.608 5.44934H26.6574C26.2276 5.44934 25.8791 5.10088 25.8791 4.67103V1.94694Z" fill="var(--fill-0, black)"/>
</g>
<path id="Wifi" d="M16.0257 4.90319C16.7703 4.27347 17.8613 4.27343 18.6058 4.90319C18.6431 4.93695 18.6642 4.98478 18.6654 5.03502C18.6664 5.0855 18.6467 5.13442 18.6107 5.16979L17.4447 6.34655C17.4106 6.38103 17.3643 6.4002 17.3158 6.40026C17.2672 6.40026 17.2201 6.38113 17.1859 6.34655L16.0199 5.16979C15.984 5.1344 15.9641 5.08542 15.9652 5.03502C15.9664 4.98468 15.9884 4.93694 16.0257 4.90319ZM14.4701 3.33385C16.0743 1.84161 18.5583 1.84161 20.1625 3.33385C20.1986 3.36878 20.2195 3.41645 20.2201 3.46666C20.2206 3.517 20.2009 3.56571 20.1654 3.60143L19.4916 4.28209C19.4222 4.35154 19.3099 4.35342 19.2386 4.286C18.7119 3.80903 18.0264 3.54481 17.3158 3.54479C16.6056 3.54508 15.9204 3.80928 15.3939 4.286C15.3227 4.3535 15.2104 4.35157 15.141 4.28209L14.4672 3.60143C14.4316 3.56577 14.412 3.51701 14.4125 3.46666C14.413 3.41641 14.4339 3.36878 14.4701 3.33385ZM12.9144 1.76842C15.3749 -0.589481 19.2557 -0.589467 21.7162 1.76842C21.7518 1.80345 21.7725 1.85128 21.7728 1.90124C21.773 1.95103 21.7532 1.99869 21.7181 2.03405L21.0433 2.71569C20.9738 2.7853 20.8609 2.78623 20.7904 2.71764C19.853 1.82646 18.6092 1.3291 17.3158 1.32897C16.0222 1.32897 14.7778 1.82634 13.8402 2.71764C13.7697 2.78632 13.6567 2.78542 13.5873 2.71569L12.9125 2.03405C12.8774 1.99867 12.8576 1.95105 12.8578 1.90124C12.8581 1.85128 12.8788 1.80343 12.9144 1.76842Z" fill="var(--fill-0, black)"/>
<path id="Mobile Signal" d="M1.16699 4.08745C1.48938 4.08745 1.75098 4.34904 1.75098 4.67143V5.83842C1.75098 6.16081 1.48938 6.42241 1.16699 6.42241H0.583008C0.260843 6.42215 0 6.16065 0 5.83842V4.67143C0 4.3492 0.260843 4.08771 0.583008 4.08745H1.16699ZM3.8916 2.91948C4.21374 2.91969 4.4745 3.18129 4.47461 3.50346V5.83842C4.47461 6.16068 4.21381 6.42219 3.8916 6.42241H3.30762C2.98523 6.42241 2.72363 6.16081 2.72363 5.83842V3.50346C2.72374 3.18116 2.9853 2.91948 3.30762 2.91948H3.8916ZM6.61523 1.55815C6.93762 1.55815 7.19922 1.81975 7.19922 2.14213V5.83842C7.19922 6.16081 6.93762 6.42241 6.61523 6.42241H6.03223C5.70984 6.42241 5.44824 6.16081 5.44824 5.83842V2.14213C5.44824 1.81975 5.70984 1.55815 6.03223 1.55815H6.61523ZM9.33984 0.195844C9.66206 0.196046 9.92285 0.457566 9.92285 0.779828V5.83842C9.92285 6.16068 9.66206 6.4222 9.33984 6.42241H8.75586C8.43347 6.42241 8.17188 6.16081 8.17188 5.83842V0.779828C8.17188 0.457442 8.43347 0.195844 8.75586 0.195844H9.33984Z" fill="var(--fill-0, black)"/>
</g>
</svg>
