<svg preserveAspectRatio="none" width="100%" height="100%" overflow="visible" style="display: block;" viewBox="0 0 44 44" fill="none" xmlns="http://www.w3.org/2000/svg">
<g id="ri:ai">
<path id="Vector" d="M30.0667 38.5H26.1177L22.451 29.3333H10.549L6.88233 38.5H2.93333L14.6667 9.16667H18.3333L30.0667 38.5ZM38.5 22V38.5H34.8333V22H38.5ZM12.0157 25.6667H20.9843L16.5 14.4558L12.0157 25.6667ZM35.8032 4.25333C35.872 4.08055 35.9911 3.93239 36.145 3.82801C36.299 3.72363 36.4807 3.66784 36.6667 3.66784C36.8527 3.66784 37.0344 3.72363 37.1883 3.82801C37.3422 3.93239 37.4613 4.08055 37.5302 4.25333L37.994 5.37167C38.7722 7.26931 40.2486 8.79621 42.119 9.63783L43.4335 10.2245C43.6018 10.3024 43.7443 10.4268 43.8442 10.5831C43.944 10.7393 43.9971 10.9209 43.9971 11.1063C43.9971 11.2918 43.944 11.4734 43.8442 11.6296C43.7443 11.7859 43.6018 11.9103 43.4335 11.9882L42.0438 12.6078C40.219 13.4254 38.7668 14.8972 37.9738 16.7328L37.5228 17.7705C37.4523 17.9395 37.3334 18.0838 37.1811 18.1853C37.0287 18.2869 36.8497 18.341 36.6667 18.341C36.4836 18.341 36.3046 18.2869 36.1522 18.1853C35.9999 18.0838 35.881 17.9395 35.8105 17.7705L35.3577 16.7347C34.5655 14.8986 33.114 13.4262 31.2895 12.6078L29.8962 11.9882C29.7273 11.9105 29.5843 11.7861 29.4841 11.6296C29.3838 11.4732 29.3306 11.2912 29.3306 11.1054C29.3306 10.9196 29.3838 10.7377 29.4841 10.5812C29.5843 10.4248 29.7273 10.3003 29.8962 10.2227L31.2125 9.636C33.0829 8.79563 34.5599 7.27009 35.3393 5.3735L35.8032 4.25333Z" fill="var(--fill-0, #01CFCF)"/>
</g>
</svg>
