<svg preserveAspectRatio="none" width="100%" height="100%" overflow="visible" style="display: block;" viewBox="0 0 32 32" fill="none" xmlns="http://www.w3.org/2000/svg">
<g id="foundation:target">
<path id="Vector" d="M15.9966 8.78516C12.0117 8.78516 8.78125 12.0156 8.78125 16.0005C8.78125 19.9855 12.0117 23.2159 15.9966 23.2159C19.9816 23.2159 23.2116 19.9855 23.2116 16.0005C23.2116 12.0156 19.9812 8.78516 15.9966 8.78516ZM15.9966 20.0351C13.7681 20.0351 11.9617 18.2287 11.9617 16.0005C11.9617 13.7724 13.7681 11.9656 15.9966 11.9656C18.2251 11.9656 20.0312 13.772 20.0312 16.0005C20.0312 18.2287 18.2248 20.0351 15.9966 20.0351Z" fill="var(--fill-0, white)"/>
<path id="Vector_2" d="M16 4C9.37216 4 4 9.37376 4 16.0006C4 22.6275 9.37216 28 16 28C22.6278 28 28 22.6278 28 16.0006C28 9.37344 22.6278 4 16 4ZM16 24.8195C11.1363 24.8195 7.1808 20.8637 7.1808 16.0006C7.1808 11.1382 11.1366 7.1808 16 7.1808C20.8634 7.1808 24.8192 11.1382 24.8192 16.0006C24.8192 20.863 20.8634 24.8195 16 24.8195Z" fill="var(--fill-0, white)"/>
<path id="Vector_3" d="M15.9934 18.4399C17.3403 18.4399 18.4321 17.3481 18.4321 16.0012C18.4321 14.6544 17.3403 13.5625 15.9934 13.5625C14.6465 13.5625 13.5547 14.6544 13.5547 16.0012C13.5547 17.3481 14.6465 18.4399 15.9934 18.4399Z" fill="var(--fill-0, white)"/>
</g>
</svg>
