<svg preserveAspectRatio="none" width="100%" height="100%" overflow="visible" style="display: block;" viewBox="0 0 26.6667 26.6667" fill="none" xmlns="http://www.w3.org/2000/svg">
<g id="Group">
<path id="Vector" d="M23.3333 1.33333H3.33333C2.8029 1.33333 2.29419 1.54405 1.91912 1.91912C1.54405 2.29419 1.33333 2.8029 1.33333 3.33333V23.3333C1.33333 23.8638 1.54405 24.3725 1.91912 24.7475C2.29419 25.1226 2.8029 25.3333 3.33333 25.3333H23.3333C23.8638 25.3333 24.3725 25.1226 24.7475 24.7475C25.1226 24.3725 25.3333 23.8638 25.3333 23.3333V3.33333C25.3333 2.8029 25.1226 2.29419 24.7475 1.91912C24.3725 1.54405 23.8638 1.33333 23.3333 1.33333Z" fill="var(--fill-0, white)" stroke="var(--stroke-0, white)" stroke-width="2.66667" stroke-linejoin="round"/>
<path id="Vector_2" d="M6.29427 17.2233L10.0656 13.452L12.9909 16.37L20.0009 9.33333" stroke="var(--stroke-0, black)" stroke-width="2.66667" stroke-linecap="round" stroke-linejoin="round"/>
<path id="Vector_3" d="M14.6654 9.33333H19.9987V14.6667" stroke="var(--stroke-0, black)" stroke-width="2.66667" stroke-linecap="round" stroke-linejoin="round"/>
</g>
</svg>
