<svg preserveAspectRatio="none" width="100%" height="100%" overflow="visible" style="display: block;" viewBox="0 0 133.643 27.0415" fill="none" xmlns="http://www.w3.org/2000/svg">
<g id="Group">
<g id="Vector">
<path d="M53.6744 22.3036C53.3046 21.9866 53.0923 21.6544 53.0727 21.3054L53.6744 22.3036ZM53.6744 22.3036L53.6763 22.3052C54.0784 22.6343 54.645 22.7912 55.3611 22.7912H56.9281H57.0329V22.6865V22.4811V22.3764H56.9281H56.1412L55.8679 22.3266L55.863 22.3257L55.8577 22.3254C55.6948 22.3117 55.5137 22.2014 55.3166 21.9561C55.1463 21.7063 55.0546 21.3461 55.0546 20.8625V12.8213C55.0546 11.9639 54.8356 11.2538 54.3892 10.7003L54.388 10.6985C54.0959 10.3517 53.6377 10.0952 53.0279 9.92079C52.4315 9.72812 51.6577 9.63368 50.711 9.63368C49.7425 9.63368 48.8546 9.96879 48.05 10.6335C47.4066 11.1511 46.9227 11.7058 46.6026 12.2983V9.84119V9.73641H46.4975H44.6992H44.5945V9.84119V22.6865V22.7912H44.6992H46.4975H46.6026V22.6865V13.5664C46.6026 12.9247 47.0134 12.1799 47.8812 11.3291L47.8821 11.3283C48.7386 10.4717 49.6974 10.0487 50.7622 10.0487C51.2816 10.0487 51.7096 10.1324 52.0507 10.2943C52.6984 10.6433 53.0469 11.4546 53.0469 12.7957V20.8625V20.8656V20.8687L53.0727 21.3054L53.6744 22.3036ZM42.975 5.87982L43.0716 5.91689L43.1099 5.82089L43.2127 5.56402L43.2541 5.4608L43.1487 5.42568C41.3918 4.84014 39.6594 4.54688 37.9516 4.54688C36.2587 4.54688 34.9699 4.94394 34.1037 5.7566C33.2409 6.54917 32.8114 7.58866 32.8114 8.86492C32.8114 10.4752 33.4793 11.7243 34.8104 12.6002C35.3978 12.9974 36.0449 13.3596 36.7513 13.6871L36.7535 13.688C37.4559 13.9964 38.1499 14.2964 38.8355 14.5877C39.5336 14.8773 40.1726 15.1923 40.75 15.5321C42.024 16.2863 42.6512 17.3245 42.6512 18.6531C42.6512 19.8701 42.1703 20.7867 41.2084 21.4169C40.2524 22.0376 39.0912 22.3505 37.7204 22.3505C36.7893 22.3505 35.8748 22.2153 34.9773 21.9443C34.0956 21.6559 33.3798 21.2929 32.8269 20.8572L32.7352 20.7851L32.6731 20.8842L32.5447 21.0897L32.4922 21.1739L32.5733 21.2311C34.0838 22.29 35.9041 22.8171 38.0286 22.8171C39.1665 22.8171 40.1622 22.6878 41.0138 22.427L41.0151 22.4267C41.8924 22.1461 42.6374 21.6192 43.2488 20.8507C43.8645 20.0767 44.1709 19.1454 44.1709 18.0623C44.1709 16.9728 43.9894 16.0726 43.6195 15.3678C43.2528 14.6521 42.7708 14.09 42.1721 13.6851C41.5842 13.2873 40.9365 12.9332 40.2288 12.6227C39.5245 12.3134 38.8199 12.0385 38.1154 11.7978C37.4341 11.5423 36.8048 11.27 36.2267 10.9812C34.9527 10.3103 34.3312 9.37466 34.3312 8.17128C34.3312 7.17403 34.7032 6.40108 35.4457 5.83992C36.1919 5.27603 37.2371 4.98765 38.594 4.98765C39.9659 4.98765 41.4263 5.28403 42.975 5.87982ZM57.5817 11.437C56.3927 12.6436 55.8042 14.335 55.8042 16.4952C55.8042 18.6534 56.3742 20.2711 57.5341 21.3256C58.6872 22.3736 60.1781 22.8941 61.9977 22.8941C63.838 22.8941 65.3559 22.294 66.5422 21.0906C67.7487 19.8841 68.3455 18.1931 68.3455 16.0327C68.3455 13.8745 67.7754 12.2567 66.6156 11.2023C65.4622 10.154 63.9626 9.63368 62.1261 9.63368C60.3023 9.63368 58.7847 10.234 57.5817 11.437ZM59.0244 11.7536C59.8635 10.6124 60.9131 10.0487 62.1774 10.0487C63.4482 10.0487 64.4623 10.5316 65.2297 11.4991C65.9962 12.4654 66.3886 13.9701 66.3886 16.0327C66.3886 18.0745 65.9632 19.6597 65.125 20.8C64.2862 21.9241 63.2369 22.4792 61.972 22.4792C60.7015 22.4792 59.687 21.9962 58.9196 21.0287C58.1532 20.0622 57.7608 18.566 57.7608 16.5208C57.7608 14.4613 58.1865 12.8765 59.0244 11.7536ZM85.8493 9.92128L85.7729 9.99777L85.8519 10.0718C86.0986 10.303 86.2298 10.6482 86.2298 11.1257C86.2298 11.6078 86.13 12.0173 85.9351 12.3583L85.9329 12.3622L85.9311 12.3664L82.3119 20.2039L78.4686 9.8049L78.4435 9.73641H78.3704H76.5721H76.4221L76.4737 9.87719L77.4094 12.4315L73.8337 20.2036L69.9908 9.8049L69.9652 9.73641H69.8923H68.094H67.9432L67.9958 9.87777L72.7742 22.7232L72.7997 22.7912H72.8725H73.1294H73.197L73.2249 22.73L77.6412 13.0187L81.2524 22.7232L81.2776 22.7912H81.3506H81.6073H81.6748L81.7027 22.73L86.3786 12.4537L86.3796 12.4516C86.59 11.9606 86.6962 11.4756 86.6962 10.9973C86.6962 10.8693 86.6782 10.7341 86.6431 10.5925C86.622 10.4348 86.5446 10.2676 86.4225 10.0924C86.3702 10.0056 86.3205 9.93318 86.2736 9.87689C86.2276 9.82148 86.1778 9.77416 86.1244 9.74743L86.0569 9.71368L86.0035 9.76704L85.8493 9.92128Z" fill="#424242"/>
<path d="M53.6744 22.3036C53.3046 21.9866 53.0923 21.6544 53.0727 21.3054M53.6744 22.3036L53.0727 21.3054M53.6744 22.3036L53.6763 22.3052C54.0784 22.6343 54.645 22.7912 55.3611 22.7912H56.9281H57.0329V22.6865V22.4811V22.3764H56.9281H56.1412L55.8679 22.3266L55.863 22.3257L55.8577 22.3254C55.6948 22.3117 55.5137 22.2014 55.3166 21.9561C55.1463 21.7063 55.0546 21.3461 55.0546 20.8625V12.8213C55.0546 11.9639 54.8356 11.2538 54.3892 10.7003L54.388 10.6985C54.0959 10.3517 53.6377 10.0952 53.0279 9.92079C52.4315 9.72812 51.6577 9.63368 50.711 9.63368C49.7425 9.63368 48.8546 9.96879 48.05 10.6335C47.4066 11.1511 46.9227 11.7058 46.6026 12.2983V9.84119V9.73641H46.4975H44.6992H44.5945V9.84119V22.6865V22.7912H44.6992H46.4975H46.6026V22.6865V13.5664C46.6026 12.9247 47.0134 12.1799 47.8812 11.3291L47.8821 11.3283C48.7386 10.4717 49.6974 10.0487 50.7622 10.0487C51.2816 10.0487 51.7096 10.1324 52.0507 10.2943C52.6984 10.6433 53.0469 11.4546 53.0469 12.7957V20.8625V20.8656V20.8687L53.0727 21.3054M42.975 5.87982L43.0716 5.91689L43.1099 5.82089L43.2127 5.56402L43.2541 5.4608L43.1487 5.42568C41.3918 4.84014 39.6594 4.54688 37.9516 4.54688C36.2587 4.54688 34.9699 4.94394 34.1037 5.7566C33.2409 6.54917 32.8114 7.58866 32.8114 8.86492C32.8114 10.4752 33.4793 11.7243 34.8104 12.6002C35.3978 12.9974 36.0449 13.3596 36.7513 13.6871L36.7535 13.688C37.4559 13.9964 38.1499 14.2964 38.8355 14.5877C39.5336 14.8773 40.1726 15.1923 40.75 15.5321C42.024 16.2863 42.6512 17.3245 42.6512 18.6531C42.6512 19.8701 42.1703 20.7867 41.2084 21.4169C40.2524 22.0376 39.0912 22.3505 37.7204 22.3505C36.7893 22.3505 35.8748 22.2153 34.9773 21.9443C34.0956 21.6559 33.3798 21.2929 32.8269 20.8572L32.7352 20.7851L32.6731 20.8842L32.5447 21.0897L32.4922 21.1739L32.5733 21.2311C34.0838 22.29 35.9041 22.8171 38.0286 22.8171C39.1665 22.8171 40.1622 22.6878 41.0138 22.427L41.0151 22.4267C41.8924 22.1461 42.6374 21.6192 43.2488 20.8507C43.8645 20.0767 44.1709 19.1454 44.1709 18.0623C44.1709 16.9728 43.9894 16.0726 43.6195 15.3678C43.2528 14.6521 42.7708 14.09 42.1721 13.6851C41.5842 13.2873 40.9365 12.9332 40.2288 12.6227C39.5245 12.3134 38.8199 12.0385 38.1154 11.7978C37.4341 11.5423 36.8048 11.27 36.2267 10.9812C34.9527 10.3103 34.3312 9.37466 34.3312 8.17128C34.3312 7.17403 34.7032 6.40108 35.4457 5.83992C36.1919 5.27603 37.2371 4.98765 38.594 4.98765C39.9659 4.98765 41.4263 5.28403 42.975 5.87982ZM57.5817 11.437C56.3927 12.6436 55.8042 14.335 55.8042 16.4952C55.8042 18.6534 56.3742 20.2711 57.5341 21.3256C58.6872 22.3736 60.1781 22.8941 61.9977 22.8941C63.838 22.8941 65.3559 22.294 66.5422 21.0906C67.7487 19.8841 68.3455 18.1931 68.3455 16.0327C68.3455 13.8745 67.7754 12.2567 66.6156 11.2023C65.4622 10.154 63.9626 9.63368 62.1261 9.63368C60.3023 9.63368 58.7847 10.234 57.5817 11.437ZM59.0244 11.7536C59.8635 10.6124 60.9131 10.0487 62.1774 10.0487C63.4482 10.0487 64.4623 10.5316 65.2297 11.4991C65.9962 12.4654 66.3886 13.9701 66.3886 16.0327C66.3886 18.0745 65.9632 19.6597 65.125 20.8C64.2862 21.9241 63.2369 22.4792 61.972 22.4792C60.7015 22.4792 59.687 21.9962 58.9196 21.0287C58.1532 20.0622 57.7608 18.566 57.7608 16.5208C57.7608 14.4613 58.1865 12.8765 59.0244 11.7536ZM85.8493 9.92128L85.7729 9.99777L85.8519 10.0718C86.0986 10.303 86.2298 10.6482 86.2298 11.1257C86.2298 11.6078 86.13 12.0173 85.9351 12.3583L85.9329 12.3622L85.9311 12.3664L82.3119 20.2039L78.4686 9.8049L78.4435 9.73641H78.3704H76.5721H76.4221L76.4737 9.87719L77.4094 12.4315L73.8337 20.2036L69.9908 9.8049L69.9652 9.73641H69.8923H68.094H67.9432L67.9958 9.87777L72.7742 22.7232L72.7997 22.7912H72.8725H73.1294H73.197L73.2249 22.73L77.6412 13.0187L81.2524 22.7232L81.2776 22.7912H81.3506H81.6073H81.6748L81.7027 22.73L86.3786 12.4537L86.3796 12.4516C86.59 11.9606 86.6962 11.4756 86.6962 10.9973C86.6962 10.8693 86.6782 10.7341 86.6431 10.5925C86.622 10.4348 86.5446 10.2676 86.4225 10.0924C86.3702 10.0056 86.3205 9.93318 86.2736 9.87689C86.2276 9.82148 86.1778 9.77416 86.1244 9.74743L86.0569 9.71368L86.0035 9.76704L85.8493 9.92128Z" stroke="var(--stroke-0, #424242)" stroke-width="0.209568"/>
</g>
<path id="Vector_2" d="M90.6759 4.88915C91.1579 4.15014 91.9399 3.57766 93.0255 3.52703L92.7987 21.0416V21.0429C92.7987 21.2014 92.848 21.3718 92.9382 21.5524C93.3599 22.3961 94.3663 22.7917 95.8836 22.7917H96.6799H96.7849V22.6871V22.4816V22.3768H96.6799H95.8929L95.6197 22.3272L95.6147 22.3262L95.6097 22.3259C95.4466 22.3122 95.2657 22.2019 95.0687 21.9566C94.898 21.7068 94.8067 21.3466 94.8067 20.863V3.44469V3.34157L94.7035 3.33991L93.1334 3.31416L93.0283 3.3125L93.028 3.31562C91.2701 3.34723 89.9701 3.76068 89.153 4.57764C88.3182 5.39489 87.9142 6.7571 87.9142 8.63423V9.73693H87.4797H87.375V9.84171V10.2567V10.3616H87.4797H87.9142V22.6871V22.7917H88.0193H89.8175H89.9223V22.6871V10.3616H91.847H91.9518V10.2567V9.84171V9.73693H91.847H89.9223V8.63423C89.9223 6.87495 90.1796 5.634 90.6753 4.89012L90.6759 4.88915ZM104.356 16.4072C104.005 16.3791 103.621 16.3652 103.203 16.3652C102.736 16.3652 102.228 16.391 101.678 16.4425C100.57 16.5113 99.6533 16.6404 98.9304 16.831C98.2075 17.0213 97.668 17.2755 97.3236 17.6013C96.9928 17.9149 96.7796 18.2137 96.7038 18.4982C96.6332 18.7623 96.5975 19.0112 96.5975 19.2447C96.5975 19.4557 96.6149 19.6667 96.65 19.8775C96.7986 20.8723 97.1871 21.6313 97.8251 22.1398C98.4621 22.6473 99.3333 22.8947 100.427 22.8947C101.366 22.8947 102.184 22.701 102.875 22.3094C103.465 21.975 103.959 21.4989 104.356 20.8835V21.0429C104.356 21.363 104.582 21.7145 104.978 22.0934C105.438 22.5702 106.272 22.7917 107.441 22.7917H108.238H108.342V22.6871V22.4816V22.3768H108.238H107.45L107.177 22.3272L107.172 22.3262L107.167 22.3259C107.004 22.3122 106.823 22.2019 106.626 21.9566C106.455 21.7068 106.363 21.3466 106.363 20.863V12.2567C106.363 11.6775 106.128 11.1312 105.67 10.6197C105.368 10.2826 104.916 10.037 104.322 9.87546C103.727 9.71371 102.985 9.6341 102.097 9.6341C100.505 9.6341 98.9402 9.98893 97.4036 10.6971L97.2992 10.7449L97.3568 10.8442L97.4592 11.024L97.511 11.1147L97.6017 11.0633C97.9831 10.8474 98.5899 10.6274 99.427 10.4054L99.428 10.405C100.279 10.1669 101.013 10.0492 101.635 10.0492C102.26 10.0492 102.759 10.134 103.134 10.2974L103.138 10.299C103.523 10.4494 103.775 10.6278 103.913 10.8262C104.061 11.0418 104.177 11.2648 104.259 11.4954L104.261 11.4998L104.263 11.5041C104.361 11.716 104.386 11.8792 104.359 12.0014C104.341 12.072 104.33 12.1348 104.33 12.1859C104.33 12.2116 104.333 12.2407 104.343 12.2684C104.347 12.2773 104.351 12.2866 104.356 12.2958V16.4072ZM98.6563 19.8523V19.8507C98.6397 19.682 98.6309 19.5315 98.6309 19.3988C98.6309 18.6634 98.8231 18.1006 99.1938 17.6969C99.3743 17.5007 99.667 17.3283 100.083 17.1856C100.497 17.0433 101.026 16.9331 101.673 16.8567C102.131 16.8057 102.59 16.7803 103.048 16.7803C103.491 16.7803 103.927 16.7949 104.356 16.8244V19.8308C104.307 20.3713 103.937 20.9546 103.211 21.58C102.51 22.181 101.72 22.4797 100.839 22.4797C100.179 22.4797 99.6777 22.2625 99.3197 21.8361C98.9577 21.4056 98.7324 20.7492 98.6563 19.8523ZM110.526 3.41894V3.31416H110.422H108.623H108.518V3.41894V22.6871V22.7917H108.623H110.422H110.526V22.6871V16.5348L111.105 15.8704L115.782 22.7461L115.813 22.7917H115.869H117.667H117.865L117.753 22.6282L112.275 14.5772L116.409 9.91117L116.563 9.73693H116.331H116.073H116.027L115.995 9.77215L110.526 15.937V3.41894ZM127.743 21.7723L127.703 21.6798L127.61 21.7158C126.288 22.2242 124.777 22.4797 123.074 22.4797C121.892 22.4797 120.938 21.9993 120.203 21.0314C119.487 20.0649 119.12 18.534 119.12 16.4185C119.12 15.9588 119.142 15.5142 119.187 15.0846H128.263H128.369V14.9798V14.9789V14.9773V14.9758V14.9744V14.9733V14.9718V14.9703V14.9693V14.9678V14.9668V14.9653V14.9643V14.9632V14.9623V14.9608V14.9597V14.9583V14.9568V14.9557V14.9548V14.9533V14.9522V14.9508V14.9497V14.9482V14.9472V14.9462V14.9452V14.9437V14.9427V14.9412V14.9397V14.9387V14.9377V14.9362V14.9351V14.9337V14.9321V14.9307V14.9297V14.9286V14.9276V14.9262V14.9246V14.9231V14.9222V14.9211V14.9196V14.9182V14.9171V14.9156V14.9146V14.9136V14.9121V14.911V14.9096V14.9081V14.9071V14.9061V14.9046V14.9035V14.9021V14.9006V14.8995V14.8986V14.8971V14.896V14.8946V14.893V14.8915V14.8906V14.8895V14.8885V14.8871V14.886V14.8845V14.8835V14.8825V14.8815V14.88V14.879V14.8775V14.876V14.875V14.874V14.8725V14.8714V14.87V14.8684V14.867V14.866V14.8649V14.8639V14.8625V14.8614V14.8599V14.859V14.8579V14.8569V14.8554V14.8544V14.8529V14.8519V14.8509V14.8499V14.8484V14.8473V14.8459V14.8444V14.8433V14.8424V14.8409V14.8398V14.8384V14.8368V14.8353V14.8344V14.8333V14.8323V14.8309V14.8298V14.8283V14.8273V14.8263V14.8253V14.8238V14.8228V14.8213V14.8198V14.8188V14.8178V14.8163V14.8152V14.8138V14.8122V14.8108V14.8098V14.8087V14.8077V14.8063V14.8052V14.8037V14.8028V14.8017V14.8007V14.7992V14.7982V14.7967V14.7957V14.7947V14.7937V14.7922V14.7911V14.7897V14.7882V14.7872V14.7862V14.7847V14.7836V14.7822V14.7806V14.7792V14.7782V14.7771V14.7761V14.7747V14.7736V14.7721V14.7712V14.7701V14.7691V14.7676V14.7666V14.7651V14.7636V14.7626V14.7616V14.7601V14.7591V14.7576V14.756V14.7546V14.7536V14.7525V14.7515V14.7501V14.749V14.7475V14.7466V14.7455V14.7445V14.7431V14.742V14.7405V14.7395V14.7385V14.7375V14.736V14.735V14.7335V14.732V14.731V14.73V14.7285V14.7274V14.726V14.7244V14.723C128.369 13.0578 127.882 11.7835 126.894 10.919C125.914 10.0612 124.706 9.6341 123.28 9.6341C121.506 9.6341 120.039 10.2352 118.888 11.4391C117.734 12.6458 117.163 14.3363 117.163 16.4956C117.163 18.6526 117.707 20.2697 118.814 21.3242C119.915 22.3734 121.339 22.8947 123.074 22.8947C124.815 22.8947 126.378 22.6276 127.762 22.0913L127.863 22.052L127.82 21.9523L127.743 21.7723ZM125.484 11.1907C126.066 11.9356 126.38 13.0892 126.411 14.6696H119.238C119.451 13.2335 119.918 12.1128 120.634 11.2986C121.389 10.4603 122.236 10.0492 123.177 10.0492C124.12 10.0492 124.886 10.4275 125.484 11.1907Z" fill="var(--fill-0, #424242)" stroke="var(--stroke-1, #424242)" stroke-width="0.209568"/>
<path id="Vector_3" d="M130.633 3.14844V3.82715H129.862V5.89208H129.129V3.82715H128.357V3.14844H130.633Z" fill="var(--fill-0, #424242)"/>
<path id="Vector_4" d="M133.643 3.10742V5.90452H132.91V4.54709L132.374 5.18474H132.154L131.617 4.54709V5.90452H130.885V3.10742H131.143L132.263 4.30037L133.384 3.10742H133.643Z" fill="var(--fill-0, #424242)"/>
<path id="Vector_5" fill-rule="evenodd" clip-rule="evenodd" d="M12.5814 18.2178L12.5702 27.039L14.4349 27.0415L14.4462 18.1791L17.8479 26.3627L19.5697 25.6469L16.1915 17.5195L22.407 23.751L23.7273 22.4339L17.4851 16.1758L25.6492 19.564L26.3637 17.8416L18.1989 14.453H27.0391V12.5883H18.22L26.3715 9.22173L25.6595 7.49816L17.543 10.8504L23.7842 4.67286L22.4726 3.34753L16.1537 9.60162L19.5589 1.38904L17.8362 0.674813L14.4581 8.82262L14.4693 0.00234087L12.6045 0L12.5932 8.8632L9.19118 0.678813L7.46926 1.3946L10.8473 9.52123L4.63218 3.29026L3.31192 4.6072L9.55438 10.8655L1.39009 7.47719L0.675297 9.19949L8.84073 12.5883H0V14.453H8.81975L0.66799 17.8198L1.37981 19.5432L9.49604 16.1913L3.25492 22.3686L4.56672 23.6939L10.8852 17.4401L7.48029 25.6522L9.20284 26.3664L12.5814 18.2178Z" fill="var(--fill-0, #424242)"/>
</g>
</svg>
