<svg preserveAspectRatio="none" width="100%" height="100%" overflow="visible" style="display: block;" viewBox="0 0 42.081 6.78167" fill="none" xmlns="http://www.w3.org/2000/svg">
<g id="GET IT ON">
<path d="M5.24945 5.83423C5.0107 6.14551 4.67978 6.38124 4.25668 6.54141C3.83358 6.70159 3.35306 6.78167 2.81512 6.78167C2.26207 6.78167 1.77248 6.65625 1.34636 6.40542C0.92024 6.15458 0.590827 5.79646 0.358123 5.33105C0.128441 4.86262 0.00906641 4.31712 0 3.69456V3.17778C0 2.18047 0.238749 1.40227 0.716246 0.843176C1.19374 0.281059 1.86012 0 2.71539 0C3.44977 0 4.03304 0.181328 4.4652 0.543984C4.89737 0.906641 5.15727 1.42947 5.24492 2.11247H4.12068C3.99375 1.31765 3.53288 0.92024 2.73805 0.92024C2.22429 0.92024 1.83293 1.1061 1.56396 1.47782C1.29801 1.84652 1.1605 2.389 1.15143 3.10524V3.61296C1.15143 4.32619 1.30103 4.88075 1.60022 5.27665C1.90243 5.66953 2.321 5.86597 2.85592 5.86597C3.44221 5.86597 3.85927 5.73299 4.10708 5.46704V4.17508H2.74712V3.30471H5.24945V5.83423Z" fill="var(--fill-0, black)"/>
<path d="M10.4603 3.74443H7.74942V5.7753H10.9181V6.69101H6.60252V0.0906641H10.8864V1.01544H7.74942V2.83779H10.4603V3.74443Z" fill="var(--fill-0, black)"/>
<path d="M16.8044 1.01544H14.7463V6.69101H13.6085V1.01544H11.5686V0.0906641H16.8044V1.01544Z" fill="var(--fill-0, black)"/>
<path d="M21.1108 6.69101H19.9684V0.0906641H21.1108V6.69101Z" fill="var(--fill-0, black)"/>
<path d="M27.2464 1.01544H25.1883V6.69101H24.0505V1.01544H22.0105V0.0906641H27.2464V1.01544Z" fill="var(--fill-0, black)"/>
<path d="M35.6099 3.5631C35.6099 4.20984 35.4981 4.778 35.2745 5.26758C35.0508 5.75415 34.7305 6.12889 34.3134 6.39182C33.8994 6.65172 33.4219 6.78167 32.881 6.78167C32.346 6.78167 31.8685 6.65172 31.4485 6.39182C31.0314 6.12889 30.708 5.75566 30.4784 5.27212C30.2517 4.78857 30.1369 4.23099 30.1338 3.59936V3.22764C30.1338 2.58393 30.2472 2.01576 30.4738 1.52316C30.7035 1.03055 31.0254 0.654292 31.4394 0.394389C31.8565 0.131463 32.3339 0 32.8719 0C33.4098 0 33.8858 0.129952 34.2998 0.389856C34.7169 0.646737 35.0388 1.01846 35.2654 1.50502C35.4921 1.98857 35.6069 2.55219 35.6099 3.19591V3.5631ZM34.463 3.21857C34.463 2.48722 34.324 1.92661 34.046 1.53676C33.771 1.1469 33.3796 0.951973 32.8719 0.951973C32.3763 0.951973 31.9879 1.1469 31.7069 1.53676C31.4288 1.92359 31.2868 2.47211 31.2807 3.18231V3.5631C31.2807 4.28841 31.4213 4.84902 31.7023 5.24492C31.9864 5.64082 32.3793 5.83877 32.881 5.83877C33.3887 5.83877 33.7785 5.64535 34.0505 5.25852C34.3255 4.87168 34.463 4.30654 34.463 3.5631V3.21857Z" fill="var(--fill-0, black)"/>
<path d="M42.081 6.69101H40.9341L37.992 2.00821V6.69101H36.8451V0.0906641H37.992L40.9432 4.7916V0.0906641H42.081V6.69101Z" fill="var(--fill-0, black)"/>
</g>
</svg>
