<svg preserveAspectRatio="none" width="100%" height="100%" overflow="visible" style="display: block;" viewBox="0 0 25.3333 25.3333" fill="none" xmlns="http://www.w3.org/2000/svg">
<g id="App Gallery icon">
<path id="icon" fill-rule="evenodd" clip-rule="evenodd" d="M18.2059 1.79186e-06H7.12746C1.90879 1.79186e-06 0 1.9088 0 7.12749V18.2061C0 23.4246 1.90879 25.3333 7.12746 25.3333H18.2024C23.4211 25.3333 25.3333 23.4246 25.3333 18.2061V7.12749C25.3333 1.9088 23.4245 1.79186e-06 18.2059 1.79186e-06" fill="var(--fill-0, #C91C2E)"/>
<path id="Huawei" d="M11.0523 14.6922H12.0683L11.5587 13.5071L11.0523 14.6922ZM10.8021 15.2896L10.5008 15.9792H9.81466L11.2739 12.6689H11.8667L13.32 15.9792H12.6155L12.3179 15.2896H10.8021ZM21.8429 15.9769H22.5061V12.6689H21.8429V15.9769ZM19.2037 14.5554H20.4259V13.9526H19.2037V13.2745H20.9779V12.6709H18.5408V15.9789H21.0419V15.3755H19.2037V14.5554ZM16.5688 14.9464L15.8168 12.6688H15.2685L14.5165 14.9464L13.7848 12.6703H13.0696L14.224 15.9807H14.7803L15.5333 13.8062L16.2861 15.9807H16.8475L17.9989 12.6703H17.3021L16.5688 14.9464ZM8.80239 14.5646C8.80239 15.1031 8.53493 15.3908 8.04933 15.3908C7.56107 15.3908 7.29226 15.095 7.29226 14.5417V12.6707H6.62026V14.5646C6.62026 15.4964 7.13786 16.0305 8.04026 16.0305C8.95146 16.0305 9.47412 15.4861 9.47412 14.5372V12.6688H8.80239V14.5646ZM5.01679 12.6689H5.68853V15.9809H5.01679V14.636H3.49919V15.9809H2.8272V12.6689H3.49919V14.005H5.01679V12.6689Z" fill="var(--fill-0, white)"/>
<path id="handle" d="M12.6667 8.45177C10.3416 8.45177 8.44987 6.56001 8.44987 4.23494H9.0456C9.0456 6.23158 10.6699 7.85606 12.6667 7.85606C14.6635 7.85606 16.2877 6.23158 16.2877 4.23494H16.8835C16.8835 6.56001 14.9917 8.45177 12.6667 8.45177" fill="var(--fill-0, white)"/>
</g>
</svg>
