<svg preserveAspectRatio="none" width="100%" height="100%" overflow="visible" style="display: block;" viewBox="0 0 39.0479 6.469" fill="none" xmlns="http://www.w3.org/2000/svg">
<g id="Get it on">
<path d="M6.166 3.47795C6.166 4.31595 5.918 4.98295 5.421 5.48095C4.857 6.07295 4.121 6.36895 3.217 6.36895C2.351 6.36895 1.614 6.06895 1.009 5.46895C0.403 4.86795 0.1 4.12395 0.1 3.23595C0.1 2.34695 0.403 1.60295 1.009 1.00295C1.614 0.401953 2.351 0.101954 3.217 0.101954C3.647 0.101954 4.058 0.185953 4.448 0.352953C4.839 0.520953 5.152 0.743953 5.386 1.02295L4.859 1.55095C4.462 1.07595 3.915 0.838953 3.216 0.838953C2.584 0.838953 2.038 1.06095 1.577 1.50495C1.116 1.94895 0.885999 2.52595 0.885999 3.23495C0.885999 3.94395 1.116 4.52095 1.577 4.96495C2.038 5.40895 2.584 5.63095 3.216 5.63095C3.886 5.63095 4.445 5.40795 4.892 4.96095C5.182 4.66995 5.35 4.26495 5.395 3.74595H3.216V3.02495H6.123C6.153 3.18195 6.166 3.33295 6.166 3.47795Z" fill="var(--fill-0, white)"/>
<path d="M10.7761 0.97201H8.0441V2.87401H10.5081V3.59501H8.0441V5.49701H10.7761V6.23501H7.2731V0.23501H10.7761V0.97201Z" fill="var(--fill-0, white)"/>
<path d="M14.027 6.23501H13.256V0.97201H11.58V0.23501H15.703V0.97201H14.027V6.23501Z" fill="var(--fill-0, white)"/>
<path d="M18.6859 6.23501V0.23501H19.4569V6.23501H18.6859Z" fill="var(--fill-0, white)"/>
<path d="M22.8761 6.23501H22.1051V0.97201H20.4291V0.23501H24.5521V0.97201H22.8761V6.23501Z" fill="var(--fill-0, white)"/>
<path d="M32.3569 5.46C31.7669 6.066 31.0339 6.369 30.1569 6.369C29.2799 6.369 28.5469 6.066 27.9579 5.46C27.3679 4.854 27.0739 4.112 27.0739 3.235C27.0739 2.358 27.3679 1.616 27.9579 1.01C28.5469 0.404 29.2799 0.1 30.1569 0.1C31.0289 0.1 31.7609 0.405 32.3529 1.014C32.9449 1.623 33.2409 2.363 33.2409 3.235C33.2409 4.112 32.9459 4.854 32.3569 5.46ZM28.5269 4.957C28.9709 5.407 29.5139 5.631 30.1569 5.631C30.7999 5.631 31.3439 5.406 31.7869 4.957C32.2309 4.507 32.4539 3.933 32.4539 3.235C32.4539 2.537 32.2309 1.963 31.7869 1.513C31.3439 1.063 30.7999 0.839 30.1569 0.839C29.5139 0.839 28.9709 1.064 28.5269 1.513C28.0839 1.963 27.8609 2.537 27.8609 3.235C27.8609 3.933 28.0839 4.507 28.5269 4.957Z" fill="var(--fill-0, white)"/>
<path d="M34.3229 6.23501V0.23501H35.2609L38.1769 4.90201H38.2099L38.1769 3.74601V0.23501H38.9479V6.23501H38.1429L35.0919 1.34101H35.0589L35.0919 2.49701V6.23501H34.3229Z" fill="var(--fill-0, white)"/>
<path d="M6.166 3.47795C6.166 4.31595 5.918 4.98295 5.421 5.48095C4.857 6.07295 4.121 6.36895 3.217 6.36895C2.351 6.36895 1.614 6.06895 1.009 5.46895C0.403 4.86795 0.1 4.12395 0.1 3.23595C0.1 2.34695 0.403 1.60295 1.009 1.00295C1.614 0.401953 2.351 0.101954 3.217 0.101954C3.647 0.101954 4.058 0.185953 4.448 0.352953C4.839 0.520953 5.152 0.743953 5.386 1.02295L4.859 1.55095C4.462 1.07595 3.915 0.838953 3.216 0.838953C2.584 0.838953 2.038 1.06095 1.577 1.50495C1.116 1.94895 0.885999 2.52595 0.885999 3.23495C0.885999 3.94395 1.116 4.52095 1.577 4.96495C2.038 5.40895 2.584 5.63095 3.216 5.63095C3.886 5.63095 4.445 5.40795 4.892 4.96095C5.182 4.66995 5.35 4.26495 5.395 3.74595H3.216V3.02495H6.123C6.153 3.18195 6.166 3.33295 6.166 3.47795Z" stroke="var(--stroke-0, white)" stroke-width="0.2" stroke-miterlimit="10"/>
<path d="M10.7761 0.97201H8.0441V2.87401H10.5081V3.59501H8.0441V5.49701H10.7761V6.23501H7.2731V0.23501H10.7761V0.97201Z" stroke="var(--stroke-0, white)" stroke-width="0.2" stroke-miterlimit="10"/>
<path d="M14.027 6.23501H13.256V0.97201H11.58V0.23501H15.703V0.97201H14.027V6.23501Z" stroke="var(--stroke-0, white)" stroke-width="0.2" stroke-miterlimit="10"/>
<path d="M18.6859 6.23501V0.23501H19.4569V6.23501H18.6859Z" stroke="var(--stroke-0, white)" stroke-width="0.2" stroke-miterlimit="10"/>
<path d="M22.8761 6.23501H22.1051V0.97201H20.4291V0.23501H24.5521V0.97201H22.8761V6.23501Z" stroke="var(--stroke-0, white)" stroke-width="0.2" stroke-miterlimit="10"/>
<path d="M32.3569 5.46C31.7669 6.066 31.0339 6.369 30.1569 6.369C29.2799 6.369 28.5469 6.066 27.9579 5.46C27.3679 4.854 27.0739 4.112 27.0739 3.235C27.0739 2.358 27.3679 1.616 27.9579 1.01C28.5469 0.404 29.2799 0.1 30.1569 0.1C31.0289 0.1 31.7609 0.405 32.3529 1.014C32.9449 1.623 33.2409 2.363 33.2409 3.235C33.2409 4.112 32.9459 4.854 32.3569 5.46ZM28.5269 4.957C28.9709 5.407 29.5139 5.631 30.1569 5.631C30.7999 5.631 31.3439 5.406 31.7869 4.957C32.2309 4.507 32.4539 3.933 32.4539 3.235C32.4539 2.537 32.2309 1.963 31.7869 1.513C31.3439 1.063 30.7999 0.839 30.1569 0.839C29.5139 0.839 28.9709 1.064 28.5269 1.513C28.0839 1.963 27.8609 2.537 27.8609 3.235C27.8609 3.933 28.0839 4.507 28.5269 4.957Z" stroke="var(--stroke-0, white)" stroke-width="0.2" stroke-miterlimit="10"/>
<path d="M34.3229 6.23501V0.23501H35.2609L38.1769 4.90201H38.2099L38.1769 3.74601V0.23501H38.9479V6.23501H38.1429L35.0919 1.34101H35.0589L35.0919 2.49701V6.23501H34.3229Z" stroke="var(--stroke-0, white)" stroke-width="0.2" stroke-miterlimit="10"/>
</g>
</svg>
