<svg preserveAspectRatio="none" width="100%" height="100%" overflow="visible" style="display: block;" viewBox="0 0 411.451 850" fill="none" xmlns="http://www.w3.org/2000/svg">
<path id="Device surround" fill-rule="evenodd" clip-rule="evenodd" d="M3.13899 44.4951C0 54.1949 0 66.1805 0 90.1515V759.848C0 783.82 0 795.805 3.13899 805.505C9.48309 825.109 24.7911 840.479 44.3162 846.848C53.977 850 65.9143 850 89.789 850H321.662C345.536 850 357.474 850 367.135 846.848C386.66 840.479 401.968 825.109 408.312 805.505C411.451 795.805 411.451 783.82 411.451 759.848V90.1515C411.451 66.1805 411.451 54.1949 408.312 44.4951C401.968 24.8912 386.66 9.52138 367.135 3.15166C357.474 0 345.536 0 321.662 0H89.789C65.9143 0 53.977 0 44.3162 3.15166C24.7911 9.52138 9.48309 24.8912 3.13899 44.4951ZM104.59 24.2716V28.7296L104.661 28.7274L104.59 29.2249C104.59 40.9883 114.088 50.5245 125.804 50.5245H285.648C297.364 50.5245 306.862 40.9883 306.862 29.2249L306.791 28.7274L306.861 28.7296V24.2716C306.861 21.2623 309.291 18.8229 312.288 18.8229L324.997 18.8228C344.865 18.8228 354.799 18.8228 362.722 21.8287C375.175 26.5532 385.005 36.4231 389.71 48.9262C392.704 56.8809 392.704 66.855 392.704 86.803V763.197C392.704 783.145 392.704 793.119 389.71 801.074C385.005 813.577 375.175 823.447 362.722 828.171C354.799 831.177 344.865 831.177 324.997 831.177H86.4545C66.5866 831.177 56.6527 831.177 48.7299 828.171C36.2771 823.447 26.4469 813.577 21.7414 801.074C18.7476 793.119 18.7476 783.145 18.7476 763.197V86.803C18.7476 66.8549 18.7476 56.8809 21.7414 48.9262C26.4469 36.4231 36.2771 26.5532 48.7299 21.8287C56.6527 18.8228 66.5866 18.8228 86.4545 18.8228L99.1634 18.8229C102.161 18.8229 104.59 21.2623 104.59 24.2716Z" fill="var(--fill-0, #333333)"/>
</svg>
