<svg preserveAspectRatio="none" width="100%" height="100%" overflow="visible" style="display: block;" viewBox="0 0 417.371 204.079" fill="none" xmlns="http://www.w3.org/2000/svg">
<g id="Buttons">
<path id="Power button" d="M414.411 83.2168H415.891C416.709 83.2168 417.371 83.8821 417.371 84.7028V181.789C417.371 182.61 416.709 183.275 415.891 183.275H414.411V83.2168Z" fill="var(--fill-0, #303030)"/>
<path id="Volume down" d="M2.96008 204.079L1.48004 204.079C0.662635 204.079 1.27729e-07 203.414 1.99189e-07 202.593L5.28849e-06 144.143C5.35995e-06 143.323 0.662641 142.657 1.48004 142.657L2.96009 142.657L2.96008 204.079Z" fill="var(--fill-0, #303030)"/>
<path id="Volumn up" d="M2.96008 122.844L1.48004 122.844C0.662635 122.844 1.27729e-07 122.178 1.99189e-07 121.358L5.28849e-06 62.9078C5.35995e-06 62.0871 0.662641 61.4218 1.48004 61.4218L2.96009 61.4218L2.96008 122.844Z" fill="var(--fill-0, #333333)"/>
<path id="Mute" d="M2.96008 31.7016L1.48004 31.7016C0.66264 31.7016 3.30831e-06 31.0363 3.37977e-06 30.2156L5.88129e-06 1.48601C5.95275e-06 0.66531 0.662642 -7.17481e-08 1.48004 0L2.96009 1.29912e-07L2.96008 31.7016Z" fill="var(--fill-0, #333333)"/>
</g>
</svg>
