<svg preserveAspectRatio="none" width="100%" height="100%" overflow="visible" style="display: block;" viewBox="0 0 26 26" fill="none" xmlns="http://www.w3.org/2000/svg">
<g id="Galaxy Store icon">
<path id="Exclude" fill-rule="evenodd" clip-rule="evenodd" d="M0.276301 7.66555C0 8.81642 0 10.2109 0 13C0 15.7891 0 17.1836 0.276301 18.3345C1.15415 21.9909 4.00906 24.8459 7.66555 25.7237C8.81642 26 10.2109 26 13 26C15.7891 26 17.1836 26 18.3345 25.7237C21.9909 24.8459 24.8459 21.9909 25.7237 18.3345C26 17.1836 26 15.7891 26 13C26 10.2109 26 8.81642 25.7237 7.66555C24.8459 4.00906 21.9909 1.15415 18.3345 0.276301C17.1836 0 15.7891 0 13 0C10.2109 0 8.81642 0 7.66555 0.276301C4.00906 1.15415 1.15415 4.00906 0.276301 7.66555ZM16.738 9.33411L16.7914 9.56946H19.8609L19.0334 17.2828C18.8677 18.8515 17.5446 20.0421 15.9669 20.0421H10.0326C8.45485 20.0421 7.13176 18.8515 6.96604 17.2826L6.13867 9.56946H9.20812L9.26169 9.33411C9.26169 7.2733 10.9385 5.5968 12.9997 5.5968C15.0609 5.5968 16.738 7.2733 16.738 9.33411ZM10.8934 9.33411L10.8331 9.56946H15.1664L15.1063 9.33411C15.1063 8.17288 14.1613 7.22815 12.9997 7.22815C11.8383 7.22815 10.8934 8.17288 10.8934 9.33411Z" fill="var(--fill-0, black)"/>
</g>
</svg>
