<svg preserveAspectRatio="none" width="100%" height="100%" overflow="visible" style="display: block;" viewBox="0 0 31.2202 30.4583" fill="none" xmlns="http://www.w3.org/2000/svg">
<g id="F-Droid logo">
<path fill-rule="evenodd" clip-rule="evenodd" d="M1.40837 0.241637C1.08618 -0.0805456 0.563822 -0.0805456 0.241639 0.241637C-0.0805432 0.563819 -0.0805481 1.08619 0.241634 1.40837L3.13236 4.29909C3.02027 4.56305 2.95827 4.85342 2.95827 5.15827V9.55827C2.95827 10.7733 3.94324 11.7583 5.15827 11.7583H26.0583C27.2733 11.7583 28.2583 10.7733 28.2583 9.55827V5.15827C28.2583 4.8544 28.1967 4.56492 28.0853 4.30164L30.9785 1.40837C31.3007 1.08619 31.3007 0.56383 30.9785 0.241647C30.6563 -0.080535 30.134 -0.0805397 29.8118 0.241643L26.92 3.13344C26.6553 3.02068 26.3641 2.95827 26.0583 2.95827H5.15827C4.85342 2.95827 4.56305 3.02028 4.29909 3.13236L1.40837 0.241637ZM11.2083 7.35826C11.2083 8.57329 10.2233 9.55826 9.00826 9.55826C7.79324 9.55826 6.80826 8.57329 6.80826 7.35826C6.80826 6.14324 7.79324 5.15826 9.00826 5.15826C10.2233 5.15826 11.2083 6.14324 11.2083 7.35826ZM24.4083 7.35826C24.4083 8.57329 23.4233 9.55826 22.2083 9.55826C20.9932 9.55826 20.0083 8.57329 20.0083 7.35826C20.0083 6.14324 20.9932 5.15826 22.2083 5.15826C23.4233 5.15826 24.4083 6.14324 24.4083 7.35826Z" fill="var(--fill-0, white)"/>
<path fill-rule="evenodd" clip-rule="evenodd" d="M21.1101 21.6583C21.1101 24.6958 18.6476 27.1583 15.6101 27.1583C12.5725 27.1583 10.1101 24.6958 10.1101 21.6583C10.1101 18.6207 12.5725 16.1583 15.6101 16.1583C18.6476 16.1583 21.1101 18.6207 21.1101 21.6583ZM15.6101 25.5083C17.7364 25.5083 19.4601 23.7846 19.4601 21.6583C19.4601 19.532 17.7364 17.8083 15.6101 17.8083C13.866 17.8083 12.3928 18.9679 11.9195 20.5583H13.7044C14.0848 19.9007 14.7958 19.4583 15.6101 19.4583C16.8251 19.4583 17.8101 20.4432 17.8101 21.6583C17.8101 22.8733 16.8251 23.8583 15.6101 23.8583C14.7958 23.8583 14.0848 23.4158 13.7044 22.7583H11.9195C12.3928 24.3486 13.866 25.5083 15.6101 25.5083Z" fill="var(--fill-0, white)"/>
<path fill-rule="evenodd" clip-rule="evenodd" d="M2.95827 28.2583V15.0583C2.95827 13.8432 3.94324 12.8583 5.15827 12.8583H26.0583C27.2733 12.8583 28.2583 13.8432 28.2583 15.0583V28.2583C28.2583 29.4733 27.2733 30.4583 26.0583 30.4583H5.15827C3.94324 30.4583 2.95827 29.4733 2.95827 28.2583ZM22.2101 21.6583C22.2101 25.3033 19.2552 28.2583 15.6101 28.2583C11.965 28.2583 9.01008 25.3033 9.01008 21.6583C9.01008 18.0132 11.965 15.0583 15.6101 15.0583C19.2552 15.0583 22.2101 18.0132 22.2101 21.6583Z" fill="var(--fill-0, white)"/>
</g>
</svg>
