<svg preserveAspectRatio="none" width="100%" height="100%" overflow="visible" style="display: block;" viewBox="0 0 66.2216 14.4868" fill="none" xmlns="http://www.w3.org/2000/svg">
<g id="F-Droid">
<path d="M0 14.2944V12.8833L1.45693 12.6084V2.64813L0 2.37324V0.952961H10.3818V4.41661H8.57665L8.43004 2.73976H3.76603V6.80817H8.53083V8.59498H3.76603V12.6084L5.22296 12.8833V14.2944H0Z" fill="var(--fill-0, black)"/>
<path d="M12.251 9.51129V7.72448H17.1258V9.51129H12.251Z" fill="var(--fill-0, black)"/>
<path d="M18.9676 14.2944V12.8833L20.4337 12.5992V2.66646L18.9676 2.37324V0.952961H24.5571C25.7422 0.952961 26.7837 1.23396 27.6817 1.79597C28.5797 2.35797 29.2791 3.13072 29.78 4.11423C30.2809 5.09773 30.5314 6.22479 30.5314 7.49541V7.76114C30.5314 9.01342 30.284 10.1344 29.7892 11.124C29.3005 12.1075 28.6133 12.8833 27.7275 13.4514C26.8417 14.0134 25.8063 14.2944 24.6212 14.2944H18.9676ZM22.7428 12.5168H24.5021C25.284 12.5168 25.9499 12.3091 26.4996 11.8937C27.0555 11.4722 27.4801 10.9041 27.7733 10.1894C28.0665 9.46852 28.2131 8.65912 28.2131 7.76114V7.48624C28.2131 6.56993 28.0665 5.75442 27.7733 5.0397C27.4801 4.32498 27.0555 3.76297 26.4996 3.35369C25.9499 2.94441 25.284 2.73976 24.5021 2.73976H22.7428V12.5168Z" fill="var(--fill-0, black)"/>
<path d="M31.9059 14.2944V12.8833L33.2712 12.6084V6.07513L31.8234 5.80023V4.37996H35.397L35.5161 5.62614L35.5344 5.82772C36.0659 4.74037 36.8356 4.19669 37.8435 4.19669C38.2223 4.19669 38.5613 4.24556 38.8606 4.3433L38.5949 6.4783L37.3029 6.405C36.8814 6.38056 36.5332 6.46303 36.2583 6.6524C35.9834 6.84177 35.7574 7.10445 35.5803 7.44043V12.6084L36.9547 12.8833V14.2944H31.9059Z" fill="var(--fill-0, black)"/>
<path d="M44.2394 14.4868C43.2864 14.4868 42.4678 14.273 41.7837 13.8454C41.0995 13.4117 40.5741 12.8161 40.2076 12.0586C39.8411 11.3011 39.6578 10.4276 39.6578 9.43798V9.24556C39.6578 8.26205 39.8411 7.39156 40.2076 6.63408C40.5741 5.87659 41.0995 5.28099 41.7837 4.84727C42.4678 4.41355 43.2803 4.19669 44.2211 4.19669C45.174 4.19669 45.9926 4.41355 46.6768 4.84727C47.3609 5.27488 47.8863 5.87048 48.2528 6.63408C48.6193 7.39156 48.8026 8.26205 48.8026 9.24556V9.43798C48.8026 10.4337 48.6193 11.3103 48.2528 12.0678C47.8863 12.8253 47.3609 13.4178 46.6768 13.8454C45.9987 14.273 45.1862 14.4868 44.2394 14.4868ZM44.2394 12.7092C45.003 12.7092 45.5711 12.4068 45.9437 11.8021C46.3163 11.1912 46.5027 10.4032 46.5027 9.43798V9.24556C46.5027 8.2987 46.3133 7.51984 45.9345 6.90897C45.5619 6.29199 44.9908 5.9835 44.2211 5.9835C43.4575 5.9835 42.8893 6.29199 42.5167 6.90897C42.1502 7.51984 41.9669 8.2987 41.9669 9.24556V9.43798C41.9669 10.4032 42.1502 11.1912 42.5167 11.8021C42.8893 12.4068 43.4636 12.7092 44.2394 12.7092Z" fill="var(--fill-0, black)"/>
<path d="M50.0121 14.2944V12.8833L51.3866 12.6084V6.07513L49.9297 5.80023V4.37996H53.6957V12.6084L55.061 12.8833V14.2944H50.0121ZM51.295 2.135V0H53.6957V2.135H51.295Z" fill="var(--fill-0, black)"/>
<path d="M59.9632 14.4868C59.163 14.4868 58.4788 14.2853 57.9107 13.8821C57.3426 13.4789 56.9058 12.9169 56.6004 12.1961C56.301 11.4691 56.1514 10.6231 56.1514 9.6579V9.46547C56.1514 8.41477 56.301 7.49541 56.6004 6.70738C56.9058 5.91325 57.3426 5.29626 57.9107 4.85644C58.4788 4.41661 59.1599 4.19669 59.9541 4.19669C60.5222 4.19669 61.017 4.30665 61.4385 4.52657C61.8661 4.74037 62.2326 5.04886 62.5381 5.45204V1.69517L61.0811 1.42028V0H64.8472V12.6084L66.2216 12.8833V14.2944H62.8496L62.6663 13.0941C62.0249 14.0226 61.1239 14.4868 59.9632 14.4868ZM60.6138 12.6634C61.0536 12.6634 61.4324 12.5656 61.75 12.3702C62.0677 12.1747 62.3304 11.8967 62.5381 11.5363V7.16553C62.3365 6.80512 62.0738 6.52412 61.75 6.32253C61.4324 6.12094 61.0597 6.02015 60.6321 6.02015C59.8808 6.02015 59.331 6.3378 58.9828 6.97311C58.6346 7.60842 58.4605 8.4392 58.4605 9.46547V9.6579C58.4605 10.5742 58.6285 11.3042 58.9645 11.8479C59.3065 12.3915 59.8563 12.6634 60.6138 12.6634Z" fill="var(--fill-0, black)"/>
</g>
</svg>
