<svg preserveAspectRatio="none" width="100%" height="100%" overflow="visible" style="display: block;" viewBox="0 0 122.702 111.557" fill="none" xmlns="http://www.w3.org/2000/svg">
<g id="Dots">
<path id="Fill 1" fill-rule="evenodd" clip-rule="evenodd" d="M3 19.5569C3.789 19.5569 4.563 19.2374 5.121 18.6779C5.6805 18.1199 6 17.3474 6 16.5569C6 15.7664 5.6805 14.9939 5.121 14.4359C4.563 13.8764 3.789 13.5569 3 13.5569C2.2095 13.5569 1.437 13.8764 0.8775 14.4359C0.3195 14.9939 0 15.7664 0 16.5569C0 17.3474 0.3195 18.1199 0.8775 18.6779C1.437 19.2374 2.2095 19.5569 3 19.5569" fill="var(--fill-0, #C9FFFF)"/>
<path id="Fill 3" fill-rule="evenodd" clip-rule="evenodd" d="M35.9925 19.5569H36.0075C37.6608 19.5569 39 18.2129 39 16.5569C39 14.9009 37.6608 13.5569 36.0075 13.5569H35.9925C34.3406 13.5569 33 14.9009 33 16.5569C33 18.2129 34.3406 19.5569 35.9925 19.5569" fill="var(--fill-0, #C9FFFF)"/>
<path id="Fill 5" fill-rule="evenodd" clip-rule="evenodd" d="M19.9925 19.5569H20.0075C21.6594 19.5569 23 18.2129 23 16.5569C23 14.9009 21.6594 13.5569 20.0075 13.5569H19.9925C18.3406 13.5569 17 14.9009 17 16.5569C17 18.2129 18.3406 19.5569 19.9925 19.5569" fill="var(--fill-0, #C9FFFF)"/>
<path id="Fill 7" fill-rule="evenodd" clip-rule="evenodd" d="M53 19.5569C53.789 19.5569 54.563 19.2374 55.121 18.6779C55.6805 18.1199 56 17.3474 56 16.5569C56 15.7664 55.6805 14.9939 55.121 14.4359C54.563 13.8764 53.789 13.5569 53 13.5569C52.2095 13.5569 51.437 13.8764 50.8775 14.4359C50.3195 14.9939 50 15.7664 50 16.5569C50 17.3474 50.3195 18.1199 50.8775 18.6779C51.437 19.2374 52.2095 19.5569 53 19.5569" fill="var(--fill-0, #C9FFFF)"/>
<path id="Fill 9" fill-rule="evenodd" clip-rule="evenodd" d="M70 19.5569C70.7905 19.5569 71.563 19.2374 72.1225 18.6779C72.6805 18.1199 73 17.3474 73 16.5569C73 15.7664 72.6805 14.9939 72.1225 14.4359C71.563 13.8764 70.7905 13.5569 70 13.5569C69.211 13.5569 68.437 13.8764 67.879 14.4359C67.3195 14.9939 67 15.7664 67 16.5569C67 17.3474 67.3195 18.1199 67.879 18.6779C68.437 19.2374 69.211 19.5569 70 19.5569" fill="var(--fill-0, #C9FFFF)"/>
<path id="Fill 11" fill-rule="evenodd" clip-rule="evenodd" d="M102.993 19.5569H103.007C104.661 19.5569 106 18.2129 106 16.5569C106 14.9009 104.661 13.5569 103.007 13.5569H102.993C101.341 13.5569 100 14.9009 100 16.5569C100 18.2129 101.341 19.5569 102.993 19.5569" fill="var(--fill-0, #C9FFFF)"/>
<path id="Fill 13" fill-rule="evenodd" clip-rule="evenodd" d="M85.9925 19.5569H86.0075C87.6594 19.5569 89 18.2129 89 16.5569C89 14.9009 87.6594 13.5569 86.0075 13.5569H85.9925C84.3406 13.5569 83 14.9009 83 16.5569C83 18.2129 84.3406 19.5569 85.9925 19.5569" fill="var(--fill-0, #C9FFFF)"/>
<g id="Group 17">
<mask id="mask0_10295_23171" style="mask-type:luminance" maskUnits="userSpaceOnUse" x="116" y="13" width="7" height="7">
<path id="Clip 16" fill-rule="evenodd" clip-rule="evenodd" d="M116.303 13.3447H122.702V19.7447H116.303V13.3447Z" fill="var(--fill-0, white)"/>
</mask>
<g mask="url(#mask0_10295_23171)">
<path id="Fill 15" fill-rule="evenodd" clip-rule="evenodd" d="M119.503 19.7447C120.344 19.7447 121.17 19.4039 121.765 18.8071C122.362 18.2119 122.703 17.3879 122.703 16.5447C122.703 15.7015 122.362 14.8775 121.765 14.2823C121.17 13.6855 120.344 13.3447 119.503 13.3447C118.66 13.3447 117.836 13.6855 117.239 14.2823C116.644 14.8775 116.303 15.7015 116.303 16.5447C116.303 17.3879 116.644 18.2119 117.239 18.8071C117.836 19.4039 118.66 19.7447 119.503 19.7447" fill="var(--fill-0, #C9FFFF)"/>
</g>
</g>
<path id="Fill 18" fill-rule="evenodd" clip-rule="evenodd" d="M3 6.55688C3.789 6.55688 4.563 6.23738 5.121 5.67788C5.6805 5.11988 6 4.34588 6 3.55688C6 2.76638 5.6805 1.99388 5.121 1.43438C4.563 0.876385 3.789 0.556885 3 0.556885C2.2095 0.556885 1.437 0.876385 0.8775 1.43438C0.3195 1.99388 0 2.76638 0 3.55688C0 4.34588 0.3195 5.11988 0.8775 5.67788C1.437 6.23738 2.2095 6.55688 3 6.55688" fill="var(--fill-0, #C9FFFF)"/>
<path id="Fill 20" fill-rule="evenodd" clip-rule="evenodd" d="M35.9925 6.55688H36.0075C37.6608 6.55688 39 5.21288 39 3.55688C39 1.90088 37.6608 0.556885 36.0075 0.556885H35.9925C34.3406 0.556885 33 1.90088 33 3.55688C33 5.21288 34.3406 6.55688 35.9925 6.55688" fill="var(--fill-0, #C9FFFF)"/>
<path id="Fill 22" fill-rule="evenodd" clip-rule="evenodd" d="M19.9925 6.55688H20.0075C21.6594 6.55688 23 5.21288 23 3.55688C23 1.90088 21.6594 0.556885 20.0075 0.556885H19.9925C18.3406 0.556885 17 1.90088 17 3.55688C17 5.21288 18.3406 6.55688 19.9925 6.55688" fill="var(--fill-0, #C9FFFF)"/>
<path id="Fill 24" fill-rule="evenodd" clip-rule="evenodd" d="M53 6.55688C53.789 6.55688 54.563 6.23738 55.121 5.67788C55.6805 5.11988 56 4.34588 56 3.55688C56 2.76638 55.6805 1.99388 55.121 1.43438C54.563 0.876385 53.789 0.556885 53 0.556885C52.2095 0.556885 51.437 0.876385 50.8775 1.43438C50.3195 1.99388 50 2.76638 50 3.55688C50 4.34588 50.3195 5.11988 50.8775 5.67788C51.437 6.23738 52.2095 6.55688 53 6.55688" fill="var(--fill-0, #C9FFFF)"/>
<path id="Fill 26" fill-rule="evenodd" clip-rule="evenodd" d="M70 6.55688C70.7905 6.55688 71.563 6.23738 72.1225 5.67788C72.6805 5.11988 73 4.34588 73 3.55688C73 2.76638 72.6805 1.99388 72.1225 1.43438C71.563 0.876385 70.7905 0.556885 70 0.556885C69.211 0.556885 68.437 0.876385 67.879 1.43438C67.3195 1.99388 67 2.76638 67 3.55688C67 4.34588 67.3195 5.11988 67.879 5.67788C68.437 6.23738 69.211 6.55688 70 6.55688" fill="var(--fill-0, #C9FFFF)"/>
<path id="Fill 28" fill-rule="evenodd" clip-rule="evenodd" d="M102.993 6.55688H103.007C104.661 6.55688 106 5.21288 106 3.55688C106 1.90088 104.661 0.556885 103.007 0.556885H102.993C101.341 0.556885 100 1.90088 100 3.55688C100 5.21288 101.341 6.55688 102.993 6.55688" fill="var(--fill-0, #C9FFFF)"/>
<path id="Fill 30" fill-rule="evenodd" clip-rule="evenodd" d="M85.9925 6.55688H86.0075C87.6594 6.55688 89 5.21288 89 3.55688C89 1.90088 87.6594 0.556885 86.0075 0.556885H85.9925C84.3406 0.556885 83 1.90088 83 3.55688C83 5.21288 84.3406 6.55688 85.9925 6.55688" fill="var(--fill-0, #C9FFFF)"/>
<g id="Group 34">
<mask id="mask1_10295_23171" style="mask-type:luminance" maskUnits="userSpaceOnUse" x="116" y="0" width="7" height="7">
<path id="Clip 33" fill-rule="evenodd" clip-rule="evenodd" d="M116.303 8.47578e-05H122.702V6.40008H116.303V8.47578e-05Z" fill="var(--fill-0, white)"/>
</mask>
<g mask="url(#mask1_10295_23171)">
<path id="Fill 32" fill-rule="evenodd" clip-rule="evenodd" d="M119.503 6.40008C120.344 6.40008 121.17 6.05928 121.765 5.46248C122.362 4.86728 122.703 4.04168 122.703 3.20008C122.703 2.35688 122.362 1.53288 121.765 0.936085C121.17 0.340885 120.344 8.47578e-05 119.503 8.47578e-05C118.66 8.47578e-05 117.836 0.340885 117.239 0.936085C116.644 1.53288 116.303 2.35688 116.303 3.20008C116.303 4.04168 116.644 4.86728 117.239 5.46248C117.836 6.05928 118.66 6.40008 119.503 6.40008" fill="var(--fill-0, #C9FFFF)"/>
</g>
</g>
<path id="Fill 35" fill-rule="evenodd" clip-rule="evenodd" d="M3 32.5569C3.789 32.5569 4.563 32.2374 5.121 31.6779C5.6805 31.1199 6 30.3474 6 29.5569C6 28.7679 5.6805 27.9939 5.121 27.4359C4.563 26.8764 3.789 26.5569 3 26.5569C2.2095 26.5569 1.437 26.8764 0.8775 27.4359C0.3195 27.9939 0 28.7679 0 29.5569C0 30.3474 0.3195 31.1199 0.8775 31.6779C1.437 32.2374 2.2095 32.5569 3 32.5569" fill="var(--fill-0, #C9FFFF)"/>
<path id="Fill 37" fill-rule="evenodd" clip-rule="evenodd" d="M35.9925 32.5569H36.0075C37.6608 32.5569 39 31.2129 39 29.5569C39 27.9009 37.6608 26.5569 36.0075 26.5569H35.9925C34.3406 26.5569 33 27.9009 33 29.5569C33 31.2129 34.3406 32.5569 35.9925 32.5569" fill="var(--fill-0, #C9FFFF)"/>
<path id="Fill 39" fill-rule="evenodd" clip-rule="evenodd" d="M19.9925 32.5569H20.0075C21.6594 32.5569 23 31.2129 23 29.5569C23 27.9009 21.6594 26.5569 20.0075 26.5569H19.9925C18.3406 26.5569 17 27.9009 17 29.5569C17 31.2129 18.3406 32.5569 19.9925 32.5569" fill="var(--fill-0, #C9FFFF)"/>
<path id="Fill 41" fill-rule="evenodd" clip-rule="evenodd" d="M53 32.5569C53.789 32.5569 54.563 32.2374 55.121 31.6779C55.6805 31.1199 56 30.3474 56 29.5569C56 28.7679 55.6805 27.9939 55.121 27.4359C54.563 26.8764 53.789 26.5569 53 26.5569C52.2095 26.5569 51.437 26.8764 50.8775 27.4359C50.3195 27.9939 50 28.7679 50 29.5569C50 30.3474 50.3195 31.1199 50.8775 31.6779C51.437 32.2374 52.2095 32.5569 53 32.5569" fill="var(--fill-0, #C9FFFF)"/>
<path id="Fill 43" fill-rule="evenodd" clip-rule="evenodd" d="M70 32.5569C70.7905 32.5569 71.563 32.2374 72.1225 31.6779C72.6805 31.1199 73 30.3474 73 29.5569C73 28.7679 72.6805 27.9939 72.1225 27.4359C71.563 26.8764 70.7905 26.5569 70 26.5569C69.211 26.5569 68.437 26.8764 67.879 27.4359C67.3195 27.9939 67 28.7679 67 29.5569C67 30.3474 67.3195 31.1199 67.879 31.6779C68.437 32.2374 69.211 32.5569 70 32.5569" fill="var(--fill-0, #C9FFFF)"/>
<path id="Fill 45" fill-rule="evenodd" clip-rule="evenodd" d="M102.993 32.5569H103.007C104.661 32.5569 106 31.2129 106 29.5569C106 27.9009 104.661 26.5569 103.007 26.5569H102.993C101.341 26.5569 100 27.9009 100 29.5569C100 31.2129 101.341 32.5569 102.993 32.5569" fill="var(--fill-0, #C9FFFF)"/>
<path id="Fill 47" fill-rule="evenodd" clip-rule="evenodd" d="M85.9925 32.5569H86.0075C87.6594 32.5569 89 31.2129 89 29.5569C89 27.9009 87.6594 26.5569 86.0075 26.5569H85.9925C84.3406 26.5569 83 27.9009 83 29.5569C83 31.2129 84.3406 32.5569 85.9925 32.5569" fill="var(--fill-0, #C9FFFF)"/>
<g id="Group 51">
<mask id="mask2_10295_23171" style="mask-type:luminance" maskUnits="userSpaceOnUse" x="116" y="26" width="7" height="8">
<path id="Clip 50" fill-rule="evenodd" clip-rule="evenodd" d="M116.303 26.6892H122.702V33.0892H116.303V26.6892Z" fill="var(--fill-0, white)"/>
</mask>
<g mask="url(#mask2_10295_23171)">
<path id="Fill 49" fill-rule="evenodd" clip-rule="evenodd" d="M119.503 33.0892C120.344 33.0892 121.17 32.7484 121.765 32.1516C122.362 31.5564 122.703 30.7324 122.703 29.8892C122.703 29.0476 122.362 28.222 121.765 27.6268C121.17 27.03 120.344 26.6892 119.503 26.6892C118.66 26.6892 117.836 27.03 117.239 27.6268C116.644 28.222 116.303 29.0476 116.303 29.8892C116.303 30.7324 116.644 31.5564 117.239 32.1516C117.836 32.7484 118.66 33.0892 119.503 33.0892" fill="var(--fill-0, #C9FFFF)"/>
</g>
</g>
<path id="Fill 52" fill-rule="evenodd" clip-rule="evenodd" d="M3 45.5569C3.789 45.5569 4.563 45.2374 5.121 44.6779C5.6805 44.1199 6 43.3474 6 42.5569C6 41.7664 5.6805 40.9939 5.121 40.4359C4.563 39.8764 3.789 39.5569 3 39.5569C2.2095 39.5569 1.437 39.8764 0.8775 40.4359C0.3195 40.9939 0 41.7664 0 42.5569C0 43.3474 0.3195 44.1199 0.8775 44.6779C1.437 45.2374 2.2095 45.5569 3 45.5569" fill="var(--fill-0, #C9FFFF)"/>
<path id="Fill 54" fill-rule="evenodd" clip-rule="evenodd" d="M35.9925 45.5569H36.0075C37.6608 45.5569 39 44.2129 39 42.5569C39 40.9009 37.6608 39.5569 36.0075 39.5569H35.9925C34.3406 39.5569 33 40.9009 33 42.5569C33 44.2129 34.3406 45.5569 35.9925 45.5569" fill="var(--fill-0, #C9FFFF)"/>
<path id="Fill 56" fill-rule="evenodd" clip-rule="evenodd" d="M19.9925 45.5569H20.0075C21.6594 45.5569 23 44.2129 23 42.5569C23 40.9009 21.6594 39.5569 20.0075 39.5569H19.9925C18.3406 39.5569 17 40.9009 17 42.5569C17 44.2129 18.3406 45.5569 19.9925 45.5569" fill="var(--fill-0, #C9FFFF)"/>
<path id="Fill 58" fill-rule="evenodd" clip-rule="evenodd" d="M53 45.5569C53.789 45.5569 54.563 45.2374 55.121 44.6779C55.6805 44.1199 56 43.3474 56 42.5569C56 41.7664 55.6805 40.9939 55.121 40.4359C54.563 39.8764 53.789 39.5569 53 39.5569C52.2095 39.5569 51.437 39.8764 50.8775 40.4359C50.3195 40.9939 50 41.7664 50 42.5569C50 43.3474 50.3195 44.1199 50.8775 44.6779C51.437 45.2374 52.2095 45.5569 53 45.5569" fill="var(--fill-0, #C9FFFF)"/>
<path id="Fill 60" fill-rule="evenodd" clip-rule="evenodd" d="M70 45.5569C70.7905 45.5569 71.563 45.2374 72.1225 44.6779C72.6805 44.1199 73 43.3474 73 42.5569C73 41.7664 72.6805 40.9939 72.1225 40.4359C71.563 39.8764 70.7905 39.5569 70 39.5569C69.211 39.5569 68.437 39.8764 67.879 40.4359C67.3195 40.9939 67 41.7664 67 42.5569C67 43.3474 67.3195 44.1199 67.879 44.6779C68.437 45.2374 69.211 45.5569 70 45.5569" fill="var(--fill-0, #C9FFFF)"/>
<path id="Fill 62" fill-rule="evenodd" clip-rule="evenodd" d="M102.993 45.5569H103.007C104.661 45.5569 106 44.2129 106 42.5569C106 40.9009 104.661 39.5569 103.007 39.5569H102.993C101.341 39.5569 100 40.9009 100 42.5569C100 44.2129 101.341 45.5569 102.993 45.5569" fill="var(--fill-0, #C9FFFF)"/>
<path id="Fill 64" fill-rule="evenodd" clip-rule="evenodd" d="M85.9925 45.5569H86.0075C87.6594 45.5569 89 44.2129 89 42.5569C89 40.9009 87.6594 39.5569 86.0075 39.5569H85.9925C84.3406 39.5569 83 40.9009 83 42.5569C83 44.2129 84.3406 45.5569 85.9925 45.5569" fill="var(--fill-0, #C9FFFF)"/>
<g id="Group 68">
<mask id="mask3_10295_23171" style="mask-type:luminance" maskUnits="userSpaceOnUse" x="116" y="40" width="7" height="7">
<path id="Clip 67" fill-rule="evenodd" clip-rule="evenodd" d="M116.303 40.0337H122.702V46.4337H116.303V40.0337Z" fill="var(--fill-0, white)"/>
</mask>
<g mask="url(#mask3_10295_23171)">
<path id="Fill 66" fill-rule="evenodd" clip-rule="evenodd" d="M119.503 46.4337C120.344 46.4337 121.17 46.0929 121.765 45.4961C122.362 44.9009 122.703 44.0769 122.703 43.2337C122.703 42.3905 122.362 41.5665 121.765 40.9713C121.17 40.3745 120.344 40.0337 119.503 40.0337C118.66 40.0337 117.836 40.3745 117.239 40.9713C116.644 41.5665 116.303 42.3905 116.303 43.2337C116.303 44.0769 116.644 44.9009 117.239 45.4961C117.836 46.0929 118.66 46.4337 119.503 46.4337" fill="var(--fill-0, #C9FFFF)"/>
</g>
</g>
<path id="Fill 69" fill-rule="evenodd" clip-rule="evenodd" d="M3 59.5569C3.789 59.5569 4.563 59.2374 5.121 58.6779C5.6805 58.1199 6 57.3474 6 56.5569C6 55.7679 5.6805 54.9939 5.121 54.4359C4.563 53.8764 3.789 53.5569 3 53.5569C2.2095 53.5569 1.437 53.8764 0.8775 54.4359C0.3195 54.9939 0 55.7679 0 56.5569C0 57.3474 0.3195 58.1199 0.8775 58.6779C1.437 59.2374 2.2095 59.5569 3 59.5569" fill="var(--fill-0, #C9FFFF)"/>
<path id="Fill 71" fill-rule="evenodd" clip-rule="evenodd" d="M35.9925 59.5569H36.0075C37.6608 59.5569 39 58.2129 39 56.5569C39 54.9009 37.6608 53.5569 36.0075 53.5569H35.9925C34.3406 53.5569 33 54.9009 33 56.5569C33 58.2129 34.3406 59.5569 35.9925 59.5569" fill="var(--fill-0, #C9FFFF)"/>
<path id="Fill 73" fill-rule="evenodd" clip-rule="evenodd" d="M19.9925 59.5569H20.0075C21.6594 59.5569 23 58.2129 23 56.5569C23 54.9009 21.6594 53.5569 20.0075 53.5569H19.9925C18.3406 53.5569 17 54.9009 17 56.5569C17 58.2129 18.3406 59.5569 19.9925 59.5569" fill="var(--fill-0, #C9FFFF)"/>
<path id="Fill 75" fill-rule="evenodd" clip-rule="evenodd" d="M53 59.5569C53.789 59.5569 54.563 59.2374 55.121 58.6779C55.6805 58.1199 56 57.3474 56 56.5569C56 55.7679 55.6805 54.9939 55.121 54.4359C54.563 53.8764 53.789 53.5569 53 53.5569C52.2095 53.5569 51.437 53.8764 50.8775 54.4359C50.3195 54.9939 50 55.7679 50 56.5569C50 57.3474 50.3195 58.1199 50.8775 58.6779C51.437 59.2374 52.2095 59.5569 53 59.5569" fill="var(--fill-0, #C9FFFF)"/>
<path id="Fill 77" fill-rule="evenodd" clip-rule="evenodd" d="M70 59.5569C70.7905 59.5569 71.563 59.2374 72.1225 58.6779C72.6805 58.1199 73 57.3474 73 56.5569C73 55.7679 72.6805 54.9939 72.1225 54.4359C71.563 53.8764 70.7905 53.5569 70 53.5569C69.211 53.5569 68.437 53.8764 67.879 54.4359C67.3195 54.9939 67 55.7679 67 56.5569C67 57.3474 67.3195 58.1199 67.879 58.6779C68.437 59.2374 69.211 59.5569 70 59.5569" fill="var(--fill-0, #C9FFFF)"/>
<path id="Fill 79" fill-rule="evenodd" clip-rule="evenodd" d="M102.993 59.5569H103.007C104.661 59.5569 106 58.2129 106 56.5569C106 54.9009 104.661 53.5569 103.007 53.5569H102.993C101.341 53.5569 100 54.9009 100 56.5569C100 58.2129 101.341 59.5569 102.993 59.5569" fill="var(--fill-0, #C9FFFF)"/>
<path id="Fill 81" fill-rule="evenodd" clip-rule="evenodd" d="M85.9925 59.5569H86.0075C87.6594 59.5569 89 58.2129 89 56.5569C89 54.9009 87.6594 53.5569 86.0075 53.5569H85.9925C84.3406 53.5569 83 54.9009 83 56.5569C83 58.2129 84.3406 59.5569 85.9925 59.5569" fill="var(--fill-0, #C9FFFF)"/>
<g id="Group 85">
<mask id="mask4_10295_23171" style="mask-type:luminance" maskUnits="userSpaceOnUse" x="116" y="52" width="7" height="8">
<path id="Clip 84" fill-rule="evenodd" clip-rule="evenodd" d="M116.303 52.7783H122.702V59.1783H116.303V52.7783Z" fill="var(--fill-0, white)"/>
</mask>
<g mask="url(#mask4_10295_23171)">
<path id="Fill 83" fill-rule="evenodd" clip-rule="evenodd" d="M119.503 59.1783C120.344 59.1783 121.17 58.8375 121.765 58.2407C122.362 57.6455 122.703 56.8215 122.703 55.9783C122.703 55.1367 122.362 54.3111 121.765 53.7159C121.17 53.1191 120.344 52.7783 119.503 52.7783C118.66 52.7783 117.836 53.1191 117.239 53.7159C116.644 54.3111 116.303 55.1367 116.303 55.9783C116.303 56.8215 116.644 57.6455 117.239 58.2407C117.836 58.8375 118.66 59.1783 119.503 59.1783" fill="var(--fill-0, #C9FFFF)"/>
</g>
</g>
<path id="Fill 86" fill-rule="evenodd" clip-rule="evenodd" d="M3 72.5569C3.789 72.5569 4.563 72.2374 5.121 71.6794C5.6805 71.1199 6 70.3474 6 69.5569C6 68.7679 5.6805 67.9939 5.121 67.4359C4.563 66.8764 3.789 66.5569 3 66.5569C2.2095 66.5569 1.437 66.8764 0.8775 67.4359C0.3195 67.9939 0 68.7679 0 69.5569C0 70.3474 0.3195 71.1199 0.8775 71.6794C1.437 72.2374 2.2095 72.5569 3 72.5569" fill="var(--fill-0, #C9FFFF)"/>
<path id="Fill 88" fill-rule="evenodd" clip-rule="evenodd" d="M35.9925 72.5569H36.0075C37.6608 72.5569 39 71.2129 39 69.5569C39 67.9009 37.6608 66.5569 36.0075 66.5569H35.9925C34.3406 66.5569 33 67.9009 33 69.5569C33 71.2129 34.3406 72.5569 35.9925 72.5569" fill="var(--fill-0, #C9FFFF)"/>
<path id="Fill 90" fill-rule="evenodd" clip-rule="evenodd" d="M19.9925 72.5569H20.0075C21.6594 72.5569 23 71.2129 23 69.5569C23 67.9009 21.6594 66.5569 20.0075 66.5569H19.9925C18.3406 66.5569 17 67.9009 17 69.5569C17 71.2129 18.3406 72.5569 19.9925 72.5569" fill="var(--fill-0, #C9FFFF)"/>
<path id="Fill 92" fill-rule="evenodd" clip-rule="evenodd" d="M53 72.5569C53.789 72.5569 54.563 72.2374 55.121 71.6794C55.6805 71.1199 56 70.3474 56 69.5569C56 68.7679 55.6805 67.9939 55.121 67.4359C54.563 66.8764 53.789 66.5569 53 66.5569C52.2095 66.5569 51.437 66.8764 50.8775 67.4359C50.3195 67.9939 50 68.7679 50 69.5569C50 70.3474 50.3195 71.1199 50.8775 71.6794C51.437 72.2374 52.2095 72.5569 53 72.5569" fill="var(--fill-0, #C9FFFF)"/>
<path id="Fill 94" fill-rule="evenodd" clip-rule="evenodd" d="M70 72.5569C70.7905 72.5569 71.563 72.2374 72.1225 71.6794C72.6805 71.1199 73 70.3474 73 69.5569C73 68.7679 72.6805 67.9939 72.1225 67.4359C71.563 66.8764 70.7905 66.5569 70 66.5569C69.211 66.5569 68.437 66.8764 67.879 67.4359C67.3195 67.9939 67 68.7679 67 69.5569C67 70.3474 67.3195 71.1199 67.879 71.6794C68.437 72.2374 69.211 72.5569 70 72.5569" fill="var(--fill-0, #C9FFFF)"/>
<path id="Fill 96" fill-rule="evenodd" clip-rule="evenodd" d="M102.993 72.5569H103.007C104.661 72.5569 106 71.2129 106 69.5569C106 67.9009 104.661 66.5569 103.007 66.5569H102.993C101.341 66.5569 100 67.9009 100 69.5569C100 71.2129 101.341 72.5569 102.993 72.5569" fill="var(--fill-0, #C9FFFF)"/>
<path id="Fill 98" fill-rule="evenodd" clip-rule="evenodd" d="M85.9925 72.5569H86.0075C87.6594 72.5569 89 71.2129 89 69.5569C89 67.9009 87.6594 66.5569 86.0075 66.5569H85.9925C84.3406 66.5569 83 67.9009 83 69.5569C83 71.2129 84.3406 72.5569 85.9925 72.5569" fill="var(--fill-0, #C9FFFF)"/>
<g id="Group 102">
<mask id="mask5_10295_23171" style="mask-type:luminance" maskUnits="userSpaceOnUse" x="116" y="66" width="7" height="7">
<path id="Clip 101" fill-rule="evenodd" clip-rule="evenodd" d="M116.303 66.1228H122.702V72.5228H116.303V66.1228Z" fill="var(--fill-0, white)"/>
</mask>
<g mask="url(#mask5_10295_23171)">
<path id="Fill 100" fill-rule="evenodd" clip-rule="evenodd" d="M119.503 72.5228C120.344 72.5228 121.17 72.182 121.765 71.5868C122.362 70.99 122.703 70.166 122.703 69.3228C122.703 68.4812 122.362 67.6556 121.765 67.0604C121.17 66.4636 120.344 66.1228 119.503 66.1228C118.66 66.1228 117.836 66.4636 117.239 67.0604C116.644 67.6556 116.303 68.4812 116.303 69.3228C116.303 70.166 116.644 70.99 117.239 71.5868C117.836 72.182 118.66 72.5228 119.503 72.5228" fill="var(--fill-0, #C9FFFF)"/>
</g>
</g>
<path id="Fill 103" fill-rule="evenodd" clip-rule="evenodd" d="M3 85.5569C3.789 85.5569 4.563 85.2374 5.121 84.6779C5.6805 84.1199 6 83.3474 6 82.5569C6 81.7679 5.6805 80.9939 5.121 80.4359C4.563 79.8764 3.789 79.5569 3 79.5569C2.2095 79.5569 1.437 79.8764 0.8775 80.4359C0.3195 80.9939 0 81.7679 0 82.5569C0 83.3474 0.3195 84.1199 0.8775 84.6779C1.437 85.2374 2.2095 85.5569 3 85.5569" fill="var(--fill-0, #C9FFFF)"/>
<path id="Fill 105" fill-rule="evenodd" clip-rule="evenodd" d="M35.9925 85.5569H36.0075C37.6608 85.5569 39 84.2129 39 82.5569C39 80.9009 37.6608 79.5569 36.0075 79.5569H35.9925C34.3406 79.5569 33 80.9009 33 82.5569C33 84.2129 34.3406 85.5569 35.9925 85.5569" fill="var(--fill-0, #C9FFFF)"/>
<path id="Fill 107" fill-rule="evenodd" clip-rule="evenodd" d="M19.9925 85.5569H20.0075C21.6594 85.5569 23 84.2129 23 82.5569C23 80.9009 21.6594 79.5569 20.0075 79.5569H19.9925C18.3406 79.5569 17 80.9009 17 82.5569C17 84.2129 18.3406 85.5569 19.9925 85.5569" fill="var(--fill-0, #C9FFFF)"/>
<path id="Fill 109" fill-rule="evenodd" clip-rule="evenodd" d="M53 85.5569C53.789 85.5569 54.563 85.2374 55.121 84.6779C55.6805 84.1199 56 83.3474 56 82.5569C56 81.7679 55.6805 80.9939 55.121 80.4359C54.563 79.8764 53.789 79.5569 53 79.5569C52.2095 79.5569 51.437 79.8764 50.8775 80.4359C50.3195 80.9939 50 81.7679 50 82.5569C50 83.3474 50.3195 84.1199 50.8775 84.6779C51.437 85.2374 52.2095 85.5569 53 85.5569" fill="var(--fill-0, #C9FFFF)"/>
<path id="Fill 111" fill-rule="evenodd" clip-rule="evenodd" d="M70 85.5569C70.7905 85.5569 71.563 85.2374 72.1225 84.6779C72.6805 84.1199 73 83.3474 73 82.5569C73 81.7679 72.6805 80.9939 72.1225 80.4359C71.563 79.8764 70.7905 79.5569 70 79.5569C69.211 79.5569 68.437 79.8764 67.879 80.4359C67.3195 80.9939 67 81.7679 67 82.5569C67 83.3474 67.3195 84.1199 67.879 84.6779C68.437 85.2374 69.211 85.5569 70 85.5569" fill="var(--fill-0, #C9FFFF)"/>
<path id="Fill 113" fill-rule="evenodd" clip-rule="evenodd" d="M102.993 85.5569H103.007C104.661 85.5569 106 84.2129 106 82.5569C106 80.9009 104.661 79.5569 103.007 79.5569H102.993C101.341 79.5569 100 80.9009 100 82.5569C100 84.2129 101.341 85.5569 102.993 85.5569" fill="var(--fill-0, #C9FFFF)"/>
<path id="Fill 115" fill-rule="evenodd" clip-rule="evenodd" d="M85.9925 85.5569H86.0075C87.6594 85.5569 89 84.2129 89 82.5569C89 80.9009 87.6594 79.5569 86.0075 79.5569H85.9925C84.3406 79.5569 83 80.9009 83 82.5569C83 84.2129 84.3406 85.5569 85.9925 85.5569" fill="var(--fill-0, #C9FFFF)"/>
<g id="Group 119">
<mask id="mask6_10295_23171" style="mask-type:luminance" maskUnits="userSpaceOnUse" x="116" y="79" width="7" height="7">
<path id="Clip 118" fill-rule="evenodd" clip-rule="evenodd" d="M116.303 79.4673H122.702V85.8673H116.303V79.4673Z" fill="var(--fill-0, white)"/>
</mask>
<g mask="url(#mask6_10295_23171)">
<path id="Fill 117" fill-rule="evenodd" clip-rule="evenodd" d="M119.503 85.8673C120.344 85.8673 121.17 85.5265 121.765 84.9297C122.362 84.3345 122.703 83.5105 122.703 82.6673C122.703 81.8257 122.362 81.0001 121.765 80.4049C121.17 79.8081 120.344 79.4673 119.503 79.4673C118.66 79.4673 117.836 79.8081 117.239 80.4049C116.644 81.0001 116.303 81.8257 116.303 82.6673C116.303 83.5105 116.644 84.3345 117.239 84.9297C117.836 85.5265 118.66 85.8673 119.503 85.8673" fill="var(--fill-0, #C9FFFF)"/>
</g>
</g>
<path id="Fill 120" fill-rule="evenodd" clip-rule="evenodd" d="M3 98.5569C3.789 98.5569 4.563 98.2374 5.121 97.6794C5.6805 97.1199 6 96.3474 6 95.5569C6 94.7679 5.6805 93.9939 5.121 93.4359C4.563 92.8764 3.789 92.5569 3 92.5569C2.2095 92.5569 1.437 92.8764 0.8775 93.4359C0.3195 93.9939 0 94.7679 0 95.5569C0 96.3474 0.3195 97.1199 0.8775 97.6794C1.437 98.2374 2.2095 98.5569 3 98.5569" fill="var(--fill-0, #C9FFFF)"/>
<path id="Fill 122" fill-rule="evenodd" clip-rule="evenodd" d="M35.9925 98.5569H36.0075C37.6608 98.5569 39 97.2144 39 95.5569C39 93.9009 37.6608 92.5569 36.0075 92.5569H35.9925C34.3406 92.5569 33 93.9009 33 95.5569C33 97.2144 34.3406 98.5569 35.9925 98.5569" fill="var(--fill-0, #C9FFFF)"/>
<path id="Fill 124" fill-rule="evenodd" clip-rule="evenodd" d="M19.9925 98.5569H20.0075C21.6594 98.5569 23 97.2144 23 95.5569C23 93.9009 21.6594 92.5569 20.0075 92.5569H19.9925C18.3406 92.5569 17 93.9009 17 95.5569C17 97.2144 18.3406 98.5569 19.9925 98.5569" fill="var(--fill-0, #C9FFFF)"/>
<path id="Fill 126" fill-rule="evenodd" clip-rule="evenodd" d="M53 98.5569C53.789 98.5569 54.563 98.2374 55.121 97.6794C55.6805 97.1199 56 96.3474 56 95.5569C56 94.7679 55.6805 93.9939 55.121 93.4359C54.563 92.8764 53.789 92.5569 53 92.5569C52.2095 92.5569 51.437 92.8764 50.8775 93.4359C50.3195 93.9939 50 94.7679 50 95.5569C50 96.3474 50.3195 97.1199 50.8775 97.6794C51.437 98.2374 52.2095 98.5569 53 98.5569" fill="var(--fill-0, #C9FFFF)"/>
<path id="Fill 128" fill-rule="evenodd" clip-rule="evenodd" d="M70 98.5569C70.7905 98.5569 71.563 98.2374 72.1225 97.6794C72.6805 97.1199 73 96.3474 73 95.5569C73 94.7679 72.6805 93.9939 72.1225 93.4359C71.563 92.8764 70.7905 92.5569 70 92.5569C69.211 92.5569 68.437 92.8764 67.879 93.4359C67.3195 93.9939 67 94.7679 67 95.5569C67 96.3474 67.3195 97.1199 67.879 97.6794C68.437 98.2374 69.211 98.5569 70 98.5569" fill="var(--fill-0, #C9FFFF)"/>
<path id="Fill 130" fill-rule="evenodd" clip-rule="evenodd" d="M102.993 98.5569H103.007C104.661 98.5569 106 97.2144 106 95.5569C106 93.9009 104.661 92.5569 103.007 92.5569H102.993C101.341 92.5569 100 93.9009 100 95.5569C100 97.2144 101.341 98.5569 102.993 98.5569" fill="var(--fill-0, #C9FFFF)"/>
<path id="Fill 132" fill-rule="evenodd" clip-rule="evenodd" d="M85.9925 98.5569H86.0075C87.6594 98.5569 89 97.2144 89 95.5569C89 93.9009 87.6594 92.5569 86.0075 92.5569H85.9925C84.3406 92.5569 83 93.9009 83 95.5569C83 97.2144 84.3406 98.5569 85.9925 98.5569" fill="var(--fill-0, #C9FFFF)"/>
<g id="Group 136">
<mask id="mask7_10295_23171" style="mask-type:luminance" maskUnits="userSpaceOnUse" x="116" y="92" width="7" height="8">
<path id="Clip 135" fill-rule="evenodd" clip-rule="evenodd" d="M116.303 92.8119H122.702V99.2119H116.303V92.8119Z" fill="var(--fill-0, white)"/>
</mask>
<g mask="url(#mask7_10295_23171)">
<path id="Fill 134" fill-rule="evenodd" clip-rule="evenodd" d="M119.503 99.2119C120.344 99.2119 121.17 98.8711 121.765 98.2759C122.362 97.6791 122.703 96.8551 122.703 96.0119C122.703 95.1703 122.362 94.3447 121.765 93.7495C121.17 93.1527 120.344 92.8119 119.503 92.8119C118.66 92.8119 117.836 93.1527 117.239 93.7495C116.644 94.3447 116.303 95.1703 116.303 96.0119C116.303 96.8551 116.644 97.6791 117.239 98.2759C117.836 98.8711 118.66 99.2119 119.503 99.2119" fill="var(--fill-0, #C9FFFF)"/>
</g>
</g>
<g id="Group 139">
<mask id="mask8_10295_23171" style="mask-type:luminance" maskUnits="userSpaceOnUse" x="0" y="105" width="7" height="7">
<path id="Clip 138" fill-rule="evenodd" clip-rule="evenodd" d="M0.0003 105.557H6.0003V111.557H0.0003V105.557Z" fill="var(--fill-0, white)"/>
</mask>
<g mask="url(#mask8_10295_23171)">
<path id="Fill 137" fill-rule="evenodd" clip-rule="evenodd" d="M3.0003 111.557C3.7893 111.557 4.5633 111.238 5.1213 110.678C5.6808 110.12 6.0003 109.346 6.0003 108.557C6.0003 107.767 5.6808 106.994 5.1213 106.435C4.5633 105.877 3.7893 105.557 3.0003 105.557C2.2098 105.557 1.4373 105.877 0.8778 106.435C0.3198 106.994 0.0003 107.767 0.0003 108.557C0.0003 109.346 0.3198 110.12 0.8778 110.678C1.4373 111.238 2.2098 111.557 3.0003 111.557" fill="var(--fill-0, #C9FFFF)"/>
</g>
</g>
<g id="Group 142">
<mask id="mask9_10295_23171" style="mask-type:luminance" maskUnits="userSpaceOnUse" x="32" y="105" width="8" height="7">
<path id="Clip 141" fill-rule="evenodd" clip-rule="evenodd" d="M32.9925 105.557H39.4085V111.557H32.9925V105.557Z" fill="var(--fill-0, white)"/>
</mask>
<g mask="url(#mask9_10295_23171)">
<path id="Fill 140" fill-rule="evenodd" clip-rule="evenodd" d="M36.1925 111.557H36.2085C37.9765 111.557 39.4085 110.213 39.4085 108.557C39.4085 106.9 37.9765 105.557 36.2085 105.557H36.1925C34.4261 105.557 32.9925 106.9 32.9925 108.557C32.9925 110.213 34.4261 111.557 36.1925 111.557" fill="var(--fill-0, #C9FFFF)"/>
</g>
</g>
<g id="Group 145">
<mask id="mask10_10295_23171" style="mask-type:luminance" maskUnits="userSpaceOnUse" x="16" y="105" width="7" height="7">
<path id="Clip 144" fill-rule="evenodd" clip-rule="evenodd" d="M16.4925 105.557H22.9085V111.557H16.4925V105.557Z" fill="var(--fill-0, white)"/>
</mask>
<g mask="url(#mask10_10295_23171)">
<path id="Fill 143" fill-rule="evenodd" clip-rule="evenodd" d="M19.6925 111.557H19.7085C21.4749 111.557 22.9085 110.213 22.9085 108.557C22.9085 106.9 21.4749 105.557 19.7085 105.557H19.6925C17.9261 105.557 16.4925 106.9 16.4925 108.557C16.4925 110.213 17.9261 111.557 19.6925 111.557" fill="var(--fill-0, #C9FFFF)"/>
</g>
</g>
<g id="Group 148">
<mask id="mask11_10295_23171" style="mask-type:luminance" maskUnits="userSpaceOnUse" x="49" y="105" width="7" height="7">
<path id="Clip 147" fill-rule="evenodd" clip-rule="evenodd" d="M49.5011 105.557H55.9011V111.557H49.5011V105.557Z" fill="var(--fill-0, white)"/>
</mask>
<g mask="url(#mask11_10295_23171)">
<path id="Fill 146" fill-rule="evenodd" clip-rule="evenodd" d="M52.7011 111.557C53.5427 111.557 54.3683 111.238 54.9635 110.678C55.5603 110.12 55.9011 109.346 55.9011 108.557C55.9011 107.767 55.5603 106.994 54.9635 106.435C54.3683 105.877 53.5427 105.557 52.7011 105.557C51.8579 105.557 51.0339 105.877 50.4371 106.435C49.8419 106.994 49.5011 107.767 49.5011 108.557C49.5011 109.346 49.8419 110.12 50.4371 110.678C51.0339 111.238 51.8579 111.557 52.7011 111.557" fill="var(--fill-0, #C9FFFF)"/>
</g>
</g>
<g id="Group 151">
<mask id="mask12_10295_23171" style="mask-type:luminance" maskUnits="userSpaceOnUse" x="66" y="105" width="7" height="7">
<path id="Clip 150" fill-rule="evenodd" clip-rule="evenodd" d="M66.4011 105.557H72.8011V111.557H66.4011V105.557Z" fill="var(--fill-0, white)"/>
</mask>
<g mask="url(#mask12_10295_23171)">
<path id="Fill 149" fill-rule="evenodd" clip-rule="evenodd" d="M69.6011 111.557C70.4443 111.557 71.2683 111.238 71.8651 110.678C72.4603 110.12 72.8011 109.346 72.8011 108.557C72.8011 107.767 72.4603 106.994 71.8651 106.435C71.2683 105.877 70.4443 105.557 69.6011 105.557C68.7595 105.557 67.9339 105.877 67.3387 106.435C66.7419 106.994 66.4011 107.767 66.4011 108.557C66.4011 109.346 66.7419 110.12 67.3387 110.678C67.9339 111.238 68.7595 111.557 69.6011 111.557" fill="var(--fill-0, #C9FFFF)"/>
</g>
</g>
<g id="Group 154">
<mask id="mask13_10295_23171" style="mask-type:luminance" maskUnits="userSpaceOnUse" x="99" y="105" width="7" height="7">
<path id="Clip 153" fill-rule="evenodd" clip-rule="evenodd" d="M99.3941 105.557H105.81V111.557H99.3941V105.557Z" fill="var(--fill-0, white)"/>
</mask>
<g mask="url(#mask13_10295_23171)">
<path id="Fill 152" fill-rule="evenodd" clip-rule="evenodd" d="M102.594 111.557H102.61C104.378 111.557 105.81 110.213 105.81 108.557C105.81 106.9 104.378 105.557 102.61 105.557H102.594C100.828 105.557 99.3941 106.9 99.3941 108.557C99.3941 110.213 100.828 111.557 102.594 111.557" fill="var(--fill-0, #C9FFFF)"/>
</g>
</g>
<g id="Group 157">
<mask id="mask14_10295_23171" style="mask-type:luminance" maskUnits="userSpaceOnUse" x="82" y="105" width="8" height="7">
<path id="Clip 156" fill-rule="evenodd" clip-rule="evenodd" d="M82.8941 105.557H89.3101V111.557H82.8941V105.557Z" fill="var(--fill-0, white)"/>
</mask>
<g mask="url(#mask14_10295_23171)">
<path id="Fill 155" fill-rule="evenodd" clip-rule="evenodd" d="M86.0941 111.557H86.1101C87.8765 111.557 89.3101 110.213 89.3101 108.557C89.3101 106.9 87.8765 105.557 86.1101 105.557H86.0941C84.3277 105.557 82.8941 106.9 82.8941 108.557C82.8941 110.213 84.3277 111.557 86.0941 111.557" fill="var(--fill-0, #C9FFFF)"/>
</g>
</g>
<g id="Group 160">
<mask id="mask15_10295_23171" style="mask-type:luminance" maskUnits="userSpaceOnUse" x="116" y="105" width="7" height="7">
<path id="Clip 159" fill-rule="evenodd" clip-rule="evenodd" d="M116.303 105.557H122.702V111.557H116.303V105.557Z" fill="var(--fill-0, white)"/>
</mask>
<g mask="url(#mask15_10295_23171)">
<path id="Fill 158" fill-rule="evenodd" clip-rule="evenodd" d="M119.503 111.557C120.344 111.557 121.17 111.238 121.765 110.678C122.362 110.12 122.703 109.346 122.703 108.557C122.703 107.767 122.362 106.994 121.765 106.435C121.17 105.877 120.344 105.557 119.503 105.557C118.66 105.557 117.836 105.877 117.239 106.435C116.644 106.994 116.303 107.767 116.303 108.557C116.303 109.346 116.644 110.12 117.239 110.678C117.836 111.238 118.66 111.557 119.503 111.557" fill="var(--fill-0, #C9FFFF)"/>
</g>
</g>
</g>
</svg>
