<svg preserveAspectRatio="none" width="100%" height="100%" overflow="visible" style="display: block;" viewBox="0 0 401.584 840.093" fill="none" xmlns="http://www.w3.org/2000/svg">
<path id="Background" fill-rule="evenodd" clip-rule="evenodd" d="M2.89753 41.0724C0 50.0261 0 61.0897 0 83.2168V756.876C0 779.004 0 790.067 2.89753 799.021C8.75362 817.117 22.8841 831.304 40.9073 837.184C49.8249 840.093 60.844 840.093 82.8822 840.093H318.702C340.74 840.093 351.759 840.093 360.677 837.184C378.7 831.304 392.83 817.117 398.686 799.021C401.584 790.067 401.584 779.004 401.584 756.876V83.2168C401.584 61.0897 401.584 50.0261 398.686 41.0724C392.83 22.9765 378.7 8.78896 360.677 2.90923C351.759 0 340.74 0 318.702 0H82.8822C60.844 0 49.8249 0 40.9073 2.90923C22.8841 8.78896 8.75362 22.9765 2.89753 41.0724ZM99.6556 19.3182V23.7762L99.7261 23.774L99.6553 24.2715C99.6553 36.0349 109.153 45.5711 120.869 45.5711H280.713C292.429 45.5711 301.927 36.0349 301.927 24.2715L301.856 23.774L301.927 23.7762V19.3182C301.927 16.3089 304.357 13.8695 307.354 13.8695L320.063 13.8694C339.931 13.8694 349.864 13.8694 357.787 16.8753C370.24 21.5998 380.07 31.4697 384.776 43.9728C387.77 51.9275 387.77 61.9016 387.77 81.8496V758.244C387.77 778.192 387.77 788.166 384.776 796.12C380.07 808.624 370.24 818.493 357.787 823.218C349.864 826.224 339.931 826.224 320.063 826.224H81.5199C61.652 826.224 51.7181 826.224 43.7953 823.218C31.3425 818.493 21.5123 808.624 16.8068 796.12C13.813 788.166 13.813 778.192 13.813 758.244V81.8496C13.813 61.9015 13.813 51.9275 16.8068 43.9728C21.5123 31.4697 31.3425 21.5998 43.7953 16.8753C51.7181 13.8694 61.652 13.8694 81.5199 13.8694L94.2288 13.8695C97.2259 13.8695 99.6556 16.3089 99.6556 19.3182Z" fill="var(--fill-0, #121515)"/>
</svg>
