<svg preserveAspectRatio="none" width="100%" height="100%" overflow="visible" style="display: block;" viewBox="0 0 409.477 848.019" fill="none" xmlns="http://www.w3.org/2000/svg">
<path id="Highlight band" fill-rule="evenodd" clip-rule="evenodd" d="M321.07 0.990676H88.4077C64.8235 0.990676 53.2654 1.0029 43.9393 4.04537C25.015 10.2191 10.178 25.116 4.0291 44.1167C0.998866 53.4805 0.986693 65.0852 0.986693 88.7645V759.254C0.986693 782.934 0.998866 794.538 4.0291 803.902C10.178 822.903 25.015 837.8 43.9393 843.973C53.2654 847.016 64.8235 847.028 88.4077 847.028H321.07C344.654 847.028 356.212 847.016 365.538 843.973C384.463 837.8 399.299 822.903 405.448 803.902C408.479 794.538 408.491 782.934 408.491 759.254V88.7646C408.491 65.0852 408.479 53.4805 405.448 44.1167C399.299 25.116 384.463 10.2191 365.538 4.04537C356.212 1.0029 344.654 0.990676 321.07 0.990676ZM3.0907 43.8106C0 53.3612 0 65.1623 0 88.7645V759.254C0 782.856 0 794.658 3.0907 804.208C9.3372 823.51 24.4097 838.644 43.6344 844.916C53.1466 848.019 64.9003 848.019 88.4077 848.019H321.07C344.577 848.019 356.331 848.019 365.843 844.916C385.068 838.644 400.14 823.51 406.387 804.208C409.477 794.658 409.477 782.856 409.477 759.254V88.7646C409.477 65.1623 409.477 53.3612 406.387 43.8106C400.14 24.5082 385.068 9.37489 365.843 3.10318C356.331 0 344.577 0 321.07 0H88.4077C64.9003 0 53.1466 0 43.6344 3.10318C24.4097 9.37489 9.3372 24.5082 3.0907 43.8106Z" fill="var(--fill-0, #303030)"/>
</svg>
