<svg preserveAspectRatio="none" width="100%" height="100%" overflow="visible" style="display: block;" viewBox="0 0 15.7871 15.8508" fill="none" xmlns="http://www.w3.org/2000/svg">
<g id="Camera">
<path id="Oval" fill-rule="evenodd" clip-rule="evenodd" d="M7.89353 15.8508C12.253 15.8508 15.7871 12.3025 15.7871 7.92541C15.7871 3.54833 12.253 0 7.89353 0C3.53405 0 0 3.54833 0 7.92541C0 12.3025 3.53405 15.8508 7.89353 15.8508Z" fill="var(--fill-0, #262C2D)"/>
<path id="Oval_2" fill-rule="evenodd" clip-rule="evenodd" d="M7.89261 12.8788C10.6173 12.8788 12.8261 10.6611 12.8261 7.92541C12.8261 5.18973 10.6173 2.97203 7.89261 2.97203C5.16793 2.97203 2.95915 5.18973 2.95915 7.92541C2.95915 10.6611 5.16793 12.8788 7.89261 12.8788Z" fill="var(--fill-0, #121515)"/>
<path id="Oval_3" opacity="0.4" fill-rule="evenodd" clip-rule="evenodd" d="M7.89422 6.93562C8.43941 6.93562 8.88137 6.49188 8.88137 5.94449C8.88137 5.3971 8.43941 4.95335 7.89422 4.95335C7.34903 4.95335 6.90707 5.3971 6.90707 5.94449C6.90707 6.49188 7.34903 6.93562 7.89422 6.93562Z" fill="var(--fill-0, #636F73)"/>
</g>
</svg>
