<svg preserveAspectRatio="none" width="100%" height="100%" overflow="visible" style="display: block;" viewBox="0 0 31.9036 30.8" fill="none" xmlns="http://www.w3.org/2000/svg">
<g id="F-Droid logo">
<g id="Vector">
<path fill-rule="evenodd" clip-rule="evenodd" d="M26.6534 5.25027C26.9755 5.57246 27.4979 5.57246 27.8201 5.25027L31.3203 1.7501C31.6425 1.42791 31.6425 0.905553 31.3203 0.58337L26.6534 5.25027Z" fill="#8AB000"/>
<path fill-rule="evenodd" clip-rule="evenodd" d="M26.6534 5.25027C26.9755 5.57246 27.4979 5.57246 27.8201 5.25027L31.3203 1.7501C31.6425 1.42791 31.6425 0.905553 31.3203 0.58337L26.6534 5.25027Z" fill="#263238" fill-opacity="0.2"/>
</g>
<g id="Vector_2">
<path fill-rule="evenodd" clip-rule="evenodd" d="M26.6534 5.25027C26.3312 4.92809 26.3312 4.40573 26.6534 4.08354L30.1536 0.583365C30.4757 0.261182 30.9981 0.261182 31.3203 0.583365L26.6534 5.25027Z" fill="#8AB000"/>
<path fill-rule="evenodd" clip-rule="evenodd" d="M26.6534 5.25027C26.3312 4.92809 26.3312 4.40573 26.6534 4.08354L30.1536 0.583365C30.4757 0.261182 30.9981 0.261182 31.3203 0.583365L26.6534 5.25027Z" fill="white" fill-opacity="0.3"/>
</g>
<path id="Vector_3" d="M26.6534 5.25027C26.46 5.05696 26.5645 4.63907 26.8867 4.31689L30.3869 0.816709C30.7091 0.494527 31.1269 0.390055 31.3203 0.583364C31.5136 0.776673 31.4091 1.19456 31.0869 1.51674L27.5867 5.01692C27.2646 5.3391 26.8467 5.44358 26.6534 5.25027Z" fill="var(--fill-0, #8AB000)"/>
<g id="Vector_4">
<path fill-rule="evenodd" clip-rule="evenodd" d="M0.583357 0.583368C0.261175 0.905551 0.261175 1.42791 0.583357 1.75009L4.08354 5.25027C4.40572 5.57246 4.92808 5.57246 5.25026 5.25027L0.583357 0.583368Z" fill="#8AB000"/>
<path fill-rule="evenodd" clip-rule="evenodd" d="M0.583357 0.583368C0.261175 0.905551 0.261175 1.42791 0.583357 1.75009L4.08354 5.25027C4.40572 5.57246 4.92808 5.57246 5.25026 5.25027L0.583357 0.583368Z" fill="#263238" fill-opacity="0.2"/>
</g>
<g id="Vector_5">
<path fill-rule="evenodd" clip-rule="evenodd" d="M0.583349 0.583363C0.905532 0.261181 1.42789 0.261181 1.75008 0.583363L5.25025 4.08354C5.57243 4.40572 5.57243 4.92809 5.25025 5.25027L0.583349 0.583363Z" fill="#8AB000"/>
<path fill-rule="evenodd" clip-rule="evenodd" d="M0.583349 0.583363C0.905532 0.261181 1.42789 0.261181 1.75008 0.583363L5.25025 4.08354C5.57243 4.40572 5.57243 4.92809 5.25025 5.25027L0.583349 0.583363Z" fill="white" fill-opacity="0.3"/>
</g>
<path id="Vector_6" d="M0.583367 0.583361C0.776677 0.390052 1.19457 0.494524 1.51675 0.816706L5.01693 4.31689C5.33911 4.63907 5.44358 5.05696 5.25027 5.25027C5.05696 5.44358 4.63907 5.3391 4.31689 5.01692L0.816712 1.51674C0.49453 1.19456 0.390058 0.776671 0.583367 0.583361Z" fill="var(--fill-0, #8AB000)"/>
<g id="Vector_7" filter="url(#filter0_ii_10288_21699)">
<path d="M3.3 5.5C3.3 4.28497 4.28497 3.3 5.5 3.3H26.4C27.615 3.3 28.6 4.28497 28.6 5.5V9.9C28.6 11.115 27.615 12.1 26.4 12.1H5.5C4.28497 12.1 3.3 11.115 3.3 9.9V5.5Z" fill="var(--fill-0, #AEEA00)"/>
</g>
<g id="Vector_8" filter="url(#filter1_ii_10288_21699)">
<path d="M3.3 15.4C3.3 14.185 4.28497 13.2 5.5 13.2H26.4C27.615 13.2 28.6 14.185 28.6 15.4V28.6C28.6 29.815 27.615 30.8 26.4 30.8H5.5C4.28497 30.8 3.3 29.815 3.3 28.6V15.4Z" fill="var(--fill-0, #1976D2)"/>
</g>
<g id="Vector_9">
<path d="M15.9518 25.85C18.0781 25.85 19.8018 24.1263 19.8018 22C19.8018 19.8737 18.0781 18.15 15.9518 18.15C14.2077 18.15 12.7345 19.3097 12.2612 20.9H14.0461C14.4265 20.2424 15.1375 19.8 15.9518 19.8C17.1668 19.8 18.1518 20.785 18.1518 22C18.1518 23.215 17.1668 24.2 15.9518 24.2C15.1375 24.2 14.4265 23.7576 14.0461 23.1H12.2612C12.7345 24.6903 14.2077 25.85 15.9518 25.85Z" fill="var(--fill-0, #0D47A1)"/>
<path fill-rule="evenodd" clip-rule="evenodd" d="M22.5518 22C22.5518 25.6451 19.5969 28.6 15.9518 28.6C12.3067 28.6 9.35179 25.6451 9.35179 22C9.35179 18.3549 12.3067 15.4 15.9518 15.4C19.5969 15.4 22.5518 18.3549 22.5518 22ZM21.4518 22C21.4518 25.0376 18.9894 27.5 15.9518 27.5C12.9142 27.5 10.4518 25.0376 10.4518 22C10.4518 18.9624 12.9142 16.5 15.9518 16.5C18.9894 16.5 21.4518 18.9624 21.4518 22Z" fill="var(--fill-0, #0D47A1)"/>
</g>
<g id="Vector_10" filter="url(#filter2_d_10288_21699)">
<path d="M9.34999 9.9C10.565 9.9 11.55 8.91503 11.55 7.7C11.55 6.48497 10.565 5.5 9.34999 5.5C8.13497 5.5 7.14999 6.48497 7.14999 7.7C7.14999 8.91503 8.13497 9.9 9.34999 9.9Z" fill="white"/>
<path d="M22.55 9.9C23.765 9.9 24.75 8.91503 24.75 7.7C24.75 6.48497 23.765 5.5 22.55 5.5C21.335 5.5 20.35 6.48497 20.35 7.7C20.35 8.91503 21.335 9.9 22.55 9.9Z" fill="white"/>
</g>
<g id="Vector_11">
<path d="M0.583348 0.583373C0.905531 0.26119 1.42789 0.26119 1.75007 0.583373L4.6408 3.4741C4.90476 3.36201 5.19513 3.30001 5.49998 3.30001H26.4C26.7058 3.30001 26.9971 3.36241 27.2617 3.47519L30.1535 0.583378C30.4757 0.261195 30.9981 0.261195 31.3202 0.583378C31.6424 0.90556 31.6424 1.42792 31.3202 1.7501L28.427 4.64338C28.5384 4.90666 28.6 5.19614 28.6 5.50001V9.90001C28.6 11.115 27.615 12.1 26.4 12.1H5.49998C4.28496 12.1 3.29998 11.115 3.29998 9.90001V5.50001C3.29998 5.19516 3.36199 4.90479 3.47408 4.64083L0.583348 1.7501C0.261166 1.42792 0.261167 0.905555 0.583348 0.583373Z" fill="url(#paint0_radial_10288_21699)"/>
<path d="M5.49998 13.2C4.28496 13.2 3.29998 14.185 3.29998 15.4V28.6C3.29998 29.815 4.28496 30.8 5.49998 30.8H26.4C27.615 30.8 28.6 29.815 28.6 28.6V15.4C28.6 14.185 27.615 13.2 26.4 13.2H5.49998Z" fill="url(#paint1_radial_10288_21699)"/>
</g>
</g>
<defs>
<filter id="filter0_ii_10288_21699" x="3.3" y="3.3" width="25.3" height="8.8" filterUnits="userSpaceOnUse" color-interpolation-filters="sRGB">
<feFlood flood-opacity="0" result="BackgroundImageFix"/>
<feBlend mode="normal" in="SourceGraphic" in2="BackgroundImageFix" result="shape"/>
<feColorMatrix in="SourceAlpha" type="matrix" values="0 0 0 0 0 0 0 0 0 0 0 0 0 0 0 0 0 0 127 0" result="hardAlpha"/>
<feOffset dy="-1"/>
<feComposite in2="hardAlpha" operator="arithmetic" k2="-1" k3="1"/>
<feColorMatrix type="matrix" values="0 0 0 0 0.14902 0 0 0 0 0.196078 0 0 0 0 0.219608 0 0 0 0.2 0"/>
<feBlend mode="normal" in2="shape" result="effect1_innerShadow_10288_21699"/>
<feColorMatrix in="SourceAlpha" type="matrix" values="0 0 0 0 0 0 0 0 0 0 0 0 0 0 0 0 0 0 127 0" result="hardAlpha"/>
<feOffset dy="1"/>
<feComposite in2="hardAlpha" operator="arithmetic" k2="-1" k3="1"/>
<feColorMatrix type="matrix" values="0 0 0 0 1 0 0 0 0 1 0 0 0 0 1 0 0 0 0.3 0"/>
<feBlend mode="normal" in2="effect1_innerShadow_10288_21699" result="effect2_innerShadow_10288_21699"/>
</filter>
<filter id="filter1_ii_10288_21699" x="3.3" y="13.2" width="25.3" height="17.6" filterUnits="userSpaceOnUse" color-interpolation-filters="sRGB">
<feFlood flood-opacity="0" result="BackgroundImageFix"/>
<feBlend mode="normal" in="SourceGraphic" in2="BackgroundImageFix" result="shape"/>
<feColorMatrix in="SourceAlpha" type="matrix" values="0 0 0 0 0 0 0 0 0 0 0 0 0 0 0 0 0 0 127 0" result="hardAlpha"/>
<feOffset dy="-1"/>
<feComposite in2="hardAlpha" operator="arithmetic" k2="-1" k3="1"/>
<feColorMatrix type="matrix" values="0 0 0 0 0.14902 0 0 0 0 0.196078 0 0 0 0 0.219608 0 0 0 0.2 0"/>
<feBlend mode="normal" in2="shape" result="effect1_innerShadow_10288_21699"/>
<feColorMatrix in="SourceAlpha" type="matrix" values="0 0 0 0 0 0 0 0 0 0 0 0 0 0 0 0 0 0 127 0" result="hardAlpha"/>
<feOffset dy="1"/>
<feComposite in2="hardAlpha" operator="arithmetic" k2="-1" k3="1"/>
<feColorMatrix type="matrix" values="0 0 0 0 1 0 0 0 0 1 0 0 0 0 1 0 0 0 0.2 0"/>
<feBlend mode="normal" in2="effect1_innerShadow_10288_21699" result="effect2_innerShadow_10288_21699"/>
</filter>
<filter id="filter2_d_10288_21699" x="7.14999" y="5" width="17.6" height="4.9" filterUnits="userSpaceOnUse" color-interpolation-filters="sRGB">
<feFlood flood-opacity="0" result="BackgroundImageFix"/>
<feColorMatrix in="SourceAlpha" type="matrix" values="0 0 0 0 0 0 0 0 0 0 0 0 0 0 0 0 0 0 127 0" result="hardAlpha"/>
<feOffset dy="-0.5"/>
<feColorMatrix type="matrix" values="0 0 0 0 0.14902 0 0 0 0 0.196078 0 0 0 0 0.219608 0 0 0 0.2 0"/>
<feBlend mode="normal" in2="BackgroundImageFix" result="effect1_dropShadow_10288_21699"/>
<feBlend mode="normal" in="SourceGraphic" in2="effect1_dropShadow_10288_21699" result="shape"/>
</filter>
<radialGradient id="paint0_radial_10288_21699" cx="0" cy="0" r="1" gradientUnits="userSpaceOnUse" gradientTransform="translate(0.104785 0.104068) rotate(90) scale(30.6959 31.2553)">
<stop stop-color="white" stop-opacity="0.1"/>
<stop offset="1" stop-color="white" stop-opacity="0"/>
</radialGradient>
<radialGradient id="paint1_radial_10288_21699" cx="0" cy="0" r="1" gradientUnits="userSpaceOnUse" gradientTransform="translate(0.104785 0.104068) rotate(90) scale(30.6959 31.2553)">
<stop stop-color="white" stop-opacity="0.1"/>
<stop offset="1" stop-color="white" stop-opacity="0"/>
</radialGradient>
</defs>
</svg>
