<svg preserveAspectRatio="none" width="100%" height="100%" overflow="visible" style="display: block;" viewBox="0 0 93.2536 18.733" fill="none" xmlns="http://www.w3.org/2000/svg">
<path id="Google Play" d="M29.8034 5.1744C27.2162 5.1744 25.1075 7.1423 25.1075 9.8527C25.1075 12.5466 27.2162 14.531 29.8034 14.531C32.3917 14.531 34.5004 12.5466 34.5004 9.8527C34.4993 7.1423 32.3906 5.1744 29.8034 5.1744ZM29.8034 12.6896C28.3855 12.6896 27.1634 11.5203 27.1634 9.8538C27.1634 8.1697 28.3866 7.018 29.8034 7.018C31.2213 7.018 32.4434 8.1697 32.4434 9.8538C32.4434 11.5192 31.2213 12.6896 29.8034 12.6896ZM19.558 5.1744C16.9708 5.1744 14.8621 7.1423 14.8621 9.8527C14.8621 12.5466 16.9708 14.531 19.558 14.531C22.1463 14.531 24.255 12.5466 24.255 9.8527C24.255 7.1423 22.1463 5.1744 19.558 5.1744ZM19.558 12.6896C18.1401 12.6896 16.918 11.5203 16.918 9.8538C16.918 8.1697 18.1412 7.018 19.558 7.018C20.9759 7.018 22.198 8.1697 22.198 9.8538C22.1991 11.5192 20.9759 12.6896 19.558 12.6896ZM7.3722 6.611V8.5954H12.122C11.9801 9.7119 11.6083 10.527 11.0407 11.0935C10.3499 11.7843 9.2686 12.5466 7.3722 12.5466C4.4484 12.5466 2.1626 10.1893 2.1626 7.2655C2.1626 4.3417 4.4484 1.9844 7.3722 1.9844C8.9496 1.9844 10.1013 2.6048 10.9516 3.4023L12.3519 2.002C11.1639 0.8679 9.5876 0 7.3722 0C3.3671 0 0 3.2604 0 7.2655C0 11.2706 3.3671 14.531 7.3722 14.531C9.5337 14.531 11.165 13.8215 12.4399 12.4927C13.7511 11.1815 14.1592 9.3379 14.1592 7.8496C14.1592 7.3898 14.124 6.9641 14.0525 6.6099H7.3722V6.611ZM57.211 8.1521C56.8216 7.1071 55.6336 5.1744 53.2059 5.1744C50.7958 5.1744 48.7927 7.0708 48.7927 9.8527C48.7927 12.4751 50.7782 14.531 53.4358 14.531C55.5797 14.531 56.8205 13.2198 57.3353 12.4575L55.7403 11.3938C55.209 12.1737 54.4819 12.6874 53.4358 12.6874C52.3908 12.6874 51.6461 12.2089 51.1676 11.2695L57.4233 8.6823L57.211 8.1521ZM50.831 9.7119C50.7782 7.9035 52.2313 6.9828 53.2774 6.9828C54.0925 6.9828 54.7833 7.3909 55.0143 7.975L50.831 9.7119ZM45.7457 14.2483H47.8005V0.4972H45.7457V14.2483ZM42.3775 6.2205H42.3071C41.8462 5.6705 40.9596 5.1744 39.8442 5.1744C37.5045 5.1744 35.3606 7.2303 35.3606 9.8714C35.3606 12.4938 37.5045 14.5321 39.8442 14.5321C40.9607 14.5321 41.8462 14.036 42.3071 13.4695H42.3775V14.1427C42.3775 15.9324 41.4205 16.8894 39.8794 16.8894C38.621 16.8894 37.8411 15.9863 37.5221 15.224L35.7324 15.9687C36.2461 17.2084 37.6101 18.733 39.8794 18.733C42.2895 18.733 44.3278 17.3151 44.3278 13.8589V5.4593H42.3786V6.2205H42.3775ZM40.0213 12.6896C38.6034 12.6896 37.4165 11.5016 37.4165 9.8714C37.4165 8.2225 38.6034 7.018 40.0213 7.018C41.4205 7.018 42.5194 8.2225 42.5194 9.8714C42.5194 11.5016 41.4205 12.6896 40.0213 12.6896ZM66.8404 0.4972H61.9223V14.2483H63.9738V9.0387H66.8393C69.1141 9.0387 71.3515 7.392 71.3515 4.7685C71.3515 2.145 69.1152 0.4972 66.8404 0.4972ZM66.8932 7.1247H63.9738V2.4112H66.8932C68.4277 2.4112 69.2989 3.6817 69.2989 4.7685C69.2989 5.8333 68.4277 7.1247 66.8932 7.1247ZM79.5784 5.1502C78.0923 5.1502 76.5534 5.8047 75.9165 7.2556L77.7381 8.0157C78.1275 7.2556 78.8535 7.007 79.6136 7.007C80.6751 7.007 81.7542 7.6439 81.7718 8.7758V8.9177C81.4 8.7054 80.6036 8.3875 79.6312 8.3875C77.6677 8.3875 75.6679 9.4666 75.6679 11.4829C75.6679 13.3232 77.2783 14.5079 79.0823 14.5079C80.4617 14.5079 81.2229 13.8886 81.7003 13.1626H81.7707V14.2241H83.7529V8.9518C83.754 6.512 81.9302 5.1502 79.5784 5.1502ZM79.3298 12.6863C78.6588 12.6863 77.7205 12.3497 77.7205 11.5181C77.7205 10.4566 78.8887 10.0496 79.8974 10.0496C80.7983 10.0496 81.224 10.2443 81.7718 10.5094C81.6123 11.7843 80.5156 12.6863 79.3298 12.6863ZM90.9711 5.4505L88.6182 11.4125H88.5478L86.1058 5.4505H83.8948L87.5567 13.783L85.4689 18.4184H87.6095L93.2536 5.4505H90.9711ZM72.4845 14.2483H74.536V0.4972H72.4845V14.2483Z" fill="var(--fill-0, black)"/>
</svg>
