<svg preserveAspectRatio="none" width="100%" height="100%" overflow="visible" style="display: block;" viewBox="0 0 39.6667 34.6667" fill="none" xmlns="http://www.w3.org/2000/svg">
<g id="Group">
<path id="Vector" d="M19.8333 14.8333C23.5152 14.8333 26.5 11.8486 26.5 8.16667C26.5 4.48477 23.5152 1.5 19.8333 1.5C16.1514 1.5 13.1667 4.48477 13.1667 8.16667C13.1667 11.8486 16.1514 14.8333 19.8333 14.8333Z" stroke="var(--stroke-0, white)" stroke-width="3"/>
<path id="Vector_2" opacity="0.5" d="M29.8333 13.1667C32.595 13.1667 34.8333 11.3 34.8333 9C34.8333 6.7 32.595 4.83333 29.8333 4.83333M9.83333 13.1667C7.07167 13.1667 4.83333 11.3 4.83333 9C4.83333 6.7 7.07167 4.83333 9.83333 4.83333" stroke="var(--stroke-0, white)" stroke-width="3" stroke-linecap="round"/>
<path id="Vector_3" d="M19.8333 33.1667C25.3562 33.1667 29.8333 30.1819 29.8333 26.5C29.8333 22.8181 25.3562 19.8333 19.8333 19.8333C14.3105 19.8333 9.83333 22.8181 9.83333 26.5C9.83333 30.1819 14.3105 33.1667 19.8333 33.1667Z" stroke="var(--stroke-0, white)" stroke-width="3"/>
<path id="Vector_4" opacity="0.5" d="M33.1667 29.8333C36.09 29.1917 38.1667 27.5683 38.1667 25.6667C38.1667 23.765 36.09 22.1417 33.1667 21.5M6.5 29.8333C3.57667 29.1917 1.5 27.5683 1.5 25.6667C1.5 23.765 3.57667 22.1417 6.5 21.5" stroke="var(--stroke-0, white)" stroke-width="3" stroke-linecap="round"/>
</g>
</svg>
