<svg preserveAspectRatio="none" width="100%" height="100%" overflow="visible" style="display: block;" viewBox="0 0 26.6665 34.2856" fill="none" xmlns="http://www.w3.org/2000/svg">
<g id="Group">
<path id="Vector" d="M22.857 0.000140429H3.8095C1.70557 0.000140429 0 1.70571 0 3.80964V30.4761C0 32.5801 1.70557 34.2856 3.8095 34.2856H22.857C24.9609 34.2856 26.6665 32.5801 26.6665 30.4761V3.80964C26.6665 1.70571 24.9609 0.000140429 22.857 0.000140429Z" fill="var(--fill-0, white)" fill-opacity="0.4"/>
<path id="Vector_2" d="M8.57138 8.57152H18.0951M8.57138 14.2858H14.2856M8.57138 20H16.1904M8.57138 25.7143H14.2856" stroke="var(--stroke-0, white)" stroke-width="2" stroke-linecap="round"/>
<path id="Vector_3" d="M5.71444 8.57133C5.71444 8.04535 5.28804 7.61896 4.76206 7.61896C4.23608 7.61896 3.80969 8.04535 3.80969 8.57133C3.80969 9.09731 4.23608 9.52371 4.76206 9.52371C5.28804 9.52371 5.71444 9.09731 5.71444 8.57133Z" fill="var(--fill-0, white)"/>
<path id="Vector_4" d="M5.71444 14.2856C5.71444 13.7596 5.28804 13.3332 4.76206 13.3332C4.23608 13.3332 3.80969 13.7596 3.80969 14.2856C3.80969 14.8116 4.23608 15.238 4.76206 15.238C5.28804 15.238 5.71444 14.8116 5.71444 14.2856Z" fill="var(--fill-0, white)"/>
<path id="Vector_5" d="M5.71444 19.9998C5.71444 19.4738 5.28804 19.0475 4.76206 19.0475C4.23608 19.0475 3.80969 19.4738 3.80969 19.9998C3.80969 20.5258 4.23608 20.9522 4.76206 20.9522C5.28804 20.9522 5.71444 20.5258 5.71444 19.9998Z" fill="var(--fill-0, white)"/>
<path id="Vector_6" d="M5.71444 25.7141C5.71444 25.1881 5.28804 24.7617 4.76206 24.7617C4.23608 24.7617 3.80969 25.1881 3.80969 25.7141C3.80969 26.2401 4.23608 26.6665 4.76206 26.6665C5.28804 26.6665 5.71444 26.2401 5.71444 25.7141Z" fill="var(--fill-0, white)"/>
</g>
</svg>
