<svg preserveAspectRatio="none" width="100%" height="100%" overflow="visible" style="display: block;" viewBox="0 0 24 24" fill="none" xmlns="http://www.w3.org/2000/svg">
<g id="uil:process">
<path id="Vector" d="M6.992 14.502C6.72678 14.502 6.47243 14.6074 6.28489 14.7949C6.09736 14.9824 5.992 15.2368 5.992 15.502V17.284C4.70292 15.8265 3.99155 13.9478 3.992 12.002C3.99083 11.7079 4.0082 11.4139 4.044 11.122C4.06308 10.9901 4.0556 10.8557 4.02199 10.7267C3.98839 10.5977 3.92934 10.4768 3.84831 10.3709C3.76729 10.2651 3.66593 10.1766 3.55018 10.1105C3.43444 10.0444 3.30665 10.0021 3.17433 9.98608C3.04201 9.97008 2.90783 9.9807 2.77967 10.0173C2.65151 10.0539 2.53196 10.1158 2.42805 10.1992C2.32414 10.2827 2.23796 10.3861 2.17458 10.5034C2.11121 10.6206 2.07191 10.7493 2.059 10.882C2.01339 11.2536 1.99102 11.6276 1.992 12.002C1.99301 14.3882 2.8507 16.6948 4.409 18.502H2.992C2.72678 18.502 2.47243 18.6074 2.28489 18.7949C2.09736 18.9824 1.992 19.2368 1.992 19.502C1.992 19.7672 2.09736 20.0216 2.28489 20.2091C2.47243 20.3966 2.72678 20.502 2.992 20.502H6.992C7.14842 20.5001 7.30212 20.4609 7.44026 20.3874C7.57839 20.314 7.69694 20.2086 7.786 20.08L7.823 20.037C7.83 20.027 7.83 20.015 7.836 20.005C7.88321 19.9244 7.91889 19.8375 7.942 19.747C7.9568 19.6959 7.9675 19.6438 7.974 19.591C7.977 19.561 7.992 19.534 7.992 19.502V15.502C7.992 15.2368 7.88664 14.9824 7.69911 14.7949C7.51157 14.6074 7.25722 14.502 6.992 14.502ZM8.492 6.002H6.709C8.16676 4.71269 10.0459 4.0013 11.992 4.002C12.2862 4.00116 12.5801 4.01886 12.872 4.055C13.1355 4.08683 13.4008 4.01268 13.6097 3.84886C13.8185 3.68505 13.9537 3.44499 13.9855 3.1815C14.0173 2.91801 13.9432 2.65266 13.7794 2.44384C13.6156 2.23502 13.3755 2.09983 13.112 2.068C12.7404 2.02273 12.3663 2.00069 11.992 2.002C9.60575 2.00301 7.29917 2.8607 5.492 4.419V3.002C5.492 2.73678 5.38664 2.48243 5.19911 2.29489C5.01157 2.10736 4.75722 2.002 4.492 2.002C4.22678 2.002 3.97243 2.10736 3.78489 2.29489C3.59736 2.48243 3.492 2.73678 3.492 3.002V7.002C3.49849 7.06813 3.51155 7.13346 3.531 7.197C3.55585 7.32017 3.60368 7.43755 3.672 7.543L3.684 7.56C3.7504 7.65557 3.83297 7.73882 3.928 7.806C3.939 7.814 3.945 7.826 3.956 7.834C3.97 7.844 3.986 7.847 4.001 7.855C4.05806 7.8889 4.11836 7.91704 4.181 7.939C4.26525 7.96822 4.35303 7.98605 4.442 7.992C4.46 7.992 4.474 8.002 4.492 8.002H8.492C8.75722 8.002 9.01157 7.89664 9.19911 7.70911C9.38664 7.52157 9.492 7.26722 9.492 7.002C9.492 6.73678 9.38664 6.48243 9.19911 6.29489C9.01157 6.10736 8.75722 6.002 8.492 6.002ZM20.452 16.806C20.427 16.6832 20.3792 16.5661 20.311 16.461L20.3 16.444C20.2333 16.3483 20.1504 16.2651 20.055 16.198C20.044 16.19 20.039 16.178 20.027 16.17C20.017 16.163 20.004 16.163 19.993 16.156C19.8657 16.0862 19.7268 16.0402 19.583 16.02C19.551 16.017 19.524 16.002 19.492 16.002H15.492C15.2268 16.002 14.9724 16.1074 14.7849 16.2949C14.5974 16.4824 14.492 16.7368 14.492 17.002C14.492 17.2672 14.5974 17.5216 14.7849 17.7091C14.9724 17.8966 15.2268 18.002 15.492 18.002H17.274C15.8165 19.2911 13.9378 20.0025 11.992 20.002C11.6978 20.0025 11.4039 19.9845 11.112 19.948C10.8485 19.9162 10.5832 19.9903 10.3743 20.1541C10.1655 20.3179 10.0303 20.558 9.9985 20.8215C9.96667 21.085 10.0408 21.3503 10.2046 21.5592C10.3684 21.768 10.6085 21.9032 10.872 21.935C11.2436 21.9806 11.6176 22.003 11.992 22.002C14.3782 22.001 16.6848 21.1433 18.492 19.585V21.002C18.492 21.2672 18.5974 21.5216 18.7849 21.7091C18.9724 21.8966 19.2268 22.002 19.492 22.002C19.7572 22.002 20.0116 21.8966 20.1991 21.7091C20.3866 21.5216 20.492 21.2672 20.492 21.002V17.002C20.4852 16.9358 20.4718 16.8695 20.452 16.806ZM20.992 5.502C21.2572 5.502 21.5116 5.39664 21.6991 5.20911C21.8866 5.02157 21.992 4.76722 21.992 4.502C21.992 4.23678 21.8866 3.98243 21.6991 3.79489C21.5116 3.60736 21.2572 3.502 20.992 3.502H16.992C16.9269 3.50868 16.8626 3.52175 16.8 3.541L16.793 3.542C16.672 3.56725 16.5567 3.61472 16.453 3.682L16.433 3.695C16.3378 3.76149 16.2549 3.84406 16.188 3.939C16.18 3.949 16.168 3.955 16.16 3.966C16.153 3.976 16.153 3.989 16.146 4C16.0759 4.12824 16.0298 4.2682 16.01 4.413C16.007 4.443 15.992 4.47 15.992 4.502V8.502C15.992 8.76722 16.0974 9.02157 16.2849 9.20911C16.4724 9.39664 16.7268 9.502 16.992 9.502C17.2572 9.502 17.5116 9.39664 17.6991 9.20911C17.8866 9.02157 17.992 8.76722 17.992 8.502V6.719C19.2805 8.17724 19.9918 10.056 19.992 12.002C19.9928 12.2962 19.9751 12.5901 19.939 12.882C19.9071 13.1452 19.981 13.4103 20.1446 13.619C20.3081 13.8278 20.5478 13.963 20.811 13.995C20.8515 13.9998 20.8922 14.0022 20.933 14.002C21.1771 14.0016 21.4127 13.9118 21.5952 13.7497C21.7778 13.5876 21.8947 13.3644 21.924 13.122C21.9699 12.7504 21.9927 12.3764 21.992 12.002C21.991 9.61575 21.1333 7.30917 19.575 5.502H20.992Z" fill="var(--fill-0, white)"/>
</g>
</svg>
