<svg preserveAspectRatio="none" width="100%" height="100%" overflow="visible" style="display: block;" viewBox="0 0 21.8242 19.2907" fill="none" xmlns="http://www.w3.org/2000/svg">
<g id="icon">
<path id="Vector" d="M1.25 2.92907V16.3616C1.25 16.807 1.42704 17.234 1.74217 17.5489C2.0573 17.8638 2.48471 18.0407 2.93037 18.0407H19.734C19.9569 18.0407 20.1706 17.9523 20.3281 17.7948C20.4857 17.6374 20.5742 17.4238 20.5742 17.2012V5.44768C20.5742 5.22502 20.4857 5.01148 20.3281 4.85404C20.1706 4.69659 19.9569 4.60814 19.734 4.60814H2.93037C2.48471 4.60814 2.0573 4.43124 1.74217 4.11635C1.42704 3.80147 1.25 3.37439 1.25 2.92907ZM1.25 2.92907C1.25 2.48375 1.42704 2.05668 1.74217 1.74179C2.0573 1.4269 2.48471 1.25 2.93037 1.25H17.2135" stroke="var(--stroke-0, white)" stroke-width="2.5" stroke-linecap="round" stroke-linejoin="round"/>
<path id="Vector_2" d="M15.9536 12.5833C16.6497 12.5833 17.2139 12.0195 17.2139 11.324C17.2139 10.6285 16.6497 10.0647 15.9536 10.0647C15.2576 10.0647 14.6933 10.6285 14.6933 11.324C14.6933 12.0195 15.2576 12.5833 15.9536 12.5833Z" fill="var(--fill-0, white)"/>
</g>
</svg>
