<svg preserveAspectRatio="none" width="100%" height="100%" overflow="visible" style="display: block;" viewBox="0 0 61.0374 7.7924" fill="none" xmlns="http://www.w3.org/2000/svg">
<g id="Available on">
<path d="M4.61472 6.13272H1.53824L0.97152 7.70132H0L2.55024 0.68816H3.61284L6.15296 7.70132H5.18144L4.61472 6.13272ZM4.3516 5.38384L3.07648 1.8216L1.80136 5.38384H4.3516Z" fill="var(--fill-0, black)"/>
<path d="M8.7217 6.85124L10.4421 2.15556H11.4237L9.24794 7.70132H8.17522L5.99942 2.15556H6.99118L8.7217 6.85124Z" fill="var(--fill-0, black)"/>
<path d="M12.0871 4.9082C12.0871 4.34148 12.2018 3.8456 12.4312 3.42056C12.6605 2.98877 12.9743 2.65481 13.3723 2.41868C13.7771 2.18255 14.2258 2.06448 14.7183 2.06448C15.204 2.06448 15.6257 2.16905 15.9833 2.3782C16.3408 2.58735 16.6073 2.85047 16.7828 3.16756V2.15556H17.7138V7.70132H16.7828V6.66908C16.6006 6.99292 16.3274 7.26279 15.963 7.47868C15.6055 7.68783 15.1872 7.7924 14.7082 7.7924C14.2156 7.7924 13.7704 7.67096 13.3723 7.42808C12.9743 7.1852 12.6605 6.84449 12.4312 6.40596C12.2018 5.96743 12.0871 5.46817 12.0871 4.9082ZM16.7828 4.91832C16.7828 4.50003 16.6984 4.13571 16.5298 3.82536C16.3611 3.51501 16.1317 3.27888 15.8416 3.11696C15.5582 2.94829 15.2445 2.86396 14.9004 2.86396C14.5564 2.86396 14.2426 2.94492 13.9593 3.10684C13.6759 3.26876 13.4499 3.50489 13.2812 3.81524C13.1126 4.12559 13.0282 4.48991 13.0282 4.9082C13.0282 5.33324 13.1126 5.70431 13.2812 6.0214C13.4499 6.33175 13.6759 6.57125 13.9593 6.73992C14.2426 6.90184 14.5564 6.9828 14.9004 6.9828C15.2445 6.9828 15.5582 6.90184 15.8416 6.73992C16.1317 6.57125 16.3611 6.33175 16.5298 6.0214C16.6984 5.70431 16.7828 5.33661 16.7828 4.91832Z" fill="var(--fill-0, black)"/>
<path d="M19.5433 1.25488C19.3679 1.25488 19.2195 1.19416 19.098 1.07272C18.9766 0.95128 18.9159 0.802853 18.9159 0.62744C18.9159 0.452027 18.9766 0.3036 19.098 0.18216C19.2195 0.06072 19.3679 0 19.5433 0C19.712 0 19.8536 0.06072 19.9683 0.18216C20.0898 0.3036 20.1505 0.452027 20.1505 0.62744C20.1505 0.802853 20.0898 0.95128 19.9683 1.07272C19.8536 1.19416 19.712 1.25488 19.5433 1.25488ZM19.9886 2.15556V7.70132H19.0677V2.15556H19.9886Z" fill="var(--fill-0, black)"/>
<path d="M22.2766 0.21252V7.70132H21.3557V0.21252H22.2766Z" fill="var(--fill-0, black)"/>
<path d="M23.5021 4.9082C23.5021 4.34148 23.6168 3.8456 23.8462 3.42056C24.0756 2.98877 24.3893 2.65481 24.7874 2.41868C25.1922 2.18255 25.6408 2.06448 26.1333 2.06448C26.6191 2.06448 27.0407 2.16905 27.3983 2.3782C27.7559 2.58735 28.0224 2.85047 28.1978 3.16756V2.15556H29.1288V7.70132H28.1978V6.66908C28.0156 6.99292 27.7424 7.26279 27.3781 7.47868C27.0205 7.68783 26.6022 7.7924 26.1232 7.7924C25.6307 7.7924 25.1854 7.67096 24.7874 7.42808C24.3893 7.1852 24.0756 6.84449 23.8462 6.40596C23.6168 5.96743 23.5021 5.46817 23.5021 4.9082ZM28.1978 4.91832C28.1978 4.50003 28.1135 4.13571 27.9448 3.82536C27.7761 3.51501 27.5467 3.27888 27.2566 3.11696C26.9733 2.94829 26.6596 2.86396 26.3155 2.86396C25.9714 2.86396 25.6577 2.94492 25.3743 3.10684C25.091 3.26876 24.8649 3.50489 24.6963 3.81524C24.5276 4.12559 24.4433 4.48991 24.4433 4.9082C24.4433 5.33324 24.5276 5.70431 24.6963 6.0214C24.8649 6.33175 25.091 6.57125 25.3743 6.73992C25.6577 6.90184 25.9714 6.9828 26.3155 6.9828C26.6596 6.9828 26.9733 6.90184 27.2566 6.73992C27.5467 6.57125 27.7761 6.33175 27.9448 6.0214C28.1135 5.70431 28.1978 5.33661 28.1978 4.91832Z" fill="var(--fill-0, black)"/>
<path d="M31.7072 3.1878C31.8961 2.85721 32.1727 2.58735 32.5371 2.3782C32.9014 2.16905 33.3163 2.06448 33.7818 2.06448C34.2811 2.06448 34.7297 2.18255 35.1278 2.41868C35.5258 2.65481 35.8396 2.98877 36.0689 3.42056C36.2983 3.8456 36.413 4.34148 36.413 4.9082C36.413 5.46817 36.2983 5.96743 36.0689 6.40596C35.8396 6.84449 35.5225 7.1852 35.1177 7.42808C34.7196 7.67096 34.2743 7.7924 33.7818 7.7924C33.3028 7.7924 32.8811 7.68783 32.5168 7.47868C32.1592 7.26953 31.8894 7.00304 31.7072 6.6792V7.70132H30.7863V0.21252H31.7072V3.1878ZM35.4719 4.9082C35.4719 4.48991 35.3875 4.12559 35.2189 3.81524C35.0502 3.50489 34.8208 3.26876 34.5307 3.10684C34.2473 2.94492 33.9336 2.86396 33.5895 2.86396C33.2522 2.86396 32.9385 2.94829 32.6484 3.11696C32.365 3.27888 32.1356 3.51839 31.9602 3.83548C31.7916 4.14583 31.7072 4.50677 31.7072 4.91832C31.7072 5.33661 31.7916 5.70431 31.9602 6.0214C32.1356 6.33175 32.365 6.57125 32.6484 6.73992C32.9385 6.90184 33.2522 6.9828 33.5895 6.9828C33.9336 6.9828 34.2473 6.90184 34.5307 6.73992C34.8208 6.57125 35.0502 6.33175 35.2189 6.0214C35.3875 5.70431 35.4719 5.33324 35.4719 4.9082Z" fill="var(--fill-0, black)"/>
<path d="M38.5461 0.21252V7.70132H37.6252V0.21252H38.5461Z" fill="var(--fill-0, black)"/>
<path d="M45.2769 4.71592C45.2769 4.89133 45.2667 5.07687 45.2465 5.27252H40.814C40.8477 5.819 41.0332 6.24741 41.3706 6.55776C41.7146 6.86136 42.1296 7.01316 42.6153 7.01316C43.0134 7.01316 43.344 6.92208 43.6071 6.73992C43.8769 6.55101 44.0658 6.30139 44.1738 5.99104H45.1655C45.0171 6.52403 44.7203 6.95919 44.275 7.29652C43.8297 7.62711 43.2765 7.7924 42.6153 7.7924C42.0891 7.7924 41.6168 7.67433 41.1985 7.4382C40.787 7.20207 40.4631 6.86811 40.227 6.43632C39.9909 5.99779 39.8728 5.49179 39.8728 4.91832C39.8728 4.34485 39.9875 3.84223 40.2169 3.41044C40.4463 2.97865 40.7667 2.64807 41.1783 2.41868C41.5966 2.18255 42.0756 2.06448 42.6153 2.06448C43.1416 2.06448 43.6071 2.17917 44.0119 2.40856C44.4167 2.63795 44.727 2.95504 44.9429 3.35984C45.1655 3.75789 45.2769 4.20992 45.2769 4.71592ZM44.3256 4.52364C44.3256 4.17281 44.248 3.87259 44.0928 3.62296C43.9377 3.36659 43.7251 3.17431 43.4553 3.04612C43.1922 2.91119 42.8987 2.84372 42.5748 2.84372C42.1093 2.84372 41.7113 2.99215 41.3807 3.289C41.0568 3.58585 40.8713 3.9974 40.8241 4.52364H44.3256Z" fill="var(--fill-0, black)"/>
<path d="M51.8115 7.7924C51.292 7.7924 50.8198 7.67433 50.3947 7.4382C49.9764 7.20207 49.6459 6.86811 49.403 6.43632C49.1669 5.99779 49.0488 5.49179 49.0488 4.91832C49.0488 4.3516 49.1702 3.85235 49.4131 3.42056C49.6627 2.98203 50.0001 2.64807 50.4251 2.41868C50.8501 2.18255 51.3258 2.06448 51.852 2.06448C52.3783 2.06448 52.8539 2.18255 53.2789 2.41868C53.704 2.64807 54.0379 2.97865 54.2808 3.41044C54.5304 3.84223 54.6553 4.34485 54.6553 4.91832C54.6553 5.49179 54.5271 5.99779 54.2707 6.43632C54.0211 6.86811 53.6804 7.20207 53.2486 7.4382C52.8168 7.67433 52.3378 7.7924 51.8115 7.7924ZM51.8115 6.9828C52.1421 6.9828 52.4525 6.90521 52.7426 6.75004C53.0327 6.59487 53.2654 6.36211 53.4409 6.05176C53.623 5.74141 53.7141 5.3636 53.7141 4.91832C53.7141 4.47304 53.6264 4.09523 53.451 3.78488C53.2756 3.47453 53.0462 3.24515 52.7628 3.09672C52.4795 2.94155 52.1725 2.86396 51.8419 2.86396C51.5046 2.86396 51.1942 2.94155 50.9109 3.09672C50.6342 3.24515 50.4116 3.47453 50.2429 3.78488C50.0743 4.09523 49.9899 4.47304 49.9899 4.91832C49.9899 5.37035 50.0709 5.75153 50.2328 6.06188C50.4015 6.37223 50.6241 6.60499 50.9007 6.76016C51.1774 6.90859 51.481 6.9828 51.8115 6.9828Z" fill="var(--fill-0, black)"/>
<path d="M58.7705 2.05436C59.4452 2.05436 59.9917 2.26013 60.41 2.67168C60.8283 3.07648 61.0374 3.66344 61.0374 4.43256V7.70132H60.1266V4.56412C60.1266 4.01089 59.9883 3.58923 59.7117 3.29912C59.4351 3.00227 59.0573 2.85384 58.5783 2.85384C58.0925 2.85384 57.7046 3.00564 57.4145 3.30924C57.1311 3.61284 56.9894 4.05475 56.9894 4.63496V7.70132H56.0685V2.15556H56.9894V2.94492C57.1716 2.66156 57.4178 2.44229 57.7282 2.28712C58.0453 2.13195 58.3927 2.05436 58.7705 2.05436Z" fill="var(--fill-0, black)"/>
</g>
</svg>
