<svg preserveAspectRatio="none" width="100%" height="100%" overflow="visible" style="display: block;" viewBox="0 0 96.8715 88.0712" fill="none" xmlns="http://www.w3.org/2000/svg">
<g id="Dots">
<path id="Fill 1" fill-rule="evenodd" clip-rule="evenodd" d="M2.36842 15.4396C2.99132 15.4396 3.60237 15.1874 4.04289 14.7457C4.48461 14.3051 4.73684 13.6953 4.73684 13.0712C4.73684 12.4471 4.48461 11.8372 4.04289 11.3967C3.60237 10.955 2.99132 10.7028 2.36842 10.7028C1.74434 10.7028 1.13447 10.955 0.692763 11.3967C0.252237 11.8372 0 12.4471 0 13.0712C0 13.6953 0.252237 14.3051 0.692763 14.7457C1.13447 15.1874 1.74434 15.4396 2.36842 15.4396" fill="var(--fill-0, #C9FFFF)"/>
<path id="Fill 3" fill-rule="evenodd" clip-rule="evenodd" d="M28.4151 15.4396H28.427C29.7322 15.4396 30.7895 14.3786 30.7895 13.0712C30.7895 11.7638 29.7322 10.7028 28.427 10.7028H28.4151C27.111 10.7028 26.0526 11.7638 26.0526 13.0712C26.0526 14.3786 27.111 15.4396 28.4151 15.4396" fill="var(--fill-0, #C9FFFF)"/>
<path id="Fill 5" fill-rule="evenodd" clip-rule="evenodd" d="M15.7836 15.4396H15.7954C17.0995 15.4396 18.1579 14.3786 18.1579 13.0712C18.1579 11.7638 17.0995 10.7028 15.7954 10.7028H15.7836C14.4795 10.7028 13.4211 11.7638 13.4211 13.0712C13.4211 14.3786 14.4795 15.4396 15.7836 15.4396" fill="var(--fill-0, #C9FFFF)"/>
<path id="Fill 7" fill-rule="evenodd" clip-rule="evenodd" d="M41.8421 15.4396C42.465 15.4396 43.0761 15.1874 43.5166 14.7457C43.9583 14.3051 44.2105 13.6953 44.2105 13.0712C44.2105 12.4471 43.9583 11.8372 43.5166 11.3967C43.0761 10.955 42.465 10.7028 41.8421 10.7028C41.218 10.7028 40.6082 10.955 40.1664 11.3967C39.7259 11.8372 39.4737 12.4471 39.4737 13.0712C39.4737 13.6953 39.7259 14.3051 40.1664 14.7457C40.6082 15.1874 41.218 15.4396 41.8421 15.4396" fill="var(--fill-0, #C9FFFF)"/>
<path id="Fill 9" fill-rule="evenodd" clip-rule="evenodd" d="M55.2632 15.4396C55.8872 15.4396 56.4971 15.1874 56.9388 14.7457C57.3793 14.3051 57.6316 13.6953 57.6316 13.0712C57.6316 12.4471 57.3793 11.8372 56.9388 11.3967C56.4971 10.955 55.8872 10.7028 55.2632 10.7028C54.6403 10.7028 54.0292 10.955 53.5887 11.3967C53.147 11.8372 52.8947 12.4471 52.8947 13.0712C52.8947 13.6953 53.147 14.3051 53.5887 14.7457C54.0292 15.1874 54.6403 15.4396 55.2632 15.4396" fill="var(--fill-0, #C9FFFF)"/>
<path id="Fill 11" fill-rule="evenodd" clip-rule="evenodd" d="M81.3099 15.4396H81.3217C82.627 15.4396 83.6842 14.3786 83.6842 13.0712C83.6842 11.7638 82.627 10.7028 81.3217 10.7028H81.3099C80.0058 10.7028 78.9474 11.7638 78.9474 13.0712C78.9474 14.3786 80.0058 15.4396 81.3099 15.4396" fill="var(--fill-0, #C9FFFF)"/>
<path id="Fill 13" fill-rule="evenodd" clip-rule="evenodd" d="M67.8888 15.4396H67.9006C69.2048 15.4396 70.2632 14.3786 70.2632 13.0712C70.2632 11.7638 69.2048 10.7028 67.9006 10.7028H67.8888C66.5847 10.7028 65.5263 11.7638 65.5263 13.0712C65.5263 14.3786 66.5847 15.4396 67.8888 15.4396" fill="var(--fill-0, #C9FFFF)"/>
<g id="Group 17">
<mask id="mask0_10305_23654" style="mask-type:luminance" maskUnits="userSpaceOnUse" x="91" y="10" width="6" height="6">
<path id="Clip 16" fill-rule="evenodd" clip-rule="evenodd" d="M91.8191 10.5352H96.8715V15.5879H91.8191V10.5352Z" fill="var(--fill-0, white)"/>
</mask>
<g mask="url(#mask0_10305_23654)">
<path id="Fill 15" fill-rule="evenodd" clip-rule="evenodd" d="M94.3454 15.5879C95.0098 15.5879 95.6616 15.3188 96.1315 14.8476C96.6027 14.3777 96.8717 13.7272 96.8717 13.0615C96.8717 12.3959 96.6027 11.7453 96.1315 11.2754C95.6616 10.8043 95.0098 10.5352 94.3454 10.5352C93.6797 10.5352 93.0292 10.8043 92.558 11.2754C92.0881 11.7453 91.8191 12.3959 91.8191 13.0615C91.8191 13.7272 92.0881 14.3777 92.558 14.8476C93.0292 15.3188 93.6797 15.5879 94.3454 15.5879" fill="var(--fill-0, #C9FFFF)"/>
</g>
</g>
<path id="Fill 18" fill-rule="evenodd" clip-rule="evenodd" d="M2.36842 5.17645C2.99132 5.17645 3.60237 4.92421 4.04289 4.4825C4.48461 4.04198 4.73684 3.43092 4.73684 2.80803C4.73684 2.18395 4.48461 1.57408 4.04289 1.13237C3.60237 0.691844 2.99132 0.439607 2.36842 0.439607C1.74434 0.439607 1.13447 0.691844 0.692763 1.13237C0.252237 1.57408 0 2.18395 0 2.80803C0 3.43092 0.252237 4.04198 0.692763 4.4825C1.13447 4.92421 1.74434 5.17645 2.36842 5.17645" fill="var(--fill-0, #C9FFFF)"/>
<path id="Fill 20" fill-rule="evenodd" clip-rule="evenodd" d="M28.4151 5.17645H28.427C29.7322 5.17645 30.7895 4.1154 30.7895 2.80803C30.7895 1.50066 29.7322 0.439607 28.427 0.439607H28.4151C27.111 0.439607 26.0526 1.50066 26.0526 2.80803C26.0526 4.1154 27.111 5.17645 28.4151 5.17645" fill="var(--fill-0, #C9FFFF)"/>
<path id="Fill 22" fill-rule="evenodd" clip-rule="evenodd" d="M15.7836 5.17645H15.7954C17.0995 5.17645 18.1579 4.1154 18.1579 2.80803C18.1579 1.50066 17.0995 0.439607 15.7954 0.439607H15.7836C14.4795 0.439607 13.4211 1.50066 13.4211 2.80803C13.4211 4.1154 14.4795 5.17645 15.7836 5.17645" fill="var(--fill-0, #C9FFFF)"/>
<path id="Fill 24" fill-rule="evenodd" clip-rule="evenodd" d="M41.8421 5.17645C42.465 5.17645 43.0761 4.92421 43.5166 4.4825C43.9583 4.04198 44.2105 3.43092 44.2105 2.80803C44.2105 2.18395 43.9583 1.57408 43.5166 1.13237C43.0761 0.691844 42.465 0.439607 41.8421 0.439607C41.218 0.439607 40.6082 0.691844 40.1664 1.13237C39.7259 1.57408 39.4737 2.18395 39.4737 2.80803C39.4737 3.43092 39.7259 4.04198 40.1664 4.4825C40.6082 4.92421 41.218 5.17645 41.8421 5.17645" fill="var(--fill-0, #C9FFFF)"/>
<path id="Fill 26" fill-rule="evenodd" clip-rule="evenodd" d="M55.2632 5.17645C55.8872 5.17645 56.4971 4.92421 56.9388 4.4825C57.3793 4.04198 57.6316 3.43092 57.6316 2.80803C57.6316 2.18395 57.3793 1.57408 56.9388 1.13237C56.4971 0.691844 55.8872 0.439607 55.2632 0.439607C54.6403 0.439607 54.0292 0.691844 53.5887 1.13237C53.147 1.57408 52.8947 2.18395 52.8947 2.80803C52.8947 3.43092 53.147 4.04198 53.5887 4.4825C54.0292 4.92421 54.6403 5.17645 55.2632 5.17645" fill="var(--fill-0, #C9FFFF)"/>
<path id="Fill 28" fill-rule="evenodd" clip-rule="evenodd" d="M81.3099 5.17645H81.3217C82.627 5.17645 83.6842 4.1154 83.6842 2.80803C83.6842 1.50066 82.627 0.439607 81.3217 0.439607H81.3099C80.0058 0.439607 78.9474 1.50066 78.9474 2.80803C78.9474 4.1154 80.0058 5.17645 81.3099 5.17645" fill="var(--fill-0, #C9FFFF)"/>
<path id="Fill 30" fill-rule="evenodd" clip-rule="evenodd" d="M67.8888 5.17645H67.9006C69.2048 5.17645 70.2632 4.1154 70.2632 2.80803C70.2632 1.50066 69.2048 0.439607 67.9006 0.439607H67.8888C66.5847 0.439607 65.5263 1.50066 65.5263 2.80803C65.5263 4.1154 66.5847 5.17645 67.8888 5.17645" fill="var(--fill-0, #C9FFFF)"/>
<g id="Group 34">
<mask id="mask1_10305_23654" style="mask-type:luminance" maskUnits="userSpaceOnUse" x="91" y="0" width="6" height="6">
<path id="Clip 33" fill-rule="evenodd" clip-rule="evenodd" d="M91.8191 0H96.8715V5.05263H91.8191V0Z" fill="var(--fill-0, white)"/>
</mask>
<g mask="url(#mask1_10305_23654)">
<path id="Fill 32" fill-rule="evenodd" clip-rule="evenodd" d="M94.3454 5.05263C95.0098 5.05263 95.6616 4.78358 96.1315 4.31242C96.6027 3.84253 96.8717 3.19074 96.8717 2.52632C96.8717 1.86063 96.6027 1.21011 96.1315 0.738947C95.6616 0.269053 95.0098 0 94.3454 0C93.6797 0 93.0292 0.269053 92.558 0.738947C92.0881 1.21011 91.8191 1.86063 91.8191 2.52632C91.8191 3.19074 92.0881 3.84253 92.558 4.31242C93.0292 4.78358 93.6797 5.05263 94.3454 5.05263" fill="var(--fill-0, #C9FFFF)"/>
</g>
</g>
<path id="Fill 35" fill-rule="evenodd" clip-rule="evenodd" d="M2.36842 25.7028C2.99132 25.7028 3.60237 25.4505 4.04289 25.0088C4.48461 24.5683 4.73684 23.9584 4.73684 23.3343C4.73684 22.7114 4.48461 22.1004 4.04289 21.6599C3.60237 21.2182 2.99132 20.9659 2.36842 20.9659C1.74434 20.9659 1.13447 21.2182 0.692763 21.6599C0.252237 22.1004 0 22.7114 0 23.3343C0 23.9584 0.252237 24.5683 0.692763 25.0088C1.13447 25.4505 1.74434 25.7028 2.36842 25.7028" fill="var(--fill-0, #C9FFFF)"/>
<path id="Fill 37" fill-rule="evenodd" clip-rule="evenodd" d="M28.4151 25.7028H28.427C29.7322 25.7028 30.7895 24.6417 30.7895 23.3343C30.7895 22.027 29.7322 20.9659 28.427 20.9659H28.4151C27.111 20.9659 26.0526 22.027 26.0526 23.3343C26.0526 24.6417 27.111 25.7028 28.4151 25.7028" fill="var(--fill-0, #C9FFFF)"/>
<path id="Fill 39" fill-rule="evenodd" clip-rule="evenodd" d="M15.7836 25.7028H15.7954C17.0995 25.7028 18.1579 24.6417 18.1579 23.3343C18.1579 22.027 17.0995 20.9659 15.7954 20.9659H15.7836C14.4795 20.9659 13.4211 22.027 13.4211 23.3343C13.4211 24.6417 14.4795 25.7028 15.7836 25.7028" fill="var(--fill-0, #C9FFFF)"/>
<path id="Fill 41" fill-rule="evenodd" clip-rule="evenodd" d="M41.8421 25.7028C42.465 25.7028 43.0761 25.4505 43.5166 25.0088C43.9583 24.5683 44.2105 23.9584 44.2105 23.3343C44.2105 22.7114 43.9583 22.1004 43.5166 21.6599C43.0761 21.2182 42.465 20.9659 41.8421 20.9659C41.218 20.9659 40.6082 21.2182 40.1664 21.6599C39.7259 22.1004 39.4737 22.7114 39.4737 23.3343C39.4737 23.9584 39.7259 24.5683 40.1664 25.0088C40.6082 25.4505 41.218 25.7028 41.8421 25.7028" fill="var(--fill-0, #C9FFFF)"/>
<path id="Fill 43" fill-rule="evenodd" clip-rule="evenodd" d="M55.2632 25.7028C55.8872 25.7028 56.4971 25.4505 56.9388 25.0088C57.3793 24.5683 57.6316 23.9584 57.6316 23.3343C57.6316 22.7114 57.3793 22.1004 56.9388 21.6599C56.4971 21.2182 55.8872 20.9659 55.2632 20.9659C54.6403 20.9659 54.0292 21.2182 53.5887 21.6599C53.147 22.1004 52.8947 22.7114 52.8947 23.3343C52.8947 23.9584 53.147 24.5683 53.5887 25.0088C54.0292 25.4505 54.6403 25.7028 55.2632 25.7028" fill="var(--fill-0, #C9FFFF)"/>
<path id="Fill 45" fill-rule="evenodd" clip-rule="evenodd" d="M81.3099 25.7028H81.3217C82.627 25.7028 83.6842 24.6417 83.6842 23.3343C83.6842 22.027 82.627 20.9659 81.3217 20.9659H81.3099C80.0058 20.9659 78.9474 22.027 78.9474 23.3343C78.9474 24.6417 80.0058 25.7028 81.3099 25.7028" fill="var(--fill-0, #C9FFFF)"/>
<path id="Fill 47" fill-rule="evenodd" clip-rule="evenodd" d="M67.8888 25.7028H67.9006C69.2048 25.7028 70.2632 24.6417 70.2632 23.3343C70.2632 22.027 69.2048 20.9659 67.9006 20.9659H67.8888C66.5847 20.9659 65.5263 22.027 65.5263 23.3343C65.5263 24.6417 66.5847 25.7028 67.8888 25.7028" fill="var(--fill-0, #C9FFFF)"/>
<g id="Group 51">
<mask id="mask2_10305_23654" style="mask-type:luminance" maskUnits="userSpaceOnUse" x="91" y="21" width="6" height="6">
<path id="Clip 50" fill-rule="evenodd" clip-rule="evenodd" d="M91.8191 21.0703H96.8715V26.1229H91.8191V21.0703Z" fill="var(--fill-0, white)"/>
</mask>
<g mask="url(#mask2_10305_23654)">
<path id="Fill 49" fill-rule="evenodd" clip-rule="evenodd" d="M94.3454 26.1229C95.0098 26.1229 95.6616 25.8539 96.1315 25.3827C96.6027 24.9128 96.8717 24.2623 96.8717 23.5966C96.8717 22.9322 96.6027 22.2804 96.1315 21.8105C95.6616 21.3394 95.0098 21.0703 94.3454 21.0703C93.6797 21.0703 93.0292 21.3394 92.558 21.8105C92.0881 22.2804 91.8191 22.9322 91.8191 23.5966C91.8191 24.2623 92.0881 24.9128 92.558 25.3827C93.0292 25.8539 93.6797 26.1229 94.3454 26.1229" fill="var(--fill-0, #C9FFFF)"/>
</g>
</g>
<path id="Fill 52" fill-rule="evenodd" clip-rule="evenodd" d="M2.36842 35.9659C2.99132 35.9659 3.60237 35.7137 4.04289 35.272C4.48461 34.8314 4.73684 34.2216 4.73684 33.5975C4.73684 32.9734 4.48461 32.3636 4.04289 31.923C3.60237 31.4813 2.99132 31.2291 2.36842 31.2291C1.74434 31.2291 1.13447 31.4813 0.692763 31.923C0.252237 32.3636 0 32.9734 0 33.5975C0 34.2216 0.252237 34.8314 0.692763 35.272C1.13447 35.7137 1.74434 35.9659 2.36842 35.9659" fill="var(--fill-0, #C9FFFF)"/>
<path id="Fill 54" fill-rule="evenodd" clip-rule="evenodd" d="M28.4151 35.9659H28.427C29.7322 35.9659 30.7895 34.9049 30.7895 33.5975C30.7895 32.2901 29.7322 31.2291 28.427 31.2291H28.4151C27.111 31.2291 26.0526 32.2901 26.0526 33.5975C26.0526 34.9049 27.111 35.9659 28.4151 35.9659" fill="var(--fill-0, #C9FFFF)"/>
<path id="Fill 56" fill-rule="evenodd" clip-rule="evenodd" d="M15.7836 35.9659H15.7954C17.0995 35.9659 18.1579 34.9049 18.1579 33.5975C18.1579 32.2901 17.0995 31.2291 15.7954 31.2291H15.7836C14.4795 31.2291 13.4211 32.2901 13.4211 33.5975C13.4211 34.9049 14.4795 35.9659 15.7836 35.9659" fill="var(--fill-0, #C9FFFF)"/>
<path id="Fill 58" fill-rule="evenodd" clip-rule="evenodd" d="M41.8421 35.9659C42.465 35.9659 43.0761 35.7137 43.5166 35.272C43.9583 34.8314 44.2105 34.2216 44.2105 33.5975C44.2105 32.9734 43.9583 32.3636 43.5166 31.923C43.0761 31.4813 42.465 31.2291 41.8421 31.2291C41.218 31.2291 40.6082 31.4813 40.1664 31.923C39.7259 32.3636 39.4737 32.9734 39.4737 33.5975C39.4737 34.2216 39.7259 34.8314 40.1664 35.272C40.6082 35.7137 41.218 35.9659 41.8421 35.9659" fill="var(--fill-0, #C9FFFF)"/>
<path id="Fill 60" fill-rule="evenodd" clip-rule="evenodd" d="M55.2632 35.9659C55.8872 35.9659 56.4971 35.7137 56.9388 35.272C57.3793 34.8314 57.6316 34.2216 57.6316 33.5975C57.6316 32.9734 57.3793 32.3636 56.9388 31.923C56.4971 31.4813 55.8872 31.2291 55.2632 31.2291C54.6403 31.2291 54.0292 31.4813 53.5887 31.923C53.147 32.3636 52.8947 32.9734 52.8947 33.5975C52.8947 34.2216 53.147 34.8314 53.5887 35.272C54.0292 35.7137 54.6403 35.9659 55.2632 35.9659" fill="var(--fill-0, #C9FFFF)"/>
<path id="Fill 62" fill-rule="evenodd" clip-rule="evenodd" d="M81.3099 35.9659H81.3217C82.627 35.9659 83.6842 34.9049 83.6842 33.5975C83.6842 32.2901 82.627 31.2291 81.3217 31.2291H81.3099C80.0058 31.2291 78.9474 32.2901 78.9474 33.5975C78.9474 34.9049 80.0058 35.9659 81.3099 35.9659" fill="var(--fill-0, #C9FFFF)"/>
<path id="Fill 64" fill-rule="evenodd" clip-rule="evenodd" d="M67.8888 35.9659H67.9006C69.2048 35.9659 70.2632 34.9049 70.2632 33.5975C70.2632 32.2901 69.2048 31.2291 67.9006 31.2291H67.8888C66.5847 31.2291 65.5263 32.2901 65.5263 33.5975C65.5263 34.9049 66.5847 35.9659 67.8888 35.9659" fill="var(--fill-0, #C9FFFF)"/>
<g id="Group 68">
<mask id="mask3_10305_23654" style="mask-type:luminance" maskUnits="userSpaceOnUse" x="91" y="31" width="6" height="6">
<path id="Clip 67" fill-rule="evenodd" clip-rule="evenodd" d="M91.8191 31.6056H96.8715V36.6583H91.8191V31.6056Z" fill="var(--fill-0, white)"/>
</mask>
<g mask="url(#mask3_10305_23654)">
<path id="Fill 66" fill-rule="evenodd" clip-rule="evenodd" d="M94.3454 36.6583C95.0098 36.6583 95.6616 36.3892 96.1315 35.918C96.6027 35.4482 96.8717 34.7976 96.8717 34.1319C96.8717 33.4663 96.6027 32.8157 96.1315 32.3458C95.6616 31.8747 95.0098 31.6056 94.3454 31.6056C93.6797 31.6056 93.0292 31.8747 92.558 32.3458C92.0881 32.8157 91.8191 33.4663 91.8191 34.1319C91.8191 34.7976 92.0881 35.4482 92.558 35.918C93.0292 36.3892 93.6797 36.6583 94.3454 36.6583" fill="var(--fill-0, #C9FFFF)"/>
</g>
</g>
<path id="Fill 69" fill-rule="evenodd" clip-rule="evenodd" d="M2.36842 47.0186C2.99132 47.0186 3.60237 46.7663 4.04289 46.3246C4.48461 45.8841 4.73684 45.2742 4.73684 44.6501C4.73684 44.0272 4.48461 43.4162 4.04289 42.9757C3.60237 42.5339 2.99132 42.2817 2.36842 42.2817C1.74434 42.2817 1.13447 42.5339 0.692763 42.9757C0.252237 43.4162 0 44.0272 0 44.6501C0 45.2742 0.252237 45.8841 0.692763 46.3246C1.13447 46.7663 1.74434 47.0186 2.36842 47.0186" fill="var(--fill-0, #C9FFFF)"/>
<path id="Fill 71" fill-rule="evenodd" clip-rule="evenodd" d="M28.4151 47.0186H28.427C29.7322 47.0186 30.7895 45.9575 30.7895 44.6501C30.7895 43.3428 29.7322 42.2817 28.427 42.2817H28.4151C27.111 42.2817 26.0526 43.3428 26.0526 44.6501C26.0526 45.9575 27.111 47.0186 28.4151 47.0186" fill="var(--fill-0, #C9FFFF)"/>
<path id="Fill 73" fill-rule="evenodd" clip-rule="evenodd" d="M15.7836 47.0186H15.7954C17.0995 47.0186 18.1579 45.9575 18.1579 44.6501C18.1579 43.3428 17.0995 42.2817 15.7954 42.2817H15.7836C14.4795 42.2817 13.4211 43.3428 13.4211 44.6501C13.4211 45.9575 14.4795 47.0186 15.7836 47.0186" fill="var(--fill-0, #C9FFFF)"/>
<path id="Fill 75" fill-rule="evenodd" clip-rule="evenodd" d="M41.8421 47.0186C42.465 47.0186 43.0761 46.7663 43.5166 46.3246C43.9583 45.8841 44.2105 45.2742 44.2105 44.6501C44.2105 44.0272 43.9583 43.4162 43.5166 42.9757C43.0761 42.5339 42.465 42.2817 41.8421 42.2817C41.218 42.2817 40.6082 42.5339 40.1664 42.9757C39.7259 43.4162 39.4737 44.0272 39.4737 44.6501C39.4737 45.2742 39.7259 45.8841 40.1664 46.3246C40.6082 46.7663 41.218 47.0186 41.8421 47.0186" fill="var(--fill-0, #C9FFFF)"/>
<path id="Fill 77" fill-rule="evenodd" clip-rule="evenodd" d="M55.2632 47.0186C55.8872 47.0186 56.4971 46.7663 56.9388 46.3246C57.3793 45.8841 57.6316 45.2742 57.6316 44.6501C57.6316 44.0272 57.3793 43.4162 56.9388 42.9757C56.4971 42.5339 55.8872 42.2817 55.2632 42.2817C54.6403 42.2817 54.0292 42.5339 53.5887 42.9757C53.147 43.4162 52.8947 44.0272 52.8947 44.6501C52.8947 45.2742 53.147 45.8841 53.5887 46.3246C54.0292 46.7663 54.6403 47.0186 55.2632 47.0186" fill="var(--fill-0, #C9FFFF)"/>
<path id="Fill 79" fill-rule="evenodd" clip-rule="evenodd" d="M81.3099 47.0186H81.3217C82.627 47.0186 83.6842 45.9575 83.6842 44.6501C83.6842 43.3428 82.627 42.2817 81.3217 42.2817H81.3099C80.0058 42.2817 78.9474 43.3428 78.9474 44.6501C78.9474 45.9575 80.0058 47.0186 81.3099 47.0186" fill="var(--fill-0, #C9FFFF)"/>
<path id="Fill 81" fill-rule="evenodd" clip-rule="evenodd" d="M67.8888 47.0186H67.9006C69.2048 47.0186 70.2632 45.9575 70.2632 44.6501C70.2632 43.3428 69.2048 42.2817 67.9006 42.2817H67.8888C66.5847 42.2817 65.5263 43.3428 65.5263 44.6501C65.5263 45.9575 66.5847 47.0186 67.8888 47.0186" fill="var(--fill-0, #C9FFFF)"/>
<g id="Group 85">
<mask id="mask4_10305_23654" style="mask-type:luminance" maskUnits="userSpaceOnUse" x="91" y="41" width="6" height="6">
<path id="Clip 84" fill-rule="evenodd" clip-rule="evenodd" d="M91.8191 41.667H96.8715V46.7196H91.8191V41.667Z" fill="var(--fill-0, white)"/>
</mask>
<g mask="url(#mask4_10305_23654)">
<path id="Fill 83" fill-rule="evenodd" clip-rule="evenodd" d="M94.3454 46.7196C95.0098 46.7196 95.6616 46.4505 96.1315 45.9794C96.6027 45.5095 96.8717 44.859 96.8717 44.1933C96.8717 43.5288 96.6027 42.8771 96.1315 42.4072C95.6616 41.936 95.0098 41.667 94.3454 41.667C93.6797 41.667 93.0292 41.936 92.558 42.4072C92.0881 42.8771 91.8191 43.5288 91.8191 44.1933C91.8191 44.859 92.0881 45.5095 92.558 45.9794C93.0292 46.4505 93.6797 46.7196 94.3454 46.7196" fill="var(--fill-0, #C9FFFF)"/>
</g>
</g>
<path id="Fill 86" fill-rule="evenodd" clip-rule="evenodd" d="M2.36842 57.2817C2.99132 57.2817 3.60237 57.0295 4.04289 56.589C4.48461 56.1472 4.73684 55.5374 4.73684 54.9133C4.73684 54.2904 4.48461 53.6793 4.04289 53.2388C3.60237 52.7971 2.99132 52.5449 2.36842 52.5449C1.74434 52.5449 1.13447 52.7971 0.692763 53.2388C0.252237 53.6793 0 54.2904 0 54.9133C0 55.5374 0.252237 56.1472 0.692763 56.589C1.13447 57.0295 1.74434 57.2817 2.36842 57.2817" fill="var(--fill-0, #C9FFFF)"/>
<path id="Fill 88" fill-rule="evenodd" clip-rule="evenodd" d="M28.4151 57.2817H28.427C29.7322 57.2817 30.7895 56.2207 30.7895 54.9133C30.7895 53.6059 29.7322 52.5449 28.427 52.5449H28.4151C27.111 52.5449 26.0526 53.6059 26.0526 54.9133C26.0526 56.2207 27.111 57.2817 28.4151 57.2817" fill="var(--fill-0, #C9FFFF)"/>
<path id="Fill 90" fill-rule="evenodd" clip-rule="evenodd" d="M15.7836 57.2817H15.7954C17.0995 57.2817 18.1579 56.2207 18.1579 54.9133C18.1579 53.6059 17.0995 52.5449 15.7954 52.5449H15.7836C14.4795 52.5449 13.4211 53.6059 13.4211 54.9133C13.4211 56.2207 14.4795 57.2817 15.7836 57.2817" fill="var(--fill-0, #C9FFFF)"/>
<path id="Fill 92" fill-rule="evenodd" clip-rule="evenodd" d="M41.8421 57.2817C42.465 57.2817 43.0761 57.0295 43.5166 56.589C43.9583 56.1472 44.2105 55.5374 44.2105 54.9133C44.2105 54.2904 43.9583 53.6793 43.5166 53.2388C43.0761 52.7971 42.465 52.5449 41.8421 52.5449C41.218 52.5449 40.6082 52.7971 40.1664 53.2388C39.7259 53.6793 39.4737 54.2904 39.4737 54.9133C39.4737 55.5374 39.7259 56.1472 40.1664 56.589C40.6082 57.0295 41.218 57.2817 41.8421 57.2817" fill="var(--fill-0, #C9FFFF)"/>
<path id="Fill 94" fill-rule="evenodd" clip-rule="evenodd" d="M55.2632 57.2817C55.8872 57.2817 56.4971 57.0295 56.9388 56.589C57.3793 56.1472 57.6316 55.5374 57.6316 54.9133C57.6316 54.2904 57.3793 53.6793 56.9388 53.2388C56.4971 52.7971 55.8872 52.5449 55.2632 52.5449C54.6403 52.5449 54.0292 52.7971 53.5887 53.2388C53.147 53.6793 52.8947 54.2904 52.8947 54.9133C52.8947 55.5374 53.147 56.1472 53.5887 56.589C54.0292 57.0295 54.6403 57.2817 55.2632 57.2817" fill="var(--fill-0, #C9FFFF)"/>
<path id="Fill 96" fill-rule="evenodd" clip-rule="evenodd" d="M81.3099 57.2817H81.3217C82.627 57.2817 83.6842 56.2207 83.6842 54.9133C83.6842 53.6059 82.627 52.5449 81.3217 52.5449H81.3099C80.0058 52.5449 78.9474 53.6059 78.9474 54.9133C78.9474 56.2207 80.0058 57.2817 81.3099 57.2817" fill="var(--fill-0, #C9FFFF)"/>
<path id="Fill 98" fill-rule="evenodd" clip-rule="evenodd" d="M67.8888 57.2817H67.9006C69.2048 57.2817 70.2632 56.2207 70.2632 54.9133C70.2632 53.6059 69.2048 52.5449 67.9006 52.5449H67.8888C66.5847 52.5449 65.5263 53.6059 65.5263 54.9133C65.5263 56.2207 66.5847 57.2817 67.8888 57.2817" fill="var(--fill-0, #C9FFFF)"/>
<g id="Group 102">
<mask id="mask5_10305_23654" style="mask-type:luminance" maskUnits="userSpaceOnUse" x="91" y="52" width="6" height="6">
<path id="Clip 101" fill-rule="evenodd" clip-rule="evenodd" d="M91.8191 52.2023H96.8715V57.2549H91.8191V52.2023Z" fill="var(--fill-0, white)"/>
</mask>
<g mask="url(#mask5_10305_23654)">
<path id="Fill 100" fill-rule="evenodd" clip-rule="evenodd" d="M94.3454 57.2549C95.0098 57.2549 95.6616 56.9859 96.1315 56.516C96.6027 56.0448 96.8717 55.3943 96.8717 54.7286C96.8717 54.0642 96.6027 53.4124 96.1315 52.9425C95.6616 52.4713 95.0098 52.2023 94.3454 52.2023C93.6797 52.2023 93.0292 52.4713 92.558 52.9425C92.0881 53.4124 91.8191 54.0642 91.8191 54.7286C91.8191 55.3943 92.0881 56.0448 92.558 56.516C93.0292 56.9859 93.6797 57.2549 94.3454 57.2549" fill="var(--fill-0, #C9FFFF)"/>
</g>
</g>
<path id="Fill 103" fill-rule="evenodd" clip-rule="evenodd" d="M2.36842 67.5449C2.99132 67.5449 3.60237 67.2926 4.04289 66.8509C4.48461 66.4104 4.73684 65.8005 4.73684 65.1764C4.73684 64.5536 4.48461 63.9425 4.04289 63.502C3.60237 63.0603 2.99132 62.808 2.36842 62.808C1.74434 62.808 1.13447 63.0603 0.692763 63.502C0.252237 63.9425 0 64.5536 0 65.1764C0 65.8005 0.252237 66.4104 0.692763 66.8509C1.13447 67.2926 1.74434 67.5449 2.36842 67.5449" fill="var(--fill-0, #C9FFFF)"/>
<path id="Fill 105" fill-rule="evenodd" clip-rule="evenodd" d="M28.4151 67.5449H28.427C29.7322 67.5449 30.7895 66.4838 30.7895 65.1764C30.7895 63.8691 29.7322 62.808 28.427 62.808H28.4151C27.111 62.808 26.0526 63.8691 26.0526 65.1764C26.0526 66.4838 27.111 67.5449 28.4151 67.5449" fill="var(--fill-0, #C9FFFF)"/>
<path id="Fill 107" fill-rule="evenodd" clip-rule="evenodd" d="M15.7836 67.5449H15.7954C17.0995 67.5449 18.1579 66.4838 18.1579 65.1764C18.1579 63.8691 17.0995 62.808 15.7954 62.808H15.7836C14.4795 62.808 13.4211 63.8691 13.4211 65.1764C13.4211 66.4838 14.4795 67.5449 15.7836 67.5449" fill="var(--fill-0, #C9FFFF)"/>
<path id="Fill 109" fill-rule="evenodd" clip-rule="evenodd" d="M41.8421 67.5449C42.465 67.5449 43.0761 67.2926 43.5166 66.8509C43.9583 66.4104 44.2105 65.8005 44.2105 65.1764C44.2105 64.5536 43.9583 63.9425 43.5166 63.502C43.0761 63.0603 42.465 62.808 41.8421 62.808C41.218 62.808 40.6082 63.0603 40.1664 63.502C39.7259 63.9425 39.4737 64.5536 39.4737 65.1764C39.4737 65.8005 39.7259 66.4104 40.1664 66.8509C40.6082 67.2926 41.218 67.5449 41.8421 67.5449" fill="var(--fill-0, #C9FFFF)"/>
<path id="Fill 111" fill-rule="evenodd" clip-rule="evenodd" d="M55.2632 67.5449C55.8872 67.5449 56.4971 67.2926 56.9388 66.8509C57.3793 66.4104 57.6316 65.8005 57.6316 65.1764C57.6316 64.5536 57.3793 63.9425 56.9388 63.502C56.4971 63.0603 55.8872 62.808 55.2632 62.808C54.6403 62.808 54.0292 63.0603 53.5887 63.502C53.147 63.9425 52.8947 64.5536 52.8947 65.1764C52.8947 65.8005 53.147 66.4104 53.5887 66.8509C54.0292 67.2926 54.6403 67.5449 55.2632 67.5449" fill="var(--fill-0, #C9FFFF)"/>
<path id="Fill 113" fill-rule="evenodd" clip-rule="evenodd" d="M81.3099 67.5449H81.3217C82.627 67.5449 83.6842 66.4838 83.6842 65.1764C83.6842 63.8691 82.627 62.808 81.3217 62.808H81.3099C80.0058 62.808 78.9474 63.8691 78.9474 65.1764C78.9474 66.4838 80.0058 67.5449 81.3099 67.5449" fill="var(--fill-0, #C9FFFF)"/>
<path id="Fill 115" fill-rule="evenodd" clip-rule="evenodd" d="M67.8888 67.5449H67.9006C69.2048 67.5449 70.2632 66.4838 70.2632 65.1764C70.2632 63.8691 69.2048 62.808 67.9006 62.808H67.8888C66.5847 62.808 65.5263 63.8691 65.5263 65.1764C65.5263 66.4838 66.5847 67.5449 67.8888 67.5449" fill="var(--fill-0, #C9FFFF)"/>
<g id="Group 119">
<mask id="mask6_10305_23654" style="mask-type:luminance" maskUnits="userSpaceOnUse" x="91" y="62" width="6" height="6">
<path id="Clip 118" fill-rule="evenodd" clip-rule="evenodd" d="M91.8191 62.7374H96.8715V67.79H91.8191V62.7374Z" fill="var(--fill-0, white)"/>
</mask>
<g mask="url(#mask6_10305_23654)">
<path id="Fill 117" fill-rule="evenodd" clip-rule="evenodd" d="M94.3454 67.79C95.0098 67.79 95.6616 67.5209 96.1315 67.0498C96.6027 66.5799 96.8717 65.9294 96.8717 65.2637C96.8717 64.5993 96.6027 63.9475 96.1315 63.4776C95.6616 63.0064 95.0098 62.7374 94.3454 62.7374C93.6797 62.7374 93.0292 63.0064 92.558 63.4776C92.0881 63.9475 91.8191 64.5993 91.8191 65.2637C91.8191 65.9294 92.0881 66.5799 92.558 67.0498C93.0292 67.5209 93.6797 67.79 94.3454 67.79" fill="var(--fill-0, #C9FFFF)"/>
</g>
</g>
<path id="Fill 120" fill-rule="evenodd" clip-rule="evenodd" d="M2.36842 77.808C2.99132 77.808 3.60237 77.5558 4.04289 77.1153C4.48461 76.6736 4.73684 76.0637 4.73684 75.4396C4.73684 74.8167 4.48461 74.2057 4.04289 73.7651C3.60237 73.3234 2.99132 73.0712 2.36842 73.0712C1.74434 73.0712 1.13447 73.3234 0.692763 73.7651C0.252237 74.2057 0 74.8167 0 75.4396C0 76.0637 0.252237 76.6736 0.692763 77.1153C1.13447 77.5558 1.74434 77.808 2.36842 77.808" fill="var(--fill-0, #C9FFFF)"/>
<path id="Fill 122" fill-rule="evenodd" clip-rule="evenodd" d="M28.4151 77.808H28.427C29.7322 77.808 30.7895 76.7482 30.7895 75.4396C30.7895 74.1322 29.7322 73.0712 28.427 73.0712H28.4151C27.111 73.0712 26.0526 74.1322 26.0526 75.4396C26.0526 76.7482 27.111 77.808 28.4151 77.808" fill="var(--fill-0, #C9FFFF)"/>
<path id="Fill 124" fill-rule="evenodd" clip-rule="evenodd" d="M15.7836 77.808H15.7954C17.0995 77.808 18.1579 76.7482 18.1579 75.4396C18.1579 74.1322 17.0995 73.0712 15.7954 73.0712H15.7836C14.4795 73.0712 13.4211 74.1322 13.4211 75.4396C13.4211 76.7482 14.4795 77.808 15.7836 77.808" fill="var(--fill-0, #C9FFFF)"/>
<path id="Fill 126" fill-rule="evenodd" clip-rule="evenodd" d="M41.8421 77.808C42.465 77.808 43.0761 77.5558 43.5166 77.1153C43.9583 76.6736 44.2105 76.0637 44.2105 75.4396C44.2105 74.8167 43.9583 74.2057 43.5166 73.7651C43.0761 73.3234 42.465 73.0712 41.8421 73.0712C41.218 73.0712 40.6082 73.3234 40.1664 73.7651C39.7259 74.2057 39.4737 74.8167 39.4737 75.4396C39.4737 76.0637 39.7259 76.6736 40.1664 77.1153C40.6082 77.5558 41.218 77.808 41.8421 77.808" fill="var(--fill-0, #C9FFFF)"/>
<path id="Fill 128" fill-rule="evenodd" clip-rule="evenodd" d="M55.2632 77.808C55.8872 77.808 56.4971 77.5558 56.9388 77.1153C57.3793 76.6736 57.6316 76.0637 57.6316 75.4396C57.6316 74.8167 57.3793 74.2057 56.9388 73.7651C56.4971 73.3234 55.8872 73.0712 55.2632 73.0712C54.6403 73.0712 54.0292 73.3234 53.5887 73.7651C53.147 74.2057 52.8947 74.8167 52.8947 75.4396C52.8947 76.0637 53.147 76.6736 53.5887 77.1153C54.0292 77.5558 54.6403 77.808 55.2632 77.808" fill="var(--fill-0, #C9FFFF)"/>
<path id="Fill 130" fill-rule="evenodd" clip-rule="evenodd" d="M81.3099 77.808H81.3217C82.627 77.808 83.6842 76.7482 83.6842 75.4396C83.6842 74.1322 82.627 73.0712 81.3217 73.0712H81.3099C80.0058 73.0712 78.9474 74.1322 78.9474 75.4396C78.9474 76.7482 80.0058 77.808 81.3099 77.808" fill="var(--fill-0, #C9FFFF)"/>
<path id="Fill 132" fill-rule="evenodd" clip-rule="evenodd" d="M67.8888 77.808H67.9006C69.2048 77.808 70.2632 76.7482 70.2632 75.4396C70.2632 74.1322 69.2048 73.0712 67.9006 73.0712H67.8888C66.5847 73.0712 65.5263 74.1322 65.5263 75.4396C65.5263 76.7482 66.5847 77.808 67.8888 77.808" fill="var(--fill-0, #C9FFFF)"/>
<g id="Group 136">
<mask id="mask7_10305_23654" style="mask-type:luminance" maskUnits="userSpaceOnUse" x="91" y="73" width="6" height="6">
<path id="Clip 135" fill-rule="evenodd" clip-rule="evenodd" d="M91.8191 73.2726H96.8715V78.3252H91.8191V73.2726Z" fill="var(--fill-0, white)"/>
</mask>
<g mask="url(#mask7_10305_23654)">
<path id="Fill 134" fill-rule="evenodd" clip-rule="evenodd" d="M94.3454 78.3252C95.0098 78.3252 95.6616 78.0562 96.1315 77.5863C96.6027 77.1151 96.8717 76.4646 96.8717 75.7989C96.8717 75.1345 96.6027 74.4827 96.1315 74.0128C95.6616 73.5416 95.0098 73.2726 94.3454 73.2726C93.6797 73.2726 93.0292 73.5416 92.558 74.0128C92.0881 74.4827 91.8191 75.1345 91.8191 75.7989C91.8191 76.4646 92.0881 77.1151 92.558 77.5863C93.0292 78.0562 93.6797 78.3252 94.3454 78.3252" fill="var(--fill-0, #C9FFFF)"/>
</g>
</g>
<g id="Group 139">
<mask id="mask8_10305_23654" style="mask-type:luminance" maskUnits="userSpaceOnUse" x="0" y="83" width="5" height="6">
<path id="Clip 138" fill-rule="evenodd" clip-rule="evenodd" d="M0.000271382 83.3346H4.73711V88.0712H0.000271382V83.3346Z" fill="var(--fill-0, white)"/>
</mask>
<g mask="url(#mask8_10305_23654)">
<path id="Fill 137" fill-rule="evenodd" clip-rule="evenodd" d="M2.36869 88.0714C2.99159 88.0714 3.60264 87.8192 4.04317 87.3775C4.48488 86.9369 4.73711 86.3259 4.73711 85.703C4.73711 85.0789 4.48488 84.469 4.04317 84.0273C3.60264 83.5868 2.99159 83.3346 2.36869 83.3346C1.74461 83.3346 1.13475 83.5868 0.693035 84.0273C0.252508 84.469 0.000271382 85.0789 0.000271382 85.703C0.000271382 86.3259 0.252508 86.9369 0.693035 87.3775C1.13475 87.8192 1.74461 88.0714 2.36869 88.0714" fill="var(--fill-0, #C9FFFF)"/>
</g>
</g>
<g id="Group 142">
<mask id="mask9_10305_23654" style="mask-type:luminance" maskUnits="userSpaceOnUse" x="26" y="83" width="6" height="6">
<path id="Clip 141" fill-rule="evenodd" clip-rule="evenodd" d="M26.0465 83.3344H31.1117V88.071H26.0465V83.3344Z" fill="var(--fill-0, white)"/>
</mask>
<g mask="url(#mask9_10305_23654)">
<path id="Fill 140" fill-rule="evenodd" clip-rule="evenodd" d="M28.5728 88.0713H28.5854C29.9812 88.0713 31.1117 87.0102 31.1117 85.7029C31.1117 84.3943 29.9812 83.3344 28.5854 83.3344H28.5728C27.1783 83.3344 26.0465 84.3943 26.0465 85.7029C26.0465 87.0102 27.1783 88.0713 28.5728 88.0713" fill="var(--fill-0, #C9FFFF)"/>
</g>
</g>
<g id="Group 145">
<mask id="mask10_10305_23654" style="mask-type:luminance" maskUnits="userSpaceOnUse" x="13" y="83" width="6" height="6">
<path id="Clip 144" fill-rule="evenodd" clip-rule="evenodd" d="M13.0212 83.3344H18.0864V88.071H13.0212V83.3344Z" fill="var(--fill-0, white)"/>
</mask>
<g mask="url(#mask10_10305_23654)">
<path id="Fill 143" fill-rule="evenodd" clip-rule="evenodd" d="M15.5475 88.0713H15.5601C16.9547 88.0713 18.0864 87.0102 18.0864 85.7029C18.0864 84.3943 16.9547 83.3344 15.5601 83.3344H15.5475C14.153 83.3344 13.0212 84.3943 13.0212 85.7029C13.0212 87.0102 14.153 88.0713 15.5475 88.0713" fill="var(--fill-0, #C9FFFF)"/>
</g>
</g>
<g id="Group 148">
<mask id="mask11_10305_23654" style="mask-type:luminance" maskUnits="userSpaceOnUse" x="39" y="83" width="6" height="6">
<path id="Clip 147" fill-rule="evenodd" clip-rule="evenodd" d="M39.0802 83.3344H44.1328V88.071H39.0802V83.3344Z" fill="var(--fill-0, white)"/>
</mask>
<g mask="url(#mask11_10305_23654)">
<path id="Fill 146" fill-rule="evenodd" clip-rule="evenodd" d="M41.6065 88.0713C42.2709 88.0713 42.9227 87.819 43.3926 87.3773C43.8638 86.9368 44.1328 86.3258 44.1328 85.7029C44.1328 85.0788 43.8638 84.4689 43.3926 84.0272C42.9227 83.5867 42.2709 83.3344 41.6065 83.3344C40.9408 83.3344 40.2903 83.5867 39.8191 84.0272C39.3492 84.4689 39.0802 85.0788 39.0802 85.7029C39.0802 86.3258 39.3492 86.9368 39.8191 87.3773C40.2903 87.819 40.9408 88.0713 41.6065 88.0713" fill="var(--fill-0, #C9FFFF)"/>
</g>
</g>
<g id="Group 151">
<mask id="mask12_10305_23654" style="mask-type:luminance" maskUnits="userSpaceOnUse" x="52" y="83" width="6" height="6">
<path id="Clip 150" fill-rule="evenodd" clip-rule="evenodd" d="M52.4243 83.3344H57.477V88.071H52.4243V83.3344Z" fill="var(--fill-0, white)"/>
</mask>
<g mask="url(#mask12_10305_23654)">
<path id="Fill 149" fill-rule="evenodd" clip-rule="evenodd" d="M54.9507 88.0713C55.6163 88.0713 56.2669 87.819 56.738 87.3773C57.2079 86.9368 57.477 86.3258 57.477 85.7029C57.477 85.0788 57.2079 84.4689 56.738 84.0272C56.2669 83.5867 55.6163 83.3344 54.9507 83.3344C54.2862 83.3344 53.6344 83.5867 53.1646 84.0272C52.6934 84.4689 52.4243 85.0788 52.4243 85.7029C52.4243 86.3258 52.6934 86.9368 53.1646 87.3773C53.6344 87.819 54.2862 88.0713 54.9507 88.0713" fill="var(--fill-0, #C9FFFF)"/>
</g>
</g>
<g id="Group 154">
<mask id="mask13_10305_23654" style="mask-type:luminance" maskUnits="userSpaceOnUse" x="78" y="83" width="6" height="6">
<path id="Clip 153" fill-rule="evenodd" clip-rule="evenodd" d="M78.4704 83.3344H83.5357V88.071H78.4704V83.3344Z" fill="var(--fill-0, white)"/>
</mask>
<g mask="url(#mask13_10305_23654)">
<path id="Fill 152" fill-rule="evenodd" clip-rule="evenodd" d="M80.9967 88.0713H81.0093C82.4051 88.0713 83.5357 87.0102 83.5357 85.7029C83.5357 84.3943 82.4051 83.3344 81.0093 83.3344H80.9967C79.6022 83.3344 78.4704 84.3943 78.4704 85.7029C78.4704 87.0102 79.6022 88.0713 80.9967 88.0713" fill="var(--fill-0, #C9FFFF)"/>
</g>
</g>
<g id="Group 157">
<mask id="mask14_10305_23654" style="mask-type:luminance" maskUnits="userSpaceOnUse" x="65" y="83" width="6" height="6">
<path id="Clip 156" fill-rule="evenodd" clip-rule="evenodd" d="M65.4412 83.3344H70.5065V88.071H65.4412V83.3344Z" fill="var(--fill-0, white)"/>
</mask>
<g mask="url(#mask14_10305_23654)">
<path id="Fill 155" fill-rule="evenodd" clip-rule="evenodd" d="M67.9675 88.0713H67.9801C69.3747 88.0713 70.5065 87.0102 70.5065 85.7029C70.5065 84.3943 69.3747 83.3344 67.9801 83.3344H67.9675C66.573 83.3344 65.4412 84.3943 65.4412 85.7029C65.4412 87.0102 66.573 88.0713 67.9675 88.0713" fill="var(--fill-0, #C9FFFF)"/>
</g>
</g>
<g id="Group 160">
<mask id="mask15_10305_23654" style="mask-type:luminance" maskUnits="userSpaceOnUse" x="91" y="83" width="6" height="6">
<path id="Clip 159" fill-rule="evenodd" clip-rule="evenodd" d="M91.8191 83.3344H96.8715V88.071H91.8191V83.3344Z" fill="var(--fill-0, white)"/>
</mask>
<g mask="url(#mask15_10305_23654)">
<path id="Fill 158" fill-rule="evenodd" clip-rule="evenodd" d="M94.3454 88.0713C95.0098 88.0713 95.6616 87.819 96.1315 87.3773C96.6027 86.9368 96.8717 86.3258 96.8717 85.7029C96.8717 85.0788 96.6027 84.4689 96.1315 84.0272C95.6616 83.5867 95.0098 83.3344 94.3454 83.3344C93.6797 83.3344 93.0292 83.5867 92.558 84.0272C92.0881 84.4689 91.8191 85.0788 91.8191 85.7029C91.8191 86.3258 92.0881 86.9368 92.558 87.3773C93.0292 87.819 93.6797 88.0713 94.3454 88.0713" fill="var(--fill-0, #C9FFFF)"/>
</g>
</g>
</g>
</svg>
