<svg preserveAspectRatio="none" width="100%" height="100%" overflow="visible" style="display: block;" viewBox="0 0 24 24" fill="none" xmlns="http://www.w3.org/2000/svg">
<g id="streamline-ultimate:warehouse-cart-packages-2-bold" clip-path="url(#clip0_10308_23769)">
<path id="Vector" d="M13.641 21.162C13.641 22.605 15.204 23.507 16.454 22.786C17.034 22.451 17.392 21.831 17.392 21.161C17.392 19.718 15.829 18.816 14.579 19.537C13.999 19.873 13.641 20.492 13.641 21.162ZM3.327 21.162C3.327 22.605 4.89 23.507 6.14 22.786C6.72 22.451 7.078 21.831 7.078 21.161C7.078 19.718 5.515 18.816 4.265 19.537C3.685 19.873 3.327 20.492 3.327 21.162ZM20.293 17.157C20.2425 17.6137 20.0251 18.0358 19.6826 18.3421C19.3401 18.6485 18.8965 18.8176 18.437 18.817H1.022C0.801634 18.7717 0.603649 18.6518 0.461481 18.4774C0.319312 18.303 0.241672 18.085 0.241672 17.86C0.241672 17.635 0.319312 17.417 0.461481 17.2426C0.603649 17.0682 0.801634 16.9483 1.022 16.903H17.626C17.8614 16.9051 18.0896 16.8223 18.269 16.6699C18.4484 16.5175 18.567 16.3056 18.603 16.073L20.117 2.663C20.1677 2.20634 20.3851 1.78445 20.7276 1.47814C21.0701 1.17184 21.5135 1.00265 21.973 1.003H22.51C22.6557 0.960273 22.8093 0.952076 22.9587 0.979059C23.108 1.00604 23.2491 1.06746 23.3706 1.15845C23.4921 1.24944 23.5907 1.36749 23.6587 1.50324C23.7266 1.63899 23.762 1.7887 23.762 1.9405C23.762 2.0923 23.7266 2.24201 23.6587 2.37776C23.5907 2.51351 23.4921 2.63156 23.3706 2.72255C23.2491 2.81354 23.108 2.87496 22.9587 2.90194C22.8093 2.92892 22.6557 2.92073 22.51 2.878H22.148C22.0907 2.87756 22.0351 2.89819 21.992 2.93598C21.9489 2.97377 21.9211 3.02609 21.914 3.083L20.293 17.157Z" fill="var(--fill-0, white)"/>
<path id="Vector_2" d="M1.92 11.785H8.484C8.484 11.785 9.422 11.785 9.422 12.723V14.598C9.422 14.598 9.422 15.536 8.484 15.536H1.921C1.921 15.536 0.983 15.536 0.983 14.598V12.723C0.983 12.723 0.983 11.785 1.921 11.785M4.734 7.566H8.484C8.484 7.566 9.422 7.566 9.422 8.503V9.441C9.422 9.441 9.422 10.379 8.484 10.379H4.734C4.734 10.379 3.796 10.379 3.796 9.441V8.503C3.796 8.503 3.796 7.566 4.734 7.566ZM11.766 5.222H16.454C16.454 5.222 17.392 5.222 17.392 6.159V14.599C17.392 14.599 17.392 15.536 16.454 15.536H11.766C11.766 15.536 10.828 15.536 10.828 14.598V6.16C10.828 6.16 10.828 5.222 11.766 5.222Z" fill="var(--fill-0, white)"/>
</g>
<defs>
<clipPath id="clip0_10308_23769">
<rect width="24" height="24" fill="white"/>
</clipPath>
</defs>
</svg>
