<svg preserveAspectRatio="none" width="100%" height="100%" overflow="visible" style="display: block;" viewBox="0 0 1027.68 1208.58" fill="none" xmlns="http://www.w3.org/2000/svg">
<g id="Group 1321314364">
<path id="Vector 1685" d="M829.612 195.422C805.803 226.904 747.043 291.139 702.478 296.221C646.772 302.574 582.388 402.732 566.723 428.605C551.057 454.478 414.791 667.297 245.624 702.925C76.4576 738.553 108.216 721.502 42.2095 785.732" stroke="url(#paint0_linear_10302_23555)"/>
<path id="Vector 1686" d="M840.019 207.527C816.21 239.009 757.45 303.245 712.886 308.327C657.18 314.68 592.796 414.838 577.13 440.711C561.464 466.584 425.198 679.403 256.031 715.031C86.8648 750.659 118.623 733.607 52.6167 797.838" stroke="url(#paint1_linear_10302_23555)"/>
<path id="Vector 1687" d="M850.426 219.636C826.617 251.119 767.857 315.354 723.293 320.436C667.587 326.789 603.203 426.947 587.537 452.82C571.871 478.693 435.605 691.512 266.438 727.14C97.2718 762.768 129.03 745.717 63.0237 809.947" stroke="url(#paint2_linear_10302_23555)"/>
<path id="Vector 1688" d="M860.833 231.746C837.024 263.228 778.264 327.463 733.7 332.546C677.994 338.898 613.61 439.056 597.944 464.929C582.278 490.802 446.012 703.622 276.845 739.25C107.679 774.878 139.437 757.826 73.4307 822.056" stroke="url(#paint3_linear_10302_23555)"/>
<path id="Vector 1689" d="M871.24 243.851C847.431 275.334 788.672 339.569 744.107 344.651C688.401 351.004 624.017 451.162 608.351 477.035C592.686 502.908 456.419 715.727 287.253 751.355C118.086 786.983 149.845 769.932 83.8379 834.162" stroke="url(#paint4_linear_10302_23555)"/>
<path id="Vector 1690" d="M881.647 255.961C857.838 287.443 799.079 351.678 754.514 356.76C698.808 363.113 634.424 463.271 618.758 489.144C603.093 515.017 466.826 727.836 297.66 763.464C128.493 799.092 160.252 782.041 94.2451 846.271" stroke="url(#paint5_linear_10302_23555)"/>
<path id="Vector 1691" d="M892.054 268.068C868.245 299.55 809.486 363.786 764.921 368.868C709.215 375.221 644.831 475.379 629.165 501.252C613.5 527.125 477.233 739.944 308.067 775.572C138.9 811.2 170.659 794.148 104.652 858.379" stroke="url(#paint6_linear_10302_23555)"/>
<path id="Vector 1692" d="M902.453 280.177C878.644 311.66 819.884 375.895 775.32 380.977C719.614 387.33 655.23 487.488 639.564 513.361C623.899 539.234 487.632 752.053 318.465 787.681C149.299 823.309 181.058 806.258 115.051 870.488" stroke="url(#paint7_linear_10302_23555)"/>
<path id="Vector 1693" d="M912.86 292.287C889.051 323.769 830.291 388.004 785.727 393.087C730.021 399.439 665.637 499.597 649.971 525.47C634.306 551.343 498.039 764.163 328.872 799.791C159.706 835.419 191.464 818.367 125.458 882.597" stroke="url(#paint8_linear_10302_23555)"/>
<path id="Vector 1694" d="M923.267 304.394C899.458 335.877 840.698 400.112 796.134 405.194C740.428 411.547 676.044 511.705 660.378 537.578C644.713 563.451 508.446 776.27 339.279 811.898C170.113 847.526 201.871 830.475 135.865 894.705" stroke="url(#paint9_linear_10302_23555)"/>
<path id="Vector 1695" d="M933.674 316.504C909.865 347.986 851.106 412.221 806.541 417.303C750.835 423.656 686.451 523.814 670.785 549.687C655.12 575.56 518.853 788.379 349.687 824.007C180.52 859.635 212.279 842.584 146.272 906.814" stroke="url(#paint10_linear_10302_23555)"/>
<path id="Vector 1696" d="M944.081 328.611C920.272 360.093 861.513 424.329 816.948 429.411C761.242 435.764 696.858 535.922 681.192 561.795C665.527 587.668 529.26 800.487 360.094 836.115C190.927 871.743 222.686 854.691 156.679 918.922" stroke="url(#paint11_linear_10302_23555)"/>
<path id="Vector 1697" d="M954.488 340.717C930.679 372.199 871.92 436.434 827.355 441.516C771.649 447.869 707.265 548.027 691.599 573.9C675.934 599.773 539.667 812.592 370.501 848.22C201.334 883.848 233.093 866.797 167.086 931.027" stroke="var(--stroke-0, #55DFDF)"/>
<path id="Vector 1698" d="M964.896 352.828C941.086 384.31 882.327 448.545 837.762 453.628C782.056 459.98 717.672 560.138 702.007 586.011C686.341 611.884 550.074 824.704 380.908 860.332C211.741 895.96 243.5 878.908 177.493 943.138" stroke="var(--stroke-0, #55DFDF)"/>
<path id="Vector 1699" d="M975.303 364.935C951.493 396.418 892.734 460.653 848.169 465.735C792.463 472.088 728.079 572.246 712.414 598.119C696.748 623.992 560.481 836.811 391.315 872.439C222.148 908.067 253.907 891.016 187.9 955.246" stroke="var(--stroke-0, #55DFDF)"/>
<path id="Vector 1700" d="M985.709 377.043C961.9 408.525 903.141 472.76 858.576 477.842C802.87 484.195 738.486 584.353 722.82 610.226C707.155 636.099 570.888 848.919 401.722 884.546C232.555 920.174 264.314 903.123 198.307 967.353" stroke="var(--stroke-0, #55DFDF)"/>
<path id="Vector 1701" d="M996.117 389.152C972.308 420.634 913.548 484.87 868.983 489.952C813.277 496.305 748.893 596.463 733.228 622.336C717.562 648.209 581.296 861.028 412.129 896.656C242.963 932.284 274.721 915.232 208.714 979.463" stroke="var(--stroke-0, #55DFDF)"/>
<path id="Vector 1702" d="M1006.52 401.261C982.706 432.744 923.947 496.979 879.382 502.061C823.676 508.414 759.292 608.572 743.626 634.445C727.961 660.318 591.694 873.137 422.527 908.765C253.361 944.393 285.12 927.342 219.113 991.572" stroke="var(--stroke-0, #55DFDF)"/>
<path id="Vector 1703" d="M1016.92 413.371C993.113 444.853 934.354 509.088 889.789 514.171C834.083 520.523 769.699 620.681 754.033 646.554C738.368 672.427 602.101 885.247 432.935 920.875C263.768 956.503 295.527 939.451 229.52 1003.68" stroke="var(--stroke-0, #55DFDF)"/>
<path id="Vector 1704" d="M1027.33 425.478C1003.52 456.961 944.761 521.196 900.196 526.278C844.49 532.631 780.106 632.789 764.44 658.662C748.775 684.535 612.508 897.354 443.342 932.982C274.175 968.61 305.934 951.559 239.927 1015.79" stroke="var(--stroke-0, #55DFDF)"/>
<path id="Vector 1685_2" d="M205.655 1024.11C228.397 991.847 284.975 925.682 329.344 919.111C384.807 910.898 445.803 808.642 460.594 782.259C475.386 755.877 604.455 538.617 772.335 497.349C940.215 456.081 909.044 474.185 972.865 407.783" stroke="url(#paint12_linear_10302_23555)"/>
<path id="Vector 1686_2" d="M194.85 1012.36C217.592 980.095 274.17 913.93 318.539 907.359C374.002 899.146 434.998 796.89 449.79 770.507C464.581 744.125 593.65 526.865 761.53 485.597C929.41 444.329 898.239 462.433 962.06 396.031" stroke="url(#paint13_linear_10302_23555)"/>
<path id="Vector 1687_2" d="M184.045 1000.6C206.788 968.341 263.365 902.176 307.735 895.605C363.197 887.392 424.194 785.136 438.985 758.753C453.776 732.371 582.846 515.111 750.725 473.843C918.605 432.575 887.435 450.68 951.256 384.277" stroke="url(#paint14_linear_10302_23555)"/>
<path id="Vector 1688_2" d="M173.241 988.849C195.983 956.587 252.56 890.422 296.93 883.852C352.392 875.638 413.389 773.382 428.18 747C442.971 720.617 572.041 503.357 739.921 462.089C907.8 420.821 876.63 438.926 940.451 372.523" stroke="url(#paint15_linear_10302_23555)"/>
<path id="Vector 1689_2" d="M162.436 977.097C185.178 944.835 241.756 878.67 286.125 872.1C341.588 863.887 402.584 761.63 417.376 735.248C432.167 708.865 561.236 491.606 729.116 450.337C896.996 409.069 865.825 427.174 929.646 360.771" stroke="url(#paint16_linear_10302_23555)"/>
<path id="Vector 1690_2" d="M151.633 965.343C174.376 933.081 230.953 866.916 275.323 860.346C330.785 852.133 391.782 749.876 406.573 723.494C421.364 697.111 550.433 479.852 718.313 438.583C886.193 397.315 855.023 415.42 918.843 349.017" stroke="url(#paint17_linear_10302_23555)"/>
<path id="Vector 1691_2" d="M140.828 953.589C163.571 921.328 220.148 855.162 264.518 848.592C319.98 840.379 380.977 738.122 395.768 711.74C410.559 685.357 539.628 468.098 707.508 426.83C875.388 385.561 844.218 403.666 908.038 337.263" stroke="url(#paint18_linear_10302_23555)"/>
<path id="Vector 1692_2" d="M130.024 941.835C152.766 909.574 209.344 843.408 253.713 836.838C309.175 828.625 370.172 726.369 384.963 699.986C399.755 673.603 528.824 456.344 696.704 415.076C864.583 373.807 833.413 391.912 897.234 325.509" stroke="url(#paint19_linear_10302_23555)"/>
<path id="Vector 1693_2" d="M119.22 930.083C141.962 897.822 198.539 831.656 242.909 825.086C298.371 816.873 359.368 714.617 374.159 688.234C388.95 661.851 518.02 444.592 685.9 403.324C853.779 362.056 822.609 380.16 886.43 313.757" stroke="url(#paint20_linear_10302_23555)"/>
<path id="Vector 1694_2" d="M108.407 918.339C131.149 886.078 187.726 819.912 232.096 813.342C287.558 805.129 348.555 702.872 363.346 676.49C378.137 650.107 507.207 432.848 675.087 391.58C842.966 350.311 811.796 368.416 875.617 302.013" stroke="url(#paint21_linear_10302_23555)"/>
<path id="Vector 1695_2" d="M97.6021 906.585C120.345 874.324 176.922 808.158 221.292 801.588C276.754 793.375 337.751 691.119 352.542 664.736C367.333 638.353 496.402 421.094 664.282 379.826C832.162 338.557 800.992 356.662 864.812 290.259" stroke="url(#paint22_linear_10302_23555)"/>
<path id="Vector 1696_2" d="M86.7979 894.833C109.54 862.572 166.118 796.406 210.487 789.836C265.95 781.623 326.946 679.367 341.738 652.984C356.529 626.601 485.598 409.342 653.478 368.074C821.358 326.806 790.187 344.91 854.008 278.507" stroke="url(#paint23_linear_10302_23555)"/>
<path id="Vector 1697_2" d="M75.9934 883.083C98.7359 850.822 155.313 784.656 199.683 778.086C255.145 769.873 316.142 667.617 330.933 641.234C345.724 614.851 474.794 397.592 642.673 356.324C810.553 315.056 779.383 333.16 843.204 266.757" stroke="url(#paint24_linear_10302_23555)"/>
<path id="Vector 1698_2" d="M65.189 871.327C87.9314 839.066 144.509 772.901 188.879 766.33C244.341 758.117 305.338 655.861 320.129 629.478C334.92 603.095 463.989 385.836 631.869 344.568C799.749 303.3 768.579 321.404 832.399 255.001" stroke="url(#paint25_linear_10302_23555)"/>
<path id="Vector 1699_2" d="M54.3846 859.577C77.127 827.316 133.704 761.151 178.074 754.58C233.536 746.367 294.533 644.111 309.324 617.728C324.115 591.345 453.185 374.086 621.065 332.818C788.944 291.55 757.774 309.654 821.595 243.251" stroke="url(#paint26_linear_10302_23555)"/>
<path id="Vector 1700_2" d="M43.5804 847.821C66.3228 815.56 122.9 749.395 167.27 742.824C222.732 734.611 283.729 632.355 298.52 605.972C313.311 579.59 442.381 362.33 610.26 321.062C778.14 279.794 746.97 297.898 810.791 231.495" stroke="url(#paint27_linear_10302_23555)"/>
<path id="Vector 1701_2" d="M32.7759 836.068C55.5184 803.806 112.096 737.641 156.465 731.07C211.928 722.857 272.924 620.601 287.716 594.219C302.507 567.836 431.576 350.576 599.456 309.308C767.336 268.04 736.165 286.145 799.986 219.742" stroke="url(#paint28_linear_10302_23555)"/>
<path id="Vector 1702_2" d="M21.9712 824.316C44.7137 792.054 101.291 725.889 145.661 719.319C201.123 711.105 262.12 608.849 276.911 582.467C291.702 556.084 420.772 338.824 588.651 297.556C756.531 256.288 725.361 274.393 789.181 207.99" stroke="url(#paint29_linear_10302_23555)"/>
<path id="Vector 1703_2" d="M11.167 812.562C33.9095 780.3 90.4868 714.135 134.857 707.565C190.319 699.352 251.316 597.095 266.107 570.713C280.898 544.33 409.967 327.071 577.847 285.802C745.727 244.534 714.557 262.639 778.377 196.236" stroke="url(#paint30_linear_10302_23555)"/>
<path id="Vector 1704_2" d="M0.362582 800.806C23.105 768.545 79.6824 702.379 124.052 695.809C179.514 687.596 240.511 585.339 255.302 558.957C270.093 532.574 399.163 315.315 567.043 274.047C734.922 232.778 703.752 250.883 767.573 184.48" stroke="url(#paint31_linear_10302_23555)"/>
</g>
<defs>
<linearGradient id="paint0_linear_10302_23555" x1="667.001" y1="27.6223" x2="948.613" y2="441.54" gradientUnits="userSpaceOnUse">
<stop stop-color="#00E2E2"/>
<stop offset="1" stop-color="#00969E"/>
</linearGradient>
<linearGradient id="paint1_linear_10302_23555" x1="677.408" y1="39.7278" x2="959.02" y2="453.645" gradientUnits="userSpaceOnUse">
<stop stop-color="#00E2E2"/>
<stop offset="1" stop-color="#00969E"/>
</linearGradient>
<linearGradient id="paint2_linear_10302_23555" x1="687.815" y1="51.8372" x2="969.427" y2="465.754" gradientUnits="userSpaceOnUse">
<stop stop-color="#00E2E2"/>
<stop offset="1" stop-color="#00969E"/>
</linearGradient>
<linearGradient id="paint3_linear_10302_23555" x1="698.222" y1="63.9466" x2="979.834" y2="477.864" gradientUnits="userSpaceOnUse">
<stop stop-color="#00E2E2"/>
<stop offset="1" stop-color="#00969E"/>
</linearGradient>
<linearGradient id="paint4_linear_10302_23555" x1="708.629" y1="76.052" x2="990.241" y2="489.969" gradientUnits="userSpaceOnUse">
<stop stop-color="#00E2E2"/>
<stop offset="1" stop-color="#00969E"/>
</linearGradient>
<linearGradient id="paint5_linear_10302_23555" x1="719.036" y1="88.1614" x2="1000.65" y2="502.079" gradientUnits="userSpaceOnUse">
<stop stop-color="#00E2E2"/>
<stop offset="1" stop-color="#00969E"/>
</linearGradient>
<linearGradient id="paint6_linear_10302_23555" x1="729.443" y1="100.269" x2="1011.06" y2="514.186" gradientUnits="userSpaceOnUse">
<stop stop-color="#00E2E2"/>
<stop offset="1" stop-color="#00969E"/>
</linearGradient>
<linearGradient id="paint7_linear_10302_23555" x1="739.842" y1="112.378" x2="1021.45" y2="526.295" gradientUnits="userSpaceOnUse">
<stop stop-color="#00E2E2"/>
<stop offset="1" stop-color="#00969E"/>
</linearGradient>
<linearGradient id="paint8_linear_10302_23555" x1="750.249" y1="124.488" x2="1031.86" y2="538.405" gradientUnits="userSpaceOnUse">
<stop stop-color="#00E2E2"/>
<stop offset="1" stop-color="#00969E"/>
</linearGradient>
<linearGradient id="paint9_linear_10302_23555" x1="760.656" y1="136.595" x2="1042.27" y2="550.512" gradientUnits="userSpaceOnUse">
<stop stop-color="#00E2E2"/>
<stop offset="1" stop-color="#00969E"/>
</linearGradient>
<linearGradient id="paint10_linear_10302_23555" x1="771.063" y1="148.704" x2="1052.68" y2="562.622" gradientUnits="userSpaceOnUse">
<stop stop-color="#00E2E2"/>
<stop offset="1" stop-color="#00969E"/>
</linearGradient>
<linearGradient id="paint11_linear_10302_23555" x1="781.47" y1="160.812" x2="1063.08" y2="574.729" gradientUnits="userSpaceOnUse">
<stop stop-color="#00E2E2"/>
<stop offset="1" stop-color="#00969E"/>
</linearGradient>
<linearGradient id="paint12_linear_10302_23555" x1="373.789" y1="1186.37" x2="78.4857" y2="782.11" gradientUnits="userSpaceOnUse">
<stop stop-color="#00E2E2"/>
<stop offset="1" stop-color="#00969E"/>
</linearGradient>
<linearGradient id="paint13_linear_10302_23555" x1="362.984" y1="1174.62" x2="67.6808" y2="770.358" gradientUnits="userSpaceOnUse">
<stop stop-color="#00E2E2"/>
<stop offset="1" stop-color="#00969E"/>
</linearGradient>
<linearGradient id="paint14_linear_10302_23555" x1="352.18" y1="1162.87" x2="56.8763" y2="758.604" gradientUnits="userSpaceOnUse">
<stop stop-color="#00E2E2"/>
<stop offset="1" stop-color="#00969E"/>
</linearGradient>
<linearGradient id="paint15_linear_10302_23555" x1="341.375" y1="1151.11" x2="46.0714" y2="746.85" gradientUnits="userSpaceOnUse">
<stop stop-color="#00E2E2"/>
<stop offset="1" stop-color="#00969E"/>
</linearGradient>
<linearGradient id="paint16_linear_10302_23555" x1="330.57" y1="1139.36" x2="35.2667" y2="735.098" gradientUnits="userSpaceOnUse">
<stop stop-color="#00E2E2"/>
<stop offset="1" stop-color="#00969E"/>
</linearGradient>
<linearGradient id="paint17_linear_10302_23555" x1="319.768" y1="1127.61" x2="24.464" y2="723.344" gradientUnits="userSpaceOnUse">
<stop stop-color="#00E2E2"/>
<stop offset="1" stop-color="#00969E"/>
</linearGradient>
<linearGradient id="paint18_linear_10302_23555" x1="308.963" y1="1115.85" x2="13.659" y2="711.59" gradientUnits="userSpaceOnUse">
<stop stop-color="#00E2E2"/>
<stop offset="1" stop-color="#00969E"/>
</linearGradient>
<linearGradient id="paint19_linear_10302_23555" x1="298.158" y1="1104.1" x2="2.85458" y2="699.837" gradientUnits="userSpaceOnUse">
<stop stop-color="#00E2E2"/>
<stop offset="1" stop-color="#00969E"/>
</linearGradient>
<linearGradient id="paint20_linear_10302_23555" x1="287.354" y1="1092.35" x2="-7.94962" y2="688.085" gradientUnits="userSpaceOnUse">
<stop stop-color="#00E2E2"/>
<stop offset="1" stop-color="#00969E"/>
</linearGradient>
<linearGradient id="paint21_linear_10302_23555" x1="276.541" y1="1080.6" x2="-18.7626" y2="676.34" gradientUnits="userSpaceOnUse">
<stop stop-color="#00E2E2"/>
<stop offset="1" stop-color="#00969E"/>
</linearGradient>
<linearGradient id="paint22_linear_10302_23555" x1="265.737" y1="1068.85" x2="-29.5671" y2="664.587" gradientUnits="userSpaceOnUse">
<stop stop-color="#00E2E2"/>
<stop offset="1" stop-color="#00969E"/>
</linearGradient>
<linearGradient id="paint23_linear_10302_23555" x1="254.932" y1="1057.1" x2="-40.3713" y2="652.835" gradientUnits="userSpaceOnUse">
<stop stop-color="#00E2E2"/>
<stop offset="1" stop-color="#00969E"/>
</linearGradient>
<linearGradient id="paint24_linear_10302_23555" x1="244.128" y1="1045.35" x2="-51.1757" y2="641.085" gradientUnits="userSpaceOnUse">
<stop stop-color="#00E2E2"/>
<stop offset="1" stop-color="#00969E"/>
</linearGradient>
<linearGradient id="paint25_linear_10302_23555" x1="233.324" y1="1033.59" x2="-61.9801" y2="629.329" gradientUnits="userSpaceOnUse">
<stop stop-color="#00E2E2"/>
<stop offset="1" stop-color="#00969E"/>
</linearGradient>
<linearGradient id="paint26_linear_10302_23555" x1="222.519" y1="1021.84" x2="-72.7846" y2="617.579" gradientUnits="userSpaceOnUse">
<stop stop-color="#00E2E2"/>
<stop offset="1" stop-color="#00969E"/>
</linearGradient>
<linearGradient id="paint27_linear_10302_23555" x1="211.715" y1="1010.09" x2="-83.5888" y2="605.823" gradientUnits="userSpaceOnUse">
<stop stop-color="#00E2E2"/>
<stop offset="1" stop-color="#00969E"/>
</linearGradient>
<linearGradient id="paint28_linear_10302_23555" x1="200.91" y1="998.332" x2="-94.3932" y2="594.069" gradientUnits="userSpaceOnUse">
<stop stop-color="#00E2E2"/>
<stop offset="1" stop-color="#00969E"/>
</linearGradient>
<linearGradient id="paint29_linear_10302_23555" x1="190.106" y1="986.58" x2="-105.198" y2="582.317" gradientUnits="userSpaceOnUse">
<stop stop-color="#00E2E2"/>
<stop offset="1" stop-color="#00969E"/>
</linearGradient>
<linearGradient id="paint30_linear_10302_23555" x1="179.302" y1="974.826" x2="-116.002" y2="570.563" gradientUnits="userSpaceOnUse">
<stop stop-color="#00E2E2"/>
<stop offset="1" stop-color="#00969E"/>
</linearGradient>
<linearGradient id="paint31_linear_10302_23555" x1="168.497" y1="963.07" x2="-126.807" y2="558.807" gradientUnits="userSpaceOnUse">
<stop stop-color="#00E2E2"/>
<stop offset="1" stop-color="#00969E"/>
</linearGradient>
</defs>
</svg>
