<svg preserveAspectRatio="none" width="100%" height="100%" overflow="visible" style="display: block;" viewBox="0 0 20.1493 20" fill="none" xmlns="http://www.w3.org/2000/svg">
<g id="icon">
<path id="Vector" d="M5.93904 8.36285H1.73667C1.63033 8.89414 1.57519 9.44117 1.57519 10C1.57519 11.0154 1.75636 11.9874 2.09113 12.8886H5.90754C5.78544 11.4601 5.79726 9.94097 5.93904 8.36285ZM2.87096 14.4628C3.83589 15.9858 5.28132 17.1862 6.99062 17.8473C6.59283 16.7965 6.29351 15.6631 6.09658 14.4628H2.87096ZM11.0158 1.62929C10.7086 1.59387 10.3935 1.57813 10.0784 1.57813C9.69243 1.57813 9.31039 1.60567 8.94018 1.6529C8.81021 2.03464 8.12885 4.06927 7.71924 6.78867H12.5951C12.1146 4.34082 11.3505 2.41244 11.0158 1.62929V1.62929ZM14.1941 6.78867H17.9318C17.0102 4.58088 15.1669 2.84141 12.8787 2.04644C13.2922 3.14837 13.8239 4.79733 14.1862 6.75325C14.1902 6.76506 14.1941 6.77686 14.1941 6.78867V6.78867ZM2.21717 6.78867H6.12415C6.41166 4.76585 6.8449 3.10115 7.14028 2.09367C4.91504 2.90831 3.12302 4.62023 2.21717 6.78867ZM18.4162 8.36285H14.4344C14.6155 9.88194 14.6431 11.3538 14.5171 12.747L14.5053 12.8886H18.0617C18.3965 11.9874 18.5777 11.0154 18.5777 10C18.5777 9.44117 18.5225 8.89414 18.4162 8.36285V8.36285ZM8.91655 18.3432C9.29464 18.3943 9.68455 18.4219 10.0784 18.4219C10.4604 18.4219 10.8385 18.3943 11.2087 18.3471C11.9295 17.0917 12.3903 15.7733 12.666 14.4628H7.69955C7.93192 15.7812 8.31789 17.0996 8.91655 18.3432ZM7.52232 8.36285C7.39235 9.72452 7.34509 11.279 7.49081 12.8886H12.9141C13.0874 11.283 13.0205 9.72846 12.8472 8.36285H7.52232ZM13.2371 17.8198C14.9149 17.1507 16.3288 15.9662 17.2819 14.4628H14.2768C14.0523 15.6435 13.7058 16.7651 13.2371 17.8198Z" fill="var(--fill-0, #12141D)"/>
<path id="Vector_2" d="M17.1994 2.92798C15.2971 1.03896 12.7647 0 10.0747 0C7.38468 0 4.85616 1.03896 2.95387 2.92798C1.04764 4.817 0 7.32782 0 10C0 12.6722 1.04764 15.183 2.95387 17.072C4.85616 18.9571 7.38468 20 10.0747 20C12.7647 20 15.2932 18.961 17.1955 17.072C19.1017 15.183 20.1493 12.6722 20.1493 10C20.1493 7.32782 19.1017 4.817 17.1994 2.92798V2.92798ZM17.9359 6.78867H14.1983C14.1943 6.77686 14.1943 6.76505 14.1904 6.75325C13.8281 4.79732 13.2964 3.1523 12.8828 2.04644C15.1711 2.8414 17.0143 4.58087 17.9359 6.78867ZM8.93644 1.65289C9.3106 1.60173 9.6887 1.57812 10.0747 1.57812C10.3937 1.57812 10.7048 1.5978 11.012 1.62928C11.3507 2.41244 12.1109 4.34081 12.5914 6.78867H7.71551C8.12511 4.06533 8.80647 2.0307 8.93644 1.65289ZM1.5754 10C1.5754 9.44117 1.63054 8.89414 1.73688 8.36285H5.93925C5.79353 9.94097 5.78171 11.4601 5.9038 12.8886H2.09134C1.75657 11.9874 1.5754 11.0153 1.5754 10V10ZM2.87116 14.4628H6.10073C6.29765 15.6631 6.59304 16.7965 6.99477 17.8473C5.28152 17.1861 3.83609 15.9858 2.87116 14.4628V14.4628ZM6.12436 6.78867H2.21737C3.12323 4.62023 4.91524 2.9083 7.14049 2.09366C6.8451 3.10114 6.41187 4.76584 6.12436 6.78867ZM11.209 18.3471C10.8387 18.3943 10.4606 18.4219 10.0786 18.4219C9.68476 18.4219 9.29879 18.3943 8.91675 18.3432C8.3181 17.0996 7.93213 15.7812 7.7037 14.4628H12.6701C12.3905 15.7733 11.9258 17.0917 11.209 18.3471ZM12.9143 12.8886H7.49102C7.34529 11.279 7.39255 9.72452 7.52252 8.36285H12.8474C13.0207 9.72845 13.0876 11.283 12.9143 12.8886V12.8886ZM13.2373 17.8198C13.702 16.769 14.0525 15.6474 14.277 14.4628H17.2821C16.3329 15.9662 14.9151 17.1507 13.2373 17.8198ZM14.5055 12.8886L14.5173 12.7469C14.6433 11.3538 14.6158 9.88194 14.4346 8.36285H18.4164C18.5227 8.89414 18.5779 9.44117 18.5779 10C18.5779 11.0153 18.3967 11.9874 18.0619 12.8886H14.5055V12.8886Z" fill="var(--fill-0, white)"/>
</g>
</svg>
