<svg preserveAspectRatio="none" width="100%" height="100%" overflow="visible" style="display: block;" viewBox="0 0 96.3181 15.4" fill="none" xmlns="http://www.w3.org/2000/svg">
<g id="Galaxy Store">
<path d="M22.2516 0.398727H24.2715V11.3885H22.2516V0.398727Z" fill="black"/>
<path d="M0 5.96988C0 2.88113 2.33142 0.400871 5.539 0.400871C7.78161 0.400871 9.54894 1.54438 10.4695 3.17787L8.68748 4.24727C8.01926 3.01465 6.97987 2.36113 5.55401 2.36113C3.53434 2.36113 2.00466 3.99462 2.00466 5.96988C2.00466 7.97455 3.51964 9.57864 5.62812 9.57864C7.24692 9.57864 8.37572 8.65777 8.76159 7.23221H5.30166V5.30166H10.9298V6.10371C10.9298 9.02894 8.86571 11.5392 5.62812 11.5392C2.2423 11.5392 0 8.96953 0 5.96988Z" fill="black"/>
<path d="M11.8525 7.05429C11.8525 4.17316 13.9613 2.52497 16.1592 2.52497C17.3027 2.52497 18.3274 2.99995 18.9512 3.74259V2.7032H20.9558V11.3907H18.9512V10.2616C18.3124 11.0636 17.273 11.5689 16.1295 11.5689C14.0354 11.5689 11.8525 9.8904 11.8525 7.05429ZM19.055 7.02458C19.055 5.55431 17.9412 4.35139 16.4562 4.35139C14.9713 4.35139 13.8278 5.52492 13.8278 7.02458C13.8278 8.53895 14.9713 9.72717 16.4562 9.72717C17.9412 9.72717 19.055 8.52425 19.055 7.02458Z" fill="black"/>
<path d="M25.2938 7.05429C25.2938 4.17316 27.4026 2.52497 29.6005 2.52497C30.744 2.52497 31.7686 2.99995 32.3925 3.74259V2.7032H34.3971V11.3907H32.3925V10.2616C31.7539 11.0636 30.7146 11.5689 29.5707 11.5689C27.477 11.5689 25.2938 9.8904 25.2938 7.05429ZM32.4966 7.02458C32.4966 5.55431 31.3828 4.35139 29.8981 4.35139C28.4128 4.35139 27.2693 5.52492 27.2693 7.02458C27.2693 8.53895 28.4128 9.72717 29.8981 9.72717C31.3825 9.72717 32.4966 8.52425 32.4966 7.02458Z" fill="black"/>
<path d="M38.3048 6.96517L35.1566 2.7032H37.6072L39.5818 5.4652L41.5424 2.7032H43.9182L40.7994 6.99488L44.1261 11.3907H41.6759L39.5524 8.49485L37.488 11.3907H35.0375L38.3048 6.96517Z" fill="black"/>
<path d="M47.8846 10.9598L44.3206 2.70289H46.4588L48.8796 8.55396L51.1663 2.70289H53.2757L48.0926 15.4H46.0582L47.8846 10.9598Z" fill="black"/>
<path d="M57.3907 9.59365L59.2321 8.13839C59.7818 9.07396 60.6283 9.60835 61.608 9.60835C62.6777 9.60835 63.2568 8.91103 63.2568 8.15309C63.2568 7.23252 62.158 6.95047 60.9995 6.59401C59.5442 6.13342 57.9257 5.56932 57.9257 3.50494C57.9257 1.76763 59.4404 0.401178 61.5188 0.401178C63.2718 0.401178 64.2815 1.0697 65.1576 1.97557L63.4944 3.23759C63.0338 2.55467 62.3953 2.19821 61.5342 2.19821C60.5542 2.19821 60.0195 2.73291 60.0195 3.43052C60.0195 4.29198 61.0592 4.57434 62.2324 4.96051C63.7027 5.43549 65.3655 6.08901 65.3655 8.16809C65.3655 9.8757 63.9994 11.5395 61.6233 11.5395C59.6627 11.5392 58.3707 10.7071 57.3907 9.59365Z" fill="black"/>
<path d="M65.53 2.70289H67.015V1.38115L69.0349 0V2.70289H70.8023V4.49992H69.0349V7.75191C69.0349 9.26689 69.2429 9.50453 70.8023 9.50453V11.3904H70.5199C67.8323 11.3904 67.0153 10.5292 67.0153 7.76722V4.49992H65.5303L65.53 2.70289Z" fill="black"/>
<path d="M71.3376 7.05429C71.3376 4.52963 73.3272 2.52466 75.8369 2.52466C78.3315 2.52466 80.3365 4.52963 80.3365 7.05429C80.3365 9.56394 78.3315 11.5689 75.8369 11.5689C73.3272 11.5689 71.3376 9.56394 71.3376 7.05429ZM78.3616 7.05429C78.3616 5.59903 77.2474 4.41081 75.8369 4.41081C74.3963 4.41081 73.3122 5.59903 73.3122 7.05429C73.3122 8.49485 74.3963 9.68276 75.8369 9.68276C77.2474 9.68276 78.3616 8.49485 78.3616 7.05429Z" fill="black"/>
<path d="M83.3527 2.70289V3.99493C83.7536 3.13347 84.4812 2.70289 85.58 2.70289C86.2038 2.70289 86.7232 2.85142 87.1097 3.07406L86.352 4.9749C86.055 4.78197 85.7135 4.63344 85.1491 4.63344C83.9909 4.63344 83.3671 5.25726 83.3671 6.75693V11.3904H81.3624V2.70289H83.3527Z" fill="black"/>
<path d="M87.3335 7.06899C87.3335 4.52963 89.3082 2.52466 91.8478 2.52466C94.4319 2.52466 96.3181 4.42551 96.3181 6.99488V7.75191H89.2494C89.5167 8.97014 90.4967 9.80159 91.9226 9.80159C93.0364 9.80159 93.9125 9.19278 94.3281 8.27191L95.9766 9.22218C95.2193 10.6186 93.8528 11.5686 91.9226 11.5686C89.19 11.5686 87.3335 9.57864 87.3335 7.06899ZM89.3532 6.07401H94.2837C93.9866 4.9158 93.0958 4.29198 91.8482 4.29198C90.6449 4.29198 89.7097 5.01962 89.3532 6.07401Z" fill="black"/>
</g>
</svg>
