<svg preserveAspectRatio="none" width="100%" height="100%" overflow="visible" style="display: block;" viewBox="0 0 55.4886 7.084" fill="none" xmlns="http://www.w3.org/2000/svg">
<g id="Available on">
<path d="M4.1952 5.5752H1.3984L0.8832 7.0012H0L2.3184 0.6256H3.2844L5.5936 7.0012H4.7104L4.1952 5.5752ZM3.956 4.8944L2.7968 1.656L1.6376 4.8944H3.956Z" fill="var(--fill-0, white)"/>
<path d="M7.92882 6.2284L9.49282 1.9596H10.3852L8.40722 7.0012H7.43202L5.45402 1.9596H6.35562L7.92882 6.2284Z" fill="var(--fill-0, white)"/>
<path d="M10.9882 4.462C10.9882 3.9468 11.0925 3.496 11.3011 3.1096C11.5096 2.71707 11.7948 2.41347 12.1566 2.1988C12.5246 1.98413 12.9325 1.8768 13.3802 1.8768C13.8219 1.8768 14.2052 1.97187 14.5302 2.162C14.8553 2.35213 15.0976 2.59133 15.257 2.8796V1.9596H16.1035V7.0012H15.257V6.0628C15.0914 6.3572 14.8431 6.60253 14.5119 6.7988C14.1868 6.98893 13.8065 7.084 13.371 7.084C12.9233 7.084 12.5185 6.9736 12.1566 6.7528C11.7948 6.532 11.5096 6.22227 11.3011 5.8236C11.0925 5.42493 10.9882 4.97107 10.9882 4.462ZM15.257 4.4712C15.257 4.09093 15.1804 3.75973 15.0271 3.4776C14.8737 3.19547 14.6652 2.9808 14.4015 2.8336C14.1438 2.68027 13.8586 2.6036 13.5458 2.6036C13.233 2.6036 12.9478 2.6772 12.6902 2.8244C12.4326 2.9716 12.2272 3.18627 12.0738 3.4684C11.9205 3.75053 11.8439 4.08173 11.8439 4.462C11.8439 4.8484 11.9205 5.18573 12.0738 5.474C12.2272 5.75613 12.4326 5.97387 12.6902 6.1272C12.9478 6.2744 13.233 6.348 13.5458 6.348C13.8586 6.348 14.1438 6.2744 14.4015 6.1272C14.6652 5.97387 14.8737 5.75613 15.0271 5.474C15.1804 5.18573 15.257 4.85147 15.257 4.4712Z" fill="var(--fill-0, white)"/>
<path d="M17.7666 1.1408C17.6072 1.1408 17.4722 1.0856 17.3618 0.9752C17.2514 0.8648 17.1962 0.729867 17.1962 0.5704C17.1962 0.410933 17.2514 0.276 17.3618 0.1656C17.4722 0.0552 17.6072 0 17.7666 0C17.92 0 18.0488 0.0552 18.153 0.1656C18.2634 0.276 18.3186 0.410933 18.3186 0.5704C18.3186 0.729867 18.2634 0.8648 18.153 0.9752C18.0488 1.0856 17.92 1.1408 17.7666 1.1408ZM18.1714 1.9596V7.0012H17.3342V1.9596H18.1714Z" fill="var(--fill-0, white)"/>
<path d="M20.2515 0.1932V7.0012H19.4143V0.1932H20.2515Z" fill="var(--fill-0, white)"/>
<path d="M21.3656 4.462C21.3656 3.9468 21.4698 3.496 21.6784 3.1096C21.8869 2.71707 22.1721 2.41347 22.534 2.1988C22.902 1.98413 23.3098 1.8768 23.7576 1.8768C24.1992 1.8768 24.5825 1.97187 24.9076 2.162C25.2326 2.35213 25.4749 2.59133 25.6344 2.8796V1.9596H26.4808V7.0012H25.6344V6.0628C25.4688 6.3572 25.2204 6.60253 24.8892 6.7988C24.5641 6.98893 24.1838 7.084 23.7484 7.084C23.3006 7.084 22.8958 6.9736 22.534 6.7528C22.1721 6.532 21.8869 6.22227 21.6784 5.8236C21.4698 5.42493 21.3656 4.97107 21.3656 4.462ZM25.6344 4.4712C25.6344 4.09093 25.5577 3.75973 25.4044 3.4776C25.251 3.19547 25.0425 2.9808 24.7788 2.8336C24.5212 2.68027 24.236 2.6036 23.9232 2.6036C23.6104 2.6036 23.3252 2.6772 23.0676 2.8244C22.81 2.9716 22.6045 3.18627 22.4512 3.4684C22.2978 3.75053 22.2212 4.08173 22.2212 4.462C22.2212 4.8484 22.2978 5.18573 22.4512 5.474C22.6045 5.75613 22.81 5.97387 23.0676 6.1272C23.3252 6.2744 23.6104 6.348 23.9232 6.348C24.236 6.348 24.5212 6.2744 24.7788 6.1272C25.0425 5.97387 25.251 5.75613 25.4044 5.474C25.5577 5.18573 25.6344 4.85147 25.6344 4.4712Z" fill="var(--fill-0, white)"/>
<path d="M28.8248 2.898C28.9965 2.59747 29.248 2.35213 29.5792 2.162C29.9104 1.97187 30.2876 1.8768 30.7108 1.8768C31.1646 1.8768 31.5725 1.98413 31.9344 2.1988C32.2962 2.41347 32.5814 2.71707 32.79 3.1096C32.9985 3.496 33.1027 3.9468 33.1027 4.462C33.1027 4.97107 32.9985 5.42493 32.79 5.8236C32.5814 6.22227 32.2931 6.532 31.9251 6.7528C31.5633 6.9736 31.1585 7.084 30.7108 7.084C30.2753 7.084 29.892 6.98893 29.5608 6.7988C29.2357 6.60867 28.9904 6.3664 28.8248 6.072V7.0012H27.9876V0.1932H28.8248V2.898ZM32.2472 4.462C32.2472 4.08173 32.1705 3.75053 32.0172 3.4684C31.8638 3.18627 31.6553 2.9716 31.3916 2.8244C31.134 2.6772 30.8487 2.6036 30.5359 2.6036C30.2293 2.6036 29.9441 2.68027 29.6804 2.8336C29.4228 2.9808 29.2142 3.19853 29.0548 3.4868C28.9014 3.76893 28.8248 4.09707 28.8248 4.4712C28.8248 4.85147 28.9014 5.18573 29.0548 5.474C29.2142 5.75613 29.4228 5.97387 29.6804 6.1272C29.9441 6.2744 30.2293 6.348 30.5359 6.348C30.8487 6.348 31.134 6.2744 31.3916 6.1272C31.6553 5.97387 31.8638 5.75613 32.0172 5.474C32.1705 5.18573 32.2472 4.8484 32.2472 4.462Z" fill="var(--fill-0, white)"/>
<path d="M35.0419 0.1932V7.0012H34.2047V0.1932H35.0419Z" fill="var(--fill-0, white)"/>
<path d="M41.1608 4.2872C41.1608 4.44667 41.1516 4.61533 41.1332 4.7932H37.1036C37.1343 5.29 37.3029 5.67947 37.6096 5.9616C37.9224 6.2376 38.2996 6.3756 38.7412 6.3756C39.1031 6.3756 39.4036 6.2928 39.6428 6.1272C39.8881 5.95547 40.0599 5.72853 40.158 5.4464H41.0596C40.9247 5.93093 40.6548 6.32653 40.25 6.6332C39.8452 6.93373 39.3423 7.084 38.7412 7.084C38.2628 7.084 37.8335 6.97667 37.4532 6.762C37.0791 6.54733 36.7847 6.24373 36.57 5.8512C36.3553 5.45253 36.248 4.99253 36.248 4.4712C36.248 3.94987 36.3523 3.49293 36.5608 3.1004C36.7693 2.70787 37.0607 2.40733 37.4348 2.1988C37.8151 1.98413 38.2505 1.8768 38.7412 1.8768C39.2196 1.8768 39.6428 1.98107 40.0108 2.1896C40.3788 2.39813 40.6609 2.6864 40.8572 3.0544C41.0596 3.41627 41.1608 3.8272 41.1608 4.2872ZM40.296 4.1124C40.296 3.79347 40.2255 3.52053 40.0844 3.2936C39.9433 3.06053 39.7501 2.88573 39.5048 2.7692C39.2656 2.64653 38.9988 2.5852 38.7044 2.5852C38.2812 2.5852 37.9193 2.72013 37.6188 2.99C37.3244 3.25987 37.1557 3.634 37.1128 4.1124H40.296Z" fill="var(--fill-0, white)"/>
<path d="M47.1014 7.084C46.6291 7.084 46.1998 6.97667 45.8134 6.762C45.4331 6.54733 45.1326 6.24373 44.9118 5.8512C44.6971 5.45253 44.5898 4.99253 44.5898 4.4712C44.5898 3.956 44.7002 3.50213 44.921 3.1096C45.1479 2.71093 45.4546 2.40733 45.841 2.1988C46.2274 1.98413 46.6598 1.8768 47.1382 1.8768C47.6166 1.8768 48.049 1.98413 48.4354 2.1988C48.8218 2.40733 49.1254 2.70787 49.3462 3.1004C49.5731 3.49293 49.6866 3.94987 49.6866 4.4712C49.6866 4.99253 49.5701 5.45253 49.337 5.8512C49.1101 6.24373 48.8003 6.54733 48.4078 6.762C48.0153 6.97667 47.5798 7.084 47.1014 7.084ZM47.1014 6.348C47.4019 6.348 47.6841 6.27747 47.9478 6.1364C48.2115 5.99533 48.4231 5.78373 48.5826 5.5016C48.7482 5.21947 48.831 4.876 48.831 4.4712C48.831 4.0664 48.7513 3.72293 48.5918 3.4408C48.4323 3.15867 48.2238 2.95013 47.9662 2.8152C47.7086 2.67413 47.4295 2.6036 47.129 2.6036C46.8223 2.6036 46.5402 2.67413 46.2826 2.8152C46.0311 2.95013 45.8287 3.15867 45.6754 3.4408C45.5221 3.72293 45.4454 4.0664 45.4454 4.4712C45.4454 4.88213 45.519 5.22867 45.6662 5.5108C45.8195 5.79293 46.0219 6.00453 46.2734 6.1456C46.5249 6.28053 46.8009 6.348 47.1014 6.348Z" fill="var(--fill-0, white)"/>
<path d="M53.4278 1.8676C54.0411 1.8676 54.5379 2.05467 54.9182 2.4288C55.2984 2.7968 55.4886 3.3304 55.4886 4.0296V7.0012H54.6606V4.1492C54.6606 3.64627 54.5348 3.26293 54.2834 2.9992C54.0319 2.72933 53.6884 2.5944 53.253 2.5944C52.8114 2.5944 52.4587 2.7324 52.195 3.0084C51.9374 3.2844 51.8086 3.68613 51.8086 4.2136V7.0012H50.9714V1.9596H51.8086V2.6772C51.9742 2.4196 52.198 2.22027 52.4802 2.0792C52.7684 1.93813 53.0843 1.8676 53.4278 1.8676Z" fill="var(--fill-0, white)"/>
</g>
</svg>
