<svg preserveAspectRatio="none" width="100%" height="100%" overflow="visible" style="display: block;" viewBox="0 0 25.3986 28.2922" fill="none" xmlns="http://www.w3.org/2000/svg">
<g id="Google Play logo">
<path id="Subtract" d="M18.4121 19.0486L2.79492 27.9236C2.0736 28.3326 1.4146 28.3892 0.917969 28.153L14.2158 14.8523L18.4121 19.0486ZM13.5088 14.1452L0.224609 27.4323C0.0807437 27.1299 4.82749e-05 26.7535 0 26.3103V1.98215C1.52311e-05 1.53994 0.0809551 1.16368 0.224609 0.861054L13.5088 14.1452ZM24.2461 12.5583C25.7828 13.4317 25.7828 14.8616 24.2461 15.7361L19.3145 18.5368L14.9229 14.1452L19.3125 9.75461L24.2461 12.5583ZM0.916992 0.139374C1.4137 -0.0972849 2.07333 -0.0401924 2.79492 0.369843L18.4102 9.24289L14.2158 13.4382L0.916992 0.139374Z" fill="var(--fill-0, black)"/>
</g>
</svg>
