<svg preserveAspectRatio="none" width="100%" height="100%" overflow="visible" style="display: block;" viewBox="0 0 62.594 32.001" fill="none" xmlns="http://www.w3.org/2000/svg">
<path id="Vector" d="M5.296 25.071C3.493 25.128 1.69 24.733 0 24.001L0.45 20.621C1.9195 21.3569 3.53953 21.7423 5.183 21.747C6.253 21.747 6.93 21.409 6.93 20.733C6.93 18.874 0.282 19.325 0.282 14.536C0.282 11.437 3.099 9.86 6.648 9.86C8.282 9.916 9.916 10.198 11.437 10.762L10.987 14.085C9.60303 13.5381 8.1353 13.2333 6.648 13.184C5.803 13.184 5.071 13.466 5.071 14.029C5.071 15.832 11.888 15.494 11.888 20.169C11.888 23.325 9.127 25.128 5.296 25.071ZM23.719 24.79V16.451C23.719 14.535 22.874 13.634 21.296 13.634C20.564 13.634 19.776 13.803 19.156 14.197V24.791H14.198V10.367L19.043 9.973L18.93 12.339H19.1C19.6739 11.566 20.4217 10.9388 21.2828 10.5082C22.1439 10.0775 23.0942 9.85548 24.057 9.86C26.592 9.86 28.79 11.437 28.79 15.1V24.79H23.719ZM40.677 10.198H45.579L39.832 24.677C38.142 29.015 35.663 32.001 32.001 32.001C30.874 32.001 29.804 31.776 28.79 31.269L30.705 28.226C30.987 28.283 31.325 28.283 31.607 28.283C33.297 28.283 34.537 26.649 35.381 24.733L29.409 10.198H34.931L37.071 16.677C37.41 17.86 37.635 19.043 37.804 20.283C38.029 19.1 38.254 17.916 38.593 16.79L40.677 10.198ZM56.397 24.79L52.452 17.916H52.058V24.79H47.1V7.72L52.058 0V15.945C53.016 14.761 56.34 10.198 56.34 10.198H62.425L56.622 16.283L62.594 24.79H56.397Z" fill="var(--fill-0, #1D1D20)"/>
</svg>
