<svg preserveAspectRatio="none" width="100%" height="100%" overflow="visible" style="display: block;" viewBox="0 0 139.633 32" fill="none" xmlns="http://www.w3.org/2000/svg">
<path id="Vector" d="M73.4339 19.333C69.9009 19.333 67.1009 22.067 67.1009 25.667C67.1009 29.267 69.9679 32 73.4339 32C76.9669 32 79.7679 29.2 79.7679 25.667C79.7679 22.067 76.9679 19.333 73.4339 19.333ZM73.4339 21.867C75.5669 21.867 77.1669 23.467 77.1669 25.667C77.1669 27.867 75.5009 29.467 73.4339 29.467C71.3009 29.467 69.7009 27.867 69.7009 25.667C69.6339 23.467 71.3009 21.867 73.4339 21.867ZM126.167 27.933V22.133H129.167V19.6H126.167V16.2L123.567 17V19.6H121.367V22.133H123.567V27.933C123.567 31.067 125.167 32.2 129.167 31.667V29.333C127.167 29.467 126.167 29.467 126.167 27.933ZM139.633 29.267H133.7L139.633 22.133V19.733H130.434V22.133H136.367L130.434 29.267V31.733H139.633V29.267ZM87.1009 19.467V22.267C85.3669 22.133 83.3669 22.933 83.3669 25.667V31.733H80.7669V19.667H83.3669V21.667C84.1009 20.067 85.5669 19.467 87.1009 19.467ZM93.3669 19.333C89.8339 19.333 87.0339 22.067 87.0339 25.667C87.0339 29.267 89.9009 32 93.3669 32C96.9009 32 99.7009 29.2 99.7009 25.667C99.7669 22.067 96.9669 19.333 93.3669 19.333ZM93.3669 21.867C95.5009 21.867 97.1009 23.467 97.1009 25.667C97.1009 27.867 95.4339 29.467 93.3669 29.467C91.2339 29.467 89.6339 27.867 89.6339 25.667C89.6339 23.467 91.3009 21.867 93.3669 21.867ZM116.9 19.667L113.1 31.733H110.567L108.034 23.6L105.501 31.733H102.967L99.1669 19.667H101.901L104.234 28L106.767 19.667H109.234L111.767 28L114.1 19.667H116.9ZM120.367 19.667H117.767V31.733H120.367V19.667ZM35.7669 0.8V5.8C34.7669 5.067 33.3679 4.467 32.0349 4.467C28.3009 4.467 25.3009 7.733 25.7009 11.533C26.0349 14.467 28.4349 16.867 31.3679 17.2C33.0349 17.333 34.5679 16.867 35.7679 16V16.933H38.4349V0L35.7669 0.8ZM35.7009 10.867C35.702 11.4239 35.5771 11.9738 35.3355 12.4756C35.0939 12.9773 34.7418 13.4178 34.3057 13.7642C33.8696 14.1105 33.3608 14.3537 32.8174 14.4754C32.2739 14.5971 31.71 14.5942 31.1679 14.467C29.7679 14.2 28.6349 13.067 28.3009 11.6C27.8349 9.2 29.7009 7.067 32.0349 7.067C34.0349 7.067 35.7009 8.733 35.7009 10.867ZM10.0349 4.867V5.667C9.03486 4.933 7.70186 4.467 6.36786 4.467C2.63586 4.467 -0.364143 7.733 0.0358569 11.533C0.368857 14.467 2.76886 16.867 5.70286 17.2C7.36886 17.333 8.90286 16.867 10.1029 16V16.933H12.7689V4.867H10.0349ZM10.0349 10.867C10.036 11.4239 9.91108 11.9738 9.66947 12.4756C9.42785 12.9773 9.07581 13.4178 8.63971 13.7642C8.20362 14.1105 7.69479 14.3537 7.15137 14.4754C6.60794 14.5971 6.04402 14.5942 5.50186 14.467C4.10186 14.2 2.96786 13.067 2.63486 11.6C2.16786 9.2 4.03486 7.067 6.36786 7.067C8.36786 7.067 10.0349 8.733 10.0349 10.867ZM20.1009 4.533C18.4349 4.533 17.1679 5.133 16.3679 6.4V4.8H13.7679V16.867H16.3679V10.4C16.3679 7.933 17.7019 6.933 19.4349 6.933C21.1009 6.933 22.1009 7.867 22.1009 9.733V16.867H24.7009V9.533C24.7679 6.4 22.8349 4.533 20.1009 4.533ZM68.5679 13.333C67.9679 14.2 66.9009 14.8 65.4339 14.8C63.5009 14.8 61.9679 13.867 61.5679 11.933H71.1679C71.2339 11.6 71.2339 11.2 71.2339 10.867C71.2339 7.4 68.7679 4.533 65.1679 4.533C61.3679 4.533 58.8339 7.333 58.8339 10.867C58.8339 14.467 61.4339 17.2 65.3679 17.2C67.7009 17.2 69.5679 16.2 70.6339 14.6L68.5679 13.333ZM65.2339 6.933C66.8339 6.933 68.3009 7.8 68.7009 9.867H61.5679C61.9679 8.067 63.3009 6.933 65.2339 6.933ZM98.3669 14.867C99.8339 14.867 100.901 14.2 101.501 13.4L103.634 14.667C102.501 16.333 100.701 17.267 98.3669 17.267C94.3669 17.267 91.8339 14.533 91.8339 10.933C91.8339 7.333 94.4339 4.6 98.1669 4.6C101.767 4.6 104.234 7.467 104.234 10.933C104.234 11.067 104.234 11.267 104.167 11.467C104.167 11.667 104.101 11.8 104.101 12H94.5009C94.9009 13.867 96.4339 14.867 98.3669 14.867ZM101.567 9.867C101.234 7.8 99.7009 6.933 98.1009 6.933C96.1669 6.933 94.8339 8.067 94.4339 9.867H101.567ZM120.367 16.933H117.767V14.6H120.367V16.933ZM105.501 16.933H108.1V10.467C108.1 8 109.434 7 111.167 7C112.767 7 113.834 8 113.834 9.8V16.867H116.434V9.467C116.434 6.333 114.5 4.533 111.834 4.533C110.167 4.533 108.9 5.133 108.1 6.4V4.867H105.501V16.933ZM74.7009 8.2C74.7009 7.333 75.5009 6.933 76.4339 6.933C77.3669 6.933 78.1669 7.333 78.6339 8.133L80.9009 7C80.0339 5.467 78.4339 4.533 76.4339 4.533C73.9669 4.533 72.0339 5.933 72.0339 8.2C72.0339 10.733 74.1669 11.333 76.0339 11.867H76.1009C76.1669 11.867 76.2339 11.933 76.3009 11.933C77.5679 12.333 78.5009 12.6 78.5009 13.467C78.5009 14.4 77.6339 14.8 76.4339 14.8C75.3009 14.8 74.3669 14.333 73.9009 13.467L71.5679 14.6C72.3679 16.2 74.1009 17.2 76.3679 17.2C78.9679 17.2 81.1009 15.867 81.1009 13.467C81.1009 10.867 78.8339 10.2 77.0339 9.733C75.8339 9.4 74.7009 9.067 74.7009 8.2ZM84.7669 8.2C84.7669 7.333 85.5669 6.933 86.5009 6.933C87.4339 6.933 88.2339 7.333 88.7669 8.2L91.0339 7.067C90.1669 5.533 88.5009 4.6 86.5669 4.6C84.1009 4.6 82.1669 6 82.1669 8.267C82.1669 10.8 84.3009 11.4 86.1669 11.933H86.3669C87.5669 12.333 88.6339 12.667 88.6339 13.533C88.6339 14.467 87.7009 14.867 86.5669 14.867C85.3669 14.867 84.5009 14.4 84.0339 13.533L81.7009 14.667C82.5009 16.267 84.1669 17.267 86.5009 17.267C89.1669 17.267 91.2339 15.933 91.2339 13.533C91.2339 10.933 89.1009 10.333 87.2339 9.8H87.1669C87.0339 9.8 86.9669 9.733 86.8339 9.733C85.7009 9.333 84.7669 9.067 84.7669 8.2ZM45.8339 7.467V4.667C44.3009 4.667 42.8339 5.267 42.1009 6.867V4.867H39.5009V16.933H42.1009V10.867C42.1009 8.133 44.1009 7.333 45.8339 7.467ZM57.7679 14.6V21.2C58.5679 19.933 59.8339 19.333 61.5009 19.333C64.1679 19.333 66.1009 21.133 66.1009 24.267V31.733H63.5009V24.6C63.5009 22.8 62.4339 21.8 60.8339 21.8C59.1009 21.8 57.7679 22.8 57.7679 25.267V31.733H55.1679V16.733C54.3679 17.067 53.5009 17.267 52.5009 17.267C48.5009 17.267 45.9679 14.533 45.9679 10.933C45.9679 7.333 48.5679 4.6 52.3009 4.6C55.9009 4.6 58.3679 7.467 58.3679 10.933C58.3679 11.067 58.3679 11.267 58.3009 11.467C58.3009 11.667 58.2339 11.8 58.2339 12H48.6339C49.0339 13.867 50.5679 14.867 52.5009 14.867C53.6339 14.867 54.5009 14.467 55.1679 13.933C55.3679 13.8 55.5009 13.6 55.6339 13.4L57.7679 14.6ZM55.7009 9.867C55.3009 7.8 53.8339 6.933 52.2339 6.933C50.3009 6.933 48.9679 8.067 48.6339 9.867H55.7009Z" fill="var(--fill-0, #1D1D20)"/>
</svg>
