<svg preserveAspectRatio="none" width="100%" height="100%" overflow="visible" style="display: block;" viewBox="0 0 40 40" fill="none" xmlns="http://www.w3.org/2000/svg">
<g id="tabler:table-spark">
<path id="Vector" d="M20 35H8.33333C7.44928 35 6.60143 34.6488 5.97631 34.0237C5.35119 33.3986 5 32.5507 5 31.6667V8.33333C5 7.44928 5.35119 6.60143 5.97631 5.97631C6.60143 5.35119 7.44928 5 8.33333 5H31.6667C32.5507 5 33.3986 5.35119 34.0237 5.97631C34.6488 6.60143 35 7.44928 35 8.33333V20M5 16.6667H35M16.6667 5V35M31.6667 37.5C32.0089 36.0854 32.7344 34.7926 33.7635 33.7635C34.7926 32.7344 36.0854 32.0089 37.5 31.6667C36.0854 31.3245 34.7926 30.599 33.7635 29.5699C32.7344 28.5408 32.0089 27.2479 31.6667 25.8333C31.3245 27.2479 30.599 28.5408 29.5699 29.5699C28.5408 30.599 27.2479 31.3245 25.8333 31.6667C27.2479 32.0089 28.5408 32.7344 29.5699 33.7635C30.599 34.7926 31.3245 36.0854 31.6667 37.5Z" stroke="url(#paint0_linear_10285_21616)" stroke-width="3" stroke-linecap="round" stroke-linejoin="round"/>
</g>
<defs>
<linearGradient id="paint0_linear_10285_21616" x1="21.25" y1="5" x2="21.25" y2="37.5" gradientUnits="userSpaceOnUse">
<stop stop-color="white"/>
<stop offset="1" stop-color="white" stop-opacity="0.5"/>
</linearGradient>
</defs>
</svg>
