<svg preserveAspectRatio="none" width="100%" height="100%" overflow="visible" style="display: block;" viewBox="0 0 40 40" fill="none" xmlns="http://www.w3.org/2000/svg">
<g id="maki:warehouse">
<path id="Vector" d="M36 13.3333C35.7968 13.3342 35.5962 13.2886 35.4133 13.2L20 5.33333L4.58667 13.1467C4.2578 13.3023 3.88059 13.3208 3.53802 13.1983C3.19546 13.0758 2.91559 12.8222 2.76 12.4933C2.60441 12.1645 2.58583 11.7873 2.70835 11.4447C2.83088 11.1021 3.08446 10.8223 3.41333 10.6667L20 2.45333L36.5867 10.6667C36.9363 10.7483 37.2397 10.9645 37.4311 11.2682C37.6226 11.572 37.6866 11.9389 37.6095 12.2896C37.5324 12.6402 37.3202 12.9464 37.0189 13.1417C36.7177 13.3371 36.3516 13.4059 36 13.3333ZM13.3333 26.6667H5.33333V34.6667H13.3333V26.6667ZM24 26.6667H16V34.6667H24V26.6667ZM34.6667 26.6667H26.6667V34.6667H34.6667V26.6667ZM29.3333 16H21.3333V24H29.3333V16ZM18.6667 16H10.6667V24H18.6667V16Z" fill="url(#paint0_radial_10285_21607)"/>
</g>
<defs>
<radialGradient id="paint0_radial_10285_21607" cx="0" cy="0" r="1" gradientUnits="userSpaceOnUse" gradientTransform="translate(20.1348 18.56) rotate(132.633) scale(22.3461 24.2883)">
<stop stop-color="white"/>
<stop offset="1" stop-color="white" stop-opacity="0.7"/>
</radialGradient>
</defs>
</svg>
