<svg preserveAspectRatio="none" width="100%" height="100%" overflow="visible" style="display: block;" viewBox="0 0 25.3333 25.3333" fill="none" xmlns="http://www.w3.org/2000/svg">
<g id="App Gallery icon">
<path d="M11.0522 14.6922H12.0682L11.5586 13.5071L11.0522 14.6922Z" fill="var(--fill-0, white)"/>
<path fill-rule="evenodd" clip-rule="evenodd" d="M18.2059 0H7.12746C1.90879 0 0 1.9088 0 7.12749V18.2061C0 23.4246 1.90879 25.3333 7.12746 25.3333H18.2024C23.4211 25.3333 25.3333 23.4246 25.3333 18.2061V7.12749C25.3333 1.9088 23.4245 0 18.2059 0ZM10.8021 15.2896L10.5008 15.9792H9.81464L11.2738 12.6689H11.8666L13.32 15.9792H12.6154L12.3178 15.2896H10.8021ZM21.8429 15.9769H22.5061V12.6689H21.8429V15.9769ZM19.2037 14.5554H20.4258V13.9526H19.2037V13.2745H20.9778V12.6709H18.5408V15.9789H21.0418V15.3755H19.2037V14.5554ZM16.5688 14.9463L15.8168 12.6687H15.2685L14.5165 14.9463L13.7848 12.6703H13.0696L14.224 15.9807H14.7802L15.5333 13.8062L16.2861 15.9807H16.8474L17.9989 12.6703H17.3021L16.5688 14.9463ZM8.80237 14.5646C8.80237 15.1031 8.53491 15.3908 8.04931 15.3908C7.56105 15.3908 7.29224 15.095 7.29224 14.5417V12.6707H6.62024V14.5646C6.62024 15.4963 7.13784 16.0305 8.04024 16.0305C8.95144 16.0305 9.47411 15.4861 9.47411 14.5372V12.6687H8.80237V14.5646ZM5.01678 12.6689H5.68851V15.9809H5.01678V14.636H3.49917V15.9809H2.82718V12.6689H3.49917V14.005H5.01678V12.6689ZM8.44986 4.23494C8.44986 6.56001 10.3416 8.45176 12.6667 8.45176C14.9917 8.45176 16.8835 6.56001 16.8835 4.23494H16.2877C16.2877 6.23158 14.6635 7.85606 12.6667 7.85606C10.6699 7.85606 9.04559 6.23158 9.04559 4.23494H8.44986Z" fill="var(--fill-0, white)"/>
</g>
</svg>
