<svg preserveAspectRatio="none" width="100%" height="100%" overflow="visible" style="display: block;" viewBox="0 0 60.9533 6.20011" fill="none" xmlns="http://www.w3.org/2000/svg">
<g id="Explore it on">
<path d="M0 0.0834742H3.55413L3.45413 0.941873H1.0416V2.60427H3.31654V3.40854H1.0416V5.25014H3.5832L3.49573 6.11678H0V0.0834742Z" fill="black"/>
<path d="M6.00399 3.03761L4.12905 0.0834742H5.31226L6.58319 2.25441L7.92079 0.0834742H9.07066L7.21226 3.00001L9.2248 6.11678H8.0248L6.58745 3.74187L5.1248 6.11678H3.97493L6.00399 3.03761Z" fill="black"/>
<path d="M12.604 2.77707C12.8261 2.57601 12.9373 2.29174 12.9373 1.92507C12.9373 1.55281 12.824 1.28507 12.5978 1.12107C12.3714 0.957072 12.0387 0.875206 11.6 0.875206H11.0333V3.01681C11.2944 3.05841 11.4944 3.07921 11.6333 3.07921C12.0581 3.07921 12.3819 2.97867 12.604 2.77707ZM9.99146 0.0834742H11.6165C12.3803 0.0834742 12.9651 0.239208 13.3707 0.550141C13.7763 0.861341 13.9789 1.31121 13.9789 1.90001C13.9789 2.30001 13.888 2.64961 13.7061 2.94801C13.524 3.24667 13.2706 3.47601 12.9456 3.63547C12.6208 3.79547 12.2469 3.87521 11.8248 3.87521C11.5944 3.87521 11.3304 3.84747 11.0333 3.79174V6.11678H9.99146V0.0834742Z" fill="black"/>
<path d="M15.0083 0.0834742H16.0499V5.22507H18.5456L18.4581 6.11678H15.0083V0.0834742Z" fill="black"/>
<path d="M22.829 5.08133C23.1208 4.8856 23.3387 4.61627 23.4832 4.27307C23.6277 3.93013 23.7 3.5376 23.7 3.096C23.7 2.66267 23.636 2.2768 23.5082 1.9376C23.3802 1.59866 23.1762 1.3288 22.8957 1.1272C22.6152 0.925867 22.2541 0.825065 21.8123 0.825065C21.3901 0.825065 21.0317 0.927198 20.7373 1.13146C20.4429 1.33546 20.2221 1.60933 20.0749 1.95227C19.9277 2.29547 19.8541 2.67386 19.8541 3.08773C19.8541 3.52373 19.9234 3.91413 20.0624 4.2584C20.201 4.60293 20.4136 4.8752 20.7 5.0752C20.9859 5.2752 21.34 5.3752 21.7624 5.3752C22.1818 5.3752 22.5373 5.27706 22.829 5.08133ZM20.129 5.82107C19.6874 5.56827 19.3499 5.21333 19.1165 4.75627C18.8832 4.29947 18.7667 3.76827 18.7667 3.16267C18.7667 2.52667 18.8907 1.9704 19.1395 1.49387C19.388 1.0176 19.7464 0.6496 20.2144 0.3896C20.6824 0.130133 21.2344 0 21.8707 0C22.4789 0 23.0026 0.125867 23.4416 0.377067C23.8802 0.6288 24.2152 0.982131 24.4456 1.4376C24.6762 1.89333 24.7914 2.42106 24.7914 3.02106C24.7914 3.66826 24.6659 4.23093 24.4144 4.70853C24.1629 5.18613 23.8048 5.5544 23.3395 5.81253C22.8741 6.07093 22.3277 6.20011 21.7 6.20011C21.0944 6.20011 20.5706 6.07387 20.129 5.82107Z" fill="black"/>
<path d="M27.5875 2.93761C27.84 2.93761 28.0637 2.88854 28.2581 2.78961C28.4525 2.69121 28.604 2.55227 28.7123 2.37307C28.8208 2.19387 28.8749 1.98614 28.8749 1.75014C28.8749 1.44747 28.779 1.22587 28.5875 1.08561C28.3958 0.94534 28.1165 0.875206 27.7499 0.875206H26.9957V2.93761H27.5875ZM25.9542 0.0834742H27.8416C28.5304 0.0834742 29.052 0.221073 29.4062 0.496007C29.7603 0.77094 29.9374 1.16427 29.9374 1.67521C29.9374 1.99467 29.8733 2.27601 29.7456 2.51894C29.6179 2.76214 29.4595 2.96001 29.2707 3.11254C29.0816 3.26534 28.8875 3.37921 28.6875 3.45441L30.5416 6.11678H29.3333L27.7624 3.72507H26.9957V6.11678H25.9542V0.0834742Z" fill="black"/>
<path d="M31.3667 0.0834742H34.9208L34.8208 0.941873H32.4082V2.60427H34.6832V3.40854H32.4082V5.25014H34.9499L34.8624 6.11678H31.3667V0.0834742Z" fill="black"/>
<path d="M38.7875 0.0834742H39.8291V6.11678H38.7875V0.0834742Z" fill="black"/>
<path d="M42.5832 0.954405H40.7123L40.804 0.0834742H45.5L45.404 0.954405H43.6248V6.11678H42.5832V0.954405Z" fill="black"/>
<path d="M52.7208 5.08133C53.0123 4.8856 53.2304 4.61627 53.3749 4.27307C53.5192 3.93013 53.5915 3.5376 53.5915 3.096C53.5915 2.66267 53.5275 2.2768 53.4 1.9376C53.272 1.59866 53.0677 1.3288 52.7875 1.1272C52.5067 0.925867 52.1456 0.825065 51.704 0.825065C51.2816 0.825065 50.9235 0.927198 50.6291 1.13146C50.3344 1.33546 50.1136 1.60933 49.9667 1.95227C49.8192 2.29547 49.7456 2.67386 49.7456 3.08773C49.7456 3.52373 49.8149 3.91413 49.9541 4.2584C50.0928 4.60293 50.3053 4.8752 50.5915 5.0752C50.8776 5.2752 51.2317 5.3752 51.6541 5.3752C52.0733 5.3752 52.4291 5.27706 52.7208 5.08133ZM50.0208 5.82107C49.5789 5.56827 49.2416 5.21333 49.0083 4.75627C48.7749 4.29947 48.6581 3.76827 48.6581 3.16267C48.6581 2.52667 48.7824 1.9704 49.0312 1.49387C49.2795 1.0176 49.6379 0.6496 50.1062 0.3896C50.5742 0.130133 51.1261 0 51.7624 0C52.3707 0 52.8941 0.125867 53.3333 0.377067C53.772 0.6288 54.1067 0.982131 54.3373 1.4376C54.5677 1.89333 54.6832 2.42106 54.6832 3.02106C54.6832 3.66826 54.5574 4.23093 54.3062 4.70853C54.0547 5.18613 53.6963 5.5544 53.2312 5.81253C52.7659 6.07093 52.2192 6.20011 51.5915 6.20011C50.9859 6.20011 50.4624 6.07387 50.0208 5.82107Z" fill="black"/>
<path d="M55.8456 0.0834742H57.0416L60.0253 4.75841C59.9987 4.31414 59.988 3.90427 59.988 3.52934V0.0834742H60.9533V6.11678H59.796L56.7667 1.36667C56.7971 1.90587 56.8123 2.38347 56.8123 2.80001V6.11678H55.8456V0.0834742Z" fill="black"/>
</g>
</svg>
