<svg preserveAspectRatio="none" width="100%" height="100%" overflow="visible" style="display: block;" viewBox="0 0 105.95 16.94" fill="none" xmlns="http://www.w3.org/2000/svg">
<g id="Galaxy Store">
<path d="M24.4767 0.4386H26.6987V12.5274H24.4767V0.4386Z" fill="white"/>
<path d="M0 6.56687C0 3.16924 2.56456 0.440958 6.0929 0.440958C8.55977 0.440958 10.5038 1.69882 11.5165 3.49566L9.55623 4.672C8.82118 3.31611 7.67786 2.59724 6.10941 2.59724C3.88777 2.59724 2.20513 4.39408 2.20513 6.56687C2.20513 8.772 3.87161 10.5365 6.19093 10.5365C7.97161 10.5365 9.2133 9.52355 9.63775 7.95543H5.83183V5.83183H12.0228V6.71408C12.0228 9.93183 9.75228 12.6931 6.19093 12.6931C2.46653 12.6931 0 9.86648 0 6.56687Z" fill="white"/>
<path d="M13.0377 7.75971C13.0377 4.59048 15.3574 2.77746 17.7751 2.77746C19.033 2.77746 20.1601 3.29994 20.8463 4.11684V2.97352H23.0514V12.5297H20.8463V11.2877C20.1436 12.17 19.0003 12.7258 17.7424 12.7258C15.4389 12.7258 13.0377 10.8794 13.0377 7.75971ZM20.9605 7.72704C20.9605 6.10974 19.7353 4.78653 18.1019 4.78653C16.4684 4.78653 15.2105 6.0774 15.2105 7.72704C15.2105 9.39284 16.4684 10.6999 18.1019 10.6999C19.7353 10.6999 20.9605 9.37667 20.9605 7.72704Z" fill="white"/>
<path d="M27.8231 7.75971C27.8231 4.59048 30.1428 2.77746 32.5605 2.77746C33.8184 2.77746 34.9455 3.29994 35.6317 4.11684V2.97352H37.8368V12.5297H35.6317V11.2877C34.9293 12.17 33.786 12.7258 32.5278 12.7258C30.2247 12.7258 27.8231 10.8794 27.8231 7.75971ZM35.7462 7.72704C35.7462 6.10974 34.5211 4.78653 32.8879 4.78653C31.2541 4.78653 29.9963 6.0774 29.9963 7.72704C29.9963 9.39284 31.2541 10.6999 32.8879 10.6999C34.5207 10.6999 35.7462 9.37667 35.7462 7.72704Z" fill="white"/>
<path d="M42.1352 7.66169L38.6723 2.97352H41.3679L43.54 6.01172L45.6966 2.97352H48.31L44.8794 7.69436L48.5387 12.5297H45.8435L43.5076 9.34433L41.2368 12.5297H38.5412L42.1352 7.66169Z" fill="white"/>
<path d="M52.6731 12.0558L48.7526 2.97318H51.1047L53.7676 9.40935L56.283 2.97318H58.6033L52.9018 16.94H50.664L52.6731 12.0558Z" fill="white"/>
<path d="M63.1298 10.553L65.1553 8.95222C65.76 9.98135 66.6911 10.5692 67.7688 10.5692C68.9454 10.5692 69.5825 9.80214 69.5825 8.96839C69.5825 7.95577 68.3738 7.64552 67.0994 7.25341C65.4986 6.74676 63.7183 6.12625 63.7183 3.85544C63.7183 1.94439 65.3844 0.441295 67.6707 0.441295C69.599 0.441295 70.7096 1.17667 71.6734 2.17312L69.8438 3.56135C69.3372 2.81014 68.6348 2.41803 67.6876 2.41803C66.6096 2.41803 66.0214 3.0062 66.0214 3.77358C66.0214 4.72118 67.1651 5.03177 68.4556 5.45656C70.0729 5.97904 71.9021 6.69791 71.9021 8.9849C71.9021 10.8633 70.3993 12.6935 67.7856 12.6935C65.629 12.6931 64.2077 11.7779 63.1298 10.553Z" fill="white"/>
<path d="M72.083 2.97318H73.7165V1.51927L75.9384 0V2.97318H77.8825V4.94991H75.9384V8.5271C75.9384 10.1936 76.1672 10.455 77.8825 10.455V12.5294H77.5719C74.6156 12.5294 73.7168 11.5821 73.7168 8.54394V4.94991H72.0833L72.083 2.97318Z" fill="white"/>
<path d="M78.4713 7.75971C78.4713 4.98259 80.66 2.77713 83.4206 2.77713C86.1647 2.77713 88.3702 4.98259 88.3702 7.75971C88.3702 10.5203 86.1647 12.7258 83.4206 12.7258C80.66 12.7258 78.4713 10.5203 78.4713 7.75971ZM86.1977 7.75971C86.1977 6.15893 84.9722 4.85189 83.4206 4.85189C81.836 4.85189 80.6435 6.15893 80.6435 7.75971C80.6435 9.34433 81.836 10.651 83.4206 10.651C84.9722 10.651 86.1977 9.34433 86.1977 7.75971Z" fill="white"/>
<path d="M91.6879 2.97318V4.39442C92.1289 3.44682 92.9293 2.97318 94.138 2.97318C94.8242 2.97318 95.3955 3.13656 95.8206 3.38146L94.9872 5.47239C94.6605 5.26017 94.2849 5.09679 93.664 5.09679C92.39 5.09679 91.7038 5.78298 91.7038 7.43262V12.5294H89.4987V2.97318H91.6879Z" fill="white"/>
<path d="M96.0669 7.77588C96.0669 4.98259 98.239 2.77713 101.033 2.77713C103.875 2.77713 105.95 4.86805 105.95 7.69436V8.5271H98.1743C98.4684 9.86715 99.5464 10.7817 101.115 10.7817C102.34 10.7817 103.304 10.1121 103.761 9.0991L105.574 10.1444C104.741 11.6805 103.238 12.7255 101.115 12.7255C98.109 12.7255 96.0669 10.5365 96.0669 7.77588ZM98.2885 6.68141H103.712C103.385 5.40738 102.405 4.72118 101.033 4.72118C99.7094 4.72118 98.6806 5.52157 98.2885 6.68141Z" fill="white"/>
</g>
</svg>
