<svg preserveAspectRatio="none" width="100%" height="100%" overflow="visible" style="display: block;" viewBox="0 0 60.2015 13.1699" fill="none" xmlns="http://www.w3.org/2000/svg">
<g id="F-Droid">
<path d="M0 12.9949V11.7121L1.32448 11.4622V2.40739L0 2.15749V0.866328H9.43798V4.0151H7.79695L7.66367 2.49069H3.42366V6.18925H7.7553V7.81361H3.42366V11.4622L4.74814 11.7121V12.9949H0Z" fill="var(--fill-0, black)"/>
<path d="M11.1373 8.64662V7.02226H15.5689V8.64662H11.1373Z" fill="var(--fill-0, black)"/>
<path d="M17.2433 12.9949V11.7121L18.5761 11.4539V2.42405L17.2433 2.15749V0.866328H22.3246C23.402 0.866328 24.3488 1.12178 25.1652 1.6327C25.9815 2.14361 26.6174 2.84611 27.0728 3.74021C27.5281 4.6343 27.7558 5.6589 27.7558 6.814V7.05558C27.7558 8.19402 27.5309 9.21307 27.0811 10.1127C26.6368 11.0068 26.0121 11.7121 25.2068 12.2286C24.4016 12.7395 23.4603 12.9949 22.3829 12.9949H17.2433ZM20.6753 11.3789H22.2746C22.9855 11.3789 23.5908 11.1901 24.0906 10.8124C24.5959 10.4293 24.9819 9.91279 25.2485 9.26305C25.515 8.60775 25.6483 7.87192 25.6483 7.05558V6.80567C25.6483 5.97267 25.515 5.23129 25.2485 4.58154C24.9819 3.9318 24.5959 3.42089 24.0906 3.04881C23.5908 2.67673 22.9855 2.49069 22.2746 2.49069H20.6753V11.3789Z" fill="var(--fill-0, black)"/>
<path d="M29.0053 12.9949V11.7121L30.2465 11.4622V5.52284L28.9304 5.27294V3.98178H32.1791L32.2874 5.11467L32.304 5.29793C32.7872 4.30943 33.4869 3.81518 34.4032 3.81518C34.7475 3.81518 35.0557 3.8596 35.3279 3.94846L35.0863 5.88937L33.9117 5.82272C33.5286 5.80051 33.212 5.87548 32.9621 6.04764C32.7122 6.21979 32.5067 6.45859 32.3457 6.76402V11.4622L33.5952 11.7121V12.9949H29.0053Z" fill="var(--fill-0, black)"/>
<path d="M40.2176 13.1699C39.3513 13.1699 38.6071 12.9755 37.9852 12.5867C37.3632 12.1925 36.8856 11.651 36.5524 10.9624C36.2192 10.2738 36.0526 9.47963 36.0526 8.57998V8.40505C36.0526 7.51095 36.2192 6.7196 36.5524 6.03098C36.8856 5.34236 37.3632 4.8009 37.9852 4.40661C38.6071 4.01232 39.3457 3.81518 40.201 3.81518C41.0673 3.81518 41.8114 4.01232 42.4334 4.40661C43.0554 4.79535 43.533 5.3368 43.8662 6.03098C44.1994 6.7196 44.366 7.51095 44.366 8.40505V8.57998C44.366 9.48518 44.1994 10.2821 43.8662 10.9707C43.533 11.6593 43.0554 12.198 42.4334 12.5867C41.817 12.9755 41.0784 13.1699 40.2176 13.1699ZM40.2176 11.5538C40.9118 11.5538 41.4283 11.2789 41.767 10.7291C42.1058 10.1738 42.2751 9.45741 42.2751 8.57998V8.40505C42.2751 7.54427 42.103 6.83622 41.7587 6.28088C41.4199 5.71999 40.9007 5.43954 40.201 5.43954C39.5068 5.43954 38.9903 5.71999 38.6516 6.28088C38.3184 6.83622 38.1518 7.54427 38.1518 8.40505V8.57998C38.1518 9.45741 38.3184 10.1738 38.6516 10.7291C38.9903 11.2789 39.5123 11.5538 40.2176 11.5538Z" fill="var(--fill-0, black)"/>
<path d="M45.4656 12.9949V11.7121L46.7151 11.4622V5.52284L45.3906 5.27294V3.98178H48.8143V11.4622L50.0554 11.7121V12.9949H45.4656ZM46.6318 1.94091V0H48.8143V1.94091H46.6318Z" fill="var(--fill-0, black)"/>
<path d="M54.512 13.1699C53.7845 13.1699 53.1626 12.9866 52.6461 12.6201C52.1296 12.2535 51.7326 11.7426 51.4549 11.0873C51.1828 10.4265 51.0467 9.65734 51.0467 8.7799V8.60497C51.0467 7.64979 51.1828 6.814 51.4549 6.09762C51.7326 5.37568 52.1296 4.81479 52.6461 4.41494C53.1626 4.0151 53.7818 3.81518 54.5037 3.81518C55.0202 3.81518 55.47 3.91514 55.8532 4.11506C56.2419 4.30943 56.5751 4.58987 56.8528 4.9564V1.54106L55.5283 1.29116V0H58.952V11.4622L60.2015 11.7121V12.9949H57.136L56.9694 11.9037C56.3863 12.7478 55.5672 13.1699 54.512 13.1699ZM55.1035 11.5122C55.5033 11.5122 55.8476 11.4233 56.1364 11.2456C56.4252 11.0679 56.664 10.8152 56.8528 10.4876V6.51412C56.6695 6.18647 56.4307 5.93102 56.1364 5.74775C55.8476 5.56449 55.5089 5.47286 55.1201 5.47286C54.4371 5.47286 53.9373 5.76164 53.6207 6.33919C53.3042 6.91674 53.1459 7.672 53.1459 8.60497V8.7799C53.1459 9.61291 53.2986 10.2765 53.604 10.7708C53.915 11.265 54.4148 11.5122 55.1035 11.5122Z" fill="var(--fill-0, black)"/>
</g>
</svg>
