<svg preserveAspectRatio="none" width="100%" height="100%" overflow="visible" style="display: block;" viewBox="0 0 24 24" fill="none" xmlns="http://www.w3.org/2000/svg">
<g id="streamline-flex:call-center-support-service-solid" clip-path="url(#clip0_10273_9180)">
<path id="Vector" fill-rule="evenodd" clip-rule="evenodd" d="M9.84343 1.79143C10.0212 1.28475 10.3522 0.845898 10.7905 0.535678C11.2288 0.225459 11.7527 0.0592235 12.2897 0.06H13.3457C13.9338 0.0579389 14.5046 0.258881 14.9617 0.628898C15.4189 0.998916 15.7343 1.51534 15.8548 2.09097C15.9753 2.6666 15.8934 3.26618 15.6231 3.78847C15.3527 4.31075 14.9104 4.72374 14.3709 4.95771L12.108 5.94686C12.012 5.98846 11.9337 6.0625 11.8869 6.156H14.8303C15.1144 6.156 15.387 6.26888 15.5879 6.46981C15.7888 6.67075 15.9017 6.94327 15.9017 7.22743C15.9017 7.51159 15.7888 7.78411 15.5879 7.98504C15.387 8.18598 15.1144 8.29886 14.8303 8.29886H10.7657C10.6249 8.29908 10.4854 8.27154 10.3552 8.21779C10.225 8.16405 10.1067 8.08516 10.007 7.98565C9.90732 7.88614 9.82824 7.76795 9.77429 7.63784C9.72034 7.50774 9.69257 7.36828 9.69257 7.22743V6.36171C9.69257 5.32971 10.3029 4.39714 11.2474 3.984L13.5103 2.99486C13.5993 2.95838 13.6727 2.89186 13.7178 2.80686C13.7628 2.72187 13.7767 2.62377 13.7569 2.52962C13.7372 2.43547 13.685 2.35123 13.6096 2.29153C13.5341 2.23183 13.4402 2.20046 13.344 2.20286H12.288C12.1941 2.2018 12.1023 2.23039 12.0257 2.28457C11.9491 2.33875 11.8915 2.41574 11.8611 2.50457C11.8179 2.64163 11.7474 2.76857 11.6541 2.87785C11.5607 2.98713 11.4463 3.07651 11.3177 3.14067C11.1891 3.20483 11.0489 3.24245 10.9054 3.2513C10.762 3.26015 10.6182 3.24005 10.4827 3.19219C10.3472 3.14433 10.2226 3.06969 10.1166 2.97272C10.0105 2.87574 9.92499 2.75842 9.86518 2.62772C9.80538 2.49702 9.77248 2.35563 9.76845 2.21196C9.76442 2.06829 9.79105 1.92527 9.84343 1.79143ZM20.3057 0.545143C20.4962 0.328101 20.7484 0.174262 21.0285 0.104116C21.3087 0.0339699 21.6036 0.0508469 21.8739 0.152499C22.1442 0.254151 22.3772 0.435753 22.5417 0.673116C22.7062 0.910479 22.7945 1.19234 22.7949 1.48114V4.63371C23.0681 4.64919 23.325 4.76863 23.513 4.96755C23.701 5.16646 23.8057 5.42976 23.8057 5.70343C23.8057 5.9771 23.701 6.2404 23.513 6.43931C23.325 6.63822 23.0681 6.75767 22.7949 6.77314V7.22743C22.7949 7.51159 22.682 7.78411 22.481 7.98504C22.2801 8.18598 22.0076 8.29886 21.7234 8.29886C21.4393 8.29886 21.1667 8.18598 20.9658 7.98504C20.7649 7.78411 20.652 7.51159 20.652 7.22743V6.77486H18.0291C17.7522 6.77505 17.4812 6.69541 17.2484 6.54547C17.0156 6.39552 16.831 6.18165 16.7166 5.92946C16.6023 5.67727 16.5631 5.39746 16.6037 5.12356C16.6444 4.84966 16.7631 4.59328 16.9457 4.38514L20.3057 0.545143ZM19.5771 4.632L20.652 3.40286V4.632H19.5771ZM1.88914 8.16343C2.85943 6.84 4.67486 6.65143 5.91257 7.72629C6.46114 8.20286 6.99771 8.7 7.524 9.19371C8.244 9.86743 8.32286 11.028 7.67829 11.7754C7.60457 11.8611 7.34571 12.132 7.10057 12.3857L6.70629 12.7989C7.93886 14.8714 9.21771 16.1657 11.328 17.4189C11.4257 17.328 11.58 17.1789 11.7394 17.0246C11.9914 16.7846 12.2589 16.5274 12.3429 16.4554C13.0903 15.8091 14.256 15.888 14.9366 16.6046C15.4611 17.1566 15.9943 17.7189 16.4966 18.3017C17.5269 19.5017 17.316 21.2571 16.0337 22.188C15.8091 22.3526 15.5383 22.5531 15.1886 22.8343C14.2842 23.5504 13.1641 23.9393 12.0105 23.9377C10.857 23.9362 9.73788 23.5442 8.83543 22.8257C6.06134 20.5914 3.53541 18.0655 1.30114 15.2914C0.58263 14.389 0.190703 13.2699 0.189146 12.1164C0.18759 10.9628 0.576497 9.84268 1.29257 8.93829C1.54286 8.62457 1.73314 8.37429 1.88914 8.16343Z" fill="var(--fill-0, white)"/>
</g>
<defs>
<clipPath id="clip0_10273_9180">
<rect width="24" height="24" fill="white"/>
</clipPath>
</defs>
</svg>
