<svg preserveAspectRatio="none" width="100%" height="100%" overflow="visible" style="display: block;" viewBox="0 0 25.3386 24.1667" fill="none" xmlns="http://www.w3.org/2000/svg">
<g id="Group">
<path id="Vector" d="M16.1678 23.1667V17.3333C16.1678 17.0239 16.0448 16.7272 15.826 16.5084C15.6073 16.2896 15.3105 16.1667 15.0011 16.1667H10.3344C10.025 16.1667 9.72825 16.2896 9.50946 16.5084C9.29067 16.7272 9.16775 17.0239 9.16775 17.3333V23.1667M19.4041 10.695C19.1609 10.4622 18.8372 10.3322 18.5005 10.3322C18.1638 10.3322 17.8401 10.4622 17.5969 10.695C17.0544 11.2124 16.3335 11.5011 15.5838 11.5011C14.8341 11.5011 14.1132 11.2124 13.5708 10.695C13.3276 10.4625 13.0042 10.3328 12.6678 10.3328C12.3313 10.3328 12.0079 10.4625 11.7648 10.695C11.2222 11.2128 10.5011 11.5017 9.75109 11.5017C9.00112 11.5017 8.27997 11.2128 7.73742 10.695C7.49421 10.4622 7.17052 10.3322 6.83384 10.3322C6.49715 10.3322 6.17346 10.4622 5.93025 10.695C5.40624 11.195 4.7149 11.4822 3.99082 11.5006C3.26673 11.5191 2.5617 11.2674 2.01294 10.7946C1.46419 10.3218 1.11098 9.66179 1.02207 8.94295C0.933155 8.22411 1.1149 7.49789 1.53192 6.90567L4.90242 2.02433C5.11628 1.70876 5.4042 1.4504 5.74099 1.27183C6.07779 1.09326 6.45321 0.99993 6.83442 1H18.5011C18.8812 0.999854 19.2556 1.09256 19.5917 1.27007C19.9278 1.44757 20.2154 1.7045 20.4296 2.0185L23.8071 6.90917C24.2242 7.50186 24.4057 8.22863 24.3162 8.94784C24.2268 9.66706 23.8727 10.3272 23.3231 10.7996C22.7735 11.2721 22.0677 11.523 21.3432 11.5034C20.6187 11.4838 19.9274 11.1952 19.4041 10.6938" stroke="var(--stroke-0, white)" stroke-width="2" stroke-linecap="round" stroke-linejoin="round"/>
<path id="Vector_2" d="M3.33442 11.4417V20.8333C3.33442 21.4522 3.58025 22.0457 4.01784 22.4832C4.45542 22.9208 5.04891 23.1667 5.66775 23.1667H19.6678C20.2866 23.1667 20.8801 22.9208 21.3177 22.4832C21.7553 22.0457 22.0011 21.4522 22.0011 20.8333V11.4417" stroke="var(--stroke-0, white)" stroke-width="2" stroke-linecap="round" stroke-linejoin="round"/>
</g>
</svg>
