<svg preserveAspectRatio="none" width="100%" height="100%" overflow="visible" style="display: block;" viewBox="0 0 114.781 26.5961" fill="none" xmlns="http://www.w3.org/2000/svg">
<path id="Vector" d="M12.975 7.613C12.468 9.977 10.575 11.658 6.995 11.658C2.855 11.658 0.777 9.009 0.777 5.821C0.777 2.76 2.823 0 7.138 0C10.929 0 12.706 1.967 12.991 3.981H9.343C9.22686 3.49712 8.93535 3.07352 8.52489 2.79219C8.11443 2.51085 7.6142 2.39177 7.121 2.458C5.421 2.458 4.599 3.791 4.599 5.742C4.599 7.518 5.265 9.168 7.137 9.168C7.63359 9.22698 8.13452 9.10105 8.54417 8.81424C8.95383 8.52742 9.24354 8.09981 9.358 7.613H12.975ZM26.995 5.805C26.995 8.946 24.901 11.658 20.523 11.658C16.495 11.658 14.274 9.088 14.274 5.821C14.274 2.744 16.431 0 20.682 0C24.711 0 26.995 2.633 26.995 5.805ZM18.095 5.758C18.095 7.709 18.872 9.136 20.695 9.136C22.583 9.136 23.17 7.502 23.17 5.821C23.17 3.886 22.488 2.458 20.6 2.458C18.81 2.458 18.097 3.933 18.097 5.758H18.095ZM39.445 7.645L39.572 2.427H39.54L37.161 11.405H34.194L32.037 2.396H32.005L32.212 7.773V11.406H28.976V0.254H34.163L35.907 7.376H35.923L37.811 0.254H42.982V11.404H39.445V7.645ZM45.614 0.254H51.879C54.56 0.254 56.434 1.588 56.434 3.888C56.434 6.252 54.673 7.615 51.898 7.615H49.214V11.406H45.614V0.254ZM49.214 5.171H51.324C52.292 5.171 52.863 4.771 52.863 3.918C52.863 3.204 52.435 2.696 51.324 2.696H49.214V5.171ZM58.08 0.254H61.713V8.819H67.693L67.265 11.404H58.08V0.254ZM70.102 11.404V7.534C70.1025 7.3768 70.046 7.22475 69.943 7.106L65.455 0.254H69.706L72.085 4.727C72.624 3.585 73.607 1.936 74.512 0.254H78.412L73.827 7.217C73.7607 7.33195 73.733 7.46514 73.748 7.597V11.404H70.102ZM4.347 24.254L3.633 26.33H0L4.219 15.18H8.946L13.434 26.33H9.549L8.788 24.252L4.347 24.254ZM7.947 21.669L6.519 17.469H6.456C6.218 18.389 5.726 19.975 5.123 21.669H7.947ZM14.639 15.181H20.283C24.311 15.181 26.342 17.639 26.342 20.574C26.342 24.016 23.82 26.332 20.251 26.332H14.639V15.181ZM18.256 23.83H19.826C21.618 23.83 22.526 22.751 22.526 20.658C22.526 18.945 21.812 17.692 19.826 17.676H18.256V23.83ZM31.084 26.33L26.739 15.18H30.688L32.322 20.18C32.728 21.361 33.072 22.563 33.352 23.78H33.384C33.6989 22.5079 34.0801 21.2532 34.526 20.021L36.049 15.183H39.935L35.512 26.33H31.084ZM43.029 24.254L42.317 26.33H38.683L42.902 15.18H47.629L52.117 26.33H48.231L47.47 24.252L43.029 24.254ZM46.629 21.669L45.201 17.469H45.138C44.9 18.389 44.408 19.975 43.805 21.669H46.629ZM53.322 26.33V15.181H57.542L61.571 22.064H61.634C61.523 21.002 61.539 18.987 61.539 17.147V15.181H64.79V26.33H60.809L56.526 18.669H56.479C56.579 19.938 56.59 21.429 56.59 23.618V26.33H53.322ZM70.034 17.75H66.334V15.181H77.311V17.75H73.654V26.33H70.034V17.75ZM80.586 24.254L79.875 26.33H76.242L80.461 15.18H85.188L89.675 26.33H85.789L85.027 24.252L80.586 24.254ZM84.186 21.669L82.758 17.469H82.695C82.457 18.389 81.965 19.975 81.363 21.669H84.186ZM102.219 26.331H99.729C99.6321 25.9977 99.5579 25.6583 99.507 25.315C98.793 26.108 97.857 26.584 95.807 26.584C95.0425 26.6355 94.2758 26.5225 93.5586 26.2527C92.8415 25.9829 92.1904 25.5626 91.6494 25.02C91.1083 24.4774 90.6898 23.8252 90.422 23.1073C90.1542 22.3893 90.0434 21.6224 90.097 20.858C90.097 17.686 92.112 14.926 96.505 14.926C100.042 14.926 101.898 16.718 102.231 18.59H98.606C98.4576 18.1646 98.166 17.804 97.7811 17.5698C97.3963 17.3356 96.942 17.2424 96.496 17.306C94.609 17.306 93.927 18.861 93.927 20.669C93.927 22.636 94.704 24.142 96.576 24.142C98.162 24.142 98.733 23.242 98.733 22.382V22.27H96.544V19.828H102.222L102.219 26.331ZM114.083 21.89H108.119V23.762H114.781L114.368 26.33H104.548V15.181H114.398V17.75H108.117V19.305H114.081L114.083 21.89Z" fill="var(--fill-0, #1D1D20)"/>
</svg>
