<svg preserveAspectRatio="none" width="100%" height="100%" overflow="visible" style="display: block;" viewBox="0 0 139.376 31.9142" fill="none" xmlns="http://www.w3.org/2000/svg">
<path id="Vector" d="M48.024 11.0481C48.024 10.3821 47.51 9.83612 46.792 9.83612C46.072 9.83612 45.559 10.3821 45.559 11.0481V20.8811C45.559 21.5471 46.073 22.0931 46.792 22.0931C47.528 22.0931 48.024 21.5471 48.024 20.8811V11.0481ZM60.16 9.83612C59.442 9.83612 58.945 10.3821 58.945 11.0481V15.2481L59.014 19.0031L57.524 15.4861L55.574 11.4921C54.974 10.2461 54.29 9.83612 53.314 9.83612C51.876 9.83612 51.243 10.7411 51.243 12.0381V20.8811C51.243 21.5471 51.739 22.0931 52.458 22.0931C53.177 22.0931 53.673 21.5471 53.673 20.8811L53.656 16.7331L53.605 12.4821L55.197 16.3741L57.165 20.4371C57.782 21.7351 58.432 22.1101 59.425 22.1101C60.709 22.1101 61.376 21.3251 61.376 19.8741V11.0481C61.376 10.3821 60.879 9.83612 60.16 9.83612ZM70.465 12.3461L73.255 12.4131C73.906 12.4301 74.42 11.9351 74.42 11.2181C74.42 10.5011 73.906 10.0061 73.256 10.0061L65.176 9.98912C64.543 9.98912 64.012 10.4841 64.012 11.2011C64.012 11.9181 64.542 12.4131 65.176 12.3961L67.983 12.3461V20.8811C67.983 21.5471 68.497 22.0931 69.216 22.0931C69.952 22.0931 70.466 21.5471 70.466 20.8811V12.3451L70.465 12.3461ZM78.734 21.9401H84.742C85.376 21.9401 85.889 21.4621 85.889 20.7961C85.889 20.1131 85.376 19.6361 84.742 19.6361L79.522 19.6521V16.8021H84.041C84.657 16.8021 85.153 16.3401 85.153 15.7091C85.153 15.0591 84.657 14.5991 84.041 14.5991L79.521 14.6331V12.2771H84.742C85.376 12.2771 85.889 11.7991 85.889 11.1171C85.889 10.4331 85.376 9.97312 84.742 9.97312L78.752 9.99012C77.656 9.99012 77.039 10.6041 77.039 11.6971V20.2331C77.039 21.3251 77.656 21.9401 78.734 21.9401ZM95.675 17.0741C97.301 16.6471 98.26 15.3841 98.26 13.7111C98.26 11.8501 97.044 9.98912 94.134 9.98912H90.368C89.273 9.98912 88.657 10.6041 88.657 11.6961V20.8811C88.657 21.5471 89.17 22.0931 89.923 22.0931C90.659 22.0931 91.19 21.5471 91.19 20.8811L91.173 17.6711H93.244L95.35 21.4611C95.692 22.0411 96.41 22.2811 97.079 21.9391C97.746 21.5811 97.934 20.8641 97.575 20.2841L95.675 17.0741ZM91.173 12.2601H94.151C95.161 12.2601 95.795 12.8911 95.795 13.8301C95.795 14.7521 95.195 15.4351 94.185 15.4351H91.173V12.2601ZM105.826 22.1611C108.325 22.1611 109.934 21.0341 110.482 19.2081C110.773 18.1661 110.157 17.4151 109.232 17.4151C108.668 17.4151 108.291 17.7051 108.068 18.3371C107.726 19.2931 106.887 19.8911 105.689 19.8911C103.789 19.8911 102.967 18.6111 102.967 15.9471C102.967 13.3351 103.806 12.0891 105.689 12.0891C106.87 12.0891 107.555 12.5841 107.983 13.7281C108.223 14.3771 108.616 14.6671 109.198 14.6671C110.088 14.6671 110.739 13.9501 110.465 12.9601C109.917 10.9451 108.325 9.81812 105.758 9.81812C102.231 9.81812 100.434 11.9691 100.434 15.9471C100.434 19.9591 102.231 22.1611 105.826 22.1611ZM117.999 22.1271C121.628 22.1271 123.426 19.9081 123.426 15.9471C123.426 11.9531 121.577 9.75012 117.999 9.75012C114.405 9.75012 112.607 11.9871 112.59 15.9471C112.59 19.9251 114.422 22.1271 117.999 22.1271ZM117.999 19.8401C115.98 19.8401 115.107 18.5601 115.107 15.9471C115.107 13.3011 115.997 12.0211 117.982 12.0211C119.985 12.0211 120.927 13.3011 120.909 15.9471C120.909 18.5771 120.019 19.8401 117.999 19.8401ZM139.359 11.9691C139.359 10.6211 138.52 9.81912 137.219 9.81912C136.158 9.81912 135.353 10.3991 134.96 11.7301L133.642 16.0151L132.769 19.1051L131.93 16.0151L130.526 11.7301C130.132 10.4841 129.448 9.81812 128.25 9.81812C126.931 9.81812 126.11 10.6041 126.11 11.9691V20.8811C126.11 21.5471 126.589 22.0931 127.291 22.0931C127.993 22.0931 128.472 21.5471 128.472 20.8811L128.455 16.5791L128.335 11.9691L129.687 16.6811L131.125 20.8461C131.433 21.7681 132.015 22.0761 132.769 22.0761C133.47 22.0761 134.035 21.8201 134.326 20.8811L135.696 16.6811L137.151 11.9351L137.014 16.5791V20.8811C137.014 21.5471 137.51 22.0931 138.195 22.0931C138.897 22.0931 139.376 21.5471 139.376 20.8811L139.359 11.9691ZM27.708 17.5611C27.708 17.8451 27.596 18.1181 27.396 18.3191C27.2975 18.4184 27.1802 18.4973 27.0511 18.5511C26.9219 18.6049 26.7834 18.6326 26.6435 18.6326C26.5036 18.6326 26.3651 18.6049 26.2359 18.5511C26.1068 18.4973 25.9895 18.4184 25.891 18.3191C25.6912 18.1175 25.579 17.845 25.579 17.5611V7.97812C25.579 7.69312 25.691 7.42012 25.891 7.21912C25.9895 7.1198 26.1068 7.04097 26.2359 6.98717C26.3651 6.93337 26.5036 6.90568 26.6435 6.90568C26.7834 6.90568 26.9219 6.93337 27.0511 6.98717C27.1802 7.04097 27.2975 7.1198 27.396 7.21912C27.596 7.42012 27.708 7.69312 27.708 7.97812V17.5611ZM27.338 24.2011C27.198 24.3431 23.24 27.6671 15.983 27.6671C8.726 27.6671 4.794 24.3601 4.627 24.2181C4.46761 24.0832 4.3519 23.9039 4.29458 23.7031C4.23725 23.5022 4.24087 23.2889 4.305 23.0901C4.34707 22.9579 4.41468 22.8353 4.504 22.7291C4.68726 22.516 4.94751 22.3843 5.22774 22.3627C5.50796 22.3412 5.78531 22.4316 5.999 22.6141C6.061 22.6581 9.597 25.5481 15.974 25.5481C22.351 25.5481 25.914 22.6401 25.949 22.6141C26.1647 22.4323 26.4432 22.3425 26.7245 22.364C27.0058 22.3855 27.2674 22.5166 27.453 22.7291C27.6323 22.9407 27.7215 23.2141 27.7017 23.4907C27.6819 23.7674 27.5546 24.0252 27.347 24.2091L27.338 24.2011ZM4.25 7.97812C4.266 7.69212 4.393 7.42512 4.604 7.23412C4.815 7.04312 5.093 6.94412 5.376 6.95812C5.638 6.97312 5.886 7.08612 6.071 7.27412C6.257 7.46212 6.366 7.71312 6.379 7.97812V17.5431C6.379 17.8281 6.266 18.1001 6.067 18.3021C5.96846 18.4014 5.85124 18.4803 5.72209 18.5341C5.59293 18.5879 5.45441 18.6156 5.3145 18.6156C5.17459 18.6156 5.03607 18.5879 4.90691 18.5341C4.77776 18.4803 4.66054 18.4014 4.562 18.3021C4.36191 18.1002 4.24976 17.8274 4.25 17.5431V7.97812ZM9.59 5.85012C9.605 5.56512 9.732 5.29712 9.943 5.10612C10.154 4.91612 10.432 4.81612 10.715 4.83112C10.978 4.84612 11.225 4.95812 11.411 5.14612C11.596 5.33512 11.705 5.58612 11.718 5.85012V20.0341C11.718 20.3191 11.606 20.5921 11.406 20.7931C11.3075 20.8924 11.1902 20.9713 11.0611 21.0251C10.9319 21.0789 10.7934 21.1066 10.6535 21.1066C10.5136 21.1066 10.3751 21.0789 10.2459 21.0251C10.1168 20.9713 9.99954 20.8924 9.901 20.7931C9.70091 20.5912 9.58876 20.3184 9.589 20.0341L9.59 5.85012ZM14.955 5.31812C14.955 5.03412 15.067 4.76112 15.267 4.56012C15.3655 4.4608 15.4828 4.38197 15.6119 4.32817C15.7411 4.27437 15.8796 4.24668 16.0195 4.24668C16.1594 4.24668 16.2979 4.27437 16.4271 4.32817C16.5562 4.38197 16.6735 4.4608 16.772 4.56012C16.972 4.76012 17.083 5.03412 17.083 5.31812V20.7431C17.083 21.0281 16.971 21.3011 16.772 21.5021C16.6734 21.6016 16.5562 21.6806 16.4269 21.7344C16.2977 21.7883 16.159 21.8161 16.019 21.8161C15.879 21.8161 15.7403 21.7883 15.6111 21.7344C15.4818 21.6806 15.3646 21.6016 15.266 21.5021C15.0663 21.3 14.9545 21.0272 14.955 20.7431V5.31812ZM20.232 5.85012C20.232 5.56612 20.345 5.29312 20.544 5.09212C20.6425 4.9928 20.7598 4.91397 20.8889 4.86017C21.0181 4.80637 21.1566 4.77868 21.2965 4.77868C21.4364 4.77868 21.5749 4.80637 21.7041 4.86017C21.8332 4.91397 21.9505 4.9928 22.049 5.09212C22.249 5.29212 22.361 5.56612 22.361 5.85012V20.0341C22.361 20.3191 22.249 20.5921 22.049 20.7931C21.9505 20.8924 21.8332 20.9713 21.7041 21.0251C21.5749 21.0789 21.4364 21.1066 21.2965 21.1066C21.1566 21.1066 21.0181 21.0789 20.8889 21.0251C20.7598 20.9713 20.6425 20.8924 20.544 20.7931C20.3439 20.5912 20.2318 20.3184 20.232 20.0341V5.85012ZM27.999 0.000122852H4.003C3.47931 -0.00400793 2.96002 0.0960698 2.47537 0.294531C1.99072 0.492992 1.55039 0.785872 1.18 1.15612C0.426726 1.90632 0.00227514 2.92501 0 3.98812V27.9241C0.00499981 28.9867 0.429035 30.0044 1.18 30.7561C1.55102 31.1257 1.99143 31.4182 2.4759 31.6169C2.96037 31.8157 3.47936 31.9167 4.003 31.9141H27.998C28.5211 31.9181 29.0398 31.818 29.524 31.6198C30.0081 31.4215 30.448 31.1289 30.818 30.7591C31.5687 30.0098 31.9938 28.9948 32.001 27.9341V3.98812C31.9956 2.92721 31.5724 1.91115 30.823 1.16012C30.453 0.791019 30.0138 0.498559 29.5306 0.299503C29.0474 0.100448 28.5296 -0.00128938 28.007 0.000122852" fill="var(--fill-0, #1D1D20)"/>
</svg>
