<svg preserveAspectRatio="none" width="100%" height="100%" overflow="visible" style="display: block;" viewBox="0 0 25.601 23.1018" fill="none" xmlns="http://www.w3.org/2000/svg">
<path id="Vector" d="M21.365 0.138663C21.2761 0.0498738 21.1556 0 21.03 0C20.9044 0 20.7839 0.0498738 20.695 0.138663L12.801 8.03166H12.691V16.9397L12.801 17.1737L25.601 4.37366L21.365 0.138663ZM0 16.8137C0 17.1297 0.125 17.4297 0.347 17.6517L5.655 22.9607C5.72104 23.0277 5.80559 23.0736 5.89783 23.0923C5.99007 23.111 6.08581 23.1018 6.17278 23.0659C6.25976 23.0299 6.33403 22.9688 6.38609 22.8904C6.43814 22.8119 6.46562 22.7198 6.465 22.6257V10.7387L0.075 4.38466H0.000999928L0 16.8137Z" fill="var(--fill-0, #1D1D20)"/>
</svg>
